  0
SECTION
  2
HEADER
  9
$ACADVER
  1
AC1009
  9
$DWGCODEPAGE
  3
ANSI_1252
  9
$INSBASE
 10
0.0
 20
0.0
 30
0.0
  9
$EXTMIN
 10
-100
 20
-100
 30
-100
  9
$EXTMAX
 10
100
 20
100
 30
100
  9
$LIMMIN
 10
0.0
 20
0.0
  9
$LIMMAX
 10
420.0
 20
297.0
  9
$ORTHOMODE
 70
0
  9
$REGENMODE
 70
1
  9
$DRAGMODE
 70
2
  9
$FILLMODE
 70
1
  9
$QTEXTMODE
 70
0
  9
$MIRRTEXT
 70
1
  9
$OSMODE
 70
20583
  9
$LTSCALE
 40
1.0
  9
$ATTMODE
 70
1
  9
$TEXTSIZE
 40
2.5
  9
$TRACEWID
 40
1.0
  9
$TEXTSTYLE
  7
Standard
  9
$CLAYER
  8
0
  9
$CELTYPE
  6
ByLayer
  9
$CECOLOR
 62
256
  9
$DIMSCALE
 40
1.0
  9
$DIMASZ
 40
2.5
  9
$DIMEXO
 40
0.625
  9
$DIMDLI
 40
3.75
  9
$DIMRND
 40
0.0
  9
$DIMDLE
 40
0.0
  9
$DIMEXE
 40
1.25
  9
$DIMTP
 40
0.0
  9
$DIMTM
 40
0.0
  9
$DIMTXT
 40
2.5
  9
$DIMCEN
 40
2.5
  9
$DIMTSZ
 40
0.0
  9
$DIMTOL
 70
0
  9
$DIMLIM
 70
0
  9
$DIMTIH
 70
0
  9
$DIMTOH
 70
0
  9
$DIMSE1
 70
0
  9
$DIMSE2
 70
0
  9
$DIMTAD
 70
1
  9
$DIMZIN
 70
8
  9
$DIMBLK
  1

  9
$DIMASO
 70
1
  9
$DIMSHO
 70
1
  9
$DIMPOST
  1

  9
$DIMAPOST
  1

  9
$DIMALT
 70
0
  9
$DIMALTD
 70
3
  9
$DIMALTF
 40
0.03937007874
  9
$DIMLFAC
 40
1.0
  9
$DIMTOFL
 70
1
  9
$DIMTVP
 40
0.0
  9
$DIMTIX
 70
0
  9
$DIMSOXD
 70
0
  9
$DIMSAH
 70
0
  9
$DIMBLK1
  1

  9
$DIMBLK2
  1

  9
$DIMSTYLE
  2
ISO-25
  9
$DIMCLRD
 70
0
  9
$DIMCLRE
 70
0
  9
$DIMCLRT
 70
0
  9
$DIMTFAC
 40
1.0
  9
$DIMGAP
 40
0.625
  9
$COORDS
 70
1
  9
$ATTDIA
 70
0
  9
$ATTREQ
 70
1
  9
$HANDLING
 70
1
  9
$LUNITS
 70
2
  9
$LUPREC
 70
4
  9
$SKETCHINC
 40
1.0
  9
$FILLETRAD
 40
10.0
  9
$AUNITS
 70
0
  9
$AUPREC
 70
2
  9
$MENU
  1
.
  9
$ELEVATION
 40
0.0
  9
$PELEVATION
 40
0.0
  9
$THICKNESS
 40
0.0
  9
$LIMCHECK
 70
0
  9
$CHAMFERA
 40
0.0
  9
$CHAMFERB
 40
0.0
  9
$SKPOLY
 70
0
  9
$TDCREATE
 40
2459086.973935185
  9
$TDUPDATE
 40
2459086.973935185
  9
$TDINDWG
 40
0.0
  9
$TDUSRTIMER
 40
0.0
  9
$USRTIMER
 70
1
  9
$ANGBASE
 50
0.0
  9
$ANGDIR
 70
0
  9
$PDMODE
 70
0
  9
$PDSIZE
 40
0.0
  9
$PLINEWID
 40
0.0
  9
$SPLFRAME
 70
0
  9
$SPLINETYPE
 70
6
  9
$SPLINESEGS
 70
8
  9
$HANDSEED
  5
442
  9
$SURFTAB1
 70
6
  9
$SURFTAB2
 70
6
  9
$SURFTYPE
 70
6
  9
$SURFU
 70
6
  9
$SURFV
 70
6
  9
$UCSNAME
  2

  9
$UCSORG
 10
0.0
 20
0.0
 30
0.0
  9
$UCSXDIR
 10
1.0
 20
0.0
 30
0.0
  9
$UCSYDIR
 10
0.0
 20
1.0
 30
0.0
  9
$PUCSNAME
  2

  9
$PUCSORG
 10
0.0
 20
0.0
 30
0.0
  9
$PUCSXDIR
 10
1.0
 20
0.0
 30
0.0
  9
$PUCSYDIR
 10
0.0
 20
1.0
 30
0.0
  9
$USERI1
 70
0
  9
$USERI2
 70
0
  9
$USERI3
 70
0
  9
$USERI4
 70
0
  9
$USERI5
 70
0
  9
$USERR1
 40
0.0
  9
$USERR2
 40
0.0
  9
$USERR3
 40
0.0
  9
$USERR4
 40
0.0
  9
$USERR5
 40
0.0
  9
$WORLDVIEW
 70
1
  9
$SHADEDGE
 70
3
  9
$SHADEDIF
 70
70
  9
$TILEMODE
 70
1
  9
$MAXACTVP
 70
64
  9
$PLIMCHECK
 70
0
  9
$PEXTMIN
 10
1e+20
 20
1e+20
 30
1e+20
  9
$PEXTMAX
 10
-1e+20
 20
-1e+20
 30
-1e+20
  9
$PLIMMIN
 10
0.0
 20
0.0
  9
$PLIMMAX
 10
420.0
 20
297.0
  9
$UNITMODE
 70
0
  9
$VISRETAIN
 70
1
  9
$PLINEGEN
 70
0
  9
$PSLTSCALE
 70
1
  0
ENDSEC
  0
SECTION
  2
TABLES
  0
TABLE
  2
VPORT
 70
1
  0
VPORT
  5
434
  2
*Active
 70
0
 10
0.0
 20
0.0
 11
1.0
 21
1.0
 12
70.0
 22
50.0
 13
0.0
 23
0.0
 14
0.5
 24
0.5
 15
0.5
 25
0.5
 16
0.0
 26
0.0
 36
1.0
 17
0.0
 27
0.0
 37
0.0
 40
1.0
 41
1.34
 42
50.0
 43
0.0
 44
0.0
 50
0.0
 51
0.0
 71
0
 72
1000
 73
1
 74
3
 75
0
 76
0
 77
0
 78
0
  0
ENDTAB
  0
TABLE
  2
LTYPE
 70
3
  0
LTYPE
  5
435
  2
ByBlock
 70
0
  3

 72
65
 73
0
 40
0.0
  0
LTYPE
  5
436
  2
ByLayer
 70
0
  3

 72
65
 73
0
 40
0.0
  0
LTYPE
  5
437
  2
Continuous
 70
0
  3

 72
65
 73
0
 40
0.0
  0
ENDTAB
  0
TABLE
  2
LAYER
 70
2
  0
LAYER
  5
438
  2
0
 70
0
 62
7
  6
Continuous
  0
LAYER
  5
439
  2
Defpoints
 70
0
 62
7
  6
Continuous
  0
ENDTAB
  0
TABLE
  2
STYLE
 70
1
  0
STYLE
  5
43A
  2
Standard
 70
0
 40
0.0
 41
1.0
 50
0.0
 71
0
 42
2.5
  3
txt
  4

  0
ENDTAB
  0
TABLE
  2
VIEW
 70
0
  0
ENDTAB
  0
TABLE
  2
UCS
 70
0
  0
ENDTAB
  0
TABLE
  2
APPID
 70
1
  0
APPID
  5
43B
  2
ACAD
 70
0
  0
ENDTAB
  0
TABLE
  2
DIMSTYLE
 70
1
  0
DIMSTYLE
105
43C
  2
Standard
 70
0
  3

  4

  5

  6

  7

 40
1.0
 41
2.5
 42
0.625
 43
3.75
 44
1.25
 45
0.0
 46
0.0
 47
0.0
 48
0.0
140
2.5
141
2.5
142
0.0
143
0.03937007874
144
1.0
145
0.0
146
1.0
147
0.625
 71
0
 72
0
 73
0
 74
0
 75
0
 76
0
 77
1
 78
8
170
0
171
3
172
1
173
0
174
0
175
0
176
0
177
0
178
0
  0
ENDTAB
  0
ENDSEC
  0
SECTION
  2
BLOCKS
  0
BLOCK
  5
415
  8
0
  2
$Model_Space
 70
0
 10
0.0
 20
0.0
 30
0.0
  3
$Model_Space
  1

  0
ENDBLK
  5
416
  8
0
  0
BLOCK
  5
417
  8
0
  2
$Paper_Space
 70
0
 10
0.0
 20
0.0
 30
0.0
  3
$Paper_Space
  1

  0
ENDBLK
  5
418
  8
0
  0
ENDSEC
  0
SECTION
  2
ENTITIES
  0
LINE
  5
100
  8
0
 10
-0.458328
 20
0.25
 30
0.0
 11
0.00218201
 21
0.249969
 31
0.0
  0
LINE
  5
101
  8
0
 10
0.00218201
 20
0.249969
 30
0.0
 11
0.00817871
 21
0.249863
 31
0.0
  0
LINE
  5
102
  8
0
 10
0.00817871
 20
0.249863
 30
0.0
 11
0.0163422
 21
0.249451
 31
0.0
  0
LINE
  5
103
  8
0
 10
0.0163422
 20
0.249451
 30
0.0
 11
0.0244904
 21
0.248795
 31
0.0
  0
LINE
  5
104
  8
0
 10
0.0244904
 20
0.248795
 30
0.0
 11
0.0326233
 21
0.247849
 31
0.0
  0
LINE
  5
105
  8
0
 10
0.0326233
 20
0.247849
 30
0.0
 11
0.0407104
 21
0.246658
 31
0.0
  0
LINE
  5
106
  8
0
 10
0.0407104
 20
0.246658
 30
0.0
 11
0.0487671
 21
0.245193
 31
0.0
  0
LINE
  5
107
  8
0
 10
0.0487671
 20
0.245193
 30
0.0
 11
0.0567627
 21
0.243469
 31
0.0
  0
LINE
  5
108
  8
0
 10
0.0567627
 20
0.243469
 30
0.0
 11
0.0646973
 21
0.24147
 31
0.0
  0
LINE
  5
109
  8
0
 10
0.0646973
 20
0.24147
 30
0.0
 11
0.0725708
 21
0.239227
 31
0.0
  0
LINE
  5
10A
  8
0
 10
0.0725708
 20
0.239227
 30
0.0
 11
0.0803528
 21
0.236725
 31
0.0
  0
LINE
  5
10B
  8
0
 10
0.0803528
 20
0.236725
 30
0.0
 11
0.0880585
 21
0.233963
 31
0.0
  0
LINE
  5
10C
  8
0
 10
0.0880585
 20
0.233963
 30
0.0
 11
0.0956573
 21
0.230957
 31
0.0
  0
LINE
  5
10D
  8
0
 10
0.0956573
 20
0.230957
 30
0.0
 11
0.103165
 21
0.227707
 31
0.0
  0
LINE
  5
10E
  8
0
 10
0.103165
 20
0.227707
 30
0.0
 11
0.110565
 21
0.224213
 31
0.0
  0
LINE
  5
10F
  8
0
 10
0.110565
 20
0.224213
 30
0.0
 11
0.117844
 21
0.220474
 31
0.0
  0
LINE
  5
110
  8
0
 10
0.117844
 20
0.220474
 30
0.0
 11
0.125
 21
0.216492
 31
0.0
  0
LINE
  5
111
  8
0
 10
0.125
 20
0.216492
 30
0.0
 11
0.132004
 21
0.212296
 31
0.0
  0
LINE
  5
112
  8
0
 10
0.132004
 20
0.212296
 30
0.0
 11
0.138885
 21
0.207855
 31
0.0
  0
LINE
  5
113
  8
0
 10
0.138885
 20
0.207855
 30
0.0
 11
0.145615
 21
0.203201
 31
0.0
  0
LINE
  5
114
  8
0
 10
0.145615
 20
0.203201
 30
0.0
 11
0.152176
 21
0.198334
 31
0.0
  0
LINE
  5
115
  8
0
 10
0.152176
 20
0.198334
 30
0.0
 11
0.158585
 21
0.193253
 31
0.0
  0
LINE
  5
116
  8
0
 10
0.158585
 20
0.193253
 30
0.0
 11
0.165726
 21
0.187164
 31
0.0
  0
LINE
  5
117
  8
0
 10
0.165726
 20
0.187164
 30
0.0
 11
0.1716
 21
0.181793
 31
0.0
  0
LINE
  5
118
  8
0
 10
0.1716
 20
0.181793
 30
0.0
 11
0.175995
 21
0.177551
 31
0.0
  0
LINE
  5
119
  8
0
 10
0.175995
 20
0.177551
 30
0.0
 11
0.177551
 21
0.175995
 31
0.0
  0
LINE
  5
11A
  8
0
 10
0.177551
 20
0.175995
 30
0.0
 11
0.182465
 21
0.170883
 31
0.0
  0
LINE
  5
11B
  8
0
 10
0.182465
 20
0.170883
 30
0.0
 11
0.188614
 21
0.164062
 31
0.0
  0
LINE
  5
11C
  8
0
 10
0.188614
 20
0.164062
 30
0.0
 11
0.193253
 21
0.158585
 31
0.0
  0
LINE
  5
11D
  8
0
 10
0.193253
 20
0.158585
 30
0.0
 11
0.198334
 21
0.152176
 31
0.0
  0
LINE
  5
11E
  8
0
 10
0.198334
 20
0.152176
 30
0.0
 11
0.203201
 21
0.145615
 31
0.0
  0
LINE
  5
11F
  8
0
 10
0.203201
 20
0.145615
 30
0.0
 11
0.207855
 21
0.138885
 31
0.0
  0
LINE
  5
120
  8
0
 10
0.207855
 20
0.138885
 30
0.0
 11
0.212296
 21
0.132004
 31
0.0
  0
LINE
  5
121
  8
0
 10
0.212296
 20
0.132004
 30
0.0
 11
0.216492
 21
0.125
 31
0.0
  0
LINE
  5
122
  8
0
 10
0.216492
 20
0.125
 30
0.0
 11
0.220474
 21
0.117844
 31
0.0
  0
LINE
  5
123
  8
0
 10
0.220474
 20
0.117844
 30
0.0
 11
0.224213
 21
0.110565
 31
0.0
  0
LINE
  5
124
  8
0
 10
0.224213
 20
0.110565
 30
0.0
 11
0.227707
 21
0.103165
 31
0.0
  0
LINE
  5
125
  8
0
 10
0.227707
 20
0.103165
 30
0.0
 11
0.230957
 21
0.0956573
 31
0.0
  0
LINE
  5
126
  8
0
 10
0.230957
 20
0.0956573
 30
0.0
 11
0.233963
 21
0.0880585
 31
0.0
  0
LINE
  5
127
  8
0
 10
0.233963
 20
0.0880585
 30
0.0
 11
0.236725
 21
0.0803528
 31
0.0
  0
LINE
  5
128
  8
0
 10
0.236725
 20
0.0803528
 30
0.0
 11
0.239227
 21
0.0725708
 31
0.0
  0
LINE
  5
129
  8
0
 10
0.239227
 20
0.0725708
 30
0.0
 11
0.24147
 21
0.0646973
 31
0.0
  0
LINE
  5
12A
  8
0
 10
0.24147
 20
0.0646973
 30
0.0
 11
0.243469
 21
0.0567627
 31
0.0
  0
LINE
  5
12B
  8
0
 10
0.243469
 20
0.0567627
 30
0.0
 11
0.245193
 21
0.0487671
 31
0.0
  0
LINE
  5
12C
  8
0
 10
0.245193
 20
0.0487671
 30
0.0
 11
0.246658
 21
0.0407104
 31
0.0
  0
LINE
  5
12D
  8
0
 10
0.246658
 20
0.0407104
 30
0.0
 11
0.247849
 21
0.0326233
 31
0.0
  0
LINE
  5
12E
  8
0
 10
0.247849
 20
0.0326233
 30
0.0
 11
0.248795
 21
0.0244904
 31
0.0
  0
LINE
  5
12F
  8
0
 10
0.248795
 20
0.0244904
 30
0.0
 11
0.249451
 21
0.0163422
 31
0.0
  0
LINE
  5
130
  8
0
 10
0.249451
 20
0.0163422
 30
0.0
 11
0.249863
 21
0.00817871
 31
0.0
  0
LINE
  5
131
  8
0
 10
0.249863
 20
0.00817871
 30
0.0
 11
0.25
 21
0.0
 31
0.0
  0
LINE
  5
132
  8
0
 10
0.25
 20
0.0
 30
0.0
 11
0.25
 21
-0.166656
 31
0.0
  0
LINE
  5
133
  8
0
 10
0.25
 20
-0.166656
 30
0.0
 11
0.250122
 21
-0.174835
 31
0.0
  0
LINE
  5
134
  8
0
 10
0.250122
 20
-0.174835
 30
0.0
 11
0.250534
 21
-0.183014
 31
0.0
  0
LINE
  5
135
  8
0
 10
0.250534
 20
-0.183014
 30
0.0
 11
0.251236
 21
-0.191574
 31
0.0
  0
LINE
  5
136
  8
0
 10
0.251236
 20
-0.191574
 30
0.0
 11
0.252075
 21
-0.198761
 31
0.0
  0
LINE
  5
137
  8
0
 10
0.252075
 20
-0.198761
 30
0.0
 11
0.253387
 21
-0.207748
 31
0.0
  0
LINE
  5
138
  8
0
 10
0.253387
 20
-0.207748
 30
0.0
 11
0.254791
 21
-0.215439
 31
0.0
  0
LINE
  5
139
  8
0
 10
0.254791
 20
-0.215439
 30
0.0
 11
0.256516
 21
-0.223434
 31
0.0
  0
LINE
  5
13A
  8
0
 10
0.256516
 20
-0.223434
 30
0.0
 11
0.258514
 21
-0.231369
 31
0.0
  0
LINE
  5
13B
  8
0
 10
0.258514
 20
-0.231369
 30
0.0
 11
0.260757
 21
-0.239227
 31
0.0
  0
LINE
  5
13C
  8
0
 10
0.260757
 20
-0.239227
 30
0.0
 11
0.263138
 21
-0.246643
 31
0.0
  0
LINE
  5
13D
  8
0
 10
0.263138
 20
-0.246643
 30
0.0
 11
0.266022
 21
-0.254715
 31
0.0
  0
LINE
  5
13E
  8
0
 10
0.266022
 20
-0.254715
 30
0.0
 11
0.268738
 21
-0.261597
 31
0.0
  0
LINE
  5
13F
  8
0
 10
0.268738
 20
-0.261597
 30
0.0
 11
0.269409
 21
-0.263214
 31
0.0
  0
LINE
  5
140
  8
0
 10
0.269409
 20
-0.263214
 30
0.0
 11
0.272278
 21
-0.269836
 31
0.0
  0
LINE
  5
141
  8
0
 10
0.272278
 20
-0.269836
 30
0.0
 11
0.27536
 21
-0.276352
 31
0.0
  0
LINE
  5
142
  8
0
 10
0.27536
 20
-0.276352
 30
0.0
 11
0.279099
 21
-0.283691
 31
0.0
  0
LINE
  5
143
  8
0
 10
0.279099
 20
-0.283691
 30
0.0
 11
0.279938
 21
-0.285278
 31
0.0
  0
LINE
  5
144
  8
0
 10
0.279938
 20
-0.285278
 30
0.0
 11
0.283707
 21
-0.292023
 31
0.0
  0
LINE
  5
145
  8
0
 10
0.283707
 20
-0.292023
 30
0.0
 11
0.287689
 21
-0.298676
 31
0.0
  0
LINE
  5
146
  8
0
 10
0.287689
 20
-0.298676
 30
0.0
 11
0.29213
 21
-0.305557
 31
0.0
  0
LINE
  5
147
  8
0
 10
0.29213
 20
-0.305557
 30
0.0
 11
0.296783
 21
-0.312271
 31
0.0
  0
LINE
  5
148
  8
0
 10
0.296783
 20
-0.312271
 30
0.0
 11
0.301651
 21
-0.318848
 31
0.0
  0
LINE
  5
149
  8
0
 10
0.301651
 20
-0.318848
 30
0.0
 11
0.306732
 21
-0.325256
 31
0.0
  0
LINE
  5
14A
  8
0
 10
0.306732
 20
-0.325256
 30
0.0
 11
0.312027
 21
-0.331497
 31
0.0
  0
LINE
  5
14B
  8
0
 10
0.312027
 20
-0.331497
 30
0.0
 11
0.31752
 21
-0.337555
 31
0.0
  0
LINE
  5
14C
  8
0
 10
0.31752
 20
-0.337555
 30
0.0
 11
0.323212
 21
-0.34343
 31
0.0
  0
LINE
  5
14D
  8
0
 10
0.323212
 20
-0.34343
 30
0.0
 11
0.329102
 21
-0.349121
 31
0.0
  0
LINE
  5
14E
  8
0
 10
0.329102
 20
-0.349121
 30
0.0
 11
0.335159
 21
-0.354614
 31
0.0
  0
LINE
  5
14F
  8
0
 10
0.335159
 20
-0.354614
 30
0.0
 11
0.3414
 21
-0.359909
 31
0.0
  0
LINE
  5
150
  8
0
 10
0.3414
 20
-0.359909
 30
0.0
 11
0.347809
 21
-0.36499
 31
0.0
  0
LINE
  5
151
  8
0
 10
0.347809
 20
-0.36499
 30
0.0
 11
0.35437
 21
-0.369873
 31
0.0
  0
LINE
  5
152
  8
0
 10
0.35437
 20
-0.369873
 30
0.0
 11
0.361099
 21
-0.374527
 31
0.0
  0
LINE
  5
153
  8
0
 10
0.361099
 20
-0.374527
 30
0.0
 11
0.367981
 21
-0.378952
 31
0.0
  0
LINE
  5
154
  8
0
 10
0.367981
 20
-0.378952
 30
0.0
 11
0.37532
 21
-0.383347
 31
0.0
  0
LINE
  5
155
  8
0
 10
0.37532
 20
-0.383347
 30
0.0
 11
0.381271
 21
-0.386658
 31
0.0
  0
LINE
  5
156
  8
0
 10
0.381271
 20
-0.386658
 30
0.0
 11
0.382828
 21
-0.387482
 31
0.0
  0
LINE
  5
157
  8
0
 10
0.382828
 20
-0.387482
 30
0.0
 11
0.390305
 21
-0.391296
 31
0.0
  0
LINE
  5
158
  8
0
 10
0.390305
 20
-0.391296
 30
0.0
 11
0.397034
 21
-0.39447
 31
0.0
  0
LINE
  5
159
  8
0
 10
0.397034
 20
-0.39447
 30
0.0
 11
0.404572
 21
-0.39772
 31
0.0
  0
LINE
  5
15A
  8
0
 10
0.404572
 20
-0.39772
 30
0.0
 11
0.411682
 21
-0.400543
 31
0.0
  0
LINE
  5
15B
  8
0
 10
0.411682
 20
-0.400543
 30
0.0
 11
0.418869
 21
-0.403122
 31
0.0
  0
LINE
  5
15C
  8
0
 10
0.418869
 20
-0.403122
 30
0.0
 11
0.428009
 21
-0.406067
 31
0.0
  0
LINE
  5
15D
  8
0
 10
0.428009
 20
-0.406067
 30
0.0
 11
0.436035
 21
-0.408325
 31
0.0
  0
LINE
  5
15E
  8
0
 10
0.436035
 20
-0.408325
 30
0.0
 11
0.443604
 21
-0.410202
 31
0.0
  0
LINE
  5
15F
  8
0
 10
0.443604
 20
-0.410202
 30
0.0
 11
0.451218
 21
-0.41185
 31
0.0
  0
LINE
  5
160
  8
0
 10
0.451218
 20
-0.41185
 30
0.0
 11
0.458206
 21
-0.413116
 31
0.0
  0
LINE
  5
161
  8
0
 10
0.458206
 20
-0.413116
 30
0.0
 11
0.468338
 21
-0.414627
 31
0.0
  0
LINE
  5
162
  8
0
 10
0.468338
 20
-0.414627
 30
0.0
 11
0.476318
 21
-0.415512
 31
0.0
  0
LINE
  5
163
  8
0
 10
0.476318
 20
-0.415512
 30
0.0
 11
0.484024
 21
-0.416138
 31
0.0
  0
LINE
  5
164
  8
0
 10
0.484024
 20
-0.416138
 30
0.0
 11
0.492584
 21
-0.416534
 31
0.0
  0
LINE
  5
165
  8
0
 10
0.492584
 20
-0.416534
 30
0.0
 11
0.500107
 21
-0.416656
 31
0.0
  0
LINE
  5
166
  8
0
 10
0.500107
 20
-0.416656
 30
0.0
 11
0.6259
 21
-0.416641
 31
0.0
  0
LINE
  5
167
  8
0
 10
0.6259
 20
-0.416641
 30
0.0
 11
0.634079
 21
-0.416473
 31
0.0
  0
LINE
  5
168
  8
0
 10
0.634079
 20
-0.416473
 30
0.0
 11
0.641907
 21
-0.416077
 31
0.0
  0
LINE
  5
169
  8
0
 10
0.641907
 20
-0.416077
 30
0.0
 11
0.648666
 21
-0.415512
 31
0.0
  0
LINE
  5
16A
  8
0
 10
0.648666
 20
-0.415512
 30
0.0
 11
0.656647
 21
-0.414627
 31
0.0
  0
LINE
  5
16B
  8
0
 10
0.656647
 20
-0.414627
 30
0.0
 11
0.666779
 21
-0.413116
 31
0.0
  0
LINE
  5
16C
  8
0
 10
0.666779
 20
-0.413116
 30
0.0
 11
0.673767
 21
-0.41185
 31
0.0
  0
LINE
  5
16D
  8
0
 10
0.673767
 20
-0.41185
 30
0.0
 11
0.682068
 21
-0.410049
 31
0.0
  0
LINE
  5
16E
  8
0
 10
0.682068
 20
-0.410049
 30
0.0
 11
0.68895
 21
-0.408325
 31
0.0
  0
LINE
  5
16F
  8
0
 10
0.68895
 20
-0.408325
 30
0.0
 11
0.696976
 21
-0.406067
 31
0.0
  0
LINE
  5
170
  8
0
 10
0.696976
 20
-0.406067
 30
0.0
 11
0.706116
 21
-0.403122
 31
0.0
  0
LINE
  5
171
  8
0
 10
0.706116
 20
-0.403122
 30
0.0
 11
0.713303
 21
-0.400543
 31
0.0
  0
LINE
  5
172
  8
0
 10
0.713303
 20
-0.400543
 30
0.0
 11
0.720932
 21
-0.397507
 31
0.0
  0
LINE
  5
173
  8
0
 10
0.720932
 20
-0.397507
 30
0.0
 11
0.728165
 21
-0.394379
 31
0.0
  0
LINE
  5
174
  8
0
 10
0.728165
 20
-0.394379
 30
0.0
 11
0.73468
 21
-0.391296
 31
0.0
  0
LINE
  5
175
  8
0
 10
0.73468
 20
-0.391296
 30
0.0
 11
0.743546
 21
-0.386749
 31
0.0
  0
LINE
  5
176
  8
0
 10
0.743546
 20
-0.386749
 30
0.0
 11
0.749069
 21
-0.383682
 31
0.0
  0
LINE
  5
177
  8
0
 10
0.749069
 20
-0.383682
 30
0.0
 11
0.752472
 21
-0.381683
 31
0.0
  0
LINE
  5
178
  8
0
 10
0.752472
 20
-0.381683
 30
0.0
 11
0.757004
 21
-0.378952
 31
0.0
  0
LINE
  5
179
  8
0
 10
0.757004
 20
-0.378952
 30
0.0
 11
0.763885
 21
-0.374527
 31
0.0
  0
LINE
  5
17A
  8
0
 10
0.763885
 20
-0.374527
 30
0.0
 11
0.770615
 21
-0.369873
 31
0.0
  0
LINE
  5
17B
  8
0
 10
0.770615
 20
-0.369873
 30
0.0
 11
0.777176
 21
-0.36499
 31
0.0
  0
LINE
  5
17C
  8
0
 10
0.777176
 20
-0.36499
 30
0.0
 11
0.783585
 21
-0.359909
 31
0.0
  0
LINE
  5
17D
  8
0
 10
0.783585
 20
-0.359909
 30
0.0
 11
0.789825
 21
-0.354614
 31
0.0
  0
LINE
  5
17E
  8
0
 10
0.789825
 20
-0.354614
 30
0.0
 11
0.795883
 21
-0.349121
 31
0.0
  0
LINE
  5
17F
  8
0
 10
0.795883
 20
-0.349121
 30
0.0
 11
0.801773
 21
-0.34343
 31
0.0
  0
LINE
  5
180
  8
0
 10
0.801773
 20
-0.34343
 30
0.0
 11
0.807465
 21
-0.337555
 31
0.0
  0
LINE
  5
181
  8
0
 10
0.807465
 20
-0.337555
 30
0.0
 11
0.812958
 21
-0.331497
 31
0.0
  0
LINE
  5
182
  8
0
 10
0.812958
 20
-0.331497
 30
0.0
 11
0.818253
 21
-0.325256
 31
0.0
  0
LINE
  5
183
  8
0
 10
0.818253
 20
-0.325256
 30
0.0
 11
0.823334
 21
-0.318848
 31
0.0
  0
LINE
  5
184
  8
0
 10
0.823334
 20
-0.318848
 30
0.0
 11
0.828201
 21
-0.312271
 31
0.0
  0
LINE
  5
185
  8
0
 10
0.828201
 20
-0.312271
 30
0.0
 11
0.832855
 21
-0.305557
 31
0.0
  0
LINE
  5
186
  8
0
 10
0.832855
 20
-0.305557
 30
0.0
 11
0.837296
 21
-0.298676
 31
0.0
  0
LINE
  5
187
  8
0
 10
0.837296
 20
-0.298676
 30
0.0
 11
0.841278
 21
-0.292023
 31
0.0
  0
LINE
  5
188
  8
0
 10
0.841278
 20
-0.292023
 30
0.0
 11
0.845047
 21
-0.285278
 31
0.0
  0
LINE
  5
189
  8
0
 10
0.845047
 20
-0.285278
 30
0.0
 11
0.845886
 21
-0.283691
 31
0.0
  0
LINE
  5
18A
  8
0
 10
0.845886
 20
-0.283691
 30
0.0
 11
0.849625
 21
-0.276352
 31
0.0
  0
LINE
  5
18B
  8
0
 10
0.849625
 20
-0.276352
 30
0.0
 11
0.852707
 21
-0.269836
 31
0.0
  0
LINE
  5
18C
  8
0
 10
0.852707
 20
-0.269836
 30
0.0
 11
0.855576
 21
-0.263214
 31
0.0
  0
LINE
  5
18D
  8
0
 10
0.855576
 20
-0.263214
 30
0.0
 11
0.856247
 21
-0.261597
 31
0.0
  0
LINE
  5
18E
  8
0
 10
0.856247
 20
-0.261597
 30
0.0
 11
0.858963
 21
-0.254715
 31
0.0
  0
LINE
  5
18F
  8
0
 10
0.858963
 20
-0.254715
 30
0.0
 11
0.861847
 21
-0.246643
 31
0.0
  0
LINE
  5
190
  8
0
 10
0.861847
 20
-0.246643
 30
0.0
 11
0.864227
 21
-0.239227
 31
0.0
  0
LINE
  5
191
  8
0
 10
0.864227
 20
-0.239227
 30
0.0
 11
0.86647
 21
-0.231369
 31
0.0
  0
LINE
  5
192
  8
0
 10
0.86647
 20
-0.231369
 30
0.0
 11
0.868469
 21
-0.223434
 31
0.0
  0
LINE
  5
193
  8
0
 10
0.868469
 20
-0.223434
 30
0.0
 11
0.870193
 21
-0.215439
 31
0.0
  0
LINE
  5
194
  8
0
 10
0.870193
 20
-0.215439
 30
0.0
 11
0.871719
 21
-0.207001
 31
0.0
  0
LINE
  5
195
  8
0
 10
0.871719
 20
-0.207001
 30
0.0
 11
0.87291
 21
-0.198761
 31
0.0
  0
LINE
  5
196
  8
0
 10
0.87291
 20
-0.198761
 30
0.0
 11
0.873749
 21
-0.191574
 31
0.0
  0
LINE
  5
197
  8
0
 10
0.873749
 20
-0.191574
 30
0.0
 11
0.874451
 21
-0.183014
 31
0.0
  0
LINE
  5
198
  8
0
 10
0.874451
 20
-0.183014
 30
0.0
 11
0.874817
 21
-0.175827
 31
0.0
  0
LINE
  5
199
  8
0
 10
0.874817
 20
-0.175827
 30
0.0
 11
0.875
 21
-0.166656
 31
0.0
  0
LINE
  5
19A
  8
0
 10
0.875
 20
-0.166656
 30
0.0
 11
0.874985
 21
0.333969
 31
0.0
  0
LINE
  5
19B
  8
0
 10
0.874985
 20
0.333969
 30
0.0
 11
0.874817
 21
0.34227
 31
0.0
  0
LINE
  5
19C
  8
0
 10
0.874817
 20
0.34227
 30
0.0
 11
0.874451
 21
0.34967
 31
0.0
  0
LINE
  5
19D
  8
0
 10
0.874451
 20
0.34967
 30
0.0
 11
0.873779
 21
0.357834
 31
0.0
  0
LINE
  5
19E
  8
0
 10
0.873779
 20
0.357834
 30
0.0
 11
0.872757
 21
0.366547
 31
0.0
  0
LINE
  5
19F
  8
0
 10
0.872757
 20
0.366547
 30
0.0
 11
0.871658
 21
0.374054
 31
0.0
  0
LINE
  5
1A0
  8
0
 10
0.871658
 20
0.374054
 30
0.0
 11
0.870193
 21
0.382095
 31
0.0
  0
LINE
  5
1A1
  8
0
 10
0.870193
 20
0.382095
 30
0.0
 11
0.868469
 21
0.390091
 31
0.0
  0
LINE
  5
1A2
  8
0
 10
0.868469
 20
0.390091
 30
0.0
 11
0.866714
 21
0.397064
 31
0.0
  0
LINE
  5
1A3
  8
0
 10
0.866714
 20
0.397064
 30
0.0
 11
0.864182
 21
0.406021
 31
0.0
  0
LINE
  5
1A4
  8
0
 10
0.864182
 20
0.406021
 30
0.0
 11
0.86145
 21
0.414444
 31
0.0
  0
LINE
  5
1A5
  8
0
 10
0.86145
 20
0.414444
 30
0.0
 11
0.859314
 21
0.420425
 31
0.0
  0
LINE
  5
1A6
  8
0
 10
0.859314
 20
0.420425
 30
0.0
 11
0.856354
 21
0.428009
 31
0.0
  0
LINE
  5
1A7
  8
0
 10
0.856354
 20
0.428009
 30
0.0
 11
0.853058
 21
0.435699
 31
0.0
  0
LINE
  5
1A8
  8
0
 10
0.853058
 20
0.435699
 30
0.0
 11
0.852356
 21
0.437256
 31
0.0
  0
LINE
  5
1A9
  8
0
 10
0.852356
 20
0.437256
 30
0.0
 11
0.849197
 21
0.443893
 31
0.0
  0
LINE
  5
1AA
  8
0
 10
0.849197
 20
0.443893
 30
0.0
 11
0.845047
 21
0.45195
 31
0.0
  0
LINE
  5
1AB
  8
0
 10
0.845047
 20
0.45195
 30
0.0
 11
0.841354
 21
0.458557
 31
0.0
  0
LINE
  5
1AC
  8
0
 10
0.841354
 20
0.458557
 30
0.0
 11
0.837891
 21
0.46434
 31
0.0
  0
LINE
  5
1AD
  8
0
 10
0.837891
 20
0.46434
 30
0.0
 11
0.832184
 21
0.473175
 31
0.0
  0
LINE
  5
1AE
  8
0
 10
0.832184
 20
0.473175
 30
0.0
 11
0.827896
 21
0.479355
 31
0.0
  0
LINE
  5
1AF
  8
0
 10
0.827896
 20
0.479355
 30
0.0
 11
0.823029
 21
0.485901
 31
0.0
  0
LINE
  5
1B0
  8
0
 10
0.823029
 20
0.485901
 30
0.0
 11
0.818893
 21
0.491119
 31
0.0
  0
LINE
  5
1B1
  8
0
 10
0.818893
 20
0.491119
 30
0.0
 11
0.812851
 21
0.498276
 31
0.0
  0
LINE
  5
1B2
  8
0
 10
0.812851
 20
0.498276
 30
0.0
 11
0.806992
 21
0.504715
 31
0.0
  0
LINE
  5
1B3
  8
0
 10
0.806992
 20
0.504715
 30
0.0
 11
0.802414
 21
0.50943
 31
0.0
  0
LINE
  5
1B4
  8
0
 10
0.802414
 20
0.50943
 30
0.0
 11
0.795776
 21
0.515884
 31
0.0
  0
LINE
  5
1B5
  8
0
 10
0.795776
 20
0.515884
 30
0.0
 11
0.789932
 21
0.521179
 31
0.0
  0
LINE
  5
1B6
  8
0
 10
0.789932
 20
0.521179
 30
0.0
 11
0.782867
 21
0.527145
 31
0.0
  0
LINE
  5
1B7
  8
0
 10
0.782867
 20
0.527145
 30
0.0
 11
0.777679
 21
0.531265
 31
0.0
  0
LINE
  5
1B8
  8
0
 10
0.777679
 20
0.531265
 30
0.0
 11
0.770615
 21
0.536545
 31
0.0
  0
LINE
  5
1B9
  8
0
 10
0.770615
 20
0.536545
 30
0.0
 11
0.764725
 21
0.540619
 31
0.0
  0
LINE
  5
1BA
  8
0
 10
0.764725
 20
0.540619
 30
0.0
 11
0.756805
 21
0.545746
 31
0.0
  0
LINE
  5
1BB
  8
0
 10
0.756805
 20
0.545746
 30
0.0
 11
0.74971
 21
0.549988
 31
0.0
  0
LINE
  5
1BC
  8
0
 10
0.74971
 20
0.549988
 30
0.0
 11
0.744003
 21
0.553162
 31
0.0
  0
LINE
  5
1BD
  8
0
 10
0.744003
 20
0.553162
 30
0.0
 11
0.73587
 21
0.557373
 31
0.0
  0
LINE
  5
1BE
  8
0
 10
0.73587
 20
0.557373
 30
0.0
 11
0.728012
 21
0.561096
 31
0.0
  0
LINE
  5
1BF
  8
0
 10
0.728012
 20
0.561096
 30
0.0
 11
0.720505
 21
0.564362
 31
0.0
  0
LINE
  5
1C0
  8
0
 10
0.720505
 20
0.564362
 30
0.0
 11
0.712662
 21
0.567444
 31
0.0
  0
LINE
  5
1C1
  8
0
 10
0.712662
 20
0.567444
 30
0.0
 11
0.705063
 21
0.570145
 31
0.0
  0
LINE
  5
1C2
  8
0
 10
0.705063
 20
0.570145
 30
0.0
 11
0.696823
 21
0.572769
 31
0.0
  0
LINE
  5
1C3
  8
0
 10
0.696823
 20
0.572769
 30
0.0
 11
0.689484
 21
0.57486
 31
0.0
  0
LINE
  5
1C4
  8
0
 10
0.689484
 20
0.57486
 30
0.0
 11
0.681381
 21
0.576874
 31
0.0
  0
LINE
  5
1C5
  8
0
 10
0.681381
 20
0.576874
 30
0.0
 11
0.673767
 21
0.578522
 31
0.0
  0
LINE
  5
1C6
  8
0
 10
0.673767
 20
0.578522
 30
0.0
 11
0.666779
 21
0.579788
 31
0.0
  0
LINE
  5
1C7
  8
0
 10
0.666779
 20
0.579788
 30
0.0
 11
0.656647
 21
0.581299
 31
0.0
  0
LINE
  5
1C8
  8
0
 10
0.656647
 20
0.581299
 30
0.0
 11
0.648666
 21
0.582184
 31
0.0
  0
LINE
  5
1C9
  8
0
 10
0.648666
 20
0.582184
 30
0.0
 11
0.640961
 21
0.582809
 31
0.0
  0
LINE
  5
1CA
  8
0
 10
0.640961
 20
0.582809
 30
0.0
 11
0.632401
 21
0.583206
 31
0.0
  0
LINE
  5
1CB
  8
0
 10
0.632401
 20
0.583206
 30
0.0
 11
0.624893
 21
0.583328
 31
0.0
  0
LINE
  5
1CC
  8
0
 10
0.624893
 20
0.583328
 30
0.0
 11
-0.792572
 21
0.583313
 31
0.0
  0
LINE
  5
1CD
  8
0
 10
-0.792572
 20
0.583313
 30
0.0
 11
-0.803116
 21
0.583115
 31
0.0
  0
LINE
  5
1CE
  8
0
 10
-0.803116
 20
0.583115
 30
0.0
 11
-0.814087
 21
0.582565
 31
0.0
  0
LINE
  5
1CF
  8
0
 10
-0.814087
 20
0.582565
 30
0.0
 11
-0.824677
 21
0.58168
 31
0.0
  0
LINE
  5
1D0
  8
0
 10
-0.824677
 20
0.58168
 30
0.0
 11
-0.835648
 21
0.580399
 31
0.0
  0
LINE
  5
1D1
  8
0
 10
-0.835648
 20
0.580399
 30
0.0
 11
-0.845963
 21
0.578873
 31
0.0
  0
LINE
  5
1D2
  8
0
 10
-0.845963
 20
0.578873
 30
0.0
 11
-0.85701
 21
0.576843
 31
0.0
  0
LINE
  5
1D3
  8
0
 10
-0.85701
 20
0.576843
 30
0.0
 11
-0.867752
 21
0.574524
 31
0.0
  0
LINE
  5
1D4
  8
0
 10
-0.867752
 20
0.574524
 30
0.0
 11
-0.877365
 21
0.572098
 31
0.0
  0
LINE
  5
1D5
  8
0
 10
-0.877365
 20
0.572098
 30
0.0
 11
-0.887787
 21
0.569153
 31
0.0
  0
LINE
  5
1D6
  8
0
 10
-0.887787
 20
0.569153
 30
0.0
 11
-0.899475
 21
0.565399
 31
0.0
  0
LINE
  5
1D7
  8
0
 10
-0.899475
 20
0.565399
 30
0.0
 11
-0.908447
 21
0.562195
 31
0.0
  0
LINE
  5
1D8
  8
0
 10
-0.908447
 20
0.562195
 30
0.0
 11
-0.918488
 21
0.558243
 31
0.0
  0
LINE
  5
1D9
  8
0
 10
-0.918488
 20
0.558243
 30
0.0
 11
-0.929565
 21
0.553467
 31
0.0
  0
LINE
  5
1DA
  8
0
 10
-0.929565
 20
0.553467
 30
0.0
 11
-0.939453
 21
0.548752
 31
0.0
  0
LINE
  5
1DB
  8
0
 10
-0.939453
 20
0.548752
 30
0.0
 11
-0.948273
 21
0.544235
 31
0.0
  0
LINE
  5
1DC
  8
0
 10
-0.948273
 20
0.544235
 30
0.0
 11
-0.957657
 21
0.539032
 31
0.0
  0
LINE
  5
1DD
  8
0
 10
-0.957657
 20
0.539032
 30
0.0
 11
-0.959167
 21
0.538162
 31
0.0
  0
LINE
  5
1DE
  8
0
 10
-0.959167
 20
0.538162
 30
0.0
 11
-0.967987
 21
0.532867
 31
0.0
  0
LINE
  5
1DF
  8
0
 10
-0.967987
 20
0.532867
 30
0.0
 11
-0.976288
 21
0.527512
 31
0.0
  0
LINE
  5
1E0
  8
0
 10
-0.976288
 20
0.527512
 30
0.0
 11
-0.985825
 21
0.520935
 31
0.0
  0
LINE
  5
1E1
  8
0
 10
-0.985825
 20
0.520935
 30
0.0
 11
-0.994583
 21
0.51445
 31
0.0
  0
LINE
  5
1E2
  8
0
 10
-0.994583
 20
0.51445
 30
0.0
 11
-1.00313
 21
0.50766
 31
0.0
  0
LINE
  5
1E3
  8
0
 10
-1.00313
 20
0.50766
 30
0.0
 11
-1.01144
 21
0.50061
 31
0.0
  0
LINE
  5
1E4
  8
0
 10
-1.01144
 20
0.50061
 30
0.0
 11
-1.01952
 21
0.493286
 31
0.0
  0
LINE
  5
1E5
  8
0
 10
-1.01952
 20
0.493286
 30
0.0
 11
-1.02736
 21
0.485687
 31
0.0
  0
LINE
  5
1E6
  8
0
 10
-1.02736
 20
0.485687
 30
0.0
 11
-1.03494
 21
0.477859
 31
0.0
  0
LINE
  5
1E7
  8
0
 10
-1.03494
 20
0.477859
 30
0.0
 11
-1.04227
 21
0.469772
 31
0.0
  0
LINE
  5
1E8
  8
0
 10
-1.04227
 20
0.469772
 30
0.0
 11
-1.04933
 21
0.461456
 31
0.0
  0
LINE
  5
1E9
  8
0
 10
-1.04933
 20
0.461456
 30
0.0
 11
-1.05611
 21
0.452911
 31
0.0
  0
LINE
  5
1EA
  8
0
 10
-1.05611
 20
0.452911
 30
0.0
 11
-1.06261
 21
0.444153
 31
0.0
  0
LINE
  5
1EB
  8
0
 10
-1.06261
 20
0.444153
 30
0.0
 11
-1.06845
 21
0.435699
 31
0.0
  0
LINE
  5
1EC
  8
0
 10
-1.06845
 20
0.435699
 30
0.0
 11
-1.06931
 21
0.434418
 31
0.0
  0
LINE
  5
1ED
  8
0
 10
-1.06931
 20
0.434418
 30
0.0
 11
-1.07515
 21
0.425308
 31
0.0
  0
LINE
  5
1EE
  8
0
 10
-1.07515
 20
0.425308
 30
0.0
 11
-1.0808
 21
0.415833
 31
0.0
  0
LINE
  5
1EF
  8
0
 10
-1.0808
 20
0.415833
 30
0.0
 11
-1.08598
 21
0.406448
 31
0.0
  0
LINE
  5
1F0
  8
0
 10
-1.08598
 20
0.406448
 30
0.0
 11
-1.09071
 21
0.397232
 31
0.0
  0
LINE
  5
1F1
  8
0
 10
-1.09071
 20
0.397232
 30
0.0
 11
-1.09537
 21
0.387329
 31
0.0
  0
LINE
  5
1F2
  8
0
 10
-1.09537
 20
0.387329
 30
0.0
 11
-1.09935
 21
0.378174
 31
0.0
  0
LINE
  5
1F3
  8
0
 10
-1.09935
 20
0.378174
 30
0.0
 11
-1.10379
 21
0.366943
 31
0.0
  0
LINE
  5
1F4
  8
0
 10
-1.10379
 20
0.366943
 30
0.0
 11
-1.10751
 21
0.356491
 31
0.0
  0
LINE
  5
1F5
  8
0
 10
-1.10751
 20
0.356491
 30
0.0
 11
-1.11086
 21
0.345993
 31
0.0
  0
LINE
  5
1F6
  8
0
 10
-1.11086
 20
0.345993
 30
0.0
 11
-1.1138
 21
0.335602
 31
0.0
  0
LINE
  5
1F7
  8
0
 10
-1.1138
 20
0.335602
 30
0.0
 11
-1.11641
 21
0.325134
 31
0.0
  0
LINE
  5
1F8
  8
0
 10
-1.11641
 20
0.325134
 30
0.0
 11
-1.11868
 21
0.314545
 31
0.0
  0
LINE
  5
1F9
  8
0
 10
-1.11868
 20
0.314545
 30
0.0
 11
-1.12054
 21
0.304291
 31
0.0
  0
LINE
  5
1FA
  8
0
 10
-1.12054
 20
0.304291
 30
0.0
 11
-1.12207
 21
0.294022
 31
0.0
  0
LINE
  5
1FB
  8
0
 10
-1.12207
 20
0.294022
 30
0.0
 11
-1.12227
 21
0.292496
 31
0.0
  0
LINE
  5
1FC
  8
0
 10
-1.12227
 20
0.292496
 30
0.0
 11
-1.12332
 21
0.283157
 31
0.0
  0
LINE
  5
1FD
  8
0
 10
-1.12332
 20
0.283157
 30
0.0
 11
-1.1243
 21
0.271362
 31
0.0
  0
LINE
  5
1FE
  8
0
 10
-1.1243
 20
0.271362
 30
0.0
 11
-1.12483
 21
0.260056
 31
0.0
  0
LINE
  5
1FF
  8
0
 10
-1.12483
 20
0.260056
 30
0.0
 11
-1.125
 21
0.25
 31
0.0
  0
LINE
  5
200
  8
0
 10
-1.125
 20
0.25
 30
0.0
 11
-1.125
 21
-0.75
 31
0.0
  0
LINE
  5
201
  8
0
 10
-1.125
 20
-0.75
 30
0.0
 11
-1.12428
 21
-0.77179
 31
0.0
  0
LINE
  5
202
  8
0
 10
-1.12428
 20
-0.77179
 30
0.0
 11
-1.12215
 21
-0.793503
 31
0.0
  0
LINE
  5
203
  8
0
 10
-1.12215
 20
-0.793503
 30
0.0
 11
-1.11871
 21
-0.814255
 31
0.0
  0
LINE
  5
204
  8
0
 10
-1.11871
 20
-0.814255
 30
0.0
 11
-1.11835
 21
-0.816071
 31
0.0
  0
LINE
  5
205
  8
0
 10
-1.11835
 20
-0.816071
 30
0.0
 11
-1.1138
 21
-0.835541
 31
0.0
  0
LINE
  5
206
  8
0
 10
-1.1138
 20
-0.835541
 30
0.0
 11
-1.11337
 21
-0.837097
 31
0.0
  0
LINE
  5
207
  8
0
 10
-1.11337
 20
-0.837097
 30
0.0
 11
-1.10751
 21
-0.85643
 31
0.0
  0
LINE
  5
208
  8
0
 10
-1.10751
 20
-0.85643
 30
0.0
 11
-1.10701
 21
-0.857895
 31
0.0
  0
LINE
  5
209
  8
0
 10
-1.10701
 20
-0.857895
 30
0.0
 11
-1.09995
 21
-0.876694
 31
0.0
  0
LINE
  5
20A
  8
0
 10
-1.09995
 20
-0.876694
 30
0.0
 11
-1.09929
 21
-0.878296
 31
0.0
  0
LINE
  5
20B
  8
0
 10
-1.09929
 20
-0.878296
 30
0.0
 11
-1.09109
 21
-0.896362
 31
0.0
  0
LINE
  5
20C
  8
0
 10
-1.09109
 20
-0.896362
 30
0.0
 11
-1.09
 21
-0.89859
 31
0.0
  0
LINE
  5
20D
  8
0
 10
-1.09
 20
-0.89859
 30
0.0
 11
-1.08034
 21
-0.916656
 31
0.0
  0
LINE
  5
20E
  8
0
 10
-1.08034
 20
-0.916656
 30
0.0
 11
-1.06882
 21
-0.935181
 31
0.0
  0
LINE
  5
20F
  8
0
 10
-1.06882
 20
-0.935181
 30
0.0
 11
-1.05611
 21
-0.952911
 31
0.0
  0
LINE
  5
210
  8
0
 10
-1.05611
 20
-0.952911
 30
0.0
 11
-1.04227
 21
-0.969772
 31
0.0
  0
LINE
  5
211
  8
0
 10
-1.04227
 20
-0.969772
 30
0.0
 11
-1.02736
 21
-0.985687
 31
0.0
  0
LINE
  5
212
  8
0
 10
-1.02736
 20
-0.985687
 30
0.0
 11
-1.01144
 21
-1.00061
 31
0.0
  0
LINE
  5
213
  8
0
 10
-1.01144
 20
-1.00061
 30
0.0
 11
-0.995651
 21
-1.01358
 31
0.0
  0
LINE
  5
214
  8
0
 10
-0.995651
 20
-1.01358
 30
0.0
 11
-0.994019
 21
-1.01485
 31
0.0
  0
LINE
  5
215
  8
0
 10
-0.994019
 20
-1.01485
 30
0.0
 11
-0.977676
 21
-1.02655
 31
0.0
  0
LINE
  5
216
  8
0
 10
-0.977676
 20
-1.02655
 30
0.0
 11
-0.975937
 21
-1.02771
 31
0.0
  0
LINE
  5
217
  8
0
 10
-0.975937
 20
-1.02771
 30
0.0
 11
-0.959412
 21
-1.03799
 31
0.0
  0
LINE
  5
218
  8
0
 10
-0.959412
 20
-1.03799
 30
0.0
 11
-0.957214
 21
-1.03926
 31
0.0
  0
LINE
  5
219
  8
0
 10
-0.957214
 20
-1.03926
 30
0.0
 11
-0.940262
 21
-1.04832
 31
0.0
  0
LINE
  5
21A
  8
0
 10
-0.940262
 20
-1.04832
 30
0.0
 11
-0.938034
 21
-1.04942
 31
0.0
  0
LINE
  5
21B
  8
0
 10
-0.938034
 20
-1.04942
 30
0.0
 11
-0.920029
 21
-1.05759
 31
0.0
  0
LINE
  5
21C
  8
0
 10
-0.920029
 20
-1.05759
 30
0.0
 11
-0.91832
 21
-1.05829
 31
0.0
  0
LINE
  5
21D
  8
0
 10
-0.91832
 20
-1.05829
 30
0.0
 11
-0.899765
 21
-1.06528
 31
0.0
  0
LINE
  5
21E
  8
0
 10
-0.899765
 20
-1.06528
 30
0.0
 11
-0.897797
 21
-1.06595
 31
0.0
  0
LINE
  5
21F
  8
0
 10
-0.897797
 20
-1.06595
 30
0.0
 11
-0.879181
 21
-1.07158
 31
0.0
  0
LINE
  5
220
  8
0
 10
-0.879181
 20
-1.07158
 30
0.0
 11
-0.876862
 21
-1.0722
 31
0.0
  0
LINE
  5
221
  8
0
 10
-0.876862
 20
-1.0722
 30
0.0
 11
-0.857346
 21
-1.07677
 31
0.0
  0
LINE
  5
222
  8
0
 10
-0.857346
 20
-1.07677
 30
0.0
 11
-0.855911
 21
-1.07704
 31
0.0
  0
LINE
  5
223
  8
0
 10
-0.855911
 20
-1.07704
 30
0.0
 11
-0.836151
 21
-1.08031
 31
0.0
  0
LINE
  5
224
  8
0
 10
-0.836151
 20
-1.08031
 30
0.0
 11
-0.834366
 21
-1.08055
 31
0.0
  0
LINE
  5
225
  8
0
 10
-0.834366
 20
-1.08055
 30
0.0
 11
-0.814606
 21
-1.0825
 31
0.0
  0
LINE
  5
226
  8
0
 10
-0.814606
 20
-1.0825
 30
0.0
 11
-0.812317
 21
-1.08264
 31
0.0
  0
LINE
  5
227
  8
0
 10
-0.812317
 20
-1.08264
 30
0.0
 11
-0.792587
 21
-1.0833
 31
0.0
  0
LINE
  5
228
  8
0
 10
-0.792587
 20
-1.0833
 30
0.0
 11
-0.790726
 21
-1.0833
 31
0.0
  0
LINE
  5
229
  8
0
 10
-0.790726
 20
-1.0833
 30
0.0
 11
-0.770996
 21
-1.08264
 31
0.0
  0
LINE
  5
22A
  8
0
 10
-0.770996
 20
-1.08264
 30
0.0
 11
-0.768707
 21
-1.0825
 31
0.0
  0
LINE
  5
22B
  8
0
 10
-0.768707
 20
-1.0825
 30
0.0
 11
-0.749298
 21
-1.08058
 31
0.0
  0
LINE
  5
22C
  8
0
 10
-0.749298
 20
-1.08058
 30
0.0
 11
-0.747162
 21
-1.08031
 31
0.0
  0
LINE
  5
22D
  8
0
 10
-0.747162
 20
-1.08031
 30
0.0
 11
-0.727676
 21
-1.07709
 31
0.0
  0
LINE
  5
22E
  8
0
 10
-0.727676
 20
-1.07709
 30
0.0
 11
-0.725525
 21
-1.07666
 31
0.0
  0
LINE
  5
22F
  8
0
 10
-0.725525
 20
-1.07666
 30
0.0
 11
-0.706451
 21
-1.0722
 31
0.0
  0
LINE
  5
230
  8
0
 10
-0.706451
 20
-1.0722
 30
0.0
 11
-0.704132
 21
-1.07158
 31
0.0
  0
LINE
  5
231
  8
0
 10
-0.704132
 20
-1.07158
 30
0.0
 11
-0.685516
 21
-1.06595
 31
0.0
  0
LINE
  5
232
  8
0
 10
-0.685516
 20
-1.06595
 30
0.0
 11
-0.683548
 21
-1.06528
 31
0.0
  0
LINE
  5
233
  8
0
 10
-0.683548
 20
-1.06528
 30
0.0
 11
-0.664993
 21
-1.05829
 31
0.0
  0
LINE
  5
234
  8
0
 10
-0.664993
 20
-1.05829
 30
0.0
 11
-0.663284
 21
-1.05759
 31
0.0
  0
LINE
  5
235
  8
0
 10
-0.663284
 20
-1.05759
 30
0.0
 11
-0.645065
 21
-1.04933
 31
0.0
  0
LINE
  5
236
  8
0
 10
-0.645065
 20
-1.04933
 30
0.0
 11
-0.643402
 21
-1.04851
 31
0.0
  0
LINE
  5
237
  8
0
 10
-0.643402
 20
-1.04851
 30
0.0
 11
-0.625793
 21
-1.03909
 31
0.0
  0
LINE
  5
238
  8
0
 10
-0.625793
 20
-1.03909
 30
0.0
 11
-0.624146
 21
-1.03813
 31
0.0
  0
LINE
  5
239
  8
0
 10
-0.624146
 20
-1.03813
 30
0.0
 11
-0.607391
 21
-1.02771
 31
0.0
  0
LINE
  5
23A
  8
0
 10
-0.607391
 20
-1.02771
 30
0.0
 11
-0.605652
 21
-1.02655
 31
0.0
  0
LINE
  5
23B
  8
0
 10
-0.605652
 20
-1.02655
 30
0.0
 11
-0.589294
 21
-1.01485
 31
0.0
  0
LINE
  5
23C
  8
0
 10
-0.589294
 20
-1.01485
 30
0.0
 11
-0.58812
 21
-1.01393
 31
0.0
  0
LINE
  5
23D
  8
0
 10
-0.58812
 20
-1.01393
 30
0.0
 11
-0.572678
 21
-1.00127
 31
0.0
  0
LINE
  5
23E
  8
0
 10
-0.572678
 20
-1.00127
 30
0.0
 11
-0.571304
 21
-1.00005
 31
0.0
  0
LINE
  5
23F
  8
0
 10
-0.571304
 20
-1.00005
 30
0.0
 11
-0.555954
 21
-0.985687
 31
0.0
  0
LINE
  5
240
  8
0
 10
-0.555954
 20
-0.985687
 30
0.0
 11
-0.541046
 21
-0.969772
 31
0.0
  0
LINE
  5
241
  8
0
 10
-0.541046
 20
-0.969772
 30
0.0
 11
-0.527206
 21
-0.952911
 31
0.0
  0
LINE
  5
242
  8
0
 10
-0.527206
 20
-0.952911
 30
0.0
 11
-0.514496
 21
-0.935181
 31
0.0
  0
LINE
  5
243
  8
0
 10
-0.514496
 20
-0.935181
 30
0.0
 11
-0.502991
 21
-0.916656
 31
0.0
  0
LINE
  5
244
  8
0
 10
-0.502991
 20
-0.916656
 30
0.0
 11
-0.492706
 21
-0.897415
 31
0.0
  0
LINE
  5
245
  8
0
 10
-0.492706
 20
-0.897415
 30
0.0
 11
-0.48407
 21
-0.878357
 31
0.0
  0
LINE
  5
246
  8
0
 10
-0.48407
 20
-0.878357
 30
0.0
 11
-0.483368
 21
-0.876648
 31
0.0
  0
LINE
  5
247
  8
0
 10
-0.483368
 20
-0.876648
 30
0.0
 11
-0.476456
 21
-0.858307
 31
0.0
  0
LINE
  5
248
  8
0
 10
-0.476456
 20
-0.858307
 30
0.0
 11
-0.475677
 21
-0.856033
 31
0.0
  0
LINE
  5
249
  8
0
 10
-0.475677
 20
-0.856033
 30
0.0
 11
-0.469971
 21
-0.837219
 31
0.0
  0
LINE
  5
24A
  8
0
 10
-0.469971
 20
-0.837219
 30
0.0
 11
-0.469421
 21
-0.835144
 31
0.0
  0
LINE
  5
24B
  8
0
 10
-0.469421
 20
-0.835144
 30
0.0
 11
-0.464981
 21
-0.816071
 31
0.0
  0
LINE
  5
24C
  8
0
 10
-0.464981
 20
-0.816071
 30
0.0
 11
-0.464569
 21
-0.81398
 31
0.0
  0
LINE
  5
24D
  8
0
 10
-0.464569
 20
-0.81398
 30
0.0
 11
-0.461349
 21
-0.794479
 31
0.0
  0
LINE
  5
24E
  8
0
 10
-0.461349
 20
-0.794479
 30
0.0
 11
-0.461105
 21
-0.792694
 31
0.0
  0
LINE
  5
24F
  8
0
 10
-0.461105
 20
-0.792694
 30
0.0
 11
-0.459167
 21
-0.773087
 31
0.0
  0
LINE
  5
250
  8
0
 10
-0.459167
 20
-0.773087
 30
0.0
 11
-0.459015
 21
-0.770645
 31
0.0
  0
LINE
  5
251
  8
0
 10
-0.459015
 20
-0.770645
 30
0.0
 11
-0.458359
 21
-0.751129
 31
0.0
  0
LINE
  5
252
  8
0
 10
-0.458359
 20
-0.751129
 30
0.0
 11
-0.458328
 21
-0.749069
 31
0.0
  0
LINE
  5
253
  8
0
 10
-0.458328
 20
-0.749069
 30
0.0
 11
-0.458328
 21
0.25
 31
0.0
  0
LINE
  5
254
  8
0
 10
0.129898
 20
0.355682
 30
0.0
 11
0.121887
 21
0.357285
 31
0.0
  0
LINE
  5
255
  8
0
 10
0.121887
 20
0.357285
 30
0.0
 11
0.114151
 21
0.359909
 31
0.0
  0
LINE
  5
256
  8
0
 10
0.114151
 20
0.359909
 30
0.0
 11
0.106812
 21
0.363525
 31
0.0
  0
LINE
  5
257
  8
0
 10
0.106812
 20
0.363525
 30
0.0
 11
0.100021
 21
0.368057
 31
0.0
  0
LINE
  5
258
  8
0
 10
0.100021
 20
0.368057
 30
0.0
 11
0.0938721
 21
0.373459
 31
0.0
  0
LINE
  5
259
  8
0
 10
0.0938721
 20
0.373459
 30
0.0
 11
0.0884705
 21
0.379608
 31
0.0
  0
LINE
  5
25A
  8
0
 10
0.0884705
 20
0.379608
 30
0.0
 11
0.0839386
 21
0.386398
 31
0.0
  0
LINE
  5
25B
  8
0
 10
0.0839386
 20
0.386398
 30
0.0
 11
0.0803223
 21
0.393738
 31
0.0
  0
LINE
  5
25C
  8
0
 10
0.0803223
 20
0.393738
 30
0.0
 11
0.0774231
 21
0.402481
 31
0.0
  0
LINE
  5
25D
  8
0
 10
0.0774231
 20
0.402481
 30
0.0
 11
0.0672455
 21
0.443161
 31
0.0
  0
LINE
  5
25E
  8
0
 10
0.0672455
 20
0.443161
 30
0.0
 11
0.0657959
 21
0.451202
 31
0.0
  0
LINE
  5
25F
  8
0
 10
0.0657959
 20
0.451202
 30
0.0
 11
0.0653992
 21
0.459366
 31
0.0
  0
LINE
  5
260
  8
0
 10
0.0653992
 20
0.459366
 30
0.0
 11
0.0660706
 21
0.467514
 31
0.0
  0
LINE
  5
261
  8
0
 10
0.0660706
 20
0.467514
 30
0.0
 11
0.0677948
 21
0.47551
 31
0.0
  0
LINE
  5
262
  8
0
 10
0.0677948
 20
0.47551
 30
0.0
 11
0.0705414
 21
0.4832
 31
0.0
  0
LINE
  5
263
  8
0
 10
0.0705414
 20
0.4832
 30
0.0
 11
0.0742798
 21
0.490479
 31
0.0
  0
LINE
  5
264
  8
0
 10
0.0742798
 20
0.490479
 30
0.0
 11
0.0789337
 21
0.497192
 31
0.0
  0
LINE
  5
265
  8
0
 10
0.0789337
 20
0.497192
 30
0.0
 11
0.0844269
 21
0.50325
 31
0.0
  0
LINE
  5
266
  8
0
 10
0.0844269
 20
0.50325
 30
0.0
 11
0.0906677
 21
0.508545
 31
0.0
  0
LINE
  5
267
  8
0
 10
0.0906677
 20
0.508545
 30
0.0
 11
0.0975342
 21
0.51297
 31
0.0
  0
LINE
  5
268
  8
0
 10
0.0975342
 20
0.51297
 30
0.0
 11
0.104935
 21
0.516464
 31
0.0
  0
LINE
  5
269
  8
0
 10
0.104935
 20
0.516464
 30
0.0
 11
0.112717
 21
0.518967
 31
0.0
  0
LINE
  5
26A
  8
0
 10
0.112717
 20
0.518967
 30
0.0
 11
0.120758
 21
0.520416
 31
0.0
  0
LINE
  5
26B
  8
0
 10
0.120758
 20
0.520416
 30
0.0
 11
0.127884
 21
0.520828
 31
0.0
  0
LINE
  5
26C
  8
0
 10
0.127884
 20
0.520828
 30
0.0
 11
0.178741
 21
0.520828
 31
0.0
  0
LINE
  5
26D
  8
0
 10
0.178741
 20
0.520828
 30
0.0
 11
0.186905
 21
0.520294
 31
0.0
  0
LINE
  5
26E
  8
0
 10
0.186905
 20
0.520294
 30
0.0
 11
0.194916
 21
0.518692
 31
0.0
  0
LINE
  5
26F
  8
0
 10
0.194916
 20
0.518692
 30
0.0
 11
0.202652
 21
0.516068
 31
0.0
  0
LINE
  5
270
  8
0
 10
0.202652
 20
0.516068
 30
0.0
 11
0.209991
 21
0.512451
 31
0.0
  0
LINE
  5
271
  8
0
 10
0.209991
 20
0.512451
 30
0.0
 11
0.216782
 21
0.507919
 31
0.0
  0
LINE
  5
272
  8
0
 10
0.216782
 20
0.507919
 30
0.0
 11
0.222931
 21
0.502518
 31
0.0
  0
LINE
  5
273
  8
0
 10
0.222931
 20
0.502518
 30
0.0
 11
0.228333
 21
0.496368
 31
0.0
  0
LINE
  5
274
  8
0
 10
0.228333
 20
0.496368
 30
0.0
 11
0.232864
 21
0.489578
 31
0.0
  0
LINE
  5
275
  8
0
 10
0.232864
 20
0.489578
 30
0.0
 11
0.236481
 21
0.482239
 31
0.0
  0
LINE
  5
276
  8
0
 10
0.236481
 20
0.482239
 30
0.0
 11
0.239105
 21
0.474503
 31
0.0
  0
LINE
  5
277
  8
0
 10
0.239105
 20
0.474503
 30
0.0
 11
0.240707
 21
0.466492
 31
0.0
  0
LINE
  5
278
  8
0
 10
0.240707
 20
0.466492
 30
0.0
 11
0.241241
 21
0.458328
 31
0.0
  0
LINE
  5
279
  8
0
 10
0.241241
 20
0.458328
 30
0.0
 11
0.240707
 21
0.450165
 31
0.0
  0
LINE
  5
27A
  8
0
 10
0.240707
 20
0.450165
 30
0.0
 11
0.239105
 21
0.442154
 31
0.0
  0
LINE
  5
27B
  8
0
 10
0.239105
 20
0.442154
 30
0.0
 11
0.236481
 21
0.434418
 31
0.0
  0
LINE
  5
27C
  8
0
 10
0.236481
 20
0.434418
 30
0.0
 11
0.232864
 21
0.427078
 31
0.0
  0
LINE
  5
27D
  8
0
 10
0.232864
 20
0.427078
 30
0.0
 11
0.228333
 21
0.420288
 31
0.0
  0
LINE
  5
27E
  8
0
 10
0.228333
 20
0.420288
 30
0.0
 11
0.222931
 21
0.414139
 31
0.0
  0
LINE
  5
27F
  8
0
 10
0.222931
 20
0.414139
 30
0.0
 11
0.182251
 21
0.373459
 31
0.0
  0
LINE
  5
280
  8
0
 10
0.182251
 20
0.373459
 30
0.0
 11
0.176102
 21
0.368057
 31
0.0
  0
LINE
  5
281
  8
0
 10
0.176102
 20
0.368057
 30
0.0
 11
0.169312
 21
0.363525
 31
0.0
  0
LINE
  5
282
  8
0
 10
0.169312
 20
0.363525
 30
0.0
 11
0.161972
 21
0.359909
 31
0.0
  0
LINE
  5
283
  8
0
 10
0.161972
 20
0.359909
 30
0.0
 11
0.154236
 21
0.357285
 31
0.0
  0
LINE
  5
284
  8
0
 10
0.154236
 20
0.357285
 30
0.0
 11
0.146225
 21
0.355682
 31
0.0
  0
LINE
  5
285
  8
0
 10
0.146225
 20
0.355682
 30
0.0
 11
0.138062
 21
0.355148
 31
0.0
  0
LINE
  5
286
  8
0
 10
0.138062
 20
0.355148
 30
0.0
 11
0.129898
 21
0.355682
 31
0.0
  0
LINE
  5
287
  8
0
 10
-0.23407
 20
0.353104
 30
0.0
 11
-0.242157
 21
0.354279
 31
0.0
  0
LINE
  5
288
  8
0
 10
-0.242157
 20
0.354279
 30
0.0
 11
-0.250031
 21
0.356491
 31
0.0
  0
LINE
  5
289
  8
0
 10
-0.250031
 20
0.356491
 30
0.0
 11
-0.257538
 21
0.359726
 31
0.0
  0
LINE
  5
28A
  8
0
 10
-0.257538
 20
0.359726
 30
0.0
 11
-0.264572
 21
0.363907
 31
0.0
  0
LINE
  5
28B
  8
0
 10
-0.264572
 20
0.363907
 30
0.0
 11
-0.270981
 21
0.368973
 31
0.0
  0
LINE
  5
28C
  8
0
 10
-0.270981
 20
0.368973
 30
0.0
 11
-0.276688
 21
0.374817
 31
0.0
  0
LINE
  5
28D
  8
0
 10
-0.276688
 20
0.374817
 30
0.0
 11
-0.280655
 21
0.37999
 31
0.0
  0
LINE
  5
28E
  8
0
 10
-0.280655
 20
0.37999
 30
0.0
 11
-0.310165
 21
0.422913
 31
0.0
  0
LINE
  5
28F
  8
0
 10
-0.310165
 20
0.422913
 30
0.0
 11
-0.314346
 21
0.429947
 31
0.0
  0
LINE
  5
290
  8
0
 10
-0.314346
 20
0.429947
 30
0.0
 11
-0.317581
 21
0.437454
 31
0.0
  0
LINE
  5
291
  8
0
 10
-0.317581
 20
0.437454
 30
0.0
 11
-0.319794
 21
0.445328
 31
0.0
  0
LINE
  5
292
  8
0
 10
-0.319794
 20
0.445328
 30
0.0
 11
-0.320969
 21
0.453415
 31
0.0
  0
LINE
  5
293
  8
0
 10
-0.320969
 20
0.453415
 30
0.0
 11
-0.321075
 21
0.461594
 31
0.0
  0
LINE
  5
294
  8
0
 10
-0.321075
 20
0.461594
 30
0.0
 11
-0.320129
 21
0.469711
 31
0.0
  0
LINE
  5
295
  8
0
 10
-0.320129
 20
0.469711
 30
0.0
 11
-0.318115
 21
0.477631
 31
0.0
  0
LINE
  5
296
  8
0
 10
-0.318115
 20
0.477631
 30
0.0
 11
-0.315079
 21
0.485229
 31
0.0
  0
LINE
  5
297
  8
0
 10
-0.315079
 20
0.485229
 30
0.0
 11
-0.311096
 21
0.492355
 31
0.0
  0
LINE
  5
298
  8
0
 10
-0.311096
 20
0.492355
 30
0.0
 11
-0.306198
 21
0.498917
 31
0.0
  0
LINE
  5
299
  8
0
 10
-0.306198
 20
0.498917
 30
0.0
 11
-0.300491
 21
0.504761
 31
0.0
  0
LINE
  5
29A
  8
0
 10
-0.300491
 20
0.504761
 30
0.0
 11
-0.294083
 21
0.509827
 31
0.0
  0
LINE
  5
29B
  8
0
 10
-0.294083
 20
0.509827
 30
0.0
 11
-0.287048
 21
0.514008
 31
0.0
  0
LINE
  5
29C
  8
0
 10
-0.287048
 20
0.514008
 30
0.0
 11
-0.279541
 21
0.517242
 31
0.0
  0
LINE
  5
29D
  8
0
 10
-0.279541
 20
0.517242
 30
0.0
 11
-0.271667
 21
0.519455
 31
0.0
  0
LINE
  5
29E
  8
0
 10
-0.271667
 20
0.519455
 30
0.0
 11
-0.26358
 21
0.52063
 31
0.0
  0
LINE
  5
29F
  8
0
 10
-0.26358
 20
0.52063
 30
0.0
 11
-0.258667
 21
0.520828
 31
0.0
  0
LINE
  5
2A0
  8
0
 10
-0.258667
 20
0.520828
 30
0.0
 11
-0.199646
 21
0.520828
 31
0.0
  0
LINE
  5
2A1
  8
0
 10
-0.199646
 20
0.520828
 30
0.0
 11
-0.191483
 21
0.520294
 31
0.0
  0
LINE
  5
2A2
  8
0
 10
-0.191483
 20
0.520294
 30
0.0
 11
-0.183472
 21
0.518692
 31
0.0
  0
LINE
  5
2A3
  8
0
 10
-0.183472
 20
0.518692
 30
0.0
 11
-0.175735
 21
0.516068
 31
0.0
  0
LINE
  5
2A4
  8
0
 10
-0.175735
 20
0.516068
 30
0.0
 11
-0.168396
 21
0.512451
 31
0.0
  0
LINE
  5
2A5
  8
0
 10
-0.168396
 20
0.512451
 30
0.0
 11
-0.161606
 21
0.507919
 31
0.0
  0
LINE
  5
2A6
  8
0
 10
-0.161606
 20
0.507919
 30
0.0
 11
-0.155457
 21
0.502518
 31
0.0
  0
LINE
  5
2A7
  8
0
 10
-0.155457
 20
0.502518
 30
0.0
 11
-0.150055
 21
0.496368
 31
0.0
  0
LINE
  5
2A8
  8
0
 10
-0.150055
 20
0.496368
 30
0.0
 11
-0.145523
 21
0.489578
 31
0.0
  0
LINE
  5
2A9
  8
0
 10
-0.145523
 20
0.489578
 30
0.0
 11
-0.141907
 21
0.482239
 31
0.0
  0
LINE
  5
2AA
  8
0
 10
-0.141907
 20
0.482239
 30
0.0
 11
-0.139282
 21
0.474503
 31
0.0
  0
LINE
  5
2AB
  8
0
 10
-0.139282
 20
0.474503
 30
0.0
 11
-0.13768
 21
0.466492
 31
0.0
  0
LINE
  5
2AC
  8
0
 10
-0.13768
 20
0.466492
 30
0.0
 11
-0.137146
 21
0.458328
 31
0.0
  0
LINE
  5
2AD
  8
0
 10
-0.137146
 20
0.458328
 30
0.0
 11
-0.13768
 21
0.450165
 31
0.0
  0
LINE
  5
2AE
  8
0
 10
-0.13768
 20
0.450165
 30
0.0
 11
-0.139282
 21
0.442154
 31
0.0
  0
LINE
  5
2AF
  8
0
 10
-0.139282
 20
0.442154
 30
0.0
 11
-0.141907
 21
0.434418
 31
0.0
  0
LINE
  5
2B0
  8
0
 10
-0.141907
 20
0.434418
 30
0.0
 11
-0.145523
 21
0.427078
 31
0.0
  0
LINE
  5
2B1
  8
0
 10
-0.145523
 20
0.427078
 30
0.0
 11
-0.148148
 21
0.422913
 31
0.0
  0
LINE
  5
2B2
  8
0
 10
-0.148148
 20
0.422913
 30
0.0
 11
-0.177658
 21
0.37999
 31
0.0
  0
LINE
  5
2B3
  8
0
 10
-0.177658
 20
0.37999
 30
0.0
 11
-0.182724
 21
0.373581
 31
0.0
  0
LINE
  5
2B4
  8
0
 10
-0.182724
 20
0.373581
 30
0.0
 11
-0.188568
 21
0.367874
 31
0.0
  0
LINE
  5
2B5
  8
0
 10
-0.188568
 20
0.367874
 30
0.0
 11
-0.195129
 21
0.362976
 31
0.0
  0
LINE
  5
2B6
  8
0
 10
-0.195129
 20
0.362976
 30
0.0
 11
-0.202255
 21
0.358994
 31
0.0
  0
LINE
  5
2B7
  8
0
 10
-0.202255
 20
0.358994
 30
0.0
 11
-0.209854
 21
0.355957
 31
0.0
  0
LINE
  5
2B8
  8
0
 10
-0.209854
 20
0.355957
 30
0.0
 11
-0.217773
 21
0.353943
 31
0.0
  0
LINE
  5
2B9
  8
0
 10
-0.217773
 20
0.353943
 30
0.0
 11
-0.225891
 21
0.352997
 31
0.0
  0
LINE
  5
2BA
  8
0
 10
-0.225891
 20
0.352997
 30
0.0
 11
-0.23407
 21
0.353104
 31
0.0
  0
LINE
  5
2BB
  8
0
 10
-0.438782
 20
0.3125
 30
0.0
 11
-0.446945
 21
0.313034
 31
0.0
  0
LINE
  5
2BC
  8
0
 10
-0.446945
 20
0.313034
 30
0.0
 11
-0.454956
 21
0.314636
 31
0.0
  0
LINE
  5
2BD
  8
0
 10
-0.454956
 20
0.314636
 30
0.0
 11
-0.462692
 21
0.317261
 31
0.0
  0
LINE
  5
2BE
  8
0
 10
-0.462692
 20
0.317261
 30
0.0
 11
-0.470032
 21
0.320877
 31
0.0
  0
LINE
  5
2BF
  8
0
 10
-0.470032
 20
0.320877
 30
0.0
 11
-0.476822
 21
0.325409
 31
0.0
  0
LINE
  5
2C0
  8
0
 10
-0.476822
 20
0.325409
 30
0.0
 11
-0.482971
 21
0.330811
 31
0.0
  0
LINE
  5
2C1
  8
0
 10
-0.482971
 20
0.330811
 30
0.0
 11
-0.488373
 21
0.33696
 31
0.0
  0
LINE
  5
2C2
  8
0
 10
-0.488373
 20
0.33696
 30
0.0
 11
-0.492905
 21
0.34375
 31
0.0
  0
LINE
  5
2C3
  8
0
 10
-0.492905
 20
0.34375
 30
0.0
 11
-0.496521
 21
0.351089
 31
0.0
  0
LINE
  5
2C4
  8
0
 10
-0.496521
 20
0.351089
 30
0.0
 11
-0.497971
 21
0.354919
 31
0.0
  0
LINE
  5
2C5
  8
0
 10
-0.497971
 20
0.354919
 30
0.0
 11
-0.502304
 21
0.367706
 31
0.0
  0
LINE
  5
2C6
  8
0
 10
-0.502304
 20
0.367706
 30
0.0
 11
-0.503876
 21
0.37149
 31
0.0
  0
LINE
  5
2C7
  8
0
 10
-0.503876
 20
0.37149
 30
0.0
 11
-0.509995
 21
0.383926
 31
0.0
  0
LINE
  5
2C8
  8
0
 10
-0.509995
 20
0.383926
 30
0.0
 11
-0.513123
 21
0.391479
 31
0.0
  0
LINE
  5
2C9
  8
0
 10
-0.513123
 20
0.391479
 30
0.0
 11
-0.515244
 21
0.399384
 31
0.0
  0
LINE
  5
2CA
  8
0
 10
-0.515244
 20
0.399384
 30
0.0
 11
-0.516296
 21
0.407486
 31
0.0
  0
LINE
  5
2CB
  8
0
 10
-0.516296
 20
0.407486
 30
0.0
 11
-0.516296
 21
0.415665
 31
0.0
  0
LINE
  5
2CC
  8
0
 10
-0.516296
 20
0.415665
 30
0.0
 11
-0.515228
 21
0.423767
 31
0.0
  0
LINE
  5
2CD
  8
0
 10
-0.515228
 20
0.423767
 30
0.0
 11
-0.513107
 21
0.431671
 31
0.0
  0
LINE
  5
2CE
  8
0
 10
-0.513107
 20
0.431671
 30
0.0
 11
-0.509979
 21
0.439209
 31
0.0
  0
LINE
  5
2CF
  8
0
 10
-0.509979
 20
0.439209
 30
0.0
 11
-0.50589
 21
0.446289
 31
0.0
  0
LINE
  5
2D0
  8
0
 10
-0.50589
 20
0.446289
 30
0.0
 11
-0.5009
 21
0.452774
 31
0.0
  0
LINE
  5
2D1
  8
0
 10
-0.5009
 20
0.452774
 30
0.0
 11
-0.495117
 21
0.458557
 31
0.0
  0
LINE
  5
2D2
  8
0
 10
-0.495117
 20
0.458557
 30
0.0
 11
-0.488632
 21
0.463531
 31
0.0
  0
LINE
  5
2D3
  8
0
 10
-0.488632
 20
0.463531
 30
0.0
 11
-0.481552
 21
0.467606
 31
0.0
  0
LINE
  5
2D4
  8
0
 10
-0.481552
 20
0.467606
 30
0.0
 11
-0.473999
 21
0.470734
 31
0.0
  0
LINE
  5
2D5
  8
0
 10
-0.473999
 20
0.470734
 30
0.0
 11
-0.466095
 21
0.472855
 31
0.0
  0
LINE
  5
2D6
  8
0
 10
-0.466095
 20
0.472855
 30
0.0
 11
-0.457993
 21
0.473907
 31
0.0
  0
LINE
  5
2D7
  8
0
 10
-0.457993
 20
0.473907
 30
0.0
 11
-0.449814
 21
0.473907
 31
0.0
  0
LINE
  5
2D8
  8
0
 10
-0.449814
 20
0.473907
 30
0.0
 11
-0.441711
 21
0.472839
 31
0.0
  0
LINE
  5
2D9
  8
0
 10
-0.441711
 20
0.472839
 30
0.0
 11
-0.433807
 21
0.470718
 31
0.0
  0
LINE
  5
2DA
  8
0
 10
-0.433807
 20
0.470718
 30
0.0
 11
-0.42627
 21
0.46759
 31
0.0
  0
LINE
  5
2DB
  8
0
 10
-0.42627
 20
0.46759
 30
0.0
 11
-0.419189
 21
0.463501
 31
0.0
  0
LINE
  5
2DC
  8
0
 10
-0.419189
 20
0.463501
 30
0.0
 11
-0.412704
 21
0.458511
 31
0.0
  0
LINE
  5
2DD
  8
0
 10
-0.412704
 20
0.458511
 30
0.0
 11
-0.406921
 21
0.452728
 31
0.0
  0
LINE
  5
2DE
  8
0
 10
-0.406921
 20
0.452728
 30
0.0
 11
-0.40242
 21
0.446945
 31
0.0
  0
LINE
  5
2DF
  8
0
 10
-0.40242
 20
0.446945
 30
0.0
 11
-0.377304
 21
0.4104
 31
0.0
  0
LINE
  5
2E0
  8
0
 10
-0.377304
 20
0.4104
 30
0.0
 11
-0.373123
 21
0.403381
 31
0.0
  0
LINE
  5
2E1
  8
0
 10
-0.373123
 20
0.403381
 30
0.0
 11
-0.369904
 21
0.395859
 31
0.0
  0
LINE
  5
2E2
  8
0
 10
-0.369904
 20
0.395859
 30
0.0
 11
-0.367676
 21
0.388
 31
0.0
  0
LINE
  5
2E3
  8
0
 10
-0.367676
 20
0.388
 30
0.0
 11
-0.366516
 21
0.379898
 31
0.0
  0
LINE
  5
2E4
  8
0
 10
-0.366516
 20
0.379898
 30
0.0
 11
-0.366409
 21
0.371735
 31
0.0
  0
LINE
  5
2E5
  8
0
 10
-0.366409
 20
0.371735
 30
0.0
 11
-0.367371
 21
0.363617
 31
0.0
  0
LINE
  5
2E6
  8
0
 10
-0.367371
 20
0.363617
 30
0.0
 11
-0.36937
 21
0.355682
 31
0.0
  0
LINE
  5
2E7
  8
0
 10
-0.36937
 20
0.355682
 30
0.0
 11
-0.372406
 21
0.348099
 31
0.0
  0
LINE
  5
2E8
  8
0
 10
-0.372406
 20
0.348099
 30
0.0
 11
-0.376404
 21
0.340958
 31
0.0
  0
LINE
  5
2E9
  8
0
 10
-0.376404
 20
0.340958
 30
0.0
 11
-0.381287
 21
0.334412
 31
0.0
  0
LINE
  5
2EA
  8
0
 10
-0.381287
 20
0.334412
 30
0.0
 11
-0.386993
 21
0.328552
 31
0.0
  0
LINE
  5
2EB
  8
0
 10
-0.386993
 20
0.328552
 30
0.0
 11
-0.393417
 21
0.323486
 31
0.0
  0
LINE
  5
2EC
  8
0
 10
-0.393417
 20
0.323486
 30
0.0
 11
-0.400436
 21
0.319305
 31
0.0
  0
LINE
  5
2ED
  8
0
 10
-0.400436
 20
0.319305
 30
0.0
 11
-0.407959
 21
0.316086
 31
0.0
  0
LINE
  5
2EE
  8
0
 10
-0.407959
 20
0.316086
 30
0.0
 11
-0.415817
 21
0.313858
 31
0.0
  0
LINE
  5
2EF
  8
0
 10
-0.415817
 20
0.313858
 30
0.0
 11
-0.42392
 21
0.312698
 31
0.0
  0
LINE
  5
2F0
  8
0
 10
-0.42392
 20
0.312698
 30
0.0
 11
-0.428818
 21
0.3125
 31
0.0
  0
LINE
  5
2F1
  8
0
 10
-0.428818
 20
0.3125
 30
0.0
 11
-0.438782
 21
0.3125
 31
0.0
  0
LINE
  5
2F2
  8
0
 10
0.45549
 20
0.0435028
 30
0.0
 11
0.447388
 21
0.0445557
 31
0.0
  0
LINE
  5
2F3
  8
0
 10
0.447388
 20
0.0445557
 30
0.0
 11
0.439484
 21
0.0466766
 31
0.0
  0
LINE
  5
2F4
  8
0
 10
0.439484
 20
0.0466766
 30
0.0
 11
0.431931
 21
0.0497894
 31
0.0
  0
LINE
  5
2F5
  8
0
 10
0.431931
 20
0.0497894
 30
0.0
 11
0.42485
 21
0.0538788
 31
0.0
  0
LINE
  5
2F6
  8
0
 10
0.42485
 20
0.0538788
 30
0.0
 11
0.418365
 21
0.0588531
 31
0.0
  0
LINE
  5
2F7
  8
0
 10
0.418365
 20
0.0588531
 30
0.0
 11
0.412582
 21
0.0646362
 31
0.0
  0
LINE
  5
2F8
  8
0
 10
0.412582
 20
0.0646362
 30
0.0
 11
0.407593
 21
0.0711212
 31
0.0
  0
LINE
  5
2F9
  8
0
 10
0.407593
 20
0.0711212
 30
0.0
 11
0.403503
 21
0.078186
 31
0.0
  0
LINE
  5
2FA
  8
0
 10
0.403503
 20
0.078186
 30
0.0
 11
0.400375
 21
0.0857391
 31
0.0
  0
LINE
  5
2FB
  8
0
 10
0.400375
 20
0.0857391
 30
0.0
 11
0.398254
 21
0.0936432
 31
0.0
  0
LINE
  5
2FC
  8
0
 10
0.398254
 20
0.0936432
 30
0.0
 11
0.397186
 21
0.101746
 31
0.0
  0
LINE
  5
2FD
  8
0
 10
0.397186
 20
0.101746
 30
0.0
 11
0.397186
 21
0.109924
 31
0.0
  0
LINE
  5
2FE
  8
0
 10
0.397186
 20
0.109924
 30
0.0
 11
0.398239
 21
0.118027
 31
0.0
  0
LINE
  5
2FF
  8
0
 10
0.398239
 20
0.118027
 30
0.0
 11
0.40036
 21
0.125931
 31
0.0
  0
LINE
  5
300
  8
0
 10
0.40036
 20
0.125931
 30
0.0
 11
0.403473
 21
0.133484
 31
0.0
  0
LINE
  5
301
  8
0
 10
0.403473
 20
0.133484
 30
0.0
 11
0.407562
 21
0.140564
 31
0.0
  0
LINE
  5
302
  8
0
 10
0.407562
 20
0.140564
 30
0.0
 11
0.412537
 21
0.147049
 31
0.0
  0
LINE
  5
303
  8
0
 10
0.412537
 20
0.147049
 30
0.0
 11
0.41832
 21
0.152832
 31
0.0
  0
LINE
  5
304
  8
0
 10
0.41832
 20
0.152832
 30
0.0
 11
0.424133
 21
0.157364
 31
0.0
  0
LINE
  5
305
  8
0
 10
0.424133
 20
0.157364
 30
0.0
 11
0.452026
 21
0.176544
 31
0.0
  0
LINE
  5
306
  8
0
 10
0.452026
 20
0.176544
 30
0.0
 11
0.459061
 21
0.180725
 31
0.0
  0
LINE
  5
307
  8
0
 10
0.459061
 20
0.180725
 30
0.0
 11
0.466568
 21
0.18396
 31
0.0
  0
LINE
  5
308
  8
0
 10
0.466568
 20
0.18396
 30
0.0
 11
0.474426
 21
0.186172
 31
0.0
  0
LINE
  5
309
  8
0
 10
0.474426
 20
0.186172
 30
0.0
 11
0.482529
 21
0.187347
 31
0.0
  0
LINE
  5
30A
  8
0
 10
0.482529
 20
0.187347
 30
0.0
 11
0.490692
 21
0.187454
 31
0.0
  0
LINE
  5
30B
  8
0
 10
0.490692
 20
0.187454
 30
0.0
 11
0.49881
 21
0.186508
 31
0.0
  0
LINE
  5
30C
  8
0
 10
0.49881
 20
0.186508
 30
0.0
 11
0.506744
 21
0.184494
 31
0.0
  0
LINE
  5
30D
  8
0
 10
0.506744
 20
0.184494
 30
0.0
 11
0.514328
 21
0.181458
 31
0.0
  0
LINE
  5
30E
  8
0
 10
0.514328
 20
0.181458
 30
0.0
 11
0.522156
 21
0.177017
 31
0.0
  0
LINE
  5
30F
  8
0
 10
0.522156
 20
0.177017
 30
0.0
 11
0.536377
 21
0.167511
 31
0.0
  0
LINE
  5
310
  8
0
 10
0.536377
 20
0.167511
 30
0.0
 11
0.542526
 21
0.162109
 31
0.0
  0
LINE
  5
311
  8
0
 10
0.542526
 20
0.162109
 30
0.0
 11
0.547913
 21
0.15596
 31
0.0
  0
LINE
  5
312
  8
0
 10
0.547913
 20
0.15596
 30
0.0
 11
0.552444
 21
0.149155
 31
0.0
  0
LINE
  5
313
  8
0
 10
0.552444
 20
0.149155
 30
0.0
 11
0.556046
 21
0.141815
 31
0.0
  0
LINE
  5
314
  8
0
 10
0.556046
 20
0.141815
 30
0.0
 11
0.55867
 21
0.134064
 31
0.0
  0
LINE
  5
315
  8
0
 10
0.55867
 20
0.134064
 30
0.0
 11
0.560257
 21
0.126053
 31
0.0
  0
LINE
  5
316
  8
0
 10
0.560257
 20
0.126053
 30
0.0
 11
0.560776
 21
0.117889
 31
0.0
  0
LINE
  5
317
  8
0
 10
0.560776
 20
0.117889
 30
0.0
 11
0.560394
 21
0.111069
 31
0.0
  0
LINE
  5
318
  8
0
 10
0.560394
 20
0.111069
 30
0.0
 11
0.560333
 21
0.110519
 31
0.0
  0
LINE
  5
319
  8
0
 10
0.560333
 20
0.110519
 30
0.0
 11
0.558899
 21
0.102463
 31
0.0
  0
LINE
  5
31A
  8
0
 10
0.558899
 20
0.102463
 30
0.0
 11
0.556427
 21
0.0946655
 31
0.0
  0
LINE
  5
31B
  8
0
 10
0.556427
 20
0.0946655
 30
0.0
 11
0.552963
 21
0.087265
 31
0.0
  0
LINE
  5
31C
  8
0
 10
0.552963
 20
0.087265
 30
0.0
 11
0.548553
 21
0.0803833
 31
0.0
  0
LINE
  5
31D
  8
0
 10
0.548553
 20
0.0803833
 30
0.0
 11
0.543289
 21
0.0741272
 31
0.0
  0
LINE
  5
31E
  8
0
 10
0.543289
 20
0.0741272
 30
0.0
 11
0.537262
 21
0.0686188
 31
0.0
  0
LINE
  5
31F
  8
0
 10
0.537262
 20
0.0686188
 30
0.0
 11
0.530548
 21
0.0639343
 31
0.0
  0
LINE
  5
320
  8
0
 10
0.530548
 20
0.0639343
 30
0.0
 11
0.5233
 21
0.0601654
 31
0.0
  0
LINE
  5
321
  8
0
 10
0.5233
 20
0.0601654
 30
0.0
 11
0.51561
 21
0.0573883
 31
0.0
  0
LINE
  5
322
  8
0
 10
0.51561
 20
0.0573883
 30
0.0
 11
0.510391
 21
0.0561218
 31
0.0
  0
LINE
  5
323
  8
0
 10
0.510391
 20
0.0561218
 30
0.0
 11
0.505295
 21
0.0551147
 31
0.0
  0
LINE
  5
324
  8
0
 10
0.505295
 20
0.0551147
 30
0.0
 11
0.501251
 21
0.0540314
 31
0.0
  0
LINE
  5
325
  8
0
 10
0.501251
 20
0.0540314
 30
0.0
 11
0.479675
 21
0.0466919
 31
0.0
  0
LINE
  5
326
  8
0
 10
0.479675
 20
0.0466919
 30
0.0
 11
0.471771
 21
0.0445709
 31
0.0
  0
LINE
  5
327
  8
0
 10
0.471771
 20
0.0445709
 30
0.0
 11
0.463669
 21
0.0435028
 31
0.0
  0
LINE
  5
328
  8
0
 10
0.463669
 20
0.0435028
 30
0.0
 11
0.45549
 21
0.0435028
 31
0.0
  0
LINE
  5
329
  8
0
 10
0.741837
 20
-0.00579834
 30
0.0
 11
0.733826
 21
-0.00419617
 31
0.0
  0
LINE
  5
32A
  8
0
 10
0.733826
 20
-0.00419617
 30
0.0
 11
0.726089
 21
-0.00157166
 31
0.0
  0
LINE
  5
32B
  8
0
 10
0.726089
 20
-0.00157166
 30
0.0
 11
0.71875
 21
0.00204468
 31
0.0
  0
LINE
  5
32C
  8
0
 10
0.71875
 20
0.00204468
 30
0.0
 11
0.708786
 21
0.00917053
 31
0.0
  0
LINE
  5
32D
  8
0
 10
0.708786
 20
0.00917053
 30
0.0
 11
0.703461
 21
0.0138397
 31
0.0
  0
LINE
  5
32E
  8
0
 10
0.703461
 20
0.0138397
 30
0.0
 11
0.700241
 21
0.0163116
 31
0.0
  0
LINE
  5
32F
  8
0
 10
0.700241
 20
0.0163116
 30
0.0
 11
0.678772
 21
0.0306549
 31
0.0
  0
LINE
  5
330
  8
0
 10
0.678772
 20
0.0306549
 30
0.0
 11
0.675232
 21
0.0326996
 31
0.0
  0
LINE
  5
331
  8
0
 10
0.675232
 20
0.0326996
 30
0.0
 11
0.666321
 21
0.0370941
 31
0.0
  0
LINE
  5
332
  8
0
 10
0.666321
 20
0.0370941
 30
0.0
 11
0.659241
 21
0.0411835
 31
0.0
  0
LINE
  5
333
  8
0
 10
0.659241
 20
0.0411835
 30
0.0
 11
0.652756
 21
0.0461578
 31
0.0
  0
LINE
  5
334
  8
0
 10
0.652756
 20
0.0461578
 30
0.0
 11
0.646973
 21
0.0519409
 31
0.0
  0
LINE
  5
335
  8
0
 10
0.646973
 20
0.0519409
 30
0.0
 11
0.641998
 21
0.0584259
 31
0.0
  0
LINE
  5
336
  8
0
 10
0.641998
 20
0.0584259
 30
0.0
 11
0.637909
 21
0.065506
 31
0.0
  0
LINE
  5
337
  8
0
 10
0.637909
 20
0.065506
 30
0.0
 11
0.634781
 21
0.0730591
 31
0.0
  0
LINE
  5
338
  8
0
 10
0.634781
 20
0.0730591
 30
0.0
 11
0.63266
 21
0.0809479
 31
0.0
  0
LINE
  5
339
  8
0
 10
0.63266
 20
0.0809479
 30
0.0
 11
0.631592
 21
0.0890503
 31
0.0
  0
LINE
  5
33A
  8
0
 10
0.631592
 20
0.0890503
 30
0.0
 11
0.631592
 21
0.097229
 31
0.0
  0
LINE
  5
33B
  8
0
 10
0.631592
 20
0.097229
 30
0.0
 11
0.63266
 21
0.105331
 31
0.0
  0
LINE
  5
33C
  8
0
 10
0.63266
 20
0.105331
 30
0.0
 11
0.634766
 21
0.113235
 31
0.0
  0
LINE
  5
33D
  8
0
 10
0.634766
 20
0.113235
 30
0.0
 11
0.637894
 21
0.120789
 31
0.0
  0
LINE
  5
33E
  8
0
 10
0.637894
 20
0.120789
 30
0.0
 11
0.641983
 21
0.127869
 31
0.0
  0
LINE
  5
33F
  8
0
 10
0.641983
 20
0.127869
 30
0.0
 11
0.646957
 21
0.134354
 31
0.0
  0
LINE
  5
340
  8
0
 10
0.646957
 20
0.134354
 30
0.0
 11
0.65274
 21
0.140137
 31
0.0
  0
LINE
  5
341
  8
0
 10
0.65274
 20
0.140137
 30
0.0
 11
0.659225
 21
0.145111
 31
0.0
  0
LINE
  5
342
  8
0
 10
0.659225
 20
0.145111
 30
0.0
 11
0.666306
 21
0.1492
 31
0.0
  0
LINE
  5
343
  8
0
 10
0.666306
 20
0.1492
 30
0.0
 11
0.673889
 21
0.152344
 31
0.0
  0
LINE
  5
344
  8
0
 10
0.673889
 20
0.152344
 30
0.0
 11
0.694824
 21
0.159439
 31
0.0
  0
LINE
  5
345
  8
0
 10
0.694824
 20
0.159439
 30
0.0
 11
0.698532
 21
0.16098
 31
0.0
  0
LINE
  5
346
  8
0
 10
0.698532
 20
0.16098
 30
0.0
 11
0.716934
 21
0.170044
 31
0.0
  0
LINE
  5
347
  8
0
 10
0.716934
 20
0.170044
 30
0.0
 11
0.718719
 21
0.171082
 31
0.0
  0
LINE
  5
348
  8
0
 10
0.718719
 20
0.171082
 30
0.0
 11
0.726059
 21
0.174698
 31
0.0
  0
LINE
  5
349
  8
0
 10
0.726059
 20
0.174698
 30
0.0
 11
0.733795
 21
0.177338
 31
0.0
  0
LINE
  5
34A
  8
0
 10
0.733795
 20
0.177338
 30
0.0
 11
0.741806
 21
0.17894
 31
0.0
  0
LINE
  5
34B
  8
0
 10
0.741806
 20
0.17894
 30
0.0
 11
0.749969
 21
0.179474
 31
0.0
  0
LINE
  5
34C
  8
0
 10
0.749969
 20
0.179474
 30
0.0
 11
0.758118
 21
0.17894
 31
0.0
  0
LINE
  5
34D
  8
0
 10
0.758118
 20
0.17894
 30
0.0
 11
0.766144
 21
0.177353
 31
0.0
  0
LINE
  5
34E
  8
0
 10
0.766144
 20
0.177353
 30
0.0
 11
0.77388
 21
0.174728
 31
0.0
  0
LINE
  5
34F
  8
0
 10
0.77388
 20
0.174728
 30
0.0
 11
0.781219
 21
0.171112
 31
0.0
  0
LINE
  5
350
  8
0
 10
0.781219
 20
0.171112
 30
0.0
 11
0.788025
 21
0.16658
 31
0.0
  0
LINE
  5
351
  8
0
 10
0.788025
 20
0.16658
 30
0.0
 11
0.794174
 21
0.161194
 31
0.0
  0
LINE
  5
352
  8
0
 10
0.794174
 20
0.161194
 30
0.0
 11
0.799561
 21
0.155045
 31
0.0
  0
LINE
  5
353
  8
0
 10
0.799561
 20
0.155045
 30
0.0
 11
0.804108
 21
0.148254
 31
0.0
  0
LINE
  5
354
  8
0
 10
0.804108
 20
0.148254
 30
0.0
 11
0.807724
 21
0.140915
 31
0.0
  0
LINE
  5
355
  8
0
 10
0.807724
 20
0.140915
 30
0.0
 11
0.810364
 21
0.133179
 31
0.0
  0
LINE
  5
356
  8
0
 10
0.810364
 20
0.133179
 30
0.0
 11
0.811966
 21
0.125168
 31
0.0
  0
LINE
  5
357
  8
0
 10
0.811966
 20
0.125168
 30
0.0
 11
0.8125
 21
0.116974
 31
0.0
  0
LINE
  5
358
  8
0
 10
0.8125
 20
0.116974
 30
0.0
 11
0.8125
 21
0.0561676
 31
0.0
  0
LINE
  5
359
  8
0
 10
0.8125
 20
0.0561676
 30
0.0
 11
0.811966
 21
0.0480042
 31
0.0
  0
LINE
  5
35A
  8
0
 10
0.811966
 20
0.0480042
 30
0.0
 11
0.810364
 21
0.0399933
 31
0.0
  0
LINE
  5
35B
  8
0
 10
0.810364
 20
0.0399933
 30
0.0
 11
0.807739
 21
0.0322571
 31
0.0
  0
LINE
  5
35C
  8
0
 10
0.807739
 20
0.0322571
 30
0.0
 11
0.804123
 21
0.0249176
 31
0.0
  0
LINE
  5
35D
  8
0
 10
0.804123
 20
0.0249176
 30
0.0
 11
0.799591
 21
0.0181274
 31
0.0
  0
LINE
  5
35E
  8
0
 10
0.799591
 20
0.0181274
 30
0.0
 11
0.794189
 21
0.0119781
 31
0.0
  0
LINE
  5
35F
  8
0
 10
0.794189
 20
0.0119781
 30
0.0
 11
0.78804
 21
0.00657654
 31
0.0
  0
LINE
  5
360
  8
0
 10
0.78804
 20
0.00657654
 30
0.0
 11
0.78125
 21
0.00204468
 31
0.0
  0
LINE
  5
361
  8
0
 10
0.78125
 20
0.00204468
 30
0.0
 11
0.773911
 21
-0.00157166
 31
0.0
  0
LINE
  5
362
  8
0
 10
0.773911
 20
-0.00157166
 30
0.0
 11
0.766174
 21
-0.00419617
 31
0.0
  0
LINE
  5
363
  8
0
 10
0.766174
 20
-0.00419617
 30
0.0
 11
0.758163
 21
-0.00579834
 31
0.0
  0
LINE
  5
364
  8
0
 10
0.758163
 20
-0.00579834
 30
0.0
 11
0.75
 21
-0.0063324
 31
0.0
  0
LINE
  5
365
  8
0
 10
0.75
 20
-0.0063324
 30
0.0
 11
0.741837
 21
-0.00579834
 31
0.0
  0
LINE
  5
366
  8
0
 10
-1.0092
 20
-0.267273
 30
0.0
 11
-1.01718
 21
-0.265549
 31
0.0
  0
LINE
  5
367
  8
0
 10
-1.01718
 20
-0.265549
 30
0.0
 11
-1.02489
 21
-0.262787
 31
0.0
  0
LINE
  5
368
  8
0
 10
-1.02489
 20
-0.262787
 30
0.0
 11
-1.03215
 21
-0.259048
 31
0.0
  0
LINE
  5
369
  8
0
 10
-1.03215
 20
-0.259048
 30
0.0
 11
-1.03888
 21
-0.254395
 31
0.0
  0
LINE
  5
36A
  8
0
 10
-1.03888
 20
-0.254395
 30
0.0
 11
-1.04492
 21
-0.248901
 31
0.0
  0
LINE
  5
36B
  8
0
 10
-1.04492
 20
-0.248901
 30
0.0
 11
-1.05022
 21
-0.242676
 31
0.0
  0
LINE
  5
36C
  8
0
 10
-1.05022
 20
-0.242676
 30
0.0
 11
-1.05464
 21
-0.235794
 31
0.0
  0
LINE
  5
36D
  8
0
 10
-1.05464
 20
-0.235794
 30
0.0
 11
-1.05814
 21
-0.228409
 31
0.0
  0
LINE
  5
36E
  8
0
 10
-1.05814
 20
-0.228409
 30
0.0
 11
-1.06064
 21
-0.220627
 31
0.0
  0
LINE
  5
36F
  8
0
 10
-1.06064
 20
-0.220627
 30
0.0
 11
-1.06209
 21
-0.21257
 31
0.0
  0
LINE
  5
370
  8
0
 10
-1.06209
 20
-0.21257
 30
0.0
 11
-1.0625
 21
-0.20546
 31
0.0
  0
LINE
  5
371
  8
0
 10
-1.0625
 20
-0.20546
 30
0.0
 11
-1.0625
 21
-0.111694
 31
0.0
  0
LINE
  5
372
  8
0
 10
-1.0625
 20
-0.111694
 30
0.0
 11
-1.06197
 21
-0.103531
 31
0.0
  0
LINE
  5
373
  8
0
 10
-1.06197
 20
-0.103531
 30
0.0
 11
-1.06036
 21
-0.09552
 31
0.0
  0
LINE
  5
374
  8
0
 10
-1.06036
 20
-0.09552
 30
0.0
 11
-1.05774
 21
-0.0877838
 31
0.0
  0
LINE
  5
375
  8
0
 10
-1.05774
 20
-0.0877838
 30
0.0
 11
-1.05412
 21
-0.0804443
 31
0.0
  0
LINE
  5
376
  8
0
 10
-1.05412
 20
-0.0804443
 30
0.0
 11
-1.04959
 21
-0.0736542
 31
0.0
  0
LINE
  5
377
  8
0
 10
-1.04959
 20
-0.0736542
 30
0.0
 11
-1.04419
 21
-0.0675049
 31
0.0
  0
LINE
  5
378
  8
0
 10
-1.04419
 20
-0.0675049
 30
0.0
 11
-1.03804
 21
-0.0621033
 31
0.0
  0
LINE
  5
379
  8
0
 10
-1.03804
 20
-0.0621033
 30
0.0
 11
-1.03125
 21
-0.0575714
 31
0.0
  0
LINE
  5
37A
  8
0
 10
-1.03125
 20
-0.0575714
 30
0.0
 11
-1.02391
 21
-0.0539551
 31
0.0
  0
LINE
  5
37B
  8
0
 10
-1.02391
 20
-0.0539551
 30
0.0
 11
-1.01617
 21
-0.0513306
 31
0.0
  0
LINE
  5
37C
  8
0
 10
-1.01617
 20
-0.0513306
 30
0.0
 11
-1.00816
 21
-0.0497284
 31
0.0
  0
LINE
  5
37D
  8
0
 10
-1.00816
 20
-0.0497284
 30
0.0
 11
-1.0
 21
-0.0491943
 31
0.0
  0
LINE
  5
37E
  8
0
 10
-1.0
 20
-0.0491943
 30
0.0
 11
-0.991837
 21
-0.0497284
 31
0.0
  0
LINE
  5
37F
  8
0
 10
-0.991837
 20
-0.0497284
 30
0.0
 11
-0.983078
 21
-0.0515289
 31
0.0
  0
LINE
  5
380
  8
0
 10
-0.983078
 20
-0.0515289
 30
0.0
 11
-0.806595
 21
-0.101166
 31
0.0
  0
LINE
  5
381
  8
0
 10
-0.806595
 20
-0.101166
 30
0.0
 11
-0.798889
 21
-0.103882
 31
0.0
  0
LINE
  5
382
  8
0
 10
-0.798889
 20
-0.103882
 30
0.0
 11
-0.791595
 21
-0.10759
 31
0.0
  0
LINE
  5
383
  8
0
 10
-0.791595
 20
-0.10759
 30
0.0
 11
-0.784851
 21
-0.112228
 31
0.0
  0
LINE
  5
384
  8
0
 10
-0.784851
 20
-0.112228
 30
0.0
 11
-0.778778
 21
-0.117691
 31
0.0
  0
LINE
  5
385
  8
0
 10
-0.778778
 20
-0.117691
 30
0.0
 11
-0.773468
 21
-0.123901
 31
0.0
  0
LINE
  5
386
  8
0
 10
-0.773468
 20
-0.123901
 30
0.0
 11
-0.769012
 21
-0.130753
 31
0.0
  0
LINE
  5
387
  8
0
 10
-0.769012
 20
-0.130753
 30
0.0
 11
-0.765488
 21
-0.138123
 31
0.0
  0
LINE
  5
388
  8
0
 10
-0.765488
 20
-0.138123
 30
0.0
 11
-0.762955
 21
-0.145905
 31
0.0
  0
LINE
  5
389
  8
0
 10
-0.762955
 20
-0.145905
 30
0.0
 11
-0.761459
 21
-0.153946
 31
0.0
  0
LINE
  5
38A
  8
0
 10
-0.761459
 20
-0.153946
 30
0.0
 11
-0.761017
 21
-0.162109
 31
0.0
  0
LINE
  5
38B
  8
0
 10
-0.761017
 20
-0.162109
 30
0.0
 11
-0.761658
 21
-0.170258
 31
0.0
  0
LINE
  5
38C
  8
0
 10
-0.761658
 20
-0.170258
 30
0.0
 11
-0.763351
 21
-0.178253
 31
0.0
  0
LINE
  5
38D
  8
0
 10
-0.763351
 20
-0.178253
 30
0.0
 11
-0.766068
 21
-0.185959
 31
0.0
  0
LINE
  5
38E
  8
0
 10
-0.766068
 20
-0.185959
 30
0.0
 11
-0.769775
 21
-0.193253
 31
0.0
  0
LINE
  5
38F
  8
0
 10
-0.769775
 20
-0.193253
 30
0.0
 11
-0.774414
 21
-0.199997
 31
0.0
  0
LINE
  5
390
  8
0
 10
-0.774414
 20
-0.199997
 30
0.0
 11
-0.779877
 21
-0.20607
 31
0.0
  0
LINE
  5
391
  8
0
 10
-0.779877
 20
-0.20607
 30
0.0
 11
-0.786087
 21
-0.21138
 31
0.0
  0
LINE
  5
392
  8
0
 10
-0.786087
 20
-0.21138
 30
0.0
 11
-0.792938
 21
-0.215836
 31
0.0
  0
LINE
  5
393
  8
0
 10
-0.792938
 20
-0.215836
 30
0.0
 11
-0.800308
 21
-0.21936
 31
0.0
  0
LINE
  5
394
  8
0
 10
-0.800308
 20
-0.21936
 30
0.0
 11
-0.80835
 21
-0.22197
 31
0.0
  0
LINE
  5
395
  8
0
 10
-0.80835
 20
-0.22197
 30
0.0
 11
-0.984833
 21
-0.266098
 31
0.0
  0
LINE
  5
396
  8
0
 10
-0.984833
 20
-0.266098
 30
0.0
 11
-0.992889
 21
-0.267548
 31
0.0
  0
LINE
  5
397
  8
0
 10
-0.992889
 20
-0.267548
 30
0.0
 11
-1.00105
 21
-0.267944
 31
0.0
  0
LINE
  5
398
  8
0
 10
-1.00105
 20
-0.267944
 30
0.0
 11
-1.0092
 21
-0.267273
 31
0.0
  0
LINE
  5
399
  8
0
 10
-0.594574
 20
-0.398544
 30
0.0
 11
-0.692825
 21
-0.380585
 31
0.0
  0
LINE
  5
39A
  8
0
 10
-0.692825
 20
-0.380585
 30
0.0
 11
-0.700745
 21
-0.378601
 31
0.0
  0
LINE
  5
39B
  8
0
 10
-0.700745
 20
-0.378601
 30
0.0
 11
-0.708344
 21
-0.37558
 31
0.0
  0
LINE
  5
39C
  8
0
 10
-0.708344
 20
-0.37558
 30
0.0
 11
-0.715485
 21
-0.371613
 31
0.0
  0
LINE
  5
39D
  8
0
 10
-0.715485
 20
-0.371613
 30
0.0
 11
-0.722046
 21
-0.36673
 31
0.0
  0
LINE
  5
39E
  8
0
 10
-0.722046
 20
-0.36673
 30
0.0
 11
-0.727921
 21
-0.361038
 31
0.0
  0
LINE
  5
39F
  8
0
 10
-0.727921
 20
-0.361038
 30
0.0
 11
-0.733002
 21
-0.35463
 31
0.0
  0
LINE
  5
3A0
  8
0
 10
-0.733002
 20
-0.35463
 30
0.0
 11
-0.737198
 21
-0.347626
 31
0.0
  0
LINE
  5
3A1
  8
0
 10
-0.737198
 20
-0.347626
 30
0.0
 11
-0.740448
 21
-0.340118
 31
0.0
  0
LINE
  5
3A2
  8
0
 10
-0.740448
 20
-0.340118
 30
0.0
 11
-0.742676
 21
-0.332245
 31
0.0
  0
LINE
  5
3A3
  8
0
 10
-0.742676
 20
-0.332245
 30
0.0
 11
-0.743881
 21
-0.324158
 31
0.0
  0
LINE
  5
3A4
  8
0
 10
-0.743881
 20
-0.324158
 30
0.0
 11
-0.744003
 21
-0.315994
 31
0.0
  0
LINE
  5
3A5
  8
0
 10
-0.744003
 20
-0.315994
 30
0.0
 11
-0.743057
 21
-0.307861
 31
0.0
  0
LINE
  5
3A6
  8
0
 10
-0.743057
 20
-0.307861
 30
0.0
 11
-0.741074
 21
-0.299942
 31
0.0
  0
LINE
  5
3A7
  8
0
 10
-0.741074
 20
-0.299942
 30
0.0
 11
-0.738052
 21
-0.292343
 31
0.0
  0
LINE
  5
3A8
  8
0
 10
-0.738052
 20
-0.292343
 30
0.0
 11
-0.734085
 21
-0.285202
 31
0.0
  0
LINE
  5
3A9
  8
0
 10
-0.734085
 20
-0.285202
 30
0.0
 11
-0.729202
 21
-0.278641
 31
0.0
  0
LINE
  5
3AA
  8
0
 10
-0.729202
 20
-0.278641
 30
0.0
 11
-0.723511
 21
-0.272766
 31
0.0
  0
LINE
  5
3AB
  8
0
 10
-0.723511
 20
-0.272766
 30
0.0
 11
-0.717102
 21
-0.267685
 31
0.0
  0
LINE
  5
3AC
  8
0
 10
-0.717102
 20
-0.267685
 30
0.0
 11
-0.710098
 21
-0.263489
 31
0.0
  0
LINE
  5
3AD
  8
0
 10
-0.710098
 20
-0.263489
 30
0.0
 11
-0.702591
 21
-0.260239
 31
0.0
  0
LINE
  5
3AE
  8
0
 10
-0.702591
 20
-0.260239
 30
0.0
 11
-0.696747
 21
-0.258469
 31
0.0
  0
LINE
  5
3AF
  8
0
 10
-0.696747
 20
-0.258469
 30
0.0
 11
-0.598495
 21
-0.233902
 31
0.0
  0
LINE
  5
3B0
  8
0
 10
-0.598495
 20
-0.233902
 30
0.0
 11
-0.590439
 21
-0.232452
 31
0.0
  0
LINE
  5
3B1
  8
0
 10
-0.590439
 20
-0.232452
 30
0.0
 11
-0.582275
 21
-0.232056
 31
0.0
  0
LINE
  5
3B2
  8
0
 10
-0.582275
 20
-0.232056
 30
0.0
 11
-0.574127
 21
-0.232727
 31
0.0
  0
LINE
  5
3B3
  8
0
 10
-0.574127
 20
-0.232727
 30
0.0
 11
-0.566147
 21
-0.234451
 31
0.0
  0
LINE
  5
3B4
  8
0
 10
-0.566147
 20
-0.234451
 30
0.0
 11
-0.558441
 21
-0.237213
 31
0.0
  0
LINE
  5
3B5
  8
0
 10
-0.558441
 20
-0.237213
 30
0.0
 11
-0.551178
 21
-0.240952
 31
0.0
  0
LINE
  5
3B6
  8
0
 10
-0.551178
 20
-0.240952
 30
0.0
 11
-0.544449
 21
-0.245605
 31
0.0
  0
LINE
  5
3B7
  8
0
 10
-0.544449
 20
-0.245605
 30
0.0
 11
-0.538391
 21
-0.251099
 31
0.0
  0
LINE
  5
3B8
  8
0
 10
-0.538391
 20
-0.251099
 30
0.0
 11
-0.533112
 21
-0.257324
 31
0.0
  0
LINE
  5
3B9
  8
0
 10
-0.533112
 20
-0.257324
 30
0.0
 11
-0.528687
 21
-0.264206
 31
0.0
  0
LINE
  5
3BA
  8
0
 10
-0.528687
 20
-0.264206
 30
0.0
 11
-0.525192
 21
-0.271591
 31
0.0
  0
LINE
  5
3BB
  8
0
 10
-0.525192
 20
-0.271591
 30
0.0
 11
-0.52269
 21
-0.279373
 31
0.0
  0
LINE
  5
3BC
  8
0
 10
-0.52269
 20
-0.279373
 30
0.0
 11
-0.52124
 21
-0.28743
 31
0.0
  0
LINE
  5
3BD
  8
0
 10
-0.52124
 20
-0.28743
 30
0.0
 11
-0.520828
 21
-0.29454
 31
0.0
  0
LINE
  5
3BE
  8
0
 10
-0.520828
 20
-0.29454
 30
0.0
 11
-0.520828
 21
-0.337067
 31
0.0
  0
LINE
  5
3BF
  8
0
 10
-0.520828
 20
-0.337067
 30
0.0
 11
-0.521362
 21
-0.34523
 31
0.0
  0
LINE
  5
3C0
  8
0
 10
-0.521362
 20
-0.34523
 30
0.0
 11
-0.522964
 21
-0.353241
 31
0.0
  0
LINE
  5
3C1
  8
0
 10
-0.522964
 20
-0.353241
 30
0.0
 11
-0.525589
 21
-0.360977
 31
0.0
  0
LINE
  5
3C2
  8
0
 10
-0.525589
 20
-0.360977
 30
0.0
 11
-0.529205
 21
-0.368317
 31
0.0
  0
LINE
  5
3C3
  8
0
 10
-0.529205
 20
-0.368317
 30
0.0
 11
-0.533737
 21
-0.375107
 31
0.0
  0
LINE
  5
3C4
  8
0
 10
-0.533737
 20
-0.375107
 30
0.0
 11
-0.539139
 21
-0.381256
 31
0.0
  0
LINE
  5
3C5
  8
0
 10
-0.539139
 20
-0.381256
 30
0.0
 11
-0.545288
 21
-0.386658
 31
0.0
  0
LINE
  5
3C6
  8
0
 10
-0.545288
 20
-0.386658
 30
0.0
 11
-0.552078
 21
-0.39119
 31
0.0
  0
LINE
  5
3C7
  8
0
 10
-0.552078
 20
-0.39119
 30
0.0
 11
-0.559418
 21
-0.394806
 31
0.0
  0
LINE
  5
3C8
  8
0
 10
-0.559418
 20
-0.394806
 30
0.0
 11
-0.567154
 21
-0.39743
 31
0.0
  0
LINE
  5
3C9
  8
0
 10
-0.567154
 20
-0.39743
 30
0.0
 11
-0.575165
 21
-0.399033
 31
0.0
  0
LINE
  5
3CA
  8
0
 10
-0.575165
 20
-0.399033
 30
0.0
 11
-0.583328
 21
-0.399567
 31
0.0
  0
LINE
  5
3CB
  8
0
 10
-0.583328
 20
-0.399567
 30
0.0
 11
-0.594574
 21
-0.398544
 31
0.0
  0
LINE
  5
3CC
  8
0
 10
-1.00807
 20
-0.608032
 30
0.0
 11
-1.01608
 21
-0.606445
 31
0.0
  0
LINE
  5
3CD
  8
0
 10
-1.01608
 20
-0.606445
 30
0.0
 11
-1.02383
 21
-0.603836
 31
0.0
  0
LINE
  5
3CE
  8
0
 10
-1.02383
 20
-0.603836
 30
0.0
 11
-1.03117
 21
-0.60022
 31
0.0
  0
LINE
  5
3CF
  8
0
 10
-1.03117
 20
-0.60022
 30
0.0
 11
-1.03798
 21
-0.595688
 31
0.0
  0
LINE
  5
3D0
  8
0
 10
-1.03798
 20
-0.595688
 30
0.0
 11
-1.04413
 21
-0.590317
 31
0.0
  0
LINE
  5
3D1
  8
0
 10
-1.04413
 20
-0.590317
 30
0.0
 11
-1.04953
 21
-0.584167
 31
0.0
  0
LINE
  5
3D2
  8
0
 10
-1.04953
 20
-0.584167
 30
0.0
 11
-1.05408
 21
-0.577377
 31
0.0
  0
LINE
  5
3D3
  8
0
 10
-1.05408
 20
-0.577377
 30
0.0
 11
-1.05771
 21
-0.570053
 31
0.0
  0
LINE
  5
3D4
  8
0
 10
-1.05771
 20
-0.570053
 30
0.0
 11
-1.06035
 21
-0.562317
 31
0.0
  0
LINE
  5
3D5
  8
0
 10
-1.06035
 20
-0.562317
 30
0.0
 11
-1.06195
 21
-0.554306
 31
0.0
  0
LINE
  5
3D6
  8
0
 10
-1.06195
 20
-0.554306
 30
0.0
 11
-1.0625
 21
-0.546051
 31
0.0
  0
LINE
  5
3D7
  8
0
 10
-1.0625
 20
-0.546051
 30
0.0
 11
-1.0625
 21
-0.451416
 31
0.0
  0
LINE
  5
3D8
  8
0
 10
-1.0625
 20
-0.451416
 30
0.0
 11
-1.06197
 21
-0.443253
 31
0.0
  0
LINE
  5
3D9
  8
0
 10
-1.06197
 20
-0.443253
 30
0.0
 11
-1.06036
 21
-0.435242
 31
0.0
  0
LINE
  5
3DA
  8
0
 10
-1.06036
 20
-0.435242
 30
0.0
 11
-1.05774
 21
-0.427505
 31
0.0
  0
LINE
  5
3DB
  8
0
 10
-1.05774
 20
-0.427505
 30
0.0
 11
-1.05412
 21
-0.420166
 31
0.0
  0
LINE
  5
3DC
  8
0
 10
-1.05412
 20
-0.420166
 30
0.0
 11
-1.04959
 21
-0.413376
 31
0.0
  0
LINE
  5
3DD
  8
0
 10
-1.04959
 20
-0.413376
 30
0.0
 11
-1.04419
 21
-0.407227
 31
0.0
  0
LINE
  5
3DE
  8
0
 10
-1.04419
 20
-0.407227
 30
0.0
 11
-1.03804
 21
-0.401825
 31
0.0
  0
LINE
  5
3DF
  8
0
 10
-1.03804
 20
-0.401825
 30
0.0
 11
-1.03125
 21
-0.397293
 31
0.0
  0
LINE
  5
3E0
  8
0
 10
-1.03125
 20
-0.397293
 30
0.0
 11
-1.02391
 21
-0.393677
 31
0.0
  0
LINE
  5
3E1
  8
0
 10
-1.02391
 20
-0.393677
 30
0.0
 11
-1.01617
 21
-0.391052
 31
0.0
  0
LINE
  5
3E2
  8
0
 10
-1.01617
 20
-0.391052
 30
0.0
 11
-1.00816
 21
-0.38945
 31
0.0
  0
LINE
  5
3E3
  8
0
 10
-1.00816
 20
-0.38945
 30
0.0
 11
-1.0
 21
-0.388916
 31
0.0
  0
LINE
  5
3E4
  8
0
 10
-1.0
 20
-0.388916
 30
0.0
 11
-0.988754
 21
-0.389938
 31
0.0
  0
LINE
  5
3E5
  8
0
 10
-0.988754
 20
-0.389938
 30
0.0
 11
-0.870392
 21
-0.411575
 31
0.0
  0
LINE
  5
3E6
  8
0
 10
-0.870392
 20
-0.411575
 30
0.0
 11
-0.862473
 21
-0.413559
 31
0.0
  0
LINE
  5
3E7
  8
0
 10
-0.862473
 20
-0.413559
 30
0.0
 11
-0.854874
 21
-0.41658
 31
0.0
  0
LINE
  5
3E8
  8
0
 10
-0.854874
 20
-0.41658
 30
0.0
 11
-0.847733
 21
-0.420547
 31
0.0
  0
LINE
  5
3E9
  8
0
 10
-0.847733
 20
-0.420547
 30
0.0
 11
-0.841171
 21
-0.42543
 31
0.0
  0
LINE
  5
3EA
  8
0
 10
-0.841171
 20
-0.42543
 30
0.0
 11
-0.835297
 21
-0.431122
 31
0.0
  0
LINE
  5
3EB
  8
0
 10
-0.835297
 20
-0.431122
 30
0.0
 11
-0.830215
 21
-0.437531
 31
0.0
  0
LINE
  5
3EC
  8
0
 10
-0.830215
 20
-0.437531
 30
0.0
 11
-0.826019
 21
-0.44455
 31
0.0
  0
LINE
  5
3ED
  8
0
 10
-0.826019
 20
-0.44455
 30
0.0
 11
-0.822769
 21
-0.452042
 31
0.0
  0
LINE
  5
3EE
  8
0
 10
-0.822769
 20
-0.452042
 30
0.0
 11
-0.820541
 21
-0.459915
 31
0.0
  0
LINE
  5
3EF
  8
0
 10
-0.820541
 20
-0.459915
 30
0.0
 11
-0.819336
 21
-0.468002
 31
0.0
  0
LINE
  5
3F0
  8
0
 10
-0.819336
 20
-0.468002
 30
0.0
 11
-0.819214
 21
-0.476166
 31
0.0
  0
LINE
  5
3F1
  8
0
 10
-0.819214
 20
-0.476166
 30
0.0
 11
-0.82016
 21
-0.484299
 31
0.0
  0
LINE
  5
3F2
  8
0
 10
-0.82016
 20
-0.484299
 30
0.0
 11
-0.822144
 21
-0.492218
 31
0.0
  0
LINE
  5
3F3
  8
0
 10
-0.822144
 20
-0.492218
 30
0.0
 11
-0.825165
 21
-0.499817
 31
0.0
  0
LINE
  5
3F4
  8
0
 10
-0.825165
 20
-0.499817
 30
0.0
 11
-0.829132
 21
-0.506958
 31
0.0
  0
LINE
  5
3F5
  8
0
 10
-0.829132
 20
-0.506958
 30
0.0
 11
-0.834015
 21
-0.513519
 31
0.0
  0
LINE
  5
3F6
  8
0
 10
-0.834015
 20
-0.513519
 30
0.0
 11
-0.839706
 21
-0.519394
 31
0.0
  0
LINE
  5
3F7
  8
0
 10
-0.839706
 20
-0.519394
 30
0.0
 11
-0.846115
 21
-0.524475
 31
0.0
  0
LINE
  5
3F8
  8
0
 10
-0.846115
 20
-0.524475
 30
0.0
 11
-0.853134
 21
-0.528671
 31
0.0
  0
LINE
  5
3F9
  8
0
 10
-0.853134
 20
-0.528671
 30
0.0
 11
-0.861588
 21
-0.532242
 31
0.0
  0
LINE
  5
3FA
  8
0
 10
-0.861588
 20
-0.532242
 30
0.0
 11
-0.877243
 21
-0.537552
 31
0.0
  0
LINE
  5
3FB
  8
0
 10
-0.877243
 20
-0.537552
 30
0.0
 11
-0.881226
 21
-0.539185
 31
0.0
  0
LINE
  5
3FC
  8
0
 10
-0.881226
 20
-0.539185
 30
0.0
 11
-0.90448
 21
-0.550659
 31
0.0
  0
LINE
  5
3FD
  8
0
 10
-0.90448
 20
-0.550659
 30
0.0
 11
-0.907944
 21
-0.552658
 31
0.0
  0
LINE
  5
3FE
  8
0
 10
-0.907944
 20
-0.552658
 30
0.0
 11
-0.929504
 21
-0.567062
 31
0.0
  0
LINE
  5
3FF
  8
0
 10
-0.929504
 20
-0.567062
 30
0.0
 11
-0.932617
 21
-0.569458
 31
0.0
  0
LINE
  5
400
  8
0
 10
-0.932617
 20
-0.569458
 30
0.0
 11
-0.952179
 21
-0.586609
 31
0.0
  0
LINE
  5
401
  8
0
 10
-0.952179
 20
-0.586609
 30
0.0
 11
-0.955734
 21
-0.590179
 31
0.0
  0
LINE
  5
402
  8
0
 10
-0.955734
 20
-0.590179
 30
0.0
 11
-0.961884
 21
-0.595581
 31
0.0
  0
LINE
  5
403
  8
0
 10
-0.961884
 20
-0.595581
 30
0.0
 11
-0.968674
 21
-0.600128
 31
0.0
  0
LINE
  5
404
  8
0
 10
-0.968674
 20
-0.600128
 30
0.0
 11
-0.975998
 21
-0.60376
 31
0.0
  0
LINE
  5
405
  8
0
 10
-0.975998
 20
-0.60376
 30
0.0
 11
-0.983734
 21
-0.6064
 31
0.0
  0
LINE
  5
406
  8
0
 10
-0.983734
 20
-0.6064
 30
0.0
 11
-0.991745
 21
-0.608002
 31
0.0
  0
LINE
  5
407
  8
0
 10
-0.991745
 20
-0.608002
 30
0.0
 11
-0.999908
 21
-0.608551
 31
0.0
  0
LINE
  5
408
  8
0
 10
-0.999908
 20
-0.608551
 30
0.0
 11
-1.00807
 21
-0.608032
 31
0.0
  0
CIRCLE
  5
43E
  8
0
 10
-0.7916666666666669
 20
-0.75
 30
0.0
 40
0.1666666666666667
  0
CIRCLE
  5
43F
  8
0
 10
-0.7916666666666669
 20
0.2499999999999999
 30
0.0
 40
0.25
  0
CIRCLE
  5
440
  8
0
 10
0.6249999999999999
 20
0.3333333333333333
 30
0.0
 40
0.125
  0
CIRCLE
  5
441
  8
0
 10
0.5625
 20
-0.1666666666666666
 30
0.0
 40
0.1666666666666666
  0
ENDSEC
  0
EOF
