  0
SECTION
  2
HEADER
  9
$ACADVER
  1
AC1009
  9
$DWGCODEPAGE
  3
ANSI_1252
  9
$INSBASE
 10
0.0
 20
0.0
 30
0.0
  9
$EXTMIN
 10
-100
 20
-100
 30
-100
  9
$EXTMAX
 10
100
 20
100
 30
100
  9
$LIMMIN
 10
0.0
 20
0.0
  9
$LIMMAX
 10
420.0
 20
297.0
  9
$ORTHOMODE
 70
0
  9
$REGENMODE
 70
1
  9
$DRAGMODE
 70
2
  9
$FILLMODE
 70
1
  9
$QTEXTMODE
 70
0
  9
$MIRRTEXT
 70
1
  9
$OSMODE
 70
20583
  9
$LTSCALE
 40
1.0
  9
$ATTMODE
 70
1
  9
$TEXTSIZE
 40
2.5
  9
$TRACEWID
 40
1.0
  9
$TEXTSTYLE
  7
Standard
  9
$CLAYER
  8
0
  9
$CELTYPE
  6
ByLayer
  9
$CECOLOR
 62
256
  9
$DIMSCALE
 40
1.0
  9
$DIMASZ
 40
2.5
  9
$DIMEXO
 40
0.625
  9
$DIMDLI
 40
3.75
  9
$DIMRND
 40
0.0
  9
$DIMDLE
 40
0.0
  9
$DIMEXE
 40
1.25
  9
$DIMTP
 40
0.0
  9
$DIMTM
 40
0.0
  9
$DIMTXT
 40
2.5
  9
$DIMCEN
 40
2.5
  9
$DIMTSZ
 40
0.0
  9
$DIMTOL
 70
0
  9
$DIMLIM
 70
0
  9
$DIMTIH
 70
0
  9
$DIMTOH
 70
0
  9
$DIMSE1
 70
0
  9
$DIMSE2
 70
0
  9
$DIMTAD
 70
1
  9
$DIMZIN
 70
8
  9
$DIMBLK
  1

  9
$DIMASO
 70
1
  9
$DIMSHO
 70
1
  9
$DIMPOST
  1

  9
$DIMAPOST
  1

  9
$DIMALT
 70
0
  9
$DIMALTD
 70
3
  9
$DIMALTF
 40
0.03937007874
  9
$DIMLFAC
 40
1.0
  9
$DIMTOFL
 70
1
  9
$DIMTVP
 40
0.0
  9
$DIMTIX
 70
0
  9
$DIMSOXD
 70
0
  9
$DIMSAH
 70
0
  9
$DIMBLK1
  1

  9
$DIMBLK2
  1

  9
$DIMSTYLE
  2
ISO-25
  9
$DIMCLRD
 70
0
  9
$DIMCLRE
 70
0
  9
$DIMCLRT
 70
0
  9
$DIMTFAC
 40
1.0
  9
$DIMGAP
 40
0.625
  9
$COORDS
 70
1
  9
$ATTDIA
 70
0
  9
$ATTREQ
 70
1
  9
$HANDLING
 70
1
  9
$LUNITS
 70
2
  9
$LUPREC
 70
4
  9
$SKETCHINC
 40
1.0
  9
$FILLETRAD
 40
10.0
  9
$AUNITS
 70
0
  9
$AUPREC
 70
2
  9
$MENU
  1
.
  9
$ELEVATION
 40
0.0
  9
$PELEVATION
 40
0.0
  9
$THICKNESS
 40
0.0
  9
$LIMCHECK
 70
0
  9
$CHAMFERA
 40
0.0
  9
$CHAMFERB
 40
0.0
  9
$SKPOLY
 70
0
  9
$TDCREATE
 40
2459053.5282060187
  9
$TDUPDATE
 40
2459053.5282060187
  9
$TDINDWG
 40
0.0
  9
$TDUSRTIMER
 40
0.0
  9
$USRTIMER
 70
1
  9
$ANGBASE
 50
0.0
  9
$ANGDIR
 70
0
  9
$PDMODE
 70
0
  9
$PDSIZE
 40
0.0
  9
$PLINEWID
 40
0.0
  9
$SPLFRAME
 70
0
  9
$SPLINETYPE
 70
6
  9
$SPLINESEGS
 70
8
  9
$HANDSEED
  5
517
  9
$SURFTAB1
 70
6
  9
$SURFTAB2
 70
6
  9
$SURFTYPE
 70
6
  9
$SURFU
 70
6
  9
$SURFV
 70
6
  9
$UCSNAME
  2

  9
$UCSORG
 10
0.0
 20
0.0
 30
0.0
  9
$UCSXDIR
 10
1.0
 20
0.0
 30
0.0
  9
$UCSYDIR
 10
0.0
 20
1.0
 30
0.0
  9
$PUCSNAME
  2

  9
$PUCSORG
 10
0.0
 20
0.0
 30
0.0
  9
$PUCSXDIR
 10
1.0
 20
0.0
 30
0.0
  9
$PUCSYDIR
 10
0.0
 20
1.0
 30
0.0
  9
$USERI1
 70
0
  9
$USERI2
 70
0
  9
$USERI3
 70
0
  9
$USERI4
 70
0
  9
$USERI5
 70
0
  9
$USERR1
 40
0.0
  9
$USERR2
 40
0.0
  9
$USERR3
 40
0.0
  9
$USERR4
 40
0.0
  9
$USERR5
 40
0.0
  9
$WORLDVIEW
 70
1
  9
$SHADEDGE
 70
3
  9
$SHADEDIF
 70
70
  9
$TILEMODE
 70
1
  9
$MAXACTVP
 70
64
  9
$PLIMCHECK
 70
0
  9
$PEXTMIN
 10
1e+20
 20
1e+20
 30
1e+20
  9
$PEXTMAX
 10
-1e+20
 20
-1e+20
 30
-1e+20
  9
$PLIMMIN
 10
0.0
 20
0.0
  9
$PLIMMAX
 10
420.0
 20
297.0
  9
$UNITMODE
 70
0
  9
$VISRETAIN
 70
1
  9
$PLINEGEN
 70
0
  9
$PSLTSCALE
 70
1
  0
ENDSEC
  0
SECTION
  2
TABLES
  0
TABLE
  2
VPORT
 70
1
  0
VPORT
  5
50D
  2
*Active
 70
0
 10
0.0
 20
0.0
 11
1.0
 21
1.0
 12
70.0
 22
50.0
 13
0.0
 23
0.0
 14
0.5
 24
0.5
 15
0.5
 25
0.5
 16
0.0
 26
0.0
 36
1.0
 17
0.0
 27
0.0
 37
0.0
 40
1.0
 41
1.34
 42
50.0
 43
0.0
 44
0.0
 50
0.0
 51
0.0
 71
0
 72
1000
 73
1
 74
3
 75
0
 76
0
 77
0
 78
0
  0
ENDTAB
  0
TABLE
  2
LTYPE
 70
3
  0
LTYPE
  5
50E
  2
ByBlock
 70
0
  3

 72
65
 73
0
 40
0.0
  0
LTYPE
  5
50F
  2
ByLayer
 70
0
  3

 72
65
 73
0
 40
0.0
  0
LTYPE
  5
510
  2
Continuous
 70
0
  3

 72
65
 73
0
 40
0.0
  0
ENDTAB
  0
TABLE
  2
LAYER
 70
2
  0
LAYER
  5
511
  2
0
 70
0
 62
7
  6
Continuous
  0
LAYER
  5
512
  2
Defpoints
 70
0
 62
7
  6
Continuous
  0
ENDTAB
  0
TABLE
  2
STYLE
 70
1
  0
STYLE
  5
513
  2
Standard
 70
0
 40
0.0
 41
1.0
 50
0.0
 71
0
 42
2.5
  3
txt
  4

  0
ENDTAB
  0
TABLE
  2
VIEW
 70
0
  0
ENDTAB
  0
TABLE
  2
UCS
 70
0
  0
ENDTAB
  0
TABLE
  2
APPID
 70
1
  0
APPID
  5
514
  2
ACAD
 70
0
  0
ENDTAB
  0
TABLE
  2
DIMSTYLE
 70
1
  0
DIMSTYLE
105
515
  2
Standard
 70
0
  3

  4

  5

  6

  7

 40
1.0
 41
2.5
 42
0.625
 43
3.75
 44
1.25
 45
0.0
 46
0.0
 47
0.0
 48
0.0
140
2.5
141
2.5
142
0.0
143
0.03937007874
144
1.0
145
0.0
146
1.0
147
0.625
 71
0
 72
0
 73
0
 74
0
 75
0
 76
0
 77
1
 78
8
170
0
171
3
172
1
173
0
174
0
175
0
176
0
177
0
178
0
  0
ENDTAB
  0
ENDSEC
  0
SECTION
  2
BLOCKS
  0
BLOCK
  5
4EE
  8
0
  2
$Model_Space
 70
0
 10
0.0
 20
0.0
 30
0.0
  3
$Model_Space
  1

  0
ENDBLK
  5
4EF
  8
0
  0
BLOCK
  5
4F0
  8
0
  2
$Paper_Space
 70
0
 10
0.0
 20
0.0
 30
0.0
  3
$Paper_Space
  1

  0
ENDBLK
  5
4F1
  8
0
  0
ENDSEC
  0
SECTION
  2
ENTITIES
  0
LINE
  5
100
  8
0
 10
1.80792
 20
0.124435
 30
0.0
 11
1.80772
 21
0.128082
 31
0.0
  0
LINE
  5
101
  8
0
 10
1.80772
 20
0.128082
 30
0.0
 11
1.80748
 21
0.131027
 31
0.0
  0
LINE
  5
102
  8
0
 10
1.80748
 20
0.131027
 30
0.0
 11
1.80702
 21
0.135315
 31
0.0
  0
LINE
  5
103
  8
0
 10
1.80702
 20
0.135315
 30
0.0
 11
1.80609
 21
0.141418
 31
0.0
  0
LINE
  5
104
  8
0
 10
1.80609
 20
0.141418
 30
0.0
 11
1.80551
 21
0.144409
 31
0.0
  0
LINE
  5
105
  8
0
 10
1.80551
 20
0.144409
 30
0.0
 11
1.80478
 21
0.147766
 31
0.0
  0
LINE
  5
106
  8
0
 10
1.80478
 20
0.147766
 30
0.0
 11
1.80396
 21
0.151123
 31
0.0
  0
LINE
  5
107
  8
0
 10
1.80396
 20
0.151123
 30
0.0
 11
1.80301
 21
0.154526
 31
0.0
  0
LINE
  5
108
  8
0
 10
1.80301
 20
0.154526
 30
0.0
 11
1.80208
 21
0.157562
 31
0.0
  0
LINE
  5
109
  8
0
 10
1.80208
 20
0.157562
 30
0.0
 11
1.8011
 21
0.160477
 31
0.0
  0
LINE
  5
10A
  8
0
 10
1.8011
 20
0.160477
 30
0.0
 11
1.79996
 21
0.163605
 31
0.0
  0
LINE
  5
10B
  8
0
 10
1.79996
 20
0.163605
 30
0.0
 11
1.79898
 21
0.166061
 31
0.0
  0
LINE
  5
10C
  8
0
 10
1.79898
 20
0.166061
 30
0.0
 11
1.79745
 21
0.169693
 31
0.0
  0
LINE
  5
10D
  8
0
 10
1.79745
 20
0.169693
 30
0.0
 11
1.79581
 21
0.173279
 31
0.0
  0
LINE
  5
10E
  8
0
 10
1.79581
 20
0.173279
 30
0.0
 11
1.79442
 21
0.176056
 31
0.0
  0
LINE
  5
10F
  8
0
 10
1.79442
 20
0.176056
 30
0.0
 11
1.79308
 21
0.178604
 31
0.0
  0
LINE
  5
110
  8
0
 10
1.79308
 20
0.178604
 30
0.0
 11
1.79124
 21
0.181854
 31
0.0
  0
LINE
  5
111
  8
0
 10
1.79124
 20
0.181854
 30
0.0
 11
1.78943
 21
0.184921
 31
0.0
  0
LINE
  5
112
  8
0
 10
1.78943
 20
0.184921
 30
0.0
 11
1.78775
 21
0.187546
 31
0.0
  0
LINE
  5
113
  8
0
 10
1.78775
 20
0.187546
 30
0.0
 11
1.78561
 21
0.190689
 31
0.0
  0
LINE
  5
114
  8
0
 10
1.78561
 20
0.190689
 30
0.0
 11
1.78368
 21
0.19339
 31
0.0
  0
LINE
  5
115
  8
0
 10
1.78368
 20
0.19339
 30
0.0
 11
1.78273
 21
0.194641
 31
0.0
  0
LINE
  5
116
  8
0
 10
1.78273
 20
0.194641
 30
0.0
 11
1.77957
 21
0.198624
 31
0.0
  0
LINE
  5
117
  8
0
 10
1.77957
 20
0.198624
 30
0.0
 11
1.77794
 21
0.200546
 31
0.0
  0
LINE
  5
118
  8
0
 10
1.77794
 20
0.200546
 30
0.0
 11
1.77567
 21
0.20311
 31
0.0
  0
LINE
  5
119
  8
0
 10
1.77567
 20
0.20311
 30
0.0
 11
1.77312
 21
0.205826
 31
0.0
  0
LINE
  5
11A
  8
0
 10
1.77312
 20
0.205826
 30
0.0
 11
1.77071
 21
0.208252
 31
0.0
  0
LINE
  5
11B
  8
0
 10
1.77071
 20
0.208252
 30
0.0
 11
1.7684
 21
0.210449
 31
0.0
  0
LINE
  5
11C
  8
0
 10
1.7684
 20
0.210449
 30
0.0
 11
1.76347
 21
0.214798
 31
0.0
  0
LINE
  5
11D
  8
0
 10
1.76347
 20
0.214798
 30
0.0
 11
1.76028
 21
0.217377
 31
0.0
  0
LINE
  5
11E
  8
0
 10
1.76028
 20
0.217377
 30
0.0
 11
1.75783
 21
0.219223
 31
0.0
  0
LINE
  5
11F
  8
0
 10
1.75783
 20
0.219223
 30
0.0
 11
1.75529
 21
0.221054
 31
0.0
  0
LINE
  5
120
  8
0
 10
1.75529
 20
0.221054
 30
0.0
 11
1.75273
 21
0.222794
 31
0.0
  0
LINE
  5
121
  8
0
 10
1.75273
 20
0.222794
 30
0.0
 11
1.74979
 21
0.224686
 31
0.0
  0
LINE
  5
122
  8
0
 10
1.74979
 20
0.224686
 30
0.0
 11
1.74657
 21
0.226654
 31
0.0
  0
LINE
  5
123
  8
0
 10
1.74657
 20
0.226654
 30
0.0
 11
1.7444
 21
0.227875
 31
0.0
  0
LINE
  5
124
  8
0
 10
1.7444
 20
0.227875
 30
0.0
 11
1.74132
 21
0.229538
 31
0.0
  0
LINE
  5
125
  8
0
 10
1.74132
 20
0.229538
 30
0.0
 11
1.73834
 21
0.231033
 31
0.0
  0
LINE
  5
126
  8
0
 10
1.73834
 20
0.231033
 30
0.0
 11
1.73526
 21
0.232483
 31
0.0
  0
LINE
  5
127
  8
0
 10
1.73526
 20
0.232483
 30
0.0
 11
1.73244
 21
0.233719
 31
0.0
  0
LINE
  5
128
  8
0
 10
1.73244
 20
0.233719
 30
0.0
 11
1.72876
 21
0.235199
 31
0.0
  0
LINE
  5
129
  8
0
 10
1.72876
 20
0.235199
 30
0.0
 11
1.72586
 21
0.236282
 31
0.0
  0
LINE
  5
12A
  8
0
 10
1.72586
 20
0.236282
 30
0.0
 11
1.72339
 21
0.237137
 31
0.0
  0
LINE
  5
12B
  8
0
 10
1.72339
 20
0.237137
 30
0.0
 11
1.71953
 21
0.238342
 31
0.0
  0
LINE
  5
12C
  8
0
 10
1.71953
 20
0.238342
 30
0.0
 11
1.71576
 21
0.239319
 31
0.0
  0
LINE
  5
12D
  8
0
 10
1.71576
 20
0.239319
 30
0.0
 11
1.71414
 21
0.239655
 31
0.0
  0
LINE
  5
12E
  8
0
 10
1.71414
 20
0.239655
 30
0.0
 11
1.7126
 21
0.239899
 31
0.0
  0
LINE
  5
12F
  8
0
 10
1.7126
 20
0.239899
 30
0.0
 11
1.71039
 21
0.240143
 31
0.0
  0
LINE
  5
130
  8
0
 10
1.71039
 20
0.240143
 30
0.0
 11
1.70772
 21
0.24028
 31
0.0
  0
LINE
  5
131
  8
0
 10
1.70772
 20
0.24028
 30
0.0
 11
1.70535
 21
0.240219
 31
0.0
  0
LINE
  5
132
  8
0
 10
1.70535
 20
0.240219
 30
0.0
 11
1.70329
 21
0.240082
 31
0.0
  0
LINE
  5
133
  8
0
 10
1.70329
 20
0.240082
 30
0.0
 11
1.70235
 21
0.239975
 31
0.0
  0
LINE
  5
134
  8
0
 10
1.70235
 20
0.239975
 30
0.0
 11
1.70108
 21
0.239777
 31
0.0
  0
LINE
  5
135
  8
0
 10
1.70108
 20
0.239777
 30
0.0
 11
1.69609
 21
0.238708
 31
0.0
  0
LINE
  5
136
  8
0
 10
1.69609
 20
0.238708
 30
0.0
 11
1.69533
 21
0.23848
 31
0.0
  0
LINE
  5
137
  8
0
 10
1.69533
 20
0.23848
 30
0.0
 11
1.69292
 21
0.237625
 31
0.0
  0
LINE
  5
138
  8
0
 10
1.69292
 20
0.237625
 30
0.0
 11
1.69057
 21
0.236618
 31
0.0
  0
LINE
  5
139
  8
0
 10
1.69057
 20
0.236618
 30
0.0
 11
1.68828
 21
0.235458
 31
0.0
  0
LINE
  5
13A
  8
0
 10
1.68828
 20
0.235458
 30
0.0
 11
1.68608
 21
0.234146
 31
0.0
  0
LINE
  5
13B
  8
0
 10
1.68608
 20
0.234146
 30
0.0
 11
1.68501
 21
0.233444
 31
0.0
  0
LINE
  5
13C
  8
0
 10
1.68501
 20
0.233444
 30
0.0
 11
1.68295
 21
0.231934
 31
0.0
  0
LINE
  5
13D
  8
0
 10
1.68295
 20
0.231934
 30
0.0
 11
1.68098
 21
0.230286
 31
0.0
  0
LINE
  5
13E
  8
0
 10
1.68098
 20
0.230286
 30
0.0
 11
1.67914
 21
0.228516
 31
0.0
  0
LINE
  5
13F
  8
0
 10
1.67914
 20
0.228516
 30
0.0
 11
1.67825
 21
0.227585
 31
0.0
  0
LINE
  5
140
  8
0
 10
1.67825
 20
0.227585
 30
0.0
 11
1.67659
 21
0.225647
 31
0.0
  0
LINE
  5
141
  8
0
 10
1.67659
 20
0.225647
 30
0.0
 11
1.6758
 21
0.22464
 31
0.0
  0
LINE
  5
142
  8
0
 10
1.6758
 20
0.22464
 30
0.0
 11
1.67433
 21
0.222549
 31
0.0
  0
LINE
  5
143
  8
0
 10
1.67433
 20
0.222549
 30
0.0
 11
1.67365
 21
0.221466
 31
0.0
  0
LINE
  5
144
  8
0
 10
1.67365
 20
0.221466
 30
0.0
 11
1.67238
 21
0.219238
 31
0.0
  0
LINE
  5
145
  8
0
 10
1.67238
 20
0.219238
 30
0.0
 11
1.67126
 21
0.216934
 31
0.0
  0
LINE
  5
146
  8
0
 10
1.67126
 20
0.216934
 30
0.0
 11
1.6703
 21
0.214569
 31
0.0
  0
LINE
  5
147
  8
0
 10
1.6703
 20
0.214569
 30
0.0
 11
1.6693
 21
0.211456
 31
0.0
  0
LINE
  5
148
  8
0
 10
1.6693
 20
0.211456
 30
0.0
 11
1.66837
 21
0.208038
 31
0.0
  0
LINE
  5
149
  8
0
 10
1.66837
 20
0.208038
 30
0.0
 11
1.66667
 21
0.200439
 31
0.0
  0
LINE
  5
14A
  8
0
 10
1.66667
 20
0.200439
 30
0.0
 11
1.66618
 21
0.197647
 31
0.0
  0
LINE
  5
14B
  8
0
 10
1.66618
 20
0.197647
 30
0.0
 11
1.66576
 21
0.194839
 31
0.0
  0
LINE
  5
14C
  8
0
 10
1.66576
 20
0.194839
 30
0.0
 11
1.66499
 21
0.18779
 31
0.0
  0
LINE
  5
14D
  8
0
 10
1.66499
 20
0.18779
 30
0.0
 11
1.66473
 21
0.183548
 31
0.0
  0
LINE
  5
14E
  8
0
 10
1.66473
 20
0.183548
 30
0.0
 11
1.66464
 21
0.180008
 31
0.0
  0
LINE
  5
14F
  8
0
 10
1.66464
 20
0.180008
 30
0.0
 11
1.66464
 21
-0.0924683
 31
0.0
  0
LINE
  5
150
  8
0
 10
1.66464
 20
-0.0924683
 30
0.0
 11
1.65724
 21
-0.0924683
 31
0.0
  0
LINE
  5
151
  8
0
 10
1.65724
 20
-0.0924683
 30
0.0
 11
1.65724
 21
0.125443
 31
0.0
  0
LINE
  5
152
  8
0
 10
1.65724
 20
0.125443
 30
0.0
 11
1.65718
 21
0.129303
 31
0.0
  0
LINE
  5
153
  8
0
 10
1.65718
 20
0.129303
 30
0.0
 11
1.65698
 21
0.133163
 31
0.0
  0
LINE
  5
154
  8
0
 10
1.65698
 20
0.133163
 30
0.0
 11
1.65668
 21
0.137024
 31
0.0
  0
LINE
  5
155
  8
0
 10
1.65668
 20
0.137024
 30
0.0
 11
1.65623
 21
0.140854
 31
0.0
  0
LINE
  5
156
  8
0
 10
1.65623
 20
0.140854
 30
0.0
 11
1.65565
 21
0.144684
 31
0.0
  0
LINE
  5
157
  8
0
 10
1.65565
 20
0.144684
 30
0.0
 11
1.65497
 21
0.148483
 31
0.0
  0
LINE
  5
158
  8
0
 10
1.65497
 20
0.148483
 30
0.0
 11
1.65416
 21
0.152267
 31
0.0
  0
LINE
  5
159
  8
0
 10
1.65416
 20
0.152267
 30
0.0
 11
1.65321
 21
0.156006
 31
0.0
  0
LINE
  5
15A
  8
0
 10
1.65321
 20
0.156006
 30
0.0
 11
1.65215
 21
0.159729
 31
0.0
  0
LINE
  5
15B
  8
0
 10
1.65215
 20
0.159729
 30
0.0
 11
1.65097
 21
0.163406
 31
0.0
  0
LINE
  5
15C
  8
0
 10
1.65097
 20
0.163406
 30
0.0
 11
1.64967
 21
0.167053
 31
0.0
  0
LINE
  5
15D
  8
0
 10
1.64967
 20
0.167053
 30
0.0
 11
1.64825
 21
0.170639
 31
0.0
  0
LINE
  5
15E
  8
0
 10
1.64825
 20
0.170639
 30
0.0
 11
1.64671
 21
0.174194
 31
0.0
  0
LINE
  5
15F
  8
0
 10
1.64671
 20
0.174194
 30
0.0
 11
1.64507
 21
0.177689
 31
0.0
  0
LINE
  5
160
  8
0
 10
1.64507
 20
0.177689
 30
0.0
 11
1.6433
 21
0.181122
 31
0.0
  0
LINE
  5
161
  8
0
 10
1.6433
 20
0.181122
 30
0.0
 11
1.64142
 21
0.184494
 31
0.0
  0
LINE
  5
162
  8
0
 10
1.64142
 20
0.184494
 30
0.0
 11
1.63943
 21
0.18782
 31
0.0
  0
LINE
  5
163
  8
0
 10
1.63943
 20
0.18782
 30
0.0
 11
1.63733
 21
0.191055
 31
0.0
  0
LINE
  5
164
  8
0
 10
1.63733
 20
0.191055
 30
0.0
 11
1.63513
 21
0.194244
 31
0.0
  0
LINE
  5
165
  8
0
 10
1.63513
 20
0.194244
 30
0.0
 11
1.63283
 21
0.197342
 31
0.0
  0
LINE
  5
166
  8
0
 10
1.63283
 20
0.197342
 30
0.0
 11
1.63043
 21
0.200378
 31
0.0
  0
LINE
  5
167
  8
0
 10
1.63043
 20
0.200378
 30
0.0
 11
1.62793
 21
0.203323
 31
0.0
  0
LINE
  5
168
  8
0
 10
1.62793
 20
0.203323
 30
0.0
 11
1.62534
 21
0.206177
 31
0.0
  0
LINE
  5
169
  8
0
 10
1.62534
 20
0.206177
 30
0.0
 11
1.62265
 21
0.208954
 31
0.0
  0
LINE
  5
16A
  8
0
 10
1.62265
 20
0.208954
 30
0.0
 11
1.61987
 21
0.211655
 31
0.0
  0
LINE
  5
16B
  8
0
 10
1.61987
 20
0.211655
 30
0.0
 11
1.617
 21
0.214249
 31
0.0
  0
LINE
  5
16C
  8
0
 10
1.617
 20
0.214249
 30
0.0
 11
1.61406
 21
0.216751
 31
0.0
  0
LINE
  5
16D
  8
0
 10
1.61406
 20
0.216751
 30
0.0
 11
1.61102
 21
0.219147
 31
0.0
  0
LINE
  5
16E
  8
0
 10
1.61102
 20
0.219147
 30
0.0
 11
1.60793
 21
0.221451
 31
0.0
  0
LINE
  5
16F
  8
0
 10
1.60793
 20
0.221451
 30
0.0
 11
1.60475
 21
0.223648
 31
0.0
  0
LINE
  5
170
  8
0
 10
1.60475
 20
0.223648
 30
0.0
 11
1.6015
 21
0.225739
 31
0.0
  0
LINE
  5
171
  8
0
 10
1.6015
 20
0.225739
 30
0.0
 11
1.59819
 21
0.227737
 31
0.0
  0
LINE
  5
172
  8
0
 10
1.59819
 20
0.227737
 30
0.0
 11
1.5948
 21
0.229614
 31
0.0
  0
LINE
  5
173
  8
0
 10
1.5948
 20
0.229614
 30
0.0
 11
1.59137
 21
0.231369
 31
0.0
  0
LINE
  5
174
  8
0
 10
1.59137
 20
0.231369
 30
0.0
 11
1.58788
 21
0.233032
 31
0.0
  0
LINE
  5
175
  8
0
 10
1.58788
 20
0.233032
 30
0.0
 11
1.58432
 21
0.234558
 31
0.0
  0
LINE
  5
176
  8
0
 10
1.58432
 20
0.234558
 30
0.0
 11
1.58073
 21
0.235977
 31
0.0
  0
LINE
  5
177
  8
0
 10
1.58073
 20
0.235977
 30
0.0
 11
1.57709
 21
0.237289
 31
0.0
  0
LINE
  5
178
  8
0
 10
1.57709
 20
0.237289
 30
0.0
 11
1.57341
 21
0.238464
 31
0.0
  0
LINE
  5
179
  8
0
 10
1.57341
 20
0.238464
 30
0.0
 11
1.57051
 21
0.239304
 31
0.0
  0
LINE
  5
17A
  8
0
 10
1.57051
 20
0.239304
 30
0.0
 11
1.57002
 21
0.239395
 31
0.0
  0
LINE
  5
17B
  8
0
 10
1.57002
 20
0.239395
 30
0.0
 11
1.5676
 21
0.240051
 31
0.0
  0
LINE
  5
17C
  8
0
 10
1.5676
 20
0.240051
 30
0.0
 11
1.5639
 21
0.240906
 31
0.0
  0
LINE
  5
17D
  8
0
 10
1.5639
 20
0.240906
 30
0.0
 11
1.55994
 21
0.241684
 31
0.0
  0
LINE
  5
17E
  8
0
 10
1.55994
 20
0.241684
 30
0.0
 11
1.55659
 21
0.242233
 31
0.0
  0
LINE
  5
17F
  8
0
 10
1.55659
 20
0.242233
 30
0.0
 11
1.55188
 21
0.242844
 31
0.0
  0
LINE
  5
180
  8
0
 10
1.55188
 20
0.242844
 30
0.0
 11
1.54932
 21
0.243088
 31
0.0
  0
LINE
  5
181
  8
0
 10
1.54932
 20
0.243088
 30
0.0
 11
1.54427
 21
0.243423
 31
0.0
  0
LINE
  5
182
  8
0
 10
1.54427
 20
0.243423
 30
0.0
 11
1.53842
 21
0.243561
 31
0.0
  0
LINE
  5
183
  8
0
 10
1.53842
 20
0.243561
 30
0.0
 11
1.52483
 21
0.243561
 31
0.0
  0
LINE
  5
184
  8
0
 10
1.52483
 20
0.243561
 30
0.0
 11
1.51685
 21
0.243042
 31
0.0
  0
LINE
  5
185
  8
0
 10
1.51685
 20
0.243042
 30
0.0
 11
1.51666
 21
0.24292
 31
0.0
  0
LINE
  5
186
  8
0
 10
1.51666
 20
0.24292
 30
0.0
 11
1.51666
 21
-0.213318
 31
0.0
  0
LINE
  5
187
  8
0
 10
1.51666
 20
-0.213318
 30
0.0
 11
1.27495
 21
-0.213318
 31
0.0
  0
LINE
  5
188
  8
0
 10
1.27495
 20
-0.213318
 30
0.0
 11
1.25526
 21
-0.193634
 31
0.0
  0
LINE
  5
189
  8
0
 10
1.25526
 20
-0.193634
 30
0.0
 11
1.25526
 21
-0.112152
 31
0.0
  0
LINE
  5
18A
  8
0
 10
1.25526
 20
-0.112152
 30
0.0
 11
1.23557
 21
-0.0924683
 31
0.0
  0
LINE
  5
18B
  8
0
 10
1.23557
 20
-0.0924683
 30
0.0
 11
1.21822
 21
-0.0924683
 31
0.0
  0
LINE
  5
18C
  8
0
 10
1.21822
 20
-0.0924683
 30
0.0
 11
1.19853
 21
-0.0727844
 31
0.0
  0
LINE
  5
18D
  8
0
 10
1.19853
 20
-0.0727844
 30
0.0
 11
1.19853
 21
0.24292
 31
0.0
  0
LINE
  5
18E
  8
0
 10
1.19853
 20
0.24292
 30
0.0
 11
1.19835
 21
0.243042
 31
0.0
  0
LINE
  5
18F
  8
0
 10
1.19835
 20
0.243042
 30
0.0
 11
1.19037
 21
0.243561
 31
0.0
  0
LINE
  5
190
  8
0
 10
1.19037
 20
0.243561
 30
0.0
 11
1.13522
 21
0.243561
 31
0.0
  0
LINE
  5
191
  8
0
 10
1.13522
 20
0.243561
 30
0.0
 11
1.12701
 21
0.243027
 31
0.0
  0
LINE
  5
192
  8
0
 10
1.12701
 20
0.243027
 30
0.0
 11
1.12701
 21
0.11467
 31
0.0
  0
LINE
  5
193
  8
0
 10
1.12701
 20
0.11467
 30
0.0
 11
1.0777
 21
0.11467
 31
0.0
  0
LINE
  5
194
  8
0
 10
1.0777
 20
0.11467
 30
0.0
 11
1.0777
 21
0.243027
 31
0.0
  0
LINE
  5
195
  8
0
 10
1.0777
 20
0.243027
 30
0.0
 11
1.06949
 21
0.243561
 31
0.0
  0
LINE
  5
196
  8
0
 10
1.06949
 20
0.243561
 30
0.0
 11
0.773895
 21
0.243561
 31
0.0
  0
LINE
  5
197
  8
0
 10
0.773895
 20
0.243561
 30
0.0
 11
0.769836
 21
0.2435
 31
0.0
  0
LINE
  5
198
  8
0
 10
0.769836
 20
0.2435
 30
0.0
 11
0.766205
 21
0.243378
 31
0.0
  0
LINE
  5
199
  8
0
 10
0.766205
 20
0.243378
 30
0.0
 11
0.761368
 21
0.243057
 31
0.0
  0
LINE
  5
19A
  8
0
 10
0.761368
 20
0.243057
 30
0.0
 11
0.757156
 21
0.24263
 31
0.0
  0
LINE
  5
19B
  8
0
 10
0.757156
 20
0.24263
 30
0.0
 11
0.753555
 21
0.242157
 31
0.0
  0
LINE
  5
19C
  8
0
 10
0.753555
 20
0.242157
 30
0.0
 11
0.748566
 21
0.241333
 31
0.0
  0
LINE
  5
19D
  8
0
 10
0.748566
 20
0.241333
 30
0.0
 11
0.74437
 21
0.240494
 31
0.0
  0
LINE
  5
19E
  8
0
 10
0.74437
 20
0.240494
 30
0.0
 11
0.74028
 21
0.239532
 31
0.0
  0
LINE
  5
19F
  8
0
 10
0.74028
 20
0.239532
 30
0.0
 11
0.735825
 21
0.238327
 31
0.0
  0
LINE
  5
1A0
  8
0
 10
0.735825
 20
0.238327
 30
0.0
 11
0.732025
 21
0.237167
 31
0.0
  0
LINE
  5
1A1
  8
0
 10
0.732025
 20
0.237167
 30
0.0
 11
0.728119
 21
0.23584
 31
0.0
  0
LINE
  5
1A2
  8
0
 10
0.728119
 20
0.23584
 30
0.0
 11
0.723557
 21
0.234116
 31
0.0
  0
LINE
  5
1A3
  8
0
 10
0.723557
 20
0.234116
 30
0.0
 11
0.720444
 21
0.232819
 31
0.0
  0
LINE
  5
1A4
  8
0
 10
0.720444
 20
0.232819
 30
0.0
 11
0.715591
 21
0.230637
 31
0.0
  0
LINE
  5
1A5
  8
0
 10
0.715591
 20
0.230637
 30
0.0
 11
0.712082
 21
0.228897
 31
0.0
  0
LINE
  5
1A6
  8
0
 10
0.712082
 20
0.228897
 30
0.0
 11
0.70787
 21
0.226639
 31
0.0
  0
LINE
  5
1A7
  8
0
 10
0.70787
 20
0.226639
 30
0.0
 11
0.704178
 21
0.224487
 31
0.0
  0
LINE
  5
1A8
  8
0
 10
0.704178
 20
0.224487
 30
0.0
 11
0.701065
 21
0.222549
 31
0.0
  0
LINE
  5
1A9
  8
0
 10
0.701065
 20
0.222549
 30
0.0
 11
0.697601
 21
0.220245
 31
0.0
  0
LINE
  5
1AA
  8
0
 10
0.697601
 20
0.220245
 30
0.0
 11
0.693619
 21
0.217377
 31
0.0
  0
LINE
  5
1AB
  8
0
 10
0.693619
 20
0.217377
 30
0.0
 11
0.690247
 21
0.214798
 31
0.0
  0
LINE
  5
1AC
  8
0
 10
0.690247
 20
0.214798
 30
0.0
 11
0.686417
 21
0.211639
 31
0.0
  0
LINE
  5
1AD
  8
0
 10
0.686417
 20
0.211639
 30
0.0
 11
0.68335
 21
0.208923
 31
0.0
  0
LINE
  5
1AE
  8
0
 10
0.68335
 20
0.208923
 30
0.0
 11
0.680588
 21
0.206314
 31
0.0
  0
LINE
  5
1AF
  8
0
 10
0.680588
 20
0.206314
 30
0.0
 11
0.677597
 21
0.203339
 31
0.0
  0
LINE
  5
1B0
  8
0
 10
0.677597
 20
0.203339
 30
0.0
 11
0.674118
 21
0.1996
 31
0.0
  0
LINE
  5
1B1
  8
0
 10
0.674118
 20
0.1996
 30
0.0
 11
0.671295
 21
0.19635
 31
0.0
  0
LINE
  5
1B2
  8
0
 10
0.671295
 20
0.19635
 30
0.0
 11
0.668564
 21
0.192993
 31
0.0
  0
LINE
  5
1B3
  8
0
 10
0.668564
 20
0.192993
 30
0.0
 11
0.666519
 21
0.190323
 31
0.0
  0
LINE
  5
1B4
  8
0
 10
0.666519
 20
0.190323
 30
0.0
 11
0.663696
 21
0.186401
 31
0.0
  0
LINE
  5
1B5
  8
0
 10
0.663696
 20
0.186401
 30
0.0
 11
0.661102
 21
0.182495
 31
0.0
  0
LINE
  5
1B6
  8
0
 10
0.661102
 20
0.182495
 30
0.0
 11
0.658997
 21
0.179077
 31
0.0
  0
LINE
  5
1B7
  8
0
 10
0.658997
 20
0.179077
 30
0.0
 11
0.656891
 21
0.175415
 31
0.0
  0
LINE
  5
1B8
  8
0
 10
0.656891
 20
0.175415
 30
0.0
 11
0.654572
 21
0.171051
 31
0.0
  0
LINE
  5
1B9
  8
0
 10
0.654572
 20
0.171051
 30
0.0
 11
0.653015
 21
0.167877
 31
0.0
  0
LINE
  5
1BA
  8
0
 10
0.653015
 20
0.167877
 30
0.0
 11
0.651184
 21
0.163834
 31
0.0
  0
LINE
  5
1BB
  8
0
 10
0.651184
 20
0.163834
 30
0.0
 11
0.649551
 21
0.159897
 31
0.0
  0
LINE
  5
1BC
  8
0
 10
0.649551
 20
0.159897
 30
0.0
 11
0.647995
 21
0.155731
 31
0.0
  0
LINE
  5
1BD
  8
0
 10
0.647995
 20
0.155731
 30
0.0
 11
0.646652
 21
0.15181
 31
0.0
  0
LINE
  5
1BE
  8
0
 10
0.646652
 20
0.15181
 30
0.0
 11
0.645233
 21
0.147156
 31
0.0
  0
LINE
  5
1BF
  8
0
 10
0.645233
 20
0.147156
 30
0.0
 11
0.644257
 21
0.143478
 31
0.0
  0
LINE
  5
1C0
  8
0
 10
0.644257
 20
0.143478
 30
0.0
 11
0.643158
 21
0.138702
 31
0.0
  0
LINE
  5
1C1
  8
0
 10
0.643158
 20
0.138702
 30
0.0
 11
0.64238
 21
0.134674
 31
0.0
  0
LINE
  5
1C2
  8
0
 10
0.64238
 20
0.134674
 30
0.0
 11
0.641693
 21
0.130524
 31
0.0
  0
LINE
  5
1C3
  8
0
 10
0.641693
 20
0.130524
 30
0.0
 11
0.641068
 21
0.125641
 31
0.0
  0
LINE
  5
1C4
  8
0
 10
0.641068
 20
0.125641
 30
0.0
 11
0.640747
 21
0.122452
 31
0.0
  0
LINE
  5
1C5
  8
0
 10
0.640747
 20
0.122452
 30
0.0
 11
0.640427
 21
0.117599
 31
0.0
  0
LINE
  5
1C6
  8
0
 10
0.640427
 20
0.117599
 30
0.0
 11
0.640305
 21
0.113647
 31
0.0
  0
LINE
  5
1C7
  8
0
 10
0.640305
 20
0.113647
 30
0.0
 11
0.640259
 21
0.109924
 31
0.0
  0
LINE
  5
1C8
  8
0
 10
0.640259
 20
0.109924
 30
0.0
 11
0.640259
 21
0.043457
 31
0.0
  0
LINE
  5
1C9
  8
0
 10
0.640259
 20
0.043457
 30
0.0
 11
0.640488
 21
0.039093
 31
0.0
  0
LINE
  5
1CA
  8
0
 10
0.640488
 20
0.039093
 30
0.0
 11
0.64093
 21
0.0359344
 31
0.0
  0
LINE
  5
1CB
  8
0
 10
0.64093
 20
0.0359344
 30
0.0
 11
0.64151
 21
0.0331421
 31
0.0
  0
LINE
  5
1CC
  8
0
 10
0.64151
 20
0.0331421
 30
0.0
 11
0.64212
 21
0.0310211
 31
0.0
  0
LINE
  5
1CD
  8
0
 10
0.64212
 20
0.0310211
 30
0.0
 11
0.643234
 21
0.0279083
 31
0.0
  0
LINE
  5
1CE
  8
0
 10
0.643234
 20
0.0279083
 30
0.0
 11
0.643692
 21
0.0268402
 31
0.0
  0
LINE
  5
1CF
  8
0
 10
0.643692
 20
0.0268402
 30
0.0
 11
0.644699
 21
0.0247192
 31
0.0
  0
LINE
  5
1D0
  8
0
 10
0.644699
 20
0.0247192
 30
0.0
 11
0.645203
 21
0.0237885
 31
0.0
  0
LINE
  5
1D1
  8
0
 10
0.645203
 20
0.0237885
 30
0.0
 11
0.646439
 21
0.0217438
 31
0.0
  0
LINE
  5
1D2
  8
0
 10
0.646439
 20
0.0217438
 30
0.0
 11
0.647446
 21
0.0202637
 31
0.0
  0
LINE
  5
1D3
  8
0
 10
0.647446
 20
0.0202637
 30
0.0
 11
0.647888
 21
0.0195007
 31
0.0
  0
LINE
  5
1D4
  8
0
 10
0.647888
 20
0.0195007
 30
0.0
 11
0.649353
 21
0.0176239
 31
0.0
  0
LINE
  5
1D5
  8
0
 10
0.649353
 20
0.0176239
 30
0.0
 11
0.650635
 21
0.0161591
 31
0.0
  0
LINE
  5
1D6
  8
0
 10
0.650635
 20
0.0161591
 30
0.0
 11
0.651993
 21
0.0147552
 31
0.0
  0
LINE
  5
1D7
  8
0
 10
0.651993
 20
0.0147552
 30
0.0
 11
0.653412
 21
0.0134125
 31
0.0
  0
LINE
  5
1D8
  8
0
 10
0.653412
 20
0.0134125
 30
0.0
 11
0.654892
 21
0.0121613
 31
0.0
  0
LINE
  5
1D9
  8
0
 10
0.654892
 20
0.0121613
 30
0.0
 11
0.656448
 21
0.0109711
 31
0.0
  0
LINE
  5
1DA
  8
0
 10
0.656448
 20
0.0109711
 30
0.0
 11
0.658051
 21
0.00985718
 31
0.0
  0
LINE
  5
1DB
  8
0
 10
0.658051
 20
0.00985718
 30
0.0
 11
0.659698
 21
0.00883484
 31
0.0
  0
LINE
  5
1DC
  8
0
 10
0.659698
 20
0.00883484
 30
0.0
 11
0.661407
 21
0.00788879
 31
0.0
  0
LINE
  5
1DD
  8
0
 10
0.661407
 20
0.00788879
 30
0.0
 11
0.663162
 21
0.0070343
 31
0.0
  0
LINE
  5
1DE
  8
0
 10
0.663162
 20
0.0070343
 30
0.0
 11
0.664948
 21
0.0062561
 31
0.0
  0
LINE
  5
1DF
  8
0
 10
0.664948
 20
0.0062561
 30
0.0
 11
0.666779
 21
0.00556946
 31
0.0
  0
LINE
  5
1E0
  8
0
 10
0.666779
 20
0.00556946
 30
0.0
 11
0.66864
 21
0.00498962
 31
0.0
  0
LINE
  5
1E1
  8
0
 10
0.66864
 20
0.00498962
 30
0.0
 11
0.670517
 21
0.00448608
 31
0.0
  0
LINE
  5
1E2
  8
0
 10
0.670517
 20
0.00448608
 30
0.0
 11
0.672424
 21
0.00408936
 31
0.0
  0
LINE
  5
1E3
  8
0
 10
0.672424
 20
0.00408936
 30
0.0
 11
0.674347
 21
0.00376892
 31
0.0
  0
LINE
  5
1E4
  8
0
 10
0.674347
 20
0.00376892
 30
0.0
 11
0.676285
 21
0.0035553
 31
0.0
  0
LINE
  5
1E5
  8
0
 10
0.676285
 20
0.0035553
 30
0.0
 11
0.678238
 21
0.00344849
 31
0.0
  0
LINE
  5
1E6
  8
0
 10
0.678238
 20
0.00344849
 30
0.0
 11
0.680191
 21
0.00341797
 31
0.0
  0
LINE
  5
1E7
  8
0
 10
0.680191
 20
0.00341797
 30
0.0
 11
0.682129
 21
0.00349426
 31
0.0
  0
LINE
  5
1E8
  8
0
 10
0.682129
 20
0.00349426
 30
0.0
 11
0.684082
 21
0.00367737
 31
0.0
  0
LINE
  5
1E9
  8
0
 10
0.684082
 20
0.00367737
 30
0.0
 11
0.686005
 21
0.00393677
 31
0.0
  0
LINE
  5
1EA
  8
0
 10
0.686005
 20
0.00393677
 30
0.0
 11
0.687927
 21
0.00430298
 31
0.0
  0
LINE
  5
1EB
  8
0
 10
0.687927
 20
0.00430298
 30
0.0
 11
0.689819
 21
0.00476074
 31
0.0
  0
LINE
  5
1EC
  8
0
 10
0.689819
 20
0.00476074
 30
0.0
 11
0.691681
 21
0.00531006
 31
0.0
  0
LINE
  5
1ED
  8
0
 10
0.691681
 20
0.00531006
 30
0.0
 11
0.693527
 21
0.00595093
 31
0.0
  0
LINE
  5
1EE
  8
0
 10
0.693527
 20
0.00595093
 30
0.0
 11
0.695328
 21
0.00668335
 31
0.0
  0
LINE
  5
1EF
  8
0
 10
0.695328
 20
0.00668335
 30
0.0
 11
0.697098
 21
0.00750732
 31
0.0
  0
LINE
  5
1F0
  8
0
 10
0.697098
 20
0.00750732
 30
0.0
 11
0.698822
 21
0.00842285
 31
0.0
  0
LINE
  5
1F1
  8
0
 10
0.698822
 20
0.00842285
 30
0.0
 11
0.7005
 21
0.00941467
 31
0.0
  0
LINE
  5
1F2
  8
0
 10
0.7005
 20
0.00941467
 30
0.0
 11
0.702133
 21
0.0104828
 31
0.0
  0
LINE
  5
1F3
  8
0
 10
0.702133
 20
0.0104828
 30
0.0
 11
0.703705
 21
0.0116425
 31
0.0
  0
LINE
  5
1F4
  8
0
 10
0.703705
 20
0.0116425
 30
0.0
 11
0.705215
 21
0.0128632
 31
0.0
  0
LINE
  5
1F5
  8
0
 10
0.705215
 20
0.0128632
 30
0.0
 11
0.706665
 21
0.0141754
 31
0.0
  0
LINE
  5
1F6
  8
0
 10
0.706665
 20
0.0141754
 30
0.0
 11
0.708054
 21
0.0155487
 31
0.0
  0
LINE
  5
1F7
  8
0
 10
0.708054
 20
0.0155487
 30
0.0
 11
0.709457
 21
0.0168762
 31
0.0
  0
LINE
  5
1F8
  8
0
 10
0.709457
 20
0.0168762
 30
0.0
 11
0.710922
 21
0.0181274
 31
0.0
  0
LINE
  5
1F9
  8
0
 10
0.710922
 20
0.0181274
 30
0.0
 11
0.712448
 21
0.0193024
 31
0.0
  0
LINE
  5
1FA
  8
0
 10
0.712448
 20
0.0193024
 30
0.0
 11
0.71402
 21
0.020401
 31
0.0
  0
LINE
  5
1FB
  8
0
 10
0.71402
 20
0.020401
 30
0.0
 11
0.715668
 21
0.0214386
 31
0.0
  0
LINE
  5
1FC
  8
0
 10
0.715668
 20
0.0214386
 30
0.0
 11
0.717346
 21
0.0223694
 31
0.0
  0
LINE
  5
1FD
  8
0
 10
0.717346
 20
0.0223694
 30
0.0
 11
0.71907
 21
0.0232391
 31
0.0
  0
LINE
  5
1FE
  8
0
 10
0.71907
 20
0.0232391
 30
0.0
 11
0.72084
 21
0.0240173
 31
0.0
  0
LINE
  5
1FF
  8
0
 10
0.72084
 20
0.0240173
 30
0.0
 11
0.722641
 21
0.024704
 31
0.0
  0
LINE
  5
200
  8
0
 10
0.722641
 20
0.024704
 30
0.0
 11
0.724472
 21
0.0252991
 31
0.0
  0
LINE
  5
201
  8
0
 10
0.724472
 20
0.0252991
 30
0.0
 11
0.726334
 21
0.0258026
 31
0.0
  0
LINE
  5
202
  8
0
 10
0.726334
 20
0.0258026
 30
0.0
 11
0.72821
 21
0.0262146
 31
0.0
  0
LINE
  5
203
  8
0
 10
0.72821
 20
0.0262146
 30
0.0
 11
0.730118
 21
0.026535
 31
0.0
  0
LINE
  5
204
  8
0
 10
0.730118
 20
0.026535
 30
0.0
 11
0.732025
 21
0.0267639
 31
0.0
  0
LINE
  5
205
  8
0
 10
0.732025
 20
0.0267639
 30
0.0
 11
0.733948
 21
0.0269012
 31
0.0
  0
LINE
  5
206
  8
0
 10
0.733948
 20
0.0269012
 30
0.0
 11
0.735886
 21
0.026947
 31
0.0
  0
LINE
  5
207
  8
0
 10
0.735886
 20
0.026947
 30
0.0
 11
0.737808
 21
0.0269012
 31
0.0
  0
LINE
  5
208
  8
0
 10
0.737808
 20
0.0269012
 30
0.0
 11
0.739731
 21
0.0267487
 31
0.0
  0
LINE
  5
209
  8
0
 10
0.739731
 20
0.0267487
 30
0.0
 11
0.741653
 21
0.0265045
 31
0.0
  0
LINE
  5
20A
  8
0
 10
0.741653
 20
0.0265045
 30
0.0
 11
0.743546
 21
0.0261688
 31
0.0
  0
LINE
  5
20B
  8
0
 10
0.743546
 20
0.0261688
 30
0.0
 11
0.745422
 21
0.0257416
 31
0.0
  0
LINE
  5
20C
  8
0
 10
0.745422
 20
0.0257416
 30
0.0
 11
0.747284
 21
0.0252228
 31
0.0
  0
LINE
  5
20D
  8
0
 10
0.747284
 20
0.0252228
 30
0.0
 11
0.749115
 21
0.0246124
 31
0.0
  0
LINE
  5
20E
  8
0
 10
0.749115
 20
0.0246124
 30
0.0
 11
0.750916
 21
0.0239105
 31
0.0
  0
LINE
  5
20F
  8
0
 10
0.750916
 20
0.0239105
 30
0.0
 11
0.75267
 21
0.0231323
 31
0.0
  0
LINE
  5
210
  8
0
 10
0.75267
 20
0.0231323
 30
0.0
 11
0.754395
 21
0.0222626
 31
0.0
  0
LINE
  5
211
  8
0
 10
0.754395
 20
0.0222626
 30
0.0
 11
0.756073
 21
0.0213013
 31
0.0
  0
LINE
  5
212
  8
0
 10
0.756073
 20
0.0213013
 30
0.0
 11
0.75769
 21
0.0202637
 31
0.0
  0
LINE
  5
213
  8
0
 10
0.75769
 20
0.0202637
 30
0.0
 11
0.759277
 21
0.0191498
 31
0.0
  0
LINE
  5
214
  8
0
 10
0.759277
 20
0.0191498
 30
0.0
 11
0.760788
 21
0.0179749
 31
0.0
  0
LINE
  5
215
  8
0
 10
0.760788
 20
0.0179749
 30
0.0
 11
0.762253
 21
0.0167084
 31
0.0
  0
LINE
  5
216
  8
0
 10
0.762253
 20
0.0167084
 30
0.0
 11
0.763641
 21
0.0153809
 31
0.0
  0
LINE
  5
217
  8
0
 10
0.763641
 20
0.0153809
 30
0.0
 11
0.764969
 21
0.0139771
 31
0.0
  0
LINE
  5
218
  8
0
 10
0.764969
 20
0.0139771
 30
0.0
 11
0.76622
 21
0.0125122
 31
0.0
  0
LINE
  5
219
  8
0
 10
0.76622
 20
0.0125122
 30
0.0
 11
0.76741
 21
0.0109863
 31
0.0
  0
LINE
  5
21A
  8
0
 10
0.76741
 20
0.0109863
 30
0.0
 11
0.768524
 21
0.00941467
 31
0.0
  0
LINE
  5
21B
  8
0
 10
0.768524
 20
0.00941467
 30
0.0
 11
0.769547
 21
0.00778198
 31
0.0
  0
LINE
  5
21C
  8
0
 10
0.769547
 20
0.00778198
 30
0.0
 11
0.770493
 21
0.00610352
 31
0.0
  0
LINE
  5
21D
  8
0
 10
0.770493
 20
0.00610352
 30
0.0
 11
0.771362
 21
0.00437927
 31
0.0
  0
LINE
  5
21E
  8
0
 10
0.771362
 20
0.00437927
 30
0.0
 11
0.772141
 21
0.00260925
 31
0.0
  0
LINE
  5
21F
  8
0
 10
0.772141
 20
0.00260925
 30
0.0
 11
0.772842
 21
0.000808716
 31
0.0
  0
LINE
  5
220
  8
0
 10
0.772842
 20
0.000808716
 30
0.0
 11
0.773438
 21
-0.00100708
 31
0.0
  0
LINE
  5
221
  8
0
 10
0.773438
 20
-0.00100708
 30
0.0
 11
0.773956
 21
-0.00285339
 31
0.0
  0
LINE
  5
222
  8
0
 10
0.773956
 20
-0.00285339
 30
0.0
 11
0.774368
 21
-0.00474548
 31
0.0
  0
LINE
  5
223
  8
0
 10
0.774368
 20
-0.00474548
 30
0.0
 11
0.774704
 21
-0.00663757
 31
0.0
  0
LINE
  5
224
  8
0
 10
0.774704
 20
-0.00663757
 30
0.0
 11
0.774933
 21
-0.00856018
 31
0.0
  0
LINE
  5
225
  8
0
 10
0.774933
 20
-0.00856018
 30
0.0
 11
0.775085
 21
-0.0104828
 31
0.0
  0
LINE
  5
226
  8
0
 10
0.775085
 20
-0.0104828
 30
0.0
 11
0.775131
 21
-0.0124054
 31
0.0
  0
LINE
  5
227
  8
0
 10
0.775131
 20
-0.0124054
 30
0.0
 11
0.775146
 21
-0.0328522
 31
0.0
  0
LINE
  5
228
  8
0
 10
0.775146
 20
-0.0328522
 30
0.0
 11
0.775223
 21
-0.0342255
 31
0.0
  0
LINE
  5
229
  8
0
 10
0.775223
 20
-0.0342255
 30
0.0
 11
0.775345
 21
-0.0355988
 31
0.0
  0
LINE
  5
22A
  8
0
 10
0.775345
 20
-0.0355988
 30
0.0
 11
0.775513
 21
-0.036972
 31
0.0
  0
LINE
  5
22B
  8
0
 10
0.775513
 20
-0.036972
 30
0.0
 11
0.775986
 21
-0.0396729
 31
0.0
  0
LINE
  5
22C
  8
0
 10
0.775986
 20
-0.0396729
 30
0.0
 11
0.776291
 21
-0.0410156
 31
0.0
  0
LINE
  5
22D
  8
0
 10
0.776291
 20
-0.0410156
 30
0.0
 11
0.777054
 21
-0.0436554
 31
0.0
  0
LINE
  5
22E
  8
0
 10
0.777054
 20
-0.0436554
 30
0.0
 11
0.777496
 21
-0.0449524
 31
0.0
  0
LINE
  5
22F
  8
0
 10
0.777496
 20
-0.0449524
 30
0.0
 11
0.778534
 21
-0.0475006
 31
0.0
  0
LINE
  5
230
  8
0
 10
0.778534
 20
-0.0475006
 30
0.0
 11
0.779739
 21
-0.0499725
 31
0.0
  0
LINE
  5
231
  8
0
 10
0.779739
 20
-0.0499725
 30
0.0
 11
0.781113
 21
-0.0523529
 31
0.0
  0
LINE
  5
232
  8
0
 10
0.781113
 20
-0.0523529
 30
0.0
 11
0.78186
 21
-0.0534973
 31
0.0
  0
LINE
  5
233
  8
0
 10
0.78186
 20
-0.0534973
 30
0.0
 11
0.783478
 21
-0.0557251
 31
0.0
  0
LINE
  5
234
  8
0
 10
0.783478
 20
-0.0557251
 30
0.0
 11
0.784332
 21
-0.0567932
 31
0.0
  0
LINE
  5
235
  8
0
 10
0.784332
 20
-0.0567932
 30
0.0
 11
0.786179
 21
-0.0588379
 31
0.0
  0
LINE
  5
236
  8
0
 10
0.786179
 20
-0.0588379
 30
0.0
 11
0.788162
 21
-0.0607452
 31
0.0
  0
LINE
  5
237
  8
0
 10
0.788162
 20
-0.0607452
 30
0.0
 11
0.790253
 21
-0.0625153
 31
0.0
  0
LINE
  5
238
  8
0
 10
0.790253
 20
-0.0625153
 30
0.0
 11
0.791351
 21
-0.0633392
 31
0.0
  0
LINE
  5
239
  8
0
 10
0.791351
 20
-0.0633392
 30
0.0
 11
0.79364
 21
-0.0648804
 31
0.0
  0
LINE
  5
23A
  8
0
 10
0.79364
 20
-0.0648804
 30
0.0
 11
0.796021
 21
-0.0662537
 31
0.0
  0
LINE
  5
23B
  8
0
 10
0.796021
 20
-0.0662537
 30
0.0
 11
0.798492
 21
-0.0674438
 31
0.0
  0
LINE
  5
23C
  8
0
 10
0.798492
 20
-0.0674438
 30
0.0
 11
0.799744
 21
-0.0679932
 31
0.0
  0
LINE
  5
23D
  8
0
 10
0.799744
 20
-0.0679932
 30
0.0
 11
0.802338
 21
-0.068924
 31
0.0
  0
LINE
  5
23E
  8
0
 10
0.802338
 20
-0.068924
 30
0.0
 11
0.80365
 21
-0.0693359
 31
0.0
  0
LINE
  5
23F
  8
0
 10
0.80365
 20
-0.0693359
 30
0.0
 11
0.804977
 21
-0.0696869
 31
0.0
  0
LINE
  5
240
  8
0
 10
0.804977
 20
-0.0696869
 30
0.0
 11
0.80632
 21
-0.0699921
 31
0.0
  0
LINE
  5
241
  8
0
 10
0.80632
 20
-0.0699921
 30
0.0
 11
0.807663
 21
-0.0702515
 31
0.0
  0
LINE
  5
242
  8
0
 10
0.807663
 20
-0.0702515
 30
0.0
 11
0.809021
 21
-0.0704651
 31
0.0
  0
LINE
  5
243
  8
0
 10
0.809021
 20
-0.0704651
 30
0.0
 11
0.810379
 21
-0.0706329
 31
0.0
  0
LINE
  5
244
  8
0
 10
0.810379
 20
-0.0706329
 30
0.0
 11
0.811752
 21
-0.070755
 31
0.0
  0
LINE
  5
245
  8
0
 10
0.811752
 20
-0.070755
 30
0.0
 11
0.813126
 21
-0.0708313
 31
0.0
  0
LINE
  5
246
  8
0
 10
0.813126
 20
-0.0708313
 30
0.0
 11
0.814499
 21
-0.0708618
 31
0.0
  0
LINE
  5
247
  8
0
 10
0.814499
 20
-0.0708618
 30
0.0
 11
0.815872
 21
-0.0708313
 31
0.0
  0
LINE
  5
248
  8
0
 10
0.815872
 20
-0.0708313
 30
0.0
 11
0.817245
 21
-0.070755
 31
0.0
  0
LINE
  5
249
  8
0
 10
0.817245
 20
-0.070755
 30
0.0
 11
0.88649
 21
-0.0635071
 31
0.0
  0
LINE
  5
24A
  8
0
 10
0.88649
 20
-0.0635071
 30
0.0
 11
0.888016
 21
-0.0633087
 31
0.0
  0
LINE
  5
24B
  8
0
 10
0.888016
 20
-0.0633087
 30
0.0
 11
0.889526
 21
-0.0630646
 31
0.0
  0
LINE
  5
24C
  8
0
 10
0.889526
 20
-0.0630646
 30
0.0
 11
0.891022
 21
-0.0627594
 31
0.0
  0
LINE
  5
24D
  8
0
 10
0.891022
 20
-0.0627594
 30
0.0
 11
0.892517
 21
-0.0623932
 31
0.0
  0
LINE
  5
24E
  8
0
 10
0.892517
 20
-0.0623932
 30
0.0
 11
0.893982
 21
-0.0619659
 31
0.0
  0
LINE
  5
24F
  8
0
 10
0.893982
 20
-0.0619659
 30
0.0
 11
0.895447
 21
-0.0614929
 31
0.0
  0
LINE
  5
250
  8
0
 10
0.895447
 20
-0.0614929
 30
0.0
 11
0.896881
 21
-0.0609589
 31
0.0
  0
LINE
  5
251
  8
0
 10
0.896881
 20
-0.0609589
 30
0.0
 11
0.898285
 21
-0.0603638
 31
0.0
  0
LINE
  5
252
  8
0
 10
0.898285
 20
-0.0603638
 30
0.0
 11
0.899673
 21
-0.0597229
 31
0.0
  0
LINE
  5
253
  8
0
 10
0.899673
 20
-0.0597229
 30
0.0
 11
0.901047
 21
-0.059021
 31
0.0
  0
LINE
  5
254
  8
0
 10
0.901047
 20
-0.059021
 30
0.0
 11
0.902374
 21
-0.0582733
 31
0.0
  0
LINE
  5
255
  8
0
 10
0.902374
 20
-0.0582733
 30
0.0
 11
0.903671
 21
-0.0574646
 31
0.0
  0
LINE
  5
256
  8
0
 10
0.903671
 20
-0.0574646
 30
0.0
 11
0.904953
 21
-0.0566101
 31
0.0
  0
LINE
  5
257
  8
0
 10
0.904953
 20
-0.0566101
 30
0.0
 11
0.906189
 21
-0.0557098
 31
0.0
  0
LINE
  5
258
  8
0
 10
0.906189
 20
-0.0557098
 30
0.0
 11
0.907394
 21
-0.0547638
 31
0.0
  0
LINE
  5
259
  8
0
 10
0.907394
 20
-0.0547638
 30
0.0
 11
0.909683
 21
-0.0527191
 31
0.0
  0
LINE
  5
25A
  8
0
 10
0.909683
 20
-0.0527191
 30
0.0
 11
0.910767
 21
-0.0516357
 31
0.0
  0
LINE
  5
25B
  8
0
 10
0.910767
 20
-0.0516357
 30
0.0
 11
0.911804
 21
-0.0505219
 31
0.0
  0
LINE
  5
25C
  8
0
 10
0.911804
 20
-0.0505219
 30
0.0
 11
0.912796
 21
-0.0493469
 31
0.0
  0
LINE
  5
25D
  8
0
 10
0.912796
 20
-0.0493469
 30
0.0
 11
0.913742
 21
-0.0481415
 31
0.0
  0
LINE
  5
25E
  8
0
 10
0.913742
 20
-0.0481415
 30
0.0
 11
0.914642
 21
-0.0469055
 31
0.0
  0
LINE
  5
25F
  8
0
 10
0.914642
 20
-0.0469055
 30
0.0
 11
0.915497
 21
-0.045639
 31
0.0
  0
LINE
  5
260
  8
0
 10
0.915497
 20
-0.045639
 30
0.0
 11
0.916306
 21
-0.0443268
 31
0.0
  0
LINE
  5
261
  8
0
 10
0.916306
 20
-0.0443268
 30
0.0
 11
0.917053
 21
-0.0429993
 31
0.0
  0
LINE
  5
262
  8
0
 10
0.917053
 20
-0.0429993
 30
0.0
 11
0.917755
 21
-0.0416412
 31
0.0
  0
LINE
  5
263
  8
0
 10
0.917755
 20
-0.0416412
 30
0.0
 11
0.918396
 21
-0.0402527
 31
0.0
  0
LINE
  5
264
  8
0
 10
0.918396
 20
-0.0402527
 30
0.0
 11
0.918991
 21
-0.0388336
 31
0.0
  0
LINE
  5
265
  8
0
 10
0.918991
 20
-0.0388336
 30
0.0
 11
0.919525
 21
-0.0373993
 31
0.0
  0
LINE
  5
266
  8
0
 10
0.919525
 20
-0.0373993
 30
0.0
 11
0.919998
 21
-0.0359497
 31
0.0
  0
LINE
  5
267
  8
0
 10
0.919998
 20
-0.0359497
 30
0.0
 11
0.920425
 21
-0.0344696
 31
0.0
  0
LINE
  5
268
  8
0
 10
0.920425
 20
-0.0344696
 30
0.0
 11
0.920792
 21
-0.0329895
 31
0.0
  0
LINE
  5
269
  8
0
 10
0.920792
 20
-0.0329895
 30
0.0
 11
0.921097
 21
-0.0314789
 31
0.0
  0
LINE
  5
26A
  8
0
 10
0.921097
 20
-0.0314789
 30
0.0
 11
0.921341
 21
-0.0299683
 31
0.0
  0
LINE
  5
26B
  8
0
 10
0.921341
 20
-0.0299683
 30
0.0
 11
0.921539
 21
-0.0284576
 31
0.0
  0
LINE
  5
26C
  8
0
 10
0.921539
 20
-0.0284576
 30
0.0
 11
0.921661
 21
-0.0269318
 31
0.0
  0
LINE
  5
26D
  8
0
 10
0.921661
 20
-0.0269318
 30
0.0
 11
0.921738
 21
-0.0253906
 31
0.0
  0
LINE
  5
26E
  8
0
 10
0.921738
 20
-0.0253906
 30
0.0
 11
0.921753
 21
-0.0238647
 31
0.0
  0
LINE
  5
26F
  8
0
 10
0.921753
 20
-0.0238647
 30
0.0
 11
0.921692
 21
-0.0223389
 31
0.0
  0
LINE
  5
270
  8
0
 10
0.921692
 20
-0.0223389
 30
0.0
 11
0.921585
 21
-0.020813
 31
0.0
  0
LINE
  5
271
  8
0
 10
0.921585
 20
-0.020813
 30
0.0
 11
0.921417
 21
-0.0192871
 31
0.0
  0
LINE
  5
272
  8
0
 10
0.921417
 20
-0.0192871
 30
0.0
 11
0.921204
 21
-0.0177765
 31
0.0
  0
LINE
  5
273
  8
0
 10
0.921204
 20
-0.0177765
 30
0.0
 11
0.920914
 21
-0.0162659
 31
0.0
  0
LINE
  5
274
  8
0
 10
0.920914
 20
-0.0162659
 30
0.0
 11
0.920563
 21
-0.0147705
 31
0.0
  0
LINE
  5
275
  8
0
 10
0.920563
 20
-0.0147705
 30
0.0
 11
0.920166
 21
-0.0132904
 31
0.0
  0
LINE
  5
276
  8
0
 10
0.920166
 20
-0.0132904
 30
0.0
 11
0.919708
 21
-0.0118408
 31
0.0
  0
LINE
  5
277
  8
0
 10
0.919708
 20
-0.0118408
 30
0.0
 11
0.919189
 21
-0.0103912
 31
0.0
  0
LINE
  5
278
  8
0
 10
0.919189
 20
-0.0103912
 30
0.0
 11
0.917526
 21
-0.00628662
 31
0.0
  0
LINE
  5
279
  8
0
 10
0.917526
 20
-0.00628662
 30
0.0
 11
0.916534
 21
-0.00357056
 31
0.0
  0
LINE
  5
27A
  8
0
 10
0.916534
 20
-0.00357056
 30
0.0
 11
0.915619
 21
-0.000823975
 31
0.0
  0
LINE
  5
27B
  8
0
 10
0.915619
 20
-0.000823975
 30
0.0
 11
0.91478
 21
0.00192261
 31
0.0
  0
LINE
  5
27C
  8
0
 10
0.91478
 20
0.00192261
 30
0.0
 11
0.914047
 21
0.00473022
 31
0.0
  0
LINE
  5
27D
  8
0
 10
0.914047
 20
0.00473022
 30
0.0
 11
0.913391
 21
0.0075531
 31
0.0
  0
LINE
  5
27E
  8
0
 10
0.913391
 20
0.0075531
 30
0.0
 11
0.912827
 21
0.0103912
 31
0.0
  0
LINE
  5
27F
  8
0
 10
0.912827
 20
0.0103912
 30
0.0
 11
0.912354
 21
0.0132446
 31
0.0
  0
LINE
  5
280
  8
0
 10
0.912354
 20
0.0132446
 30
0.0
 11
0.911972
 21
0.0161133
 31
0.0
  0
LINE
  5
281
  8
0
 10
0.911972
 20
0.0161133
 30
0.0
 11
0.911682
 21
0.0189972
 31
0.0
  0
LINE
  5
282
  8
0
 10
0.911682
 20
0.0189972
 30
0.0
 11
0.911484
 21
0.0218811
 31
0.0
  0
LINE
  5
283
  8
0
 10
0.911484
 20
0.0218811
 30
0.0
 11
0.911377
 21
0.024765
 31
0.0
  0
LINE
  5
284
  8
0
 10
0.911377
 20
0.024765
 30
0.0
 11
0.911362
 21
0.0276642
 31
0.0
  0
LINE
  5
285
  8
0
 10
0.911362
 20
0.0276642
 30
0.0
 11
0.911438
 21
0.0305634
 31
0.0
  0
LINE
  5
286
  8
0
 10
0.911438
 20
0.0305634
 30
0.0
 11
0.911606
 21
0.0334473
 31
0.0
  0
LINE
  5
287
  8
0
 10
0.911606
 20
0.0334473
 30
0.0
 11
0.911865
 21
0.0363312
 31
0.0
  0
LINE
  5
288
  8
0
 10
0.911865
 20
0.0363312
 30
0.0
 11
0.912216
 21
0.0391998
 31
0.0
  0
LINE
  5
289
  8
0
 10
0.912216
 20
0.0391998
 30
0.0
 11
0.912659
 21
0.0420685
 31
0.0
  0
LINE
  5
28A
  8
0
 10
0.912659
 20
0.0420685
 30
0.0
 11
0.913193
 21
0.0449066
 31
0.0
  0
LINE
  5
28B
  8
0
 10
0.913193
 20
0.0449066
 30
0.0
 11
0.913818
 21
0.0477295
 31
0.0
  0
LINE
  5
28C
  8
0
 10
0.913818
 20
0.0477295
 30
0.0
 11
0.91452
 21
0.0505371
 31
0.0
  0
LINE
  5
28D
  8
0
 10
0.91452
 20
0.0505371
 30
0.0
 11
0.915329
 21
0.0533142
 31
0.0
  0
LINE
  5
28E
  8
0
 10
0.915329
 20
0.0533142
 30
0.0
 11
0.916214
 21
0.056076
 31
0.0
  0
LINE
  5
28F
  8
0
 10
0.916214
 20
0.056076
 30
0.0
 11
0.917191
 21
0.0588074
 31
0.0
  0
LINE
  5
290
  8
0
 10
0.917191
 20
0.0588074
 30
0.0
 11
0.918243
 21
0.0614929
 31
0.0
  0
LINE
  5
291
  8
0
 10
0.918243
 20
0.0614929
 30
0.0
 11
0.919388
 21
0.0641479
 31
0.0
  0
LINE
  5
292
  8
0
 10
0.919388
 20
0.0641479
 30
0.0
 11
0.920609
 21
0.0667725
 31
0.0
  0
LINE
  5
293
  8
0
 10
0.920609
 20
0.0667725
 30
0.0
 11
0.921921
 21
0.0693512
 31
0.0
  0
LINE
  5
294
  8
0
 10
0.921921
 20
0.0693512
 30
0.0
 11
0.923325
 21
0.0718994
 31
0.0
  0
LINE
  5
295
  8
0
 10
0.923325
 20
0.0718994
 30
0.0
 11
0.924789
 21
0.0743866
 31
0.0
  0
LINE
  5
296
  8
0
 10
0.924789
 20
0.0743866
 30
0.0
 11
0.926331
 21
0.076828
 31
0.0
  0
LINE
  5
297
  8
0
 10
0.926331
 20
0.076828
 30
0.0
 11
0.927963
 21
0.0792236
 31
0.0
  0
LINE
  5
298
  8
0
 10
0.927963
 20
0.0792236
 30
0.0
 11
0.929672
 21
0.0815582
 31
0.0
  0
LINE
  5
299
  8
0
 10
0.929672
 20
0.0815582
 30
0.0
 11
0.931442
 21
0.083847
 31
0.0
  0
LINE
  5
29A
  8
0
 10
0.931442
 20
0.083847
 30
0.0
 11
0.933289
 21
0.0860748
 31
0.0
  0
LINE
  5
29B
  8
0
 10
0.933289
 20
0.0860748
 30
0.0
 11
0.935196
 21
0.0882568
 31
0.0
  0
LINE
  5
29C
  8
0
 10
0.935196
 20
0.0882568
 30
0.0
 11
0.93718
 21
0.0903625
 31
0.0
  0
LINE
  5
29D
  8
0
 10
0.93718
 20
0.0903625
 30
0.0
 11
0.93924
 21
0.0924072
 31
0.0
  0
LINE
  5
29E
  8
0
 10
0.93924
 20
0.0924072
 30
0.0
 11
0.941345
 21
0.0943756
 31
0.0
  0
LINE
  5
29F
  8
0
 10
0.941345
 20
0.0943756
 30
0.0
 11
0.943527
 21
0.096283
 31
0.0
  0
LINE
  5
2A0
  8
0
 10
0.943527
 20
0.096283
 30
0.0
 11
0.945755
 21
0.0981293
 31
0.0
  0
LINE
  5
2A1
  8
0
 10
0.945755
 20
0.0981293
 30
0.0
 11
0.948044
 21
0.0998993
 31
0.0
  0
LINE
  5
2A2
  8
0
 10
0.948044
 20
0.0998993
 30
0.0
 11
0.950394
 21
0.101593
 31
0.0
  0
LINE
  5
2A3
  8
0
 10
0.950394
 20
0.101593
 30
0.0
 11
0.952789
 21
0.10321
 31
0.0
  0
LINE
  5
2A4
  8
0
 10
0.952789
 20
0.10321
 30
0.0
 11
0.955231
 21
0.104752
 31
0.0
  0
LINE
  5
2A5
  8
0
 10
0.955231
 20
0.104752
 30
0.0
 11
0.957733
 21
0.106216
 31
0.0
  0
LINE
  5
2A6
  8
0
 10
0.957733
 20
0.106216
 30
0.0
 11
0.960281
 21
0.107605
 31
0.0
  0
LINE
  5
2A7
  8
0
 10
0.960281
 20
0.107605
 30
0.0
 11
0.96286
 21
0.108917
 31
0.0
  0
LINE
  5
2A8
  8
0
 10
0.96286
 20
0.108917
 30
0.0
 11
0.944519
 21
0.146729
 31
0.0
  0
LINE
  5
2A9
  8
0
 10
0.944519
 20
0.146729
 30
0.0
 11
0.992432
 21
0.169937
 31
0.0
  0
LINE
  5
2AA
  8
0
 10
0.992432
 20
0.169937
 30
0.0
 11
0.994904
 21
0.170929
 31
0.0
  0
LINE
  5
2AB
  8
0
 10
0.994904
 20
0.170929
 30
0.0
 11
0.996155
 21
0.171371
 31
0.0
  0
LINE
  5
2AC
  8
0
 10
0.996155
 20
0.171371
 30
0.0
 11
0.998718
 21
0.172104
 31
0.0
  0
LINE
  5
2AD
  8
0
 10
0.998718
 20
0.172104
 30
0.0
 11
1.00002
 21
0.172409
 31
0.0
  0
LINE
  5
2AE
  8
0
 10
1.00002
 20
0.172409
 30
0.0
 11
1.00262
 21
0.172897
 31
0.0
  0
LINE
  5
2AF
  8
0
 10
1.00262
 20
0.172897
 30
0.0
 11
1.00395
 21
0.173065
 31
0.0
  0
LINE
  5
2B0
  8
0
 10
1.00395
 20
0.173065
 30
0.0
 11
1.00661
 21
0.173279
 31
0.0
  0
LINE
  5
2B1
  8
0
 10
1.00661
 20
0.173279
 30
0.0
 11
1.00926
 21
0.173309
 31
0.0
  0
LINE
  5
2B2
  8
0
 10
1.00926
 20
0.173309
 30
0.0
 11
1.01192
 21
0.173157
 31
0.0
  0
LINE
  5
2B3
  8
0
 10
1.01192
 20
0.173157
 30
0.0
 11
1.01324
 21
0.173019
 31
0.0
  0
LINE
  5
2B4
  8
0
 10
1.01324
 20
0.173019
 30
0.0
 11
1.01457
 21
0.172836
 31
0.0
  0
LINE
  5
2B5
  8
0
 10
1.01457
 20
0.172836
 30
0.0
 11
1.01718
 21
0.172333
 31
0.0
  0
LINE
  5
2B6
  8
0
 10
1.01718
 20
0.172333
 30
0.0
 11
1.01846
 21
0.172012
 31
0.0
  0
LINE
  5
2B7
  8
0
 10
1.01846
 20
0.172012
 30
0.0
 11
1.01974
 21
0.171646
 31
0.0
  0
LINE
  5
2B8
  8
0
 10
1.01974
 20
0.171646
 30
0.0
 11
1.02228
 21
0.170792
 31
0.0
  0
LINE
  5
2B9
  8
0
 10
1.02228
 20
0.170792
 30
0.0
 11
1.02351
 21
0.170303
 31
0.0
  0
LINE
  5
2BA
  8
0
 10
1.02351
 20
0.170303
 30
0.0
 11
1.02594
 21
0.169205
 31
0.0
  0
LINE
  5
2BB
  8
0
 10
1.02594
 20
0.169205
 30
0.0
 11
1.02827
 21
0.167938
 31
0.0
  0
LINE
  5
2BC
  8
0
 10
1.02827
 20
0.167938
 30
0.0
 11
1.03053
 21
0.166519
 31
0.0
  0
LINE
  5
2BD
  8
0
 10
1.03053
 20
0.166519
 30
0.0
 11
1.03267
 21
0.164948
 31
0.0
  0
LINE
  5
2BE
  8
0
 10
1.03267
 20
0.164948
 30
0.0
 11
1.03471
 21
0.163239
 31
0.0
  0
LINE
  5
2BF
  8
0
 10
1.03471
 20
0.163239
 30
0.0
 11
1.03664
 21
0.161392
 31
0.0
  0
LINE
  5
2C0
  8
0
 10
1.03664
 20
0.161392
 30
0.0
 11
1.03755
 21
0.160416
 31
0.0
  0
LINE
  5
2C1
  8
0
 10
1.03755
 20
0.160416
 30
0.0
 11
1.03842
 21
0.159424
 31
0.0
  0
LINE
  5
2C2
  8
0
 10
1.03842
 20
0.159424
 30
0.0
 11
1.04007
 21
0.157333
 31
0.0
  0
LINE
  5
2C3
  8
0
 10
1.04007
 20
0.157333
 30
0.0
 11
1.04085
 21
0.15625
 31
0.0
  0
LINE
  5
2C4
  8
0
 10
1.04085
 20
0.15625
 30
0.0
 11
1.04228
 21
0.154007
 31
0.0
  0
LINE
  5
2C5
  8
0
 10
1.04228
 20
0.154007
 30
0.0
 11
1.04356
 21
0.151672
 31
0.0
  0
LINE
  5
2C6
  8
0
 10
1.04356
 20
0.151672
 30
0.0
 11
1.04414
 21
0.150467
 31
0.0
  0
LINE
  5
2C7
  8
0
 10
1.04414
 20
0.150467
 30
0.0
 11
1.04468
 21
0.149246
 31
0.0
  0
LINE
  5
2C8
  8
0
 10
1.04468
 20
0.149246
 30
0.0
 11
1.04958
 21
0.136871
 31
0.0
  0
LINE
  5
2C9
  8
0
 10
1.04958
 20
0.136871
 30
0.0
 11
1.05389
 21
0.124268
 31
0.0
  0
LINE
  5
2CA
  8
0
 10
1.05389
 20
0.124268
 30
0.0
 11
1.05765
 21
0.111496
 31
0.0
  0
LINE
  5
2CB
  8
0
 10
1.05765
 20
0.111496
 30
0.0
 11
1.06082
 21
0.0985565
 31
0.0
  0
LINE
  5
2CC
  8
0
 10
1.06082
 20
0.0985565
 30
0.0
 11
1.06339
 21
0.085495
 31
0.0
  0
LINE
  5
2CD
  8
0
 10
1.06339
 20
0.085495
 30
0.0
 11
1.06537
 21
0.0723267
 31
0.0
  0
LINE
  5
2CE
  8
0
 10
1.06537
 20
0.0723267
 30
0.0
 11
1.06674
 21
0.059082
 31
0.0
  0
LINE
  5
2CF
  8
0
 10
1.06674
 20
0.059082
 30
0.0
 11
1.06752
 21
0.0457764
 31
0.0
  0
LINE
  5
2D0
  8
0
 10
1.06752
 20
0.0457764
 30
0.0
 11
1.06767
 21
0.0324707
 31
0.0
  0
LINE
  5
2D1
  8
0
 10
1.06767
 20
0.0324707
 30
0.0
 11
1.06723
 21
0.0191498
 31
0.0
  0
LINE
  5
2D2
  8
0
 10
1.06723
 20
0.0191498
 30
0.0
 11
1.06619
 21
0.00587463
 31
0.0
  0
LINE
  5
2D3
  8
0
 10
1.06619
 20
0.00587463
 30
0.0
 11
1.06454
 21
-0.00732422
 31
0.0
  0
LINE
  5
2D4
  8
0
 10
1.06454
 20
-0.00732422
 30
0.0
 11
1.06229
 21
-0.0204468
 31
0.0
  0
LINE
  5
2D5
  8
0
 10
1.06229
 20
-0.0204468
 30
0.0
 11
1.05945
 21
-0.0334625
 31
0.0
  0
LINE
  5
2D6
  8
0
 10
1.05945
 20
-0.0334625
 30
0.0
 11
1.05602
 21
-0.0463257
 31
0.0
  0
LINE
  5
2D7
  8
0
 10
1.05602
 20
-0.0463257
 30
0.0
 11
1.052
 21
-0.059021
 31
0.0
  0
LINE
  5
2D8
  8
0
 10
1.052
 20
-0.059021
 30
0.0
 11
1.04741
 21
-0.0715179
 31
0.0
  0
LINE
  5
2D9
  8
0
 10
1.04741
 20
-0.0715179
 30
0.0
 11
1.04225
 21
-0.0838013
 31
0.0
  0
LINE
  5
2DA
  8
0
 10
1.04225
 20
-0.0838013
 30
0.0
 11
1.03654
 21
-0.0958405
 31
0.0
  0
LINE
  5
2DB
  8
0
 10
1.03654
 20
-0.0958405
 30
0.0
 11
1.0303
 21
-0.10759
 31
0.0
  0
LINE
  5
2DC
  8
0
 10
1.0303
 20
-0.10759
 30
0.0
 11
1.02351
 21
-0.119064
 31
0.0
  0
LINE
  5
2DD
  8
0
 10
1.02351
 20
-0.119064
 30
0.0
 11
1.01624
 21
-0.130203
 31
0.0
  0
LINE
  5
2DE
  8
0
 10
1.01624
 20
-0.130203
 30
0.0
 11
1.00844
 21
-0.141006
 31
0.0
  0
LINE
  5
2DF
  8
0
 10
1.00844
 20
-0.141006
 30
0.0
 11
1.00017
 21
-0.151443
 31
0.0
  0
LINE
  5
2E0
  8
0
 10
1.00017
 20
-0.151443
 30
0.0
 11
0.991425
 21
-0.161484
 31
0.0
  0
LINE
  5
2E1
  8
0
 10
0.991425
 20
-0.161484
 30
0.0
 11
0.982239
 21
-0.171127
 31
0.0
  0
LINE
  5
2E2
  8
0
 10
0.982239
 20
-0.171127
 30
0.0
 11
0.97261
 21
-0.180328
 31
0.0
  0
LINE
  5
2E3
  8
0
 10
0.97261
 20
-0.180328
 30
0.0
 11
0.962585
 21
-0.189102
 31
0.0
  0
LINE
  5
2E4
  8
0
 10
0.962585
 20
-0.189102
 30
0.0
 11
0.952164
 21
-0.197403
 31
0.0
  0
LINE
  5
2E5
  8
0
 10
0.952164
 20
-0.197403
 30
0.0
 11
0.941391
 21
-0.205215
 31
0.0
  0
LINE
  5
2E6
  8
0
 10
0.941391
 20
-0.205215
 30
0.0
 11
0.930252
 21
-0.212524
 31
0.0
  0
LINE
  5
2E7
  8
0
 10
0.930252
 20
-0.212524
 30
0.0
 11
0.918808
 21
-0.21933
 31
0.0
  0
LINE
  5
2E8
  8
0
 10
0.918808
 20
-0.21933
 30
0.0
 11
0.907059
 21
-0.225601
 31
0.0
  0
LINE
  5
2E9
  8
0
 10
0.907059
 20
-0.225601
 30
0.0
 11
0.89505
 21
-0.231339
 31
0.0
  0
LINE
  5
2EA
  8
0
 10
0.89505
 20
-0.231339
 30
0.0
 11
0.882782
 21
-0.236526
 31
0.0
  0
LINE
  5
2EB
  8
0
 10
0.882782
 20
-0.236526
 30
0.0
 11
0.870285
 21
-0.241135
 31
0.0
  0
LINE
  5
2EC
  8
0
 10
0.870285
 20
-0.241135
 30
0.0
 11
0.85759
 21
-0.245178
 31
0.0
  0
LINE
  5
2ED
  8
0
 10
0.85759
 20
-0.245178
 30
0.0
 11
0.844742
 21
-0.248642
 31
0.0
  0
LINE
  5
2EE
  8
0
 10
0.844742
 20
-0.248642
 30
0.0
 11
0.831726
 21
-0.251511
 31
0.0
  0
LINE
  5
2EF
  8
0
 10
0.831726
 20
-0.251511
 30
0.0
 11
0.818604
 21
-0.253799
 31
0.0
  0
LINE
  5
2F0
  8
0
 10
0.818604
 20
-0.253799
 30
0.0
 11
0.805405
 21
-0.255478
 31
0.0
  0
LINE
  5
2F1
  8
0
 10
0.805405
 20
-0.255478
 30
0.0
 11
0.79213
 21
-0.256546
 31
0.0
  0
LINE
  5
2F2
  8
0
 10
0.79213
 20
-0.256546
 30
0.0
 11
0.778809
 21
-0.257019
 31
0.0
  0
LINE
  5
2F3
  8
0
 10
0.778809
 20
-0.257019
 30
0.0
 11
0.765503
 21
-0.256882
 31
0.0
  0
LINE
  5
2F4
  8
0
 10
0.765503
 20
-0.256882
 30
0.0
 11
0.752197
 21
-0.256149
 31
0.0
  0
LINE
  5
2F5
  8
0
 10
0.752197
 20
-0.256149
 30
0.0
 11
0.738953
 21
-0.254791
 31
0.0
  0
LINE
  5
2F6
  8
0
 10
0.738953
 20
-0.254791
 30
0.0
 11
0.725784
 21
-0.252853
 31
0.0
  0
LINE
  5
2F7
  8
0
 10
0.725784
 20
-0.252853
 30
0.0
 11
0.712708
 21
-0.250305
 31
0.0
  0
LINE
  5
2F8
  8
0
 10
0.712708
 20
-0.250305
 30
0.0
 11
0.688034
 21
-0.244919
 31
0.0
  0
LINE
  5
2F9
  8
0
 10
0.688034
 20
-0.244919
 30
0.0
 11
0.686584
 21
-0.244629
 31
0.0
  0
LINE
  5
2FA
  8
0
 10
0.686584
 20
-0.244629
 30
0.0
 11
0.68515
 21
-0.2444
 31
0.0
  0
LINE
  5
2FB
  8
0
 10
0.68515
 20
-0.2444
 30
0.0
 11
0.683685
 21
-0.244217
 31
0.0
  0
LINE
  5
2FC
  8
0
 10
0.683685
 20
-0.244217
 30
0.0
 11
0.682236
 21
-0.244095
 31
0.0
  0
LINE
  5
2FD
  8
0
 10
0.682236
 20
-0.244095
 30
0.0
 11
0.680771
 21
-0.244019
 31
0.0
  0
LINE
  5
2FE
  8
0
 10
0.680771
 20
-0.244019
 30
0.0
 11
0.679306
 21
-0.244003
 31
0.0
  0
LINE
  5
2FF
  8
0
 10
0.679306
 20
-0.244003
 30
0.0
 11
0.677841
 21
-0.244049
 31
0.0
  0
LINE
  5
300
  8
0
 10
0.677841
 20
-0.244049
 30
0.0
 11
0.676376
 21
-0.244141
 31
0.0
  0
LINE
  5
301
  8
0
 10
0.676376
 20
-0.244141
 30
0.0
 11
0.674927
 21
-0.244293
 31
0.0
  0
LINE
  5
302
  8
0
 10
0.674927
 20
-0.244293
 30
0.0
 11
0.673477
 21
-0.244492
 31
0.0
  0
LINE
  5
303
  8
0
 10
0.673477
 20
-0.244492
 30
0.0
 11
0.672028
 21
-0.244751
 31
0.0
  0
LINE
  5
304
  8
0
 10
0.672028
 20
-0.244751
 30
0.0
 11
0.670593
 21
-0.245056
 31
0.0
  0
LINE
  5
305
  8
0
 10
0.670593
 20
-0.245056
 30
0.0
 11
0.669174
 21
-0.245422
 31
0.0
  0
LINE
  5
306
  8
0
 10
0.669174
 20
-0.245422
 30
0.0
 11
0.66777
 21
-0.245834
 31
0.0
  0
LINE
  5
307
  8
0
 10
0.66777
 20
-0.245834
 30
0.0
 11
0.666382
 21
-0.246307
 31
0.0
  0
LINE
  5
308
  8
0
 10
0.666382
 20
-0.246307
 30
0.0
 11
0.665009
 21
-0.246826
 31
0.0
  0
LINE
  5
309
  8
0
 10
0.665009
 20
-0.246826
 30
0.0
 11
0.663666
 21
-0.247391
 31
0.0
  0
LINE
  5
30A
  8
0
 10
0.663666
 20
-0.247391
 30
0.0
 11
0.661026
 21
-0.248672
 31
0.0
  0
LINE
  5
30B
  8
0
 10
0.661026
 20
-0.248672
 30
0.0
 11
0.65976
 21
-0.24939
 31
0.0
  0
LINE
  5
30C
  8
0
 10
0.65976
 20
-0.24939
 30
0.0
 11
0.658508
 21
-0.250153
 31
0.0
  0
LINE
  5
30D
  8
0
 10
0.658508
 20
-0.250153
 30
0.0
 11
0.657288
 21
-0.250961
 31
0.0
  0
LINE
  5
30E
  8
0
 10
0.657288
 20
-0.250961
 30
0.0
 11
0.656097
 21
-0.251816
 31
0.0
  0
LINE
  5
30F
  8
0
 10
0.656097
 20
-0.251816
 30
0.0
 11
0.653809
 21
-0.253647
 31
0.0
  0
LINE
  5
310
  8
0
 10
0.653809
 20
-0.253647
 30
0.0
 11
0.651672
 21
-0.255661
 31
0.0
  0
LINE
  5
311
  8
0
 10
0.651672
 20
-0.255661
 30
0.0
 11
0.650665
 21
-0.256714
 31
0.0
  0
LINE
  5
312
  8
0
 10
0.650665
 20
-0.256714
 30
0.0
 11
0.649689
 21
-0.257812
 31
0.0
  0
LINE
  5
313
  8
0
 10
0.649689
 20
-0.257812
 30
0.0
 11
0.648758
 21
-0.258942
 31
0.0
  0
LINE
  5
314
  8
0
 10
0.648758
 20
-0.258942
 30
0.0
 11
0.648056
 21
-0.259857
 31
0.0
  0
LINE
  5
315
  8
0
 10
0.648056
 20
-0.259857
 30
0.0
 11
0.645279
 21
-0.264236
 31
0.0
  0
LINE
  5
316
  8
0
 10
0.645279
 20
-0.264236
 30
0.0
 11
0.644455
 21
-0.265793
 31
0.0
  0
LINE
  5
317
  8
0
 10
0.644455
 20
-0.265793
 30
0.0
 11
0.643387
 21
-0.268082
 31
0.0
  0
LINE
  5
318
  8
0
 10
0.643387
 20
-0.268082
 30
0.0
 11
0.64267
 21
-0.269913
 31
0.0
  0
LINE
  5
319
  8
0
 10
0.64267
 20
-0.269913
 30
0.0
 11
0.641525
 21
-0.273621
 31
0.0
  0
LINE
  5
31A
  8
0
 10
0.641525
 20
-0.273621
 30
0.0
 11
0.64119
 21
-0.275085
 31
0.0
  0
LINE
  5
31B
  8
0
 10
0.64119
 20
-0.275085
 30
0.0
 11
0.640808
 21
-0.277054
 31
0.0
  0
LINE
  5
31C
  8
0
 10
0.640808
 20
-0.277054
 30
0.0
 11
0.640472
 21
-0.279633
 31
0.0
  0
LINE
  5
31D
  8
0
 10
0.640472
 20
-0.279633
 30
0.0
 11
0.640396
 21
-0.280792
 31
0.0
  0
LINE
  5
31E
  8
0
 10
0.640396
 20
-0.280792
 30
0.0
 11
0.640259
 21
-0.285019
 31
0.0
  0
LINE
  5
31F
  8
0
 10
0.640259
 20
-0.285019
 30
0.0
 11
0.640259
 21
-0.373444
 31
0.0
  0
LINE
  5
320
  8
0
 10
0.640259
 20
-0.373444
 30
0.0
 11
0.64035
 21
-0.378937
 31
0.0
  0
LINE
  5
321
  8
0
 10
0.64035
 20
-0.378937
 30
0.0
 11
0.640625
 21
-0.384247
 31
0.0
  0
LINE
  5
322
  8
0
 10
0.640625
 20
-0.384247
 30
0.0
 11
0.64122
 21
-0.390396
 31
0.0
  0
LINE
  5
323
  8
0
 10
0.64122
 20
-0.390396
 30
0.0
 11
0.642166
 21
-0.396729
 31
0.0
  0
LINE
  5
324
  8
0
 10
0.642166
 20
-0.396729
 30
0.0
 11
0.643341
 21
-0.402664
 31
0.0
  0
LINE
  5
325
  8
0
 10
0.643341
 20
-0.402664
 30
0.0
 11
0.644836
 21
-0.4086
 31
0.0
  0
LINE
  5
326
  8
0
 10
0.644836
 20
-0.4086
 30
0.0
 11
0.646561
 21
-0.414322
 31
0.0
  0
LINE
  5
327
  8
0
 10
0.646561
 20
-0.414322
 30
0.0
 11
0.648727
 21
-0.42038
 31
0.0
  0
LINE
  5
328
  8
0
 10
0.648727
 20
-0.42038
 30
0.0
 11
0.65094
 21
-0.42569
 31
0.0
  0
LINE
  5
329
  8
0
 10
0.65094
 20
-0.42569
 30
0.0
 11
0.653519
 21
-0.431168
 31
0.0
  0
LINE
  5
32A
  8
0
 10
0.653519
 20
-0.431168
 30
0.0
 11
0.656738
 21
-0.43721
 31
0.0
  0
LINE
  5
32B
  8
0
 10
0.656738
 20
-0.43721
 30
0.0
 11
0.659653
 21
-0.442047
 31
0.0
  0
LINE
  5
32C
  8
0
 10
0.659653
 20
-0.442047
 30
0.0
 11
0.663177
 21
-0.447327
 31
0.0
  0
LINE
  5
32D
  8
0
 10
0.663177
 20
-0.447327
 30
0.0
 11
0.666565
 21
-0.451904
 31
0.0
  0
LINE
  5
32E
  8
0
 10
0.666565
 20
-0.451904
 30
0.0
 11
0.670425
 21
-0.456619
 31
0.0
  0
LINE
  5
32F
  8
0
 10
0.670425
 20
-0.456619
 30
0.0
 11
0.674408
 21
-0.461044
 31
0.0
  0
LINE
  5
330
  8
0
 10
0.674408
 20
-0.461044
 30
0.0
 11
0.678802
 21
-0.465469
 31
0.0
  0
LINE
  5
331
  8
0
 10
0.678802
 20
-0.465469
 30
0.0
 11
0.683548
 21
-0.469788
 31
0.0
  0
LINE
  5
332
  8
0
 10
0.683548
 20
-0.469788
 30
0.0
 11
0.688156
 21
-0.473587
 31
0.0
  0
LINE
  5
333
  8
0
 10
0.688156
 20
-0.473587
 30
0.0
 11
0.692795
 21
-0.477051
 31
0.0
  0
LINE
  5
334
  8
0
 10
0.692795
 20
-0.477051
 30
0.0
 11
0.698181
 21
-0.480667
 31
0.0
  0
LINE
  5
335
  8
0
 10
0.698181
 20
-0.480667
 30
0.0
 11
0.703323
 21
-0.48378
 31
0.0
  0
LINE
  5
336
  8
0
 10
0.703323
 20
-0.48378
 30
0.0
 11
0.708725
 21
-0.486694
 31
0.0
  0
LINE
  5
337
  8
0
 10
0.708725
 20
-0.486694
 30
0.0
 11
0.714203
 21
-0.489304
 31
0.0
  0
LINE
  5
338
  8
0
 10
0.714203
 20
-0.489304
 30
0.0
 11
0.719955
 21
-0.491699
 31
0.0
  0
LINE
  5
339
  8
0
 10
0.719955
 20
-0.491699
 30
0.0
 11
0.725601
 21
-0.493744
 31
0.0
  0
LINE
  5
33A
  8
0
 10
0.725601
 20
-0.493744
 30
0.0
 11
0.731201
 21
-0.495483
 31
0.0
  0
LINE
  5
33B
  8
0
 10
0.731201
 20
-0.495483
 30
0.0
 11
0.737534
 21
-0.497101
 31
0.0
  0
LINE
  5
33C
  8
0
 10
0.737534
 20
-0.497101
 30
0.0
 11
0.74324
 21
-0.498245
 31
0.0
  0
LINE
  5
33D
  8
0
 10
0.74324
 20
-0.498245
 30
0.0
 11
0.749344
 21
-0.499191
 31
0.0
  0
LINE
  5
33E
  8
0
 10
0.749344
 20
-0.499191
 30
0.0
 11
0.755768
 21
-0.499847
 31
0.0
  0
LINE
  5
33F
  8
0
 10
0.755768
 20
-0.499847
 30
0.0
 11
0.761475
 21
-0.500153
 31
0.0
  0
LINE
  5
340
  8
0
 10
0.761475
 20
-0.500153
 30
0.0
 11
0.768005
 21
-0.500168
 31
0.0
  0
LINE
  5
341
  8
0
 10
0.768005
 20
-0.500168
 30
0.0
 11
0.774017
 21
-0.499893
 31
0.0
  0
LINE
  5
342
  8
0
 10
0.774017
 20
-0.499893
 30
0.0
 11
0.779846
 21
-0.499344
 31
0.0
  0
LINE
  5
343
  8
0
 10
0.779846
 20
-0.499344
 30
0.0
 11
0.786194
 21
-0.498444
 31
0.0
  0
LINE
  5
344
  8
0
 10
0.786194
 20
-0.498444
 30
0.0
 11
0.791641
 21
-0.497391
 31
0.0
  0
LINE
  5
345
  8
0
 10
0.791641
 20
-0.497391
 30
0.0
 11
0.797852
 21
-0.49588
 31
0.0
  0
LINE
  5
346
  8
0
 10
0.797852
 20
-0.49588
 30
0.0
 11
0.800705
 21
-0.495117
 31
0.0
  0
LINE
  5
347
  8
0
 10
0.800705
 20
-0.495117
 30
0.0
 11
0.806519
 21
-0.49324
 31
0.0
  0
LINE
  5
348
  8
0
 10
0.806519
 20
-0.49324
 30
0.0
 11
0.812241
 21
-0.491074
 31
0.0
  0
LINE
  5
349
  8
0
 10
0.812241
 20
-0.491074
 30
0.0
 11
0.817841
 21
-0.488647
 31
0.0
  0
LINE
  5
34A
  8
0
 10
0.817841
 20
-0.488647
 30
0.0
 11
0.823334
 21
-0.485931
 31
0.0
  0
LINE
  5
34B
  8
0
 10
0.823334
 20
-0.485931
 30
0.0
 11
0.828674
 21
-0.482971
 31
0.0
  0
LINE
  5
34C
  8
0
 10
0.828674
 20
-0.482971
 30
0.0
 11
0.833862
 21
-0.479736
 31
0.0
  0
LINE
  5
34D
  8
0
 10
0.833862
 20
-0.479736
 30
0.0
 11
0.838882
 21
-0.476257
 31
0.0
  0
LINE
  5
34E
  8
0
 10
0.838882
 20
-0.476257
 30
0.0
 11
0.843735
 21
-0.472534
 31
0.0
  0
LINE
  5
34F
  8
0
 10
0.843735
 20
-0.472534
 30
0.0
 11
0.848389
 21
-0.468582
 31
0.0
  0
LINE
  5
350
  8
0
 10
0.848389
 20
-0.468582
 30
0.0
 11
0.852859
 21
-0.464417
 31
0.0
  0
LINE
  5
351
  8
0
 10
0.852859
 20
-0.464417
 30
0.0
 11
0.94603
 21
-0.372879
 31
0.0
  0
LINE
  5
352
  8
0
 10
0.94603
 20
-0.372879
 30
0.0
 11
0.947433
 21
-0.371567
 31
0.0
  0
LINE
  5
353
  8
0
 10
0.947433
 20
-0.371567
 30
0.0
 11
0.948898
 21
-0.370316
 31
0.0
  0
LINE
  5
354
  8
0
 10
0.948898
 20
-0.370316
 30
0.0
 11
0.950424
 21
-0.369141
 31
0.0
  0
LINE
  5
355
  8
0
 10
0.950424
 20
-0.369141
 30
0.0
 11
0.952011
 21
-0.368057
 31
0.0
  0
LINE
  5
356
  8
0
 10
0.952011
 20
-0.368057
 30
0.0
 11
0.953644
 21
-0.367035
 31
0.0
  0
LINE
  5
357
  8
0
 10
0.953644
 20
-0.367035
 30
0.0
 11
0.955322
 21
-0.366104
 31
0.0
  0
LINE
  5
358
  8
0
 10
0.955322
 20
-0.366104
 30
0.0
 11
0.957047
 21
-0.36525
 31
0.0
  0
LINE
  5
359
  8
0
 10
0.957047
 20
-0.36525
 30
0.0
 11
0.958817
 21
-0.364487
 31
0.0
  0
LINE
  5
35A
  8
0
 10
0.958817
 20
-0.364487
 30
0.0
 11
0.960617
 21
-0.3638
 31
0.0
  0
LINE
  5
35B
  8
0
 10
0.960617
 20
-0.3638
 30
0.0
 11
0.962448
 21
-0.363205
 31
0.0
  0
LINE
  5
35C
  8
0
 10
0.962448
 20
-0.363205
 30
0.0
 11
0.96431
 21
-0.362717
 31
0.0
  0
LINE
  5
35D
  8
0
 10
0.96431
 20
-0.362717
 30
0.0
 11
0.966187
 21
-0.362305
 31
0.0
  0
LINE
  5
35E
  8
0
 10
0.966187
 20
-0.362305
 30
0.0
 11
0.968094
 21
-0.361984
 31
0.0
  0
LINE
  5
35F
  8
0
 10
0.968094
 20
-0.361984
 30
0.0
 11
0.970001
 21
-0.361755
 31
0.0
  0
LINE
  5
360
  8
0
 10
0.970001
 20
-0.361755
 30
0.0
 11
0.971924
 21
-0.361633
 31
0.0
  0
LINE
  5
361
  8
0
 10
0.971924
 20
-0.361633
 30
0.0
 11
0.973846
 21
-0.361588
 31
0.0
  0
LINE
  5
362
  8
0
 10
0.973846
 20
-0.361588
 30
0.0
 11
0.975769
 21
-0.361649
 31
0.0
  0
LINE
  5
363
  8
0
 10
0.975769
 20
-0.361649
 30
0.0
 11
0.977692
 21
-0.361801
 31
0.0
  0
LINE
  5
364
  8
0
 10
0.977692
 20
-0.361801
 30
0.0
 11
0.979599
 21
-0.362045
 31
0.0
  0
LINE
  5
365
  8
0
 10
0.979599
 20
-0.362045
 30
0.0
 11
0.981491
 21
-0.362396
 31
0.0
  0
LINE
  5
366
  8
0
 10
0.981491
 20
-0.362396
 30
0.0
 11
0.983368
 21
-0.362823
 31
0.0
  0
LINE
  5
367
  8
0
 10
0.983368
 20
-0.362823
 30
0.0
 11
0.985229
 21
-0.363342
 31
0.0
  0
LINE
  5
368
  8
0
 10
0.985229
 20
-0.363342
 30
0.0
 11
0.987045
 21
-0.363953
 31
0.0
  0
LINE
  5
369
  8
0
 10
0.987045
 20
-0.363953
 30
0.0
 11
0.988846
 21
-0.364655
 31
0.0
  0
LINE
  5
36A
  8
0
 10
0.988846
 20
-0.364655
 30
0.0
 11
0.990601
 21
-0.365448
 31
0.0
  0
LINE
  5
36B
  8
0
 10
0.990601
 20
-0.365448
 30
0.0
 11
0.99231
 21
-0.366318
 31
0.0
  0
LINE
  5
36C
  8
0
 10
0.99231
 20
-0.366318
 30
0.0
 11
0.993988
 21
-0.367279
 31
0.0
  0
LINE
  5
36D
  8
0
 10
0.993988
 20
-0.367279
 30
0.0
 11
0.995605
 21
-0.368317
 31
0.0
  0
LINE
  5
36E
  8
0
 10
0.995605
 20
-0.368317
 30
0.0
 11
0.997177
 21
-0.369431
 31
0.0
  0
LINE
  5
36F
  8
0
 10
0.997177
 20
-0.369431
 30
0.0
 11
0.998688
 21
-0.370621
 31
0.0
  0
LINE
  5
370
  8
0
 10
0.998688
 20
-0.370621
 30
0.0
 11
1.00015
 21
-0.371872
 31
0.0
  0
LINE
  5
371
  8
0
 10
1.00015
 20
-0.371872
 30
0.0
 11
1.00154
 21
-0.373215
 31
0.0
  0
LINE
  5
372
  8
0
 10
1.00154
 20
-0.373215
 30
0.0
 11
1.00287
 21
-0.374603
 31
0.0
  0
LINE
  5
373
  8
0
 10
1.00287
 20
-0.374603
 30
0.0
 11
1.00412
 21
-0.376068
 31
0.0
  0
LINE
  5
374
  8
0
 10
1.00412
 20
-0.376068
 30
0.0
 11
1.00529
 21
-0.377594
 31
0.0
  0
LINE
  5
375
  8
0
 10
1.00529
 20
-0.377594
 30
0.0
 11
1.00639
 21
-0.379166
 31
0.0
  0
LINE
  5
376
  8
0
 10
1.00639
 20
-0.379166
 30
0.0
 11
1.00743
 21
-0.380798
 31
0.0
  0
LINE
  5
377
  8
0
 10
1.00743
 20
-0.380798
 30
0.0
 11
1.00838
 21
-0.382462
 31
0.0
  0
LINE
  5
378
  8
0
 10
1.00838
 20
-0.382462
 30
0.0
 11
1.00923
 21
-0.384186
 31
0.0
  0
LINE
  5
379
  8
0
 10
1.00923
 20
-0.384186
 30
0.0
 11
1.01001
 21
-0.385956
 31
0.0
  0
LINE
  5
37A
  8
0
 10
1.01001
 20
-0.385956
 30
0.0
 11
1.0107
 21
-0.387741
 31
0.0
  0
LINE
  5
37B
  8
0
 10
1.0107
 20
-0.387741
 30
0.0
 11
1.01131
 21
-0.389572
 31
0.0
  0
LINE
  5
37C
  8
0
 10
1.01131
 20
-0.389572
 30
0.0
 11
1.01181
 21
-0.391434
 31
0.0
  0
LINE
  5
37D
  8
0
 10
1.01181
 20
-0.391434
 30
0.0
 11
1.01224
 21
-0.393311
 31
0.0
  0
LINE
  5
37E
  8
0
 10
1.01224
 20
-0.393311
 30
0.0
 11
1.01256
 21
-0.395203
 31
0.0
  0
LINE
  5
37F
  8
0
 10
1.01256
 20
-0.395203
 30
0.0
 11
1.0128
 21
-0.397125
 31
0.0
  0
LINE
  5
380
  8
0
 10
1.0128
 20
-0.397125
 30
0.0
 11
1.01294
 21
-0.399033
 31
0.0
  0
LINE
  5
381
  8
0
 10
1.01294
 20
-0.399033
 30
0.0
 11
1.01299
 21
-0.40097
 31
0.0
  0
LINE
  5
382
  8
0
 10
1.01299
 20
-0.40097
 30
0.0
 11
1.01299
 21
-0.480225
 31
0.0
  0
LINE
  5
383
  8
0
 10
1.01299
 20
-0.480225
 30
0.0
 11
1.01305
 21
-0.484268
 31
0.0
  0
LINE
  5
384
  8
0
 10
1.01305
 20
-0.484268
 30
0.0
 11
1.01324
 21
-0.488312
 31
0.0
  0
LINE
  5
385
  8
0
 10
1.01324
 20
-0.488312
 30
0.0
 11
1.01358
 21
-0.49234
 31
0.0
  0
LINE
  5
386
  8
0
 10
1.01358
 20
-0.49234
 30
0.0
 11
1.01404
 21
-0.496368
 31
0.0
  0
LINE
  5
387
  8
0
 10
1.01404
 20
-0.496368
 30
0.0
 11
1.01462
 21
-0.500381
 31
0.0
  0
LINE
  5
388
  8
0
 10
1.01462
 20
-0.500381
 30
0.0
 11
1.01534
 21
-0.504364
 31
0.0
  0
LINE
  5
389
  8
0
 10
1.01534
 20
-0.504364
 30
0.0
 11
1.01619
 21
-0.508316
 31
0.0
  0
LINE
  5
38A
  8
0
 10
1.01619
 20
-0.508316
 30
0.0
 11
1.01717
 21
-0.512253
 31
0.0
  0
LINE
  5
38B
  8
0
 10
1.01717
 20
-0.512253
 30
0.0
 11
1.01826
 21
-0.516144
 31
0.0
  0
LINE
  5
38C
  8
0
 10
1.01826
 20
-0.516144
 30
0.0
 11
1.01949
 21
-0.520004
 31
0.0
  0
LINE
  5
38D
  8
0
 10
1.01949
 20
-0.520004
 30
0.0
 11
1.02084
 21
-0.523819
 31
0.0
  0
LINE
  5
38E
  8
0
 10
1.02084
 20
-0.523819
 30
0.0
 11
1.02231
 21
-0.527588
 31
0.0
  0
LINE
  5
38F
  8
0
 10
1.02231
 20
-0.527588
 30
0.0
 11
1.02391
 21
-0.531311
 31
0.0
  0
LINE
  5
390
  8
0
 10
1.02391
 20
-0.531311
 30
0.0
 11
1.02562
 21
-0.534988
 31
0.0
  0
LINE
  5
391
  8
0
 10
1.02562
 20
-0.534988
 30
0.0
 11
1.02745
 21
-0.538589
 31
0.0
  0
LINE
  5
392
  8
0
 10
1.02745
 20
-0.538589
 30
0.0
 11
1.0294
 21
-0.542145
 31
0.0
  0
LINE
  5
393
  8
0
 10
1.0294
 20
-0.542145
 30
0.0
 11
1.03146
 21
-0.545624
 31
0.0
  0
LINE
  5
394
  8
0
 10
1.03146
 20
-0.545624
 30
0.0
 11
1.03365
 21
-0.549042
 31
0.0
  0
LINE
  5
395
  8
0
 10
1.03365
 20
-0.549042
 30
0.0
 11
1.03592
 21
-0.552383
 31
0.0
  0
LINE
  5
396
  8
0
 10
1.03592
 20
-0.552383
 30
0.0
 11
1.03831
 21
-0.555649
 31
0.0
  0
LINE
  5
397
  8
0
 10
1.03831
 20
-0.555649
 30
0.0
 11
1.04082
 21
-0.558838
 31
0.0
  0
LINE
  5
398
  8
0
 10
1.04082
 20
-0.558838
 30
0.0
 11
1.04341
 21
-0.561951
 31
0.0
  0
LINE
  5
399
  8
0
 10
1.04341
 20
-0.561951
 30
0.0
 11
1.04611
 21
-0.564972
 31
0.0
  0
LINE
  5
39A
  8
0
 10
1.04611
 20
-0.564972
 30
0.0
 11
1.04767
 21
-0.56662
 31
0.0
  0
LINE
  5
39B
  8
0
 10
1.04767
 20
-0.56662
 30
0.0
 11
1.05032
 21
-0.56929
 31
0.0
  0
LINE
  5
39C
  8
0
 10
1.05032
 20
-0.56929
 30
0.0
 11
1.05322
 21
-0.572052
 31
0.0
  0
LINE
  5
39D
  8
0
 10
1.05322
 20
-0.572052
 30
0.0
 11
1.05684
 21
-0.575272
 31
0.0
  0
LINE
  5
39E
  8
0
 10
1.05684
 20
-0.575272
 30
0.0
 11
1.05949
 21
-0.577469
 31
0.0
  0
LINE
  5
39F
  8
0
 10
1.05949
 20
-0.577469
 30
0.0
 11
1.06328
 21
-0.580414
 31
0.0
  0
LINE
  5
3A0
  8
0
 10
1.06328
 20
-0.580414
 30
0.0
 11
1.06609
 21
-0.582443
 31
0.0
  0
LINE
  5
3A1
  8
0
 10
1.06609
 20
-0.582443
 30
0.0
 11
1.06909
 21
-0.584488
 31
0.0
  0
LINE
  5
3A2
  8
0
 10
1.06909
 20
-0.584488
 30
0.0
 11
1.07249
 21
-0.586655
 31
0.0
  0
LINE
  5
3A3
  8
0
 10
1.07249
 20
-0.586655
 30
0.0
 11
1.07655
 21
-0.589066
 31
0.0
  0
LINE
  5
3A4
  8
0
 10
1.07655
 20
-0.589066
 30
0.0
 11
1.07993
 21
-0.590897
 31
0.0
  0
LINE
  5
3A5
  8
0
 10
1.07993
 20
-0.590897
 30
0.0
 11
1.08368
 21
-0.592789
 31
0.0
  0
LINE
  5
3A6
  8
0
 10
1.08368
 20
-0.592789
 30
0.0
 11
1.08727
 21
-0.594452
 31
0.0
  0
LINE
  5
3A7
  8
0
 10
1.08727
 20
-0.594452
 30
0.0
 11
1.09039
 21
-0.595779
 31
0.0
  0
LINE
  5
3A8
  8
0
 10
1.09039
 20
-0.595779
 30
0.0
 11
1.09468
 21
-0.597458
 31
0.0
  0
LINE
  5
3A9
  8
0
 10
1.09468
 20
-0.597458
 30
0.0
 11
1.09796
 21
-0.598618
 31
0.0
  0
LINE
  5
3AA
  8
0
 10
1.09796
 20
-0.598618
 30
0.0
 11
1.10205
 21
-0.599915
 31
0.0
  0
LINE
  5
3AB
  8
0
 10
1.10205
 20
-0.599915
 30
0.0
 11
1.10612
 21
-0.601074
 31
0.0
  0
LINE
  5
3AC
  8
0
 10
1.10612
 20
-0.601074
 30
0.0
 11
1.10986
 21
-0.60199
 31
0.0
  0
LINE
  5
3AD
  8
0
 10
1.10986
 20
-0.60199
 30
0.0
 11
1.11455
 21
-0.602982
 31
0.0
  0
LINE
  5
3AE
  8
0
 10
1.11455
 20
-0.602982
 30
0.0
 11
1.11757
 21
-0.603516
 31
0.0
  0
LINE
  5
3AF
  8
0
 10
1.11757
 20
-0.603516
 30
0.0
 11
1.12206
 21
-0.604172
 31
0.0
  0
LINE
  5
3B0
  8
0
 10
1.12206
 20
-0.604172
 30
0.0
 11
1.12601
 21
-0.604614
 31
0.0
  0
LINE
  5
3B1
  8
0
 10
1.12601
 20
-0.604614
 30
0.0
 11
1.13052
 21
-0.60498
 31
0.0
  0
LINE
  5
3B2
  8
0
 10
1.13052
 20
-0.60498
 30
0.0
 11
1.13608
 21
-0.605209
 31
0.0
  0
LINE
  5
3B3
  8
0
 10
1.13608
 20
-0.605209
 30
0.0
 11
1.1705
 21
-0.605743
 31
0.0
  0
LINE
  5
3B4
  8
0
 10
1.1705
 20
-0.605743
 30
0.0
 11
1.1788
 21
-0.605331
 31
0.0
  0
LINE
  5
3B5
  8
0
 10
1.1788
 20
-0.605331
 30
0.0
 11
1.1788
 21
-0.368683
 31
0.0
  0
LINE
  5
3B6
  8
0
 10
1.1788
 20
-0.368683
 30
0.0
 11
1.25526
 21
-0.368683
 31
0.0
  0
LINE
  5
3B7
  8
0
 10
1.25526
 20
-0.368683
 30
0.0
 11
1.25526
 21
-0.606689
 31
0.0
  0
LINE
  5
3B8
  8
0
 10
1.25526
 20
-0.606689
 30
0.0
 11
1.26236
 21
-0.607224
 31
0.0
  0
LINE
  5
3B9
  8
0
 10
1.26236
 20
-0.607224
 30
0.0
 11
1.28972
 21
-0.607651
 31
0.0
  0
LINE
  5
3BA
  8
0
 10
1.28972
 20
-0.607651
 30
0.0
 11
1.29396
 21
-0.607681
 31
0.0
  0
LINE
  5
3BB
  8
0
 10
1.29396
 20
-0.607681
 30
0.0
 11
1.29716
 21
-0.60762
 31
0.0
  0
LINE
  5
3BC
  8
0
 10
1.29716
 20
-0.60762
 30
0.0
 11
1.29996
 21
-0.607498
 31
0.0
  0
LINE
  5
3BD
  8
0
 10
1.29996
 20
-0.607498
 30
0.0
 11
1.30322
 21
-0.607269
 31
0.0
  0
LINE
  5
3BE
  8
0
 10
1.30322
 20
-0.607269
 30
0.0
 11
1.30688
 21
-0.606934
 31
0.0
  0
LINE
  5
3BF
  8
0
 10
1.30688
 20
-0.606934
 30
0.0
 11
1.30913
 21
-0.606659
 31
0.0
  0
LINE
  5
3C0
  8
0
 10
1.30913
 20
-0.606659
 30
0.0
 11
1.31306
 21
-0.606094
 31
0.0
  0
LINE
  5
3C1
  8
0
 10
1.31306
 20
-0.606094
 30
0.0
 11
1.31645
 21
-0.605515
 31
0.0
  0
LINE
  5
3C2
  8
0
 10
1.31645
 20
-0.605515
 30
0.0
 11
1.32295
 21
-0.604095
 31
0.0
  0
LINE
  5
3C3
  8
0
 10
1.32295
 20
-0.604095
 30
0.0
 11
1.32584
 21
-0.603348
 31
0.0
  0
LINE
  5
3C4
  8
0
 10
1.32584
 20
-0.603348
 30
0.0
 11
1.32965
 21
-0.602249
 31
0.0
  0
LINE
  5
3C5
  8
0
 10
1.32965
 20
-0.602249
 30
0.0
 11
1.33263
 21
-0.601303
 31
0.0
  0
LINE
  5
3C6
  8
0
 10
1.33263
 20
-0.601303
 30
0.0
 11
1.33546
 21
-0.600327
 31
0.0
  0
LINE
  5
3C7
  8
0
 10
1.33546
 20
-0.600327
 30
0.0
 11
1.33771
 21
-0.599487
 31
0.0
  0
LINE
  5
3C8
  8
0
 10
1.33771
 20
-0.599487
 30
0.0
 11
1.34167
 21
-0.5979
 31
0.0
  0
LINE
  5
3C9
  8
0
 10
1.34167
 20
-0.5979
 30
0.0
 11
1.34406
 21
-0.596878
 31
0.0
  0
LINE
  5
3CA
  8
0
 10
1.34406
 20
-0.596878
 30
0.0
 11
1.34685
 21
-0.595566
 31
0.0
  0
LINE
  5
3CB
  8
0
 10
1.34685
 20
-0.595566
 30
0.0
 11
1.35063
 21
-0.593704
 31
0.0
  0
LINE
  5
3CC
  8
0
 10
1.35063
 20
-0.593704
 30
0.0
 11
1.35358
 21
-0.592133
 31
0.0
  0
LINE
  5
3CD
  8
0
 10
1.35358
 20
-0.592133
 30
0.0
 11
1.35594
 21
-0.590805
 31
0.0
  0
LINE
  5
3CE
  8
0
 10
1.35594
 20
-0.590805
 30
0.0
 11
1.35954
 21
-0.588638
 31
0.0
  0
LINE
  5
3CF
  8
0
 10
1.35954
 20
-0.588638
 30
0.0
 11
1.36148
 21
-0.587387
 31
0.0
  0
LINE
  5
3D0
  8
0
 10
1.36148
 20
-0.587387
 30
0.0
 11
1.36478
 21
-0.585159
 31
0.0
  0
LINE
  5
3D1
  8
0
 10
1.36478
 20
-0.585159
 30
0.0
 11
1.36743
 21
-0.583252
 31
0.0
  0
LINE
  5
3D2
  8
0
 10
1.36743
 20
-0.583252
 30
0.0
 11
1.36986
 21
-0.581436
 31
0.0
  0
LINE
  5
3D3
  8
0
 10
1.36986
 20
-0.581436
 30
0.0
 11
1.37254
 21
-0.579285
 31
0.0
  0
LINE
  5
3D4
  8
0
 10
1.37254
 20
-0.579285
 30
0.0
 11
1.37538
 21
-0.576874
 31
0.0
  0
LINE
  5
3D5
  8
0
 10
1.37538
 20
-0.576874
 30
0.0
 11
1.37721
 21
-0.575241
 31
0.0
  0
LINE
  5
3D6
  8
0
 10
1.37721
 20
-0.575241
 30
0.0
 11
1.38004
 21
-0.572601
 31
0.0
  0
LINE
  5
3D7
  8
0
 10
1.38004
 20
-0.572601
 30
0.0
 11
1.38206
 21
-0.570602
 31
0.0
  0
LINE
  5
3D8
  8
0
 10
1.38206
 20
-0.570602
 30
0.0
 11
1.38475
 21
-0.56781
 31
0.0
  0
LINE
  5
3D9
  8
0
 10
1.38475
 20
-0.56781
 30
0.0
 11
1.38666
 21
-0.565704
 31
0.0
  0
LINE
  5
3DA
  8
0
 10
1.38666
 20
-0.565704
 30
0.0
 11
1.3887
 21
-0.563354
 31
0.0
  0
LINE
  5
3DB
  8
0
 10
1.3887
 20
-0.563354
 30
0.0
 11
1.39124
 21
-0.560242
 31
0.0
  0
LINE
  5
3DC
  8
0
 10
1.39124
 20
-0.560242
 30
0.0
 11
1.39282
 21
-0.558182
 31
0.0
  0
LINE
  5
3DD
  8
0
 10
1.39282
 20
-0.558182
 30
0.0
 11
1.39513
 21
-0.555038
 31
0.0
  0
LINE
  5
3DE
  8
0
 10
1.39513
 20
-0.555038
 30
0.0
 11
1.39709
 21
-0.552185
 31
0.0
  0
LINE
  5
3DF
  8
0
 10
1.39709
 20
-0.552185
 30
0.0
 11
1.39853
 21
-0.550003
 31
0.0
  0
LINE
  5
3E0
  8
0
 10
1.39853
 20
-0.550003
 30
0.0
 11
1.40021
 21
-0.547287
 31
0.0
  0
LINE
  5
3E1
  8
0
 10
1.40021
 20
-0.547287
 30
0.0
 11
1.40213
 21
-0.543976
 31
0.0
  0
LINE
  5
3E2
  8
0
 10
1.40213
 20
-0.543976
 30
0.0
 11
1.40387
 21
-0.540802
 31
0.0
  0
LINE
  5
3E3
  8
0
 10
1.40387
 20
-0.540802
 30
0.0
 11
1.40479
 21
-0.539001
 31
0.0
  0
LINE
  5
3E4
  8
0
 10
1.40479
 20
-0.539001
 30
0.0
 11
1.40677
 21
-0.534943
 31
0.0
  0
LINE
  5
3E5
  8
0
 10
1.40677
 20
-0.534943
 30
0.0
 11
1.40788
 21
-0.53244
 31
0.0
  0
LINE
  5
3E6
  8
0
 10
1.40788
 20
-0.53244
 30
0.0
 11
1.40921
 21
-0.529236
 31
0.0
  0
LINE
  5
3E7
  8
0
 10
1.40921
 20
-0.529236
 30
0.0
 11
1.41075
 21
-0.525208
 31
0.0
  0
LINE
  5
3E8
  8
0
 10
1.41075
 20
-0.525208
 30
0.0
 11
1.41209
 21
-0.521317
 31
0.0
  0
LINE
  5
3E9
  8
0
 10
1.41209
 20
-0.521317
 30
0.0
 11
1.41907
 21
-0.502106
 31
0.0
  0
LINE
  5
3EA
  8
0
 10
1.41907
 20
-0.502106
 30
0.0
 11
1.42734
 21
-0.483429
 31
0.0
  0
LINE
  5
3EB
  8
0
 10
1.42734
 20
-0.483429
 30
0.0
 11
1.43686
 21
-0.465332
 31
0.0
  0
LINE
  5
3EC
  8
0
 10
1.43686
 20
-0.465332
 30
0.0
 11
1.44757
 21
-0.447937
 31
0.0
  0
LINE
  5
3ED
  8
0
 10
1.44757
 20
-0.447937
 30
0.0
 11
1.45946
 21
-0.431305
 31
0.0
  0
LINE
  5
3EE
  8
0
 10
1.45946
 20
-0.431305
 30
0.0
 11
1.47244
 21
-0.415527
 31
0.0
  0
LINE
  5
3EF
  8
0
 10
1.47244
 20
-0.415527
 30
0.0
 11
1.48647
 21
-0.400665
 31
0.0
  0
LINE
  5
3F0
  8
0
 10
1.48647
 20
-0.400665
 30
0.0
 11
1.50148
 21
-0.386795
 31
0.0
  0
LINE
  5
3F1
  8
0
 10
1.50148
 20
-0.386795
 30
0.0
 11
1.5174
 21
-0.373978
 31
0.0
  0
LINE
  5
3F2
  8
0
 10
1.5174
 20
-0.373978
 30
0.0
 11
1.53413
 21
-0.362274
 31
0.0
  0
LINE
  5
3F3
  8
0
 10
1.53413
 20
-0.362274
 30
0.0
 11
1.55164
 21
-0.35173
 31
0.0
  0
LINE
  5
3F4
  8
0
 10
1.55164
 20
-0.35173
 30
0.0
 11
1.56982
 21
-0.342392
 31
0.0
  0
LINE
  5
3F5
  8
0
 10
1.56982
 20
-0.342392
 30
0.0
 11
1.58861
 21
-0.33432
 31
0.0
  0
LINE
  5
3F6
  8
0
 10
1.58861
 20
-0.33432
 30
0.0
 11
1.60788
 21
-0.327545
 31
0.0
  0
LINE
  5
3F7
  8
0
 10
1.60788
 20
-0.327545
 30
0.0
 11
1.62758
 21
-0.322098
 31
0.0
  0
LINE
  5
3F8
  8
0
 10
1.62758
 20
-0.322098
 30
0.0
 11
1.6476
 21
-0.318008
 31
0.0
  0
LINE
  5
3F9
  8
0
 10
1.6476
 20
-0.318008
 30
0.0
 11
1.66785
 21
-0.315277
 31
0.0
  0
LINE
  5
3FA
  8
0
 10
1.66785
 20
-0.315277
 30
0.0
 11
1.68825
 21
-0.313934
 31
0.0
  0
LINE
  5
3FB
  8
0
 10
1.68825
 20
-0.313934
 30
0.0
 11
1.70868
 21
-0.313995
 31
0.0
  0
LINE
  5
3FC
  8
0
 10
1.70868
 20
-0.313995
 30
0.0
 11
1.72906
 21
-0.31543
 31
0.0
  0
LINE
  5
3FD
  8
0
 10
1.72906
 20
-0.31543
 30
0.0
 11
1.74931
 21
-0.318253
 31
0.0
  0
LINE
  5
3FE
  8
0
 10
1.74931
 20
-0.318253
 30
0.0
 11
1.7693
 21
-0.322433
 31
0.0
  0
LINE
  5
3FF
  8
0
 10
1.7693
 20
-0.322433
 30
0.0
 11
1.78899
 21
-0.327988
 31
0.0
  0
LINE
  5
400
  8
0
 10
1.78899
 20
-0.327988
 30
0.0
 11
1.80823
 21
-0.334839
 31
0.0
  0
LINE
  5
401
  8
0
 10
1.80823
 20
-0.334839
 30
0.0
 11
1.82697
 21
-0.343002
 31
0.0
  0
LINE
  5
402
  8
0
 10
1.82697
 20
-0.343002
 30
0.0
 11
1.84511
 21
-0.352417
 31
0.0
  0
LINE
  5
403
  8
0
 10
1.84511
 20
-0.352417
 30
0.0
 11
1.86256
 21
-0.363037
 31
0.0
  0
LINE
  5
404
  8
0
 10
1.86256
 20
-0.363037
 30
0.0
 11
1.87926
 21
-0.374832
 31
0.0
  0
LINE
  5
405
  8
0
 10
1.87926
 20
-0.374832
 30
0.0
 11
1.89511
 21
-0.387726
 31
0.0
  0
LINE
  5
406
  8
0
 10
1.89511
 20
-0.387726
 30
0.0
 11
1.91005
 21
-0.401672
 31
0.0
  0
LINE
  5
407
  8
0
 10
1.91005
 20
-0.401672
 30
0.0
 11
1.924
 21
-0.416595
 31
0.0
  0
LINE
  5
408
  8
0
 10
1.924
 20
-0.416595
 30
0.0
 11
1.93692
 21
-0.432449
 31
0.0
  0
LINE
  5
409
  8
0
 10
1.93692
 20
-0.432449
 30
0.0
 11
1.94872
 21
-0.449127
 31
0.0
  0
LINE
  5
40A
  8
0
 10
1.94872
 20
-0.449127
 30
0.0
 11
1.95935
 21
-0.466568
 31
0.0
  0
LINE
  5
40B
  8
0
 10
1.95935
 20
-0.466568
 30
0.0
 11
1.96878
 21
-0.484711
 31
0.0
  0
LINE
  5
40C
  8
0
 10
1.96878
 20
-0.484711
 30
0.0
 11
1.97696
 21
-0.503433
 31
0.0
  0
LINE
  5
40D
  8
0
 10
1.97696
 20
-0.503433
 30
0.0
 11
1.98384
 21
-0.522675
 31
0.0
  0
LINE
  5
40E
  8
0
 10
1.98384
 20
-0.522675
 30
0.0
 11
1.9894
 21
-0.542343
 31
0.0
  0
LINE
  5
40F
  8
0
 10
1.9894
 20
-0.542343
 30
0.0
 11
1.99361
 21
-0.562332
 31
0.0
  0
LINE
  5
410
  8
0
 10
1.99361
 20
-0.562332
 30
0.0
 11
1.99644
 21
-0.582581
 31
0.0
  0
LINE
  5
411
  8
0
 10
1.99644
 20
-0.582581
 30
0.0
 11
1.99791
 21
-0.602966
 31
0.0
  0
LINE
  5
412
  8
0
 10
1.99791
 20
-0.602966
 30
0.0
 11
1.99797
 21
-0.623398
 31
0.0
  0
LINE
  5
413
  8
0
 10
1.99797
 20
-0.623398
 30
0.0
 11
1.99664
 21
-0.643784
 31
0.0
  0
LINE
  5
414
  8
0
 10
1.99664
 20
-0.643784
 30
0.0
 11
1.99394
 21
-0.664047
 31
0.0
  0
LINE
  5
415
  8
0
 10
1.99394
 20
-0.664047
 30
0.0
 11
1.98985
 21
-0.684067
 31
0.0
  0
LINE
  5
416
  8
0
 10
1.98985
 20
-0.684067
 30
0.0
 11
1.98442
 21
-0.703766
 31
0.0
  0
LINE
  5
417
  8
0
 10
1.98442
 20
-0.703766
 30
0.0
 11
1.97768
 21
-0.723053
 31
0.0
  0
LINE
  5
418
  8
0
 10
1.97768
 20
-0.723053
 30
0.0
 11
1.97429
 21
-0.730927
 31
0.0
  0
LINE
  5
419
  8
0
 10
1.97429
 20
-0.730927
 30
0.0
 11
1.97412
 21
-0.731384
 31
0.0
  0
LINE
  5
41A
  8
0
 10
1.97412
 20
-0.731384
 30
0.0
 11
1.96962
 21
-0.741837
 31
0.0
  0
LINE
  5
41B
  8
0
 10
1.96962
 20
-0.741837
 30
0.0
 11
1.96869
 21
-0.743912
 31
0.0
  0
LINE
  5
41C
  8
0
 10
1.96869
 20
-0.743912
 30
0.0
 11
1.96645
 21
-0.749268
 31
0.0
  0
LINE
  5
41D
  8
0
 10
1.96645
 20
-0.749268
 30
0.0
 11
1.96484
 21
-0.753571
 31
0.0
  0
LINE
  5
41E
  8
0
 10
1.96484
 20
-0.753571
 30
0.0
 11
1.96303
 21
-0.759155
 31
0.0
  0
LINE
  5
41F
  8
0
 10
1.96303
 20
-0.759155
 30
0.0
 11
1.96181
 21
-0.763535
 31
0.0
  0
LINE
  5
420
  8
0
 10
1.96181
 20
-0.763535
 30
0.0
 11
1.96042
 21
-0.769501
 31
0.0
  0
LINE
  5
421
  8
0
 10
1.96042
 20
-0.769501
 30
0.0
 11
1.95959
 21
-0.773788
 31
0.0
  0
LINE
  5
422
  8
0
 10
1.95959
 20
-0.773788
 30
0.0
 11
1.95871
 21
-0.779785
 31
0.0
  0
LINE
  5
423
  8
0
 10
1.95871
 20
-0.779785
 30
0.0
 11
1.95825
 21
-0.784195
 31
0.0
  0
LINE
  5
424
  8
0
 10
1.95825
 20
-0.784195
 30
0.0
 11
1.9579
 21
-0.789703
 31
0.0
  0
LINE
  5
425
  8
0
 10
1.9579
 20
-0.789703
 30
0.0
 11
1.95778
 21
-0.794968
 31
0.0
  0
LINE
  5
426
  8
0
 10
1.95778
 20
-0.794968
 30
0.0
 11
1.95789
 21
-0.799988
 31
0.0
  0
LINE
  5
427
  8
0
 10
1.95789
 20
-0.799988
 30
0.0
 11
1.95818
 21
-0.804855
 31
0.0
  0
LINE
  5
428
  8
0
 10
1.95818
 20
-0.804855
 30
0.0
 11
1.95879
 21
-0.810715
 31
0.0
  0
LINE
  5
429
  8
0
 10
1.95879
 20
-0.810715
 30
0.0
 11
1.9595
 21
-0.815598
 31
0.0
  0
LINE
  5
42A
  8
0
 10
1.9595
 20
-0.815598
 30
0.0
 11
1.96039
 21
-0.820358
 31
0.0
  0
LINE
  5
42B
  8
0
 10
1.96039
 20
-0.820358
 30
0.0
 11
1.96153
 21
-0.825333
 31
0.0
  0
LINE
  5
42C
  8
0
 10
1.96153
 20
-0.825333
 30
0.0
 11
1.96298
 21
-0.830643
 31
0.0
  0
LINE
  5
42D
  8
0
 10
1.96298
 20
-0.830643
 30
0.0
 11
1.96452
 21
-0.835434
 31
0.0
  0
LINE
  5
42E
  8
0
 10
1.96452
 20
-0.835434
 30
0.0
 11
1.96635
 21
-0.840439
 31
0.0
  0
LINE
  5
42F
  8
0
 10
1.96635
 20
-0.840439
 30
0.0
 11
1.96835
 21
-0.845276
 31
0.0
  0
LINE
  5
430
  8
0
 10
1.96835
 20
-0.845276
 30
0.0
 11
1.9705
 21
-0.849915
 31
0.0
  0
LINE
  5
431
  8
0
 10
1.9705
 20
-0.849915
 30
0.0
 11
1.97319
 21
-0.855072
 31
0.0
  0
LINE
  5
432
  8
0
 10
1.97319
 20
-0.855072
 30
0.0
 11
1.9752
 21
-0.858627
 31
0.0
  0
LINE
  5
433
  8
0
 10
1.9752
 20
-0.858627
 30
0.0
 11
1.9785
 21
-0.863892
 31
0.0
  0
LINE
  5
434
  8
0
 10
1.9785
 20
-0.863892
 30
0.0
 11
1.98094
 21
-0.867462
 31
0.0
  0
LINE
  5
435
  8
0
 10
1.98094
 20
-0.867462
 30
0.0
 11
1.98419
 21
-0.871811
 31
0.0
  0
LINE
  5
436
  8
0
 10
1.98419
 20
-0.871811
 30
0.0
 11
1.98756
 21
-0.875946
 31
0.0
  0
LINE
  5
437
  8
0
 10
1.98756
 20
-0.875946
 30
0.0
 11
1.99078
 21
-0.879593
 31
0.0
  0
LINE
  5
438
  8
0
 10
1.99078
 20
-0.879593
 30
0.0
 11
1.99457
 21
-0.88353
 31
0.0
  0
LINE
  5
439
  8
0
 10
1.99457
 20
-0.88353
 30
0.0
 11
1.99854
 21
-0.887314
 31
0.0
  0
LINE
  5
43A
  8
0
 10
1.99854
 20
-0.887314
 30
0.0
 11
2.00188
 21
-0.890244
 31
0.0
  0
LINE
  5
43B
  8
0
 10
2.00188
 20
-0.890244
 30
0.0
 11
2.00638
 21
-0.89389
 31
0.0
  0
LINE
  5
43C
  8
0
 10
2.00638
 20
-0.89389
 30
0.0
 11
2.01051
 21
-0.896957
 31
0.0
  0
LINE
  5
43D
  8
0
 10
2.01051
 20
-0.896957
 30
0.0
 11
2.01483
 21
-0.899887
 31
0.0
  0
LINE
  5
43E
  8
0
 10
2.01483
 20
-0.899887
 30
0.0
 11
2.01923
 21
-0.902603
 31
0.0
  0
LINE
  5
43F
  8
0
 10
2.01923
 20
-0.902603
 30
0.0
 11
2.02393
 21
-0.905243
 31
0.0
  0
LINE
  5
440
  8
0
 10
2.02393
 20
-0.905243
 30
0.0
 11
2.02843
 21
-0.907532
 31
0.0
  0
LINE
  5
441
  8
0
 10
2.02843
 20
-0.907532
 30
0.0
 11
2.0329
 21
-0.909576
 31
0.0
  0
LINE
  5
442
  8
0
 10
2.0329
 20
-0.909576
 30
0.0
 11
2.03773
 21
-0.91156
 31
0.0
  0
LINE
  5
443
  8
0
 10
2.03773
 20
-0.91156
 30
0.0
 11
2.04237
 21
-0.913239
 31
0.0
  0
LINE
  5
444
  8
0
 10
2.04237
 20
-0.913239
 30
0.0
 11
2.04768
 21
-0.914932
 31
0.0
  0
LINE
  5
445
  8
0
 10
2.04768
 20
-0.914932
 30
0.0
 11
2.05244
 21
-0.916214
 31
0.0
  0
LINE
  5
446
  8
0
 10
2.05244
 20
-0.916214
 30
0.0
 11
2.05772
 21
-0.917419
 31
0.0
  0
LINE
  5
447
  8
0
 10
2.05772
 20
-0.917419
 30
0.0
 11
2.06316
 21
-0.918411
 31
0.0
  0
LINE
  5
448
  8
0
 10
2.06316
 20
-0.918411
 30
0.0
 11
2.06799
 21
-0.919083
 31
0.0
  0
LINE
  5
449
  8
0
 10
2.06799
 20
-0.919083
 30
0.0
 11
2.07321
 21
-0.919586
 31
0.0
  0
LINE
  5
44A
  8
0
 10
2.07321
 20
-0.919586
 30
0.0
 11
2.07381
 21
-0.919617
 31
0.0
  0
LINE
  5
44B
  8
0
 10
2.07381
 20
-0.919617
 30
0.0
 11
2.08072
 21
-0.919434
 31
0.0
  0
LINE
  5
44C
  8
0
 10
2.08072
 20
-0.919434
 30
0.0
 11
2.08173
 21
-0.919281
 31
0.0
  0
LINE
  5
44D
  8
0
 10
2.08173
 20
-0.919281
 30
0.0
 11
2.08604
 21
-0.91803
 31
0.0
  0
LINE
  5
44E
  8
0
 10
2.08604
 20
-0.91803
 30
0.0
 11
2.08777
 21
-0.917374
 31
0.0
  0
LINE
  5
44F
  8
0
 10
2.08777
 20
-0.917374
 30
0.0
 11
2.09073
 21
-0.916153
 31
0.0
  0
LINE
  5
450
  8
0
 10
2.09073
 20
-0.916153
 30
0.0
 11
2.09332
 21
-0.914993
 31
0.0
  0
LINE
  5
451
  8
0
 10
2.09332
 20
-0.914993
 30
0.0
 11
2.0984
 21
-0.912521
 31
0.0
  0
LINE
  5
452
  8
0
 10
2.0984
 20
-0.912521
 30
0.0
 11
2.10199
 21
-0.910599
 31
0.0
  0
LINE
  5
453
  8
0
 10
2.10199
 20
-0.910599
 30
0.0
 11
2.10669
 21
-0.907837
 31
0.0
  0
LINE
  5
454
  8
0
 10
2.10669
 20
-0.907837
 30
0.0
 11
2.10977
 21
-0.905884
 31
0.0
  0
LINE
  5
455
  8
0
 10
2.10977
 20
-0.905884
 30
0.0
 11
2.11435
 21
-0.902725
 31
0.0
  0
LINE
  5
456
  8
0
 10
2.11435
 20
-0.902725
 30
0.0
 11
2.1163
 21
-0.901276
 31
0.0
  0
LINE
  5
457
  8
0
 10
2.1163
 20
-0.901276
 30
0.0
 11
2.11955
 21
-0.898758
 31
0.0
  0
LINE
  5
458
  8
0
 10
2.11955
 20
-0.898758
 30
0.0
 11
2.12413
 21
-0.894897
 31
0.0
  0
LINE
  5
459
  8
0
 10
2.12413
 20
-0.894897
 30
0.0
 11
2.1259
 21
-0.89328
 31
0.0
  0
LINE
  5
45A
  8
0
 10
2.1259
 20
-0.89328
 30
0.0
 11
2.12936
 21
-0.889969
 31
0.0
  0
LINE
  5
45B
  8
0
 10
2.12936
 20
-0.889969
 30
0.0
 11
2.1313
 21
-0.888016
 31
0.0
  0
LINE
  5
45C
  8
0
 10
2.1313
 20
-0.888016
 30
0.0
 11
2.13254
 21
-0.886703
 31
0.0
  0
LINE
  5
45D
  8
0
 10
2.13254
 20
-0.886703
 30
0.0
 11
2.13477
 21
-0.884247
 31
0.0
  0
LINE
  5
45E
  8
0
 10
2.13477
 20
-0.884247
 30
0.0
 11
2.13716
 21
-0.881439
 31
0.0
  0
LINE
  5
45F
  8
0
 10
2.13716
 20
-0.881439
 30
0.0
 11
2.13855
 21
-0.879745
 31
0.0
  0
LINE
  5
460
  8
0
 10
2.13855
 20
-0.879745
 30
0.0
 11
2.14
 21
-0.877899
 31
0.0
  0
LINE
  5
461
  8
0
 10
2.14
 20
-0.877899
 30
0.0
 11
2.14268
 21
-0.874313
 31
0.0
  0
LINE
  5
462
  8
0
 10
2.14268
 20
-0.874313
 30
0.0
 11
2.14522
 21
-0.870636
 31
0.0
  0
LINE
  5
463
  8
0
 10
2.14522
 20
-0.870636
 30
0.0
 11
2.14746
 21
-0.867142
 31
0.0
  0
LINE
  5
464
  8
0
 10
2.14746
 20
-0.867142
 30
0.0
 11
2.15024
 21
-0.862442
 31
0.0
  0
LINE
  5
465
  8
0
 10
2.15024
 20
-0.862442
 30
0.0
 11
2.15192
 21
-0.859314
 31
0.0
  0
LINE
  5
466
  8
0
 10
2.15192
 20
-0.859314
 30
0.0
 11
2.15445
 21
-0.854218
 31
0.0
  0
LINE
  5
467
  8
0
 10
2.15445
 20
-0.854218
 30
0.0
 11
2.15608
 21
-0.850571
 31
0.0
  0
LINE
  5
468
  8
0
 10
2.15608
 20
-0.850571
 30
0.0
 11
2.15691
 21
-0.848602
 31
0.0
  0
LINE
  5
469
  8
0
 10
2.15691
 20
-0.848602
 30
0.0
 11
2.1582
 21
-0.845276
 31
0.0
  0
LINE
  5
46A
  8
0
 10
2.1582
 20
-0.845276
 30
0.0
 11
2.15933
 21
-0.842133
 31
0.0
  0
LINE
  5
46B
  8
0
 10
2.15933
 20
-0.842133
 30
0.0
 11
2.16003
 21
-0.840027
 31
0.0
  0
LINE
  5
46C
  8
0
 10
2.16003
 20
-0.840027
 30
0.0
 11
2.16084
 21
-0.837418
 31
0.0
  0
LINE
  5
46D
  8
0
 10
2.16084
 20
-0.837418
 30
0.0
 11
2.16199
 21
-0.833435
 31
0.0
  0
LINE
  5
46E
  8
0
 10
2.16199
 20
-0.833435
 30
0.0
 11
2.16328
 21
-0.828064
 31
0.0
  0
LINE
  5
46F
  8
0
 10
2.16328
 20
-0.828064
 30
0.0
 11
2.16376
 21
-0.825729
 31
0.0
  0
LINE
  5
470
  8
0
 10
2.16376
 20
-0.825729
 30
0.0
 11
2.1644
 21
-0.82225
 31
0.0
  0
LINE
  5
471
  8
0
 10
2.1644
 20
-0.82225
 30
0.0
 11
2.1649
 21
-0.819
 31
0.0
  0
LINE
  5
472
  8
0
 10
2.1649
 20
-0.819
 30
0.0
 11
2.16534
 21
-0.815598
 31
0.0
  0
LINE
  5
473
  8
0
 10
2.16534
 20
-0.815598
 30
0.0
 11
2.1656
 21
-0.813141
 31
0.0
  0
LINE
  5
474
  8
0
 10
2.1656
 20
-0.813141
 30
0.0
 11
2.20045
 21
-0.374023
 31
0.0
  0
LINE
  5
475
  8
0
 10
2.20045
 20
-0.374023
 30
0.0
 11
2.20074
 21
-0.369537
 31
0.0
  0
LINE
  5
476
  8
0
 10
2.20074
 20
-0.369537
 30
0.0
 11
2.2009
 21
-0.366074
 31
0.0
  0
LINE
  5
477
  8
0
 10
2.2009
 20
-0.366074
 30
0.0
 11
2.20096
 21
-0.361938
 31
0.0
  0
LINE
  5
478
  8
0
 10
2.20096
 20
-0.361938
 30
0.0
 11
2.20084
 21
-0.356964
 31
0.0
  0
LINE
  5
479
  8
0
 10
2.20084
 20
-0.356964
 30
0.0
 11
2.20062
 21
-0.353271
 31
0.0
  0
LINE
  5
47A
  8
0
 10
2.20062
 20
-0.353271
 30
0.0
 11
2.2002
 21
-0.34874
 31
0.0
  0
LINE
  5
47B
  8
0
 10
2.2002
 20
-0.34874
 30
0.0
 11
2.19966
 21
-0.344452
 31
0.0
  0
LINE
  5
47C
  8
0
 10
2.19966
 20
-0.344452
 30
0.0
 11
2.19897
 21
-0.340256
 31
0.0
  0
LINE
  5
47D
  8
0
 10
2.19897
 20
-0.340256
 30
0.0
 11
2.19809
 21
-0.3358
 31
0.0
  0
LINE
  5
47E
  8
0
 10
2.19809
 20
-0.3358
 30
0.0
 11
2.19725
 21
-0.332199
 31
0.0
  0
LINE
  5
47F
  8
0
 10
2.19725
 20
-0.332199
 30
0.0
 11
2.19603
 21
-0.327698
 31
0.0
  0
LINE
  5
480
  8
0
 10
2.19603
 20
-0.327698
 30
0.0
 11
2.19469
 21
-0.323318
 31
0.0
  0
LINE
  5
481
  8
0
 10
2.19469
 20
-0.323318
 30
0.0
 11
2.19351
 21
-0.319931
 31
0.0
  0
LINE
  5
482
  8
0
 10
2.19351
 20
-0.319931
 30
0.0
 11
2.19167
 21
-0.315094
 31
0.0
  0
LINE
  5
483
  8
0
 10
2.19167
 20
-0.315094
 30
0.0
 11
2.19006
 21
-0.311356
 31
0.0
  0
LINE
  5
484
  8
0
 10
2.19006
 20
-0.311356
 30
0.0
 11
2.18819
 21
-0.307373
 31
0.0
  0
LINE
  5
485
  8
0
 10
2.18819
 20
-0.307373
 30
0.0
 11
2.18617
 21
-0.303436
 31
0.0
  0
LINE
  5
486
  8
0
 10
2.18617
 20
-0.303436
 30
0.0
 11
2.1842
 21
-0.299896
 31
0.0
  0
LINE
  5
487
  8
0
 10
2.1842
 20
-0.299896
 30
0.0
 11
2.18216
 21
-0.296478
 31
0.0
  0
LINE
  5
488
  8
0
 10
2.18216
 20
-0.296478
 30
0.0
 11
2.17973
 21
-0.29274
 31
0.0
  0
LINE
  5
489
  8
0
 10
2.17973
 20
-0.29274
 30
0.0
 11
2.17732
 21
-0.289261
 31
0.0
  0
LINE
  5
48A
  8
0
 10
2.17732
 20
-0.289261
 30
0.0
 11
2.17461
 21
-0.285645
 31
0.0
  0
LINE
  5
48B
  8
0
 10
2.17461
 20
-0.285645
 30
0.0
 11
2.17238
 21
-0.282867
 31
0.0
  0
LINE
  5
48C
  8
0
 10
2.17238
 20
-0.282867
 30
0.0
 11
2.1701
 21
-0.280167
 31
0.0
  0
LINE
  5
48D
  8
0
 10
2.1701
 20
-0.280167
 30
0.0
 11
2.16597
 21
-0.275665
 31
0.0
  0
LINE
  5
48E
  8
0
 10
2.16597
 20
-0.275665
 30
0.0
 11
2.1636
 21
-0.273285
 31
0.0
  0
LINE
  5
48F
  8
0
 10
2.1636
 20
-0.273285
 30
0.0
 11
2.15987
 21
-0.26976
 31
0.0
  0
LINE
  5
490
  8
0
 10
2.15987
 20
-0.26976
 30
0.0
 11
2.15701
 21
-0.267258
 31
0.0
  0
LINE
  5
491
  8
0
 10
2.15701
 20
-0.267258
 30
0.0
 11
2.15321
 21
-0.26413
 31
0.0
  0
LINE
  5
492
  8
0
 10
2.15321
 20
-0.26413
 30
0.0
 11
2.14967
 21
-0.261459
 31
0.0
  0
LINE
  5
493
  8
0
 10
2.14967
 20
-0.261459
 30
0.0
 11
2.14612
 21
-0.258957
 31
0.0
  0
LINE
  5
494
  8
0
 10
2.14612
 20
-0.258957
 30
0.0
 11
2.1427
 21
-0.256714
 31
0.0
  0
LINE
  5
495
  8
0
 10
2.1427
 20
-0.256714
 30
0.0
 11
2.13963
 21
-0.254837
 31
0.0
  0
LINE
  5
496
  8
0
 10
2.13963
 20
-0.254837
 30
0.0
 11
2.13589
 21
-0.252731
 31
0.0
  0
LINE
  5
497
  8
0
 10
2.13589
 20
-0.252731
 30
0.0
 11
2.13171
 21
-0.250549
 31
0.0
  0
LINE
  5
498
  8
0
 10
2.13171
 20
-0.250549
 30
0.0
 11
2.12794
 21
-0.248749
 31
0.0
  0
LINE
  5
499
  8
0
 10
2.12794
 20
-0.248749
 30
0.0
 11
2.12393
 21
-0.246979
 31
0.0
  0
LINE
  5
49A
  8
0
 10
2.12393
 20
-0.246979
 30
0.0
 11
2.11951
 21
-0.245255
 31
0.0
  0
LINE
  5
49B
  8
0
 10
2.11951
 20
-0.245255
 30
0.0
 11
2.11545
 21
-0.24382
 31
0.0
  0
LINE
  5
49C
  8
0
 10
2.11545
 20
-0.24382
 30
0.0
 11
2.11188
 21
-0.242676
 31
0.0
  0
LINE
  5
49D
  8
0
 10
2.11188
 20
-0.242676
 30
0.0
 11
2.10808
 21
-0.241623
 31
0.0
  0
LINE
  5
49E
  8
0
 10
2.10808
 20
-0.241623
 30
0.0
 11
2.10352
 21
-0.240494
 31
0.0
  0
LINE
  5
49F
  8
0
 10
2.10352
 20
-0.240494
 30
0.0
 11
2.09926
 21
-0.239609
 31
0.0
  0
LINE
  5
4A0
  8
0
 10
2.09926
 20
-0.239609
 30
0.0
 11
2.09523
 21
-0.238922
 31
0.0
  0
LINE
  5
4A1
  8
0
 10
2.09523
 20
-0.238922
 30
0.0
 11
2.09122
 21
-0.238358
 31
0.0
  0
LINE
  5
4A2
  8
0
 10
2.09122
 20
-0.238358
 30
0.0
 11
2.08615
 21
-0.237839
 31
0.0
  0
LINE
  5
4A3
  8
0
 10
2.08615
 20
-0.237839
 30
0.0
 11
2.08214
 21
-0.237579
 31
0.0
  0
LINE
  5
4A4
  8
0
 10
2.08214
 20
-0.237579
 30
0.0
 11
2.07864
 21
-0.237457
 31
0.0
  0
LINE
  5
4A5
  8
0
 10
2.07864
 20
-0.237457
 30
0.0
 11
2.07466
 21
-0.237396
 31
0.0
  0
LINE
  5
4A6
  8
0
 10
2.07466
 20
-0.237396
 30
0.0
 11
1.85216
 21
-0.237396
 31
0.0
  0
LINE
  5
4A7
  8
0
 10
1.85216
 20
-0.237396
 30
0.0
 11
1.84981
 21
-0.23735
 31
0.0
  0
LINE
  5
4A8
  8
0
 10
1.84981
 20
-0.23735
 30
0.0
 11
1.84747
 21
-0.237213
 31
0.0
  0
LINE
  5
4A9
  8
0
 10
1.84747
 20
-0.237213
 30
0.0
 11
1.84514
 21
-0.236969
 31
0.0
  0
LINE
  5
4AA
  8
0
 10
1.84514
 20
-0.236969
 30
0.0
 11
1.84282
 21
-0.236633
 31
0.0
  0
LINE
  5
4AB
  8
0
 10
1.84282
 20
-0.236633
 30
0.0
 11
1.8405
 21
-0.236206
 31
0.0
  0
LINE
  5
4AC
  8
0
 10
1.8405
 20
-0.236206
 30
0.0
 11
1.83823
 21
-0.235687
 31
0.0
  0
LINE
  5
4AD
  8
0
 10
1.83823
 20
-0.235687
 30
0.0
 11
1.83595
 21
-0.235077
 31
0.0
  0
LINE
  5
4AE
  8
0
 10
1.83595
 20
-0.235077
 30
0.0
 11
1.83372
 21
-0.234375
 31
0.0
  0
LINE
  5
4AF
  8
0
 10
1.83372
 20
-0.234375
 30
0.0
 11
1.83151
 21
-0.233566
 31
0.0
  0
LINE
  5
4B0
  8
0
 10
1.83151
 20
-0.233566
 30
0.0
 11
1.82935
 21
-0.232681
 31
0.0
  0
LINE
  5
4B1
  8
0
 10
1.82935
 20
-0.232681
 30
0.0
 11
1.82721
 21
-0.231705
 31
0.0
  0
LINE
  5
4B2
  8
0
 10
1.82721
 20
-0.231705
 30
0.0
 11
1.8251
 21
-0.230652
 31
0.0
  0
LINE
  5
4B3
  8
0
 10
1.8251
 20
-0.230652
 30
0.0
 11
1.82306
 21
-0.229507
 31
0.0
  0
LINE
  5
4B4
  8
0
 10
1.82306
 20
-0.229507
 30
0.0
 11
1.82106
 21
-0.228287
 31
0.0
  0
LINE
  5
4B5
  8
0
 10
1.82106
 20
-0.228287
 30
0.0
 11
1.81911
 21
-0.226974
 31
0.0
  0
LINE
  5
4B6
  8
0
 10
1.81911
 20
-0.226974
 30
0.0
 11
1.81721
 21
-0.225586
 31
0.0
  0
LINE
  5
4B7
  8
0
 10
1.81721
 20
-0.225586
 30
0.0
 11
1.81538
 21
-0.224121
 31
0.0
  0
LINE
  5
4B8
  8
0
 10
1.81538
 20
-0.224121
 30
0.0
 11
1.81361
 21
-0.222595
 31
0.0
  0
LINE
  5
4B9
  8
0
 10
1.81361
 20
-0.222595
 30
0.0
 11
1.8119
 21
-0.220978
 31
0.0
  0
LINE
  5
4BA
  8
0
 10
1.8119
 20
-0.220978
 30
0.0
 11
1.81026
 21
-0.219315
 31
0.0
  0
LINE
  5
4BB
  8
0
 10
1.81026
 20
-0.219315
 30
0.0
 11
1.80869
 21
-0.21756
 31
0.0
  0
LINE
  5
4BC
  8
0
 10
1.80869
 20
-0.21756
 30
0.0
 11
1.80719
 21
-0.215759
 31
0.0
  0
LINE
  5
4BD
  8
0
 10
1.80719
 20
-0.215759
 30
0.0
 11
1.80576
 21
-0.213898
 31
0.0
  0
LINE
  5
4BE
  8
0
 10
1.80576
 20
-0.213898
 30
0.0
 11
1.80441
 21
-0.211975
 31
0.0
  0
LINE
  5
4BF
  8
0
 10
1.80441
 20
-0.211975
 30
0.0
 11
1.80313
 21
-0.210007
 31
0.0
  0
LINE
  5
4C0
  8
0
 10
1.80313
 20
-0.210007
 30
0.0
 11
1.80194
 21
-0.207993
 31
0.0
  0
LINE
  5
4C1
  8
0
 10
1.80194
 20
-0.207993
 30
0.0
 11
1.80084
 21
-0.205917
 31
0.0
  0
LINE
  5
4C2
  8
0
 10
1.80084
 20
-0.205917
 30
0.0
 11
1.79982
 21
-0.203796
 31
0.0
  0
LINE
  5
4C3
  8
0
 10
1.79982
 20
-0.203796
 30
0.0
 11
1.79889
 21
-0.201645
 31
0.0
  0
LINE
  5
4C4
  8
0
 10
1.79889
 20
-0.201645
 30
0.0
 11
1.79805
 21
-0.199463
 31
0.0
  0
LINE
  5
4C5
  8
0
 10
1.79805
 20
-0.199463
 30
0.0
 11
1.79729
 21
-0.197235
 31
0.0
  0
LINE
  5
4C6
  8
0
 10
1.79729
 20
-0.197235
 30
0.0
 11
1.79663
 21
-0.194992
 31
0.0
  0
LINE
  5
4C7
  8
0
 10
1.79663
 20
-0.194992
 30
0.0
 11
1.79605
 21
-0.192719
 31
0.0
  0
LINE
  5
4C8
  8
0
 10
1.79605
 20
-0.192719
 30
0.0
 11
1.79558
 21
-0.190414
 31
0.0
  0
LINE
  5
4C9
  8
0
 10
1.79558
 20
-0.190414
 30
0.0
 11
1.7952
 21
-0.188095
 31
0.0
  0
LINE
  5
4CA
  8
0
 10
1.7952
 20
-0.188095
 30
0.0
 11
1.79491
 21
-0.185776
 31
0.0
  0
LINE
  5
4CB
  8
0
 10
1.79491
 20
-0.185776
 30
0.0
 11
1.79471
 21
-0.183441
 31
0.0
  0
LINE
  5
4CC
  8
0
 10
1.79471
 20
-0.183441
 30
0.0
 11
1.79462
 21
-0.181091
 31
0.0
  0
LINE
  5
4CD
  8
0
 10
1.79462
 20
-0.181091
 30
0.0
 11
1.7946
 21
-0.178741
 31
0.0
  0
LINE
  5
4CE
  8
0
 10
1.7946
 20
-0.178741
 30
0.0
 11
1.79471
 21
-0.176407
 31
0.0
  0
LINE
  5
4CF
  8
0
 10
1.79471
 20
-0.176407
 30
0.0
 11
1.79489
 21
-0.174057
 31
0.0
  0
LINE
  5
4D0
  8
0
 10
1.79489
 20
-0.174057
 30
0.0
 11
1.79517
 21
-0.171738
 31
0.0
  0
LINE
  5
4D1
  8
0
 10
1.79517
 20
-0.171738
 30
0.0
 11
1.79555
 21
-0.169418
 31
0.0
  0
LINE
  5
4D2
  8
0
 10
1.79555
 20
-0.169418
 30
0.0
 11
1.79602
 21
-0.167114
 31
0.0
  0
LINE
  5
4D3
  8
0
 10
1.79602
 20
-0.167114
 30
0.0
 11
1.79659
 21
-0.164841
 31
0.0
  0
LINE
  5
4D4
  8
0
 10
1.79659
 20
-0.164841
 30
0.0
 11
1.79724
 21
-0.162582
 31
0.0
  0
LINE
  5
4D5
  8
0
 10
1.79724
 20
-0.162582
 30
0.0
 11
1.79799
 21
-0.16037
 31
0.0
  0
LINE
  5
4D6
  8
0
 10
1.79799
 20
-0.16037
 30
0.0
 11
1.80063
 21
-0.153488
 31
0.0
  0
LINE
  5
4D7
  8
0
 10
1.80063
 20
-0.153488
 30
0.0
 11
1.80254
 21
-0.147766
 31
0.0
  0
LINE
  5
4D8
  8
0
 10
1.80254
 20
-0.147766
 30
0.0
 11
1.80365
 21
-0.143906
 31
0.0
  0
LINE
  5
4D9
  8
0
 10
1.80365
 20
-0.143906
 30
0.0
 11
1.80441
 21
-0.140976
 31
0.0
  0
LINE
  5
4DA
  8
0
 10
1.80441
 20
-0.140976
 30
0.0
 11
1.8051
 21
-0.138046
 31
0.0
  0
LINE
  5
4DB
  8
0
 10
1.8051
 20
-0.138046
 30
0.0
 11
1.80608
 21
-0.133118
 31
0.0
  0
LINE
  5
4DC
  8
0
 10
1.80608
 20
-0.133118
 30
0.0
 11
1.80699
 21
-0.127151
 31
0.0
  0
LINE
  5
4DD
  8
0
 10
1.80699
 20
-0.127151
 30
0.0
 11
1.80754
 21
-0.122162
 31
0.0
  0
LINE
  5
4DE
  8
0
 10
1.80754
 20
-0.122162
 30
0.0
 11
1.80797
 21
-0.115143
 31
0.0
  0
LINE
  5
4DF
  8
0
 10
1.80797
 20
-0.115143
 30
0.0
 11
1.80803
 21
-0.112122
 31
0.0
  0
LINE
  5
4E0
  8
0
 10
1.80803
 20
-0.112122
 30
0.0
 11
1.80803
 21
0.118164
 31
0.0
  0
LINE
  5
4E1
  8
0
 10
1.80803
 20
0.118164
 30
0.0
 11
1.80792
 21
0.124435
 31
0.0
  0
ENDSEC
  0
EOF
