  0
SECTION
  2
HEADER
  9
$ACADVER
  1
AC1009
  9
$DWGCODEPAGE
  3
ANSI_1252
  9
$INSBASE
 10
0.0
 20
0.0
 30
0.0
  9
$EXTMIN
 10
-100
 20
-100
 30
-100
  9
$EXTMAX
 10
100
 20
100
 30
100
  9
$LIMMIN
 10
0.0
 20
0.0
  9
$LIMMAX
 10
420.0
 20
297.0
  9
$ORTHOMODE
 70
0
  9
$REGENMODE
 70
1
  9
$DRAGMODE
 70
2
  9
$FILLMODE
 70
1
  9
$QTEXTMODE
 70
0
  9
$MIRRTEXT
 70
1
  9
$OSMODE
 70
20583
  9
$LTSCALE
 40
1.0
  9
$ATTMODE
 70
1
  9
$TEXTSIZE
 40
2.5
  9
$TRACEWID
 40
1.0
  9
$TEXTSTYLE
  7
Standard
  9
$CLAYER
  8
0
  9
$CELTYPE
  6
ByLayer
  9
$CECOLOR
 62
256
  9
$DIMSCALE
 40
1.0
  9
$DIMASZ
 40
2.5
  9
$DIMEXO
 40
0.625
  9
$DIMDLI
 40
3.75
  9
$DIMRND
 40
0.0
  9
$DIMDLE
 40
0.0
  9
$DIMEXE
 40
1.25
  9
$DIMTP
 40
0.0
  9
$DIMTM
 40
0.0
  9
$DIMTXT
 40
2.5
  9
$DIMCEN
 40
2.5
  9
$DIMTSZ
 40
0.0
  9
$DIMTOL
 70
0
  9
$DIMLIM
 70
0
  9
$DIMTIH
 70
0
  9
$DIMTOH
 70
0
  9
$DIMSE1
 70
0
  9
$DIMSE2
 70
0
  9
$DIMTAD
 70
1
  9
$DIMZIN
 70
8
  9
$DIMBLK
  1

  9
$DIMASO
 70
1
  9
$DIMSHO
 70
1
  9
$DIMPOST
  1

  9
$DIMAPOST
  1

  9
$DIMALT
 70
0
  9
$DIMALTD
 70
3
  9
$DIMALTF
 40
0.03937007874
  9
$DIMLFAC
 40
1.0
  9
$DIMTOFL
 70
1
  9
$DIMTVP
 40
0.0
  9
$DIMTIX
 70
0
  9
$DIMSOXD
 70
0
  9
$DIMSAH
 70
0
  9
$DIMBLK1
  1

  9
$DIMBLK2
  1

  9
$DIMSTYLE
  2
ISO-25
  9
$DIMCLRD
 70
0
  9
$DIMCLRE
 70
0
  9
$DIMCLRT
 70
0
  9
$DIMTFAC
 40
1.0
  9
$DIMGAP
 40
0.625
  9
$COORDS
 70
1
  9
$ATTDIA
 70
0
  9
$ATTREQ
 70
1
  9
$HANDLING
 70
1
  9
$LUNITS
 70
2
  9
$LUPREC
 70
4
  9
$SKETCHINC
 40
1.0
  9
$FILLETRAD
 40
10.0
  9
$AUNITS
 70
0
  9
$AUPREC
 70
2
  9
$MENU
  1
.
  9
$ELEVATION
 40
0.0
  9
$PELEVATION
 40
0.0
  9
$THICKNESS
 40
0.0
  9
$LIMCHECK
 70
0
  9
$CHAMFERA
 40
0.0
  9
$CHAMFERB
 40
0.0
  9
$SKPOLY
 70
0
  9
$TDCREATE
 40
2459089.7208796297
  9
$TDUPDATE
 40
2459089.7208796297
  9
$TDINDWG
 40
0.0
  9
$TDUSRTIMER
 40
0.0
  9
$USRTIMER
 70
1
  9
$ANGBASE
 50
0.0
  9
$ANGDIR
 70
0
  9
$PDMODE
 70
0
  9
$PDSIZE
 40
0.0
  9
$PLINEWID
 40
0.0
  9
$SPLFRAME
 70
0
  9
$SPLINETYPE
 70
6
  9
$SPLINESEGS
 70
8
  9
$HANDSEED
  5
2A4
  9
$SURFTAB1
 70
6
  9
$SURFTAB2
 70
6
  9
$SURFTYPE
 70
6
  9
$SURFU
 70
6
  9
$SURFV
 70
6
  9
$UCSNAME
  2

  9
$UCSORG
 10
0.0
 20
0.0
 30
0.0
  9
$UCSXDIR
 10
1.0
 20
0.0
 30
0.0
  9
$UCSYDIR
 10
0.0
 20
1.0
 30
0.0
  9
$PUCSNAME
  2

  9
$PUCSORG
 10
0.0
 20
0.0
 30
0.0
  9
$PUCSXDIR
 10
1.0
 20
0.0
 30
0.0
  9
$PUCSYDIR
 10
0.0
 20
1.0
 30
0.0
  9
$USERI1
 70
0
  9
$USERI2
 70
0
  9
$USERI3
 70
0
  9
$USERI4
 70
0
  9
$USERI5
 70
0
  9
$USERR1
 40
0.0
  9
$USERR2
 40
0.0
  9
$USERR3
 40
0.0
  9
$USERR4
 40
0.0
  9
$USERR5
 40
0.0
  9
$WORLDVIEW
 70
1
  9
$SHADEDGE
 70
3
  9
$SHADEDIF
 70
70
  9
$TILEMODE
 70
1
  9
$MAXACTVP
 70
64
  9
$PLIMCHECK
 70
0
  9
$PEXTMIN
 10
1e+20
 20
1e+20
 30
1e+20
  9
$PEXTMAX
 10
-1e+20
 20
-1e+20
 30
-1e+20
  9
$PLIMMIN
 10
0.0
 20
0.0
  9
$PLIMMAX
 10
420.0
 20
297.0
  9
$UNITMODE
 70
0
  9
$VISRETAIN
 70
1
  9
$PLINEGEN
 70
0
  9
$PSLTSCALE
 70
1
  0
ENDSEC
  0
SECTION
  2
TABLES
  0
TABLE
  2
VPORT
 70
1
  0
VPORT
  5
278
  2
*Active
 70
0
 10
0.0
 20
0.0
 11
1.0
 21
1.0
 12
70.0
 22
50.0
 13
0.0
 23
0.0
 14
0.5
 24
0.5
 15
0.5
 25
0.5
 16
0.0
 26
0.0
 36
1.0
 17
0.0
 27
0.0
 37
0.0
 40
1.0
 41
1.34
 42
50.0
 43
0.0
 44
0.0
 50
0.0
 51
0.0
 71
0
 72
1000
 73
1
 74
3
 75
0
 76
0
 77
0
 78
0
  0
ENDTAB
  0
TABLE
  2
LTYPE
 70
3
  0
LTYPE
  5
279
  2
ByBlock
 70
0
  3

 72
65
 73
0
 40
0.0
  0
LTYPE
  5
27A
  2
ByLayer
 70
0
  3

 72
65
 73
0
 40
0.0
  0
LTYPE
  5
27B
  2
Continuous
 70
0
  3

 72
65
 73
0
 40
0.0
  0
ENDTAB
  0
TABLE
  2
LAYER
 70
2
  0
LAYER
  5
27C
  2
0
 70
0
 62
7
  6
Continuous
  0
LAYER
  5
27D
  2
Defpoints
 70
0
 62
7
  6
Continuous
  0
ENDTAB
  0
TABLE
  2
STYLE
 70
1
  0
STYLE
  5
27E
  2
Standard
 70
0
 40
0.0
 41
1.0
 50
0.0
 71
0
 42
2.5
  3
txt
  4

  0
ENDTAB
  0
TABLE
  2
VIEW
 70
0
  0
ENDTAB
  0
TABLE
  2
UCS
 70
0
  0
ENDTAB
  0
TABLE
  2
APPID
 70
1
  0
APPID
  5
27F
  2
ACAD
 70
0
  0
ENDTAB
  0
TABLE
  2
DIMSTYLE
 70
1
  0
DIMSTYLE
105
280
  2
Standard
 70
0
  3

  4

  5

  6

  7

 40
1.0
 41
2.5
 42
0.625
 43
3.75
 44
1.25
 45
0.0
 46
0.0
 47
0.0
 48
0.0
140
2.5
141
2.5
142
0.0
143
0.03937007874
144
1.0
145
0.0
146
1.0
147
0.625
 71
0
 72
0
 73
0
 74
0
 75
0
 76
0
 77
1
 78
8
170
0
171
3
172
1
173
0
174
0
175
0
176
0
177
0
178
0
  0
ENDTAB
  0
ENDSEC
  0
SECTION
  2
BLOCKS
  0
BLOCK
  5
259
  8
0
  2
$Model_Space
 70
0
 10
0.0
 20
0.0
 30
0.0
  3
$Model_Space
  1

  0
ENDBLK
  5
25A
  8
0
  0
BLOCK
  5
25B
  8
0
  2
$Paper_Space
 70
0
 10
0.0
 20
0.0
 30
0.0
  3
$Paper_Space
  1

  0
ENDBLK
  5
25C
  8
0
  0
ENDSEC
  0
SECTION
  2
ENTITIES
  0
LINE
  5
100
  8
0
 10
344.194
 20
-31.9693
 30
0.0
 11
353.5
 21
-30.4954
 31
0.0
  0
LINE
  5
101
  8
0
 10
353.5
 20
-30.4954
 30
0.0
 11
354.239
 21
-30.2552
 31
0.0
  0
LINE
  5
102
  8
0
 10
354.239
 20
-30.2552
 30
0.0
 11
362.459
 21
-26.0672
 31
0.0
  0
LINE
  5
103
  8
0
 10
362.459
 20
-26.0672
 30
0.0
 11
363.087
 21
-25.6103
 31
0.0
  0
LINE
  5
104
  8
0
 10
363.087
 20
-25.6103
 30
0.0
 11
369.61
 21
-19.0874
 31
0.0
  0
LINE
  5
105
  8
0
 10
369.61
 20
-19.0874
 30
0.0
 11
370.067
 21
-18.4585
 31
0.0
  0
LINE
  5
106
  8
0
 10
370.067
 20
-18.4585
 30
0.0
 11
374.255
 21
-10.2392
 31
0.0
  0
LINE
  5
107
  8
0
 10
374.255
 20
-10.2392
 30
0.0
 11
374.495
 21
-9.49988
 31
0.0
  0
LINE
  5
108
  8
0
 10
374.495
 20
-9.49988
 30
0.0
 11
375.969
 21
-0.19397
 31
0.0
  0
LINE
  5
109
  8
0
 10
375.969
 20
-0.19397
 30
0.0
 11
376.0
 21
0.196426
 31
0.0
  0
LINE
  5
10A
  8
0
 10
376.0
 20
0.196426
 30
0.0
 11
376.0
 21
9.56183
 31
0.0
  0
LINE
  5
10B
  8
0
 10
376.0
 20
9.56183
 30
0.0
 11
375.683
 21
9.87888
 31
0.0
  0
LINE
  5
10C
  8
0
 10
375.683
 20
9.87888
 30
0.0
 11
375.683
 21
11.6348
 31
0.0
  0
LINE
  5
10D
  8
0
 10
375.683
 20
11.6348
 30
0.0
 11
376.0
 21
11.9518
 31
0.0
  0
LINE
  5
10E
  8
0
 10
376.0
 20
11.9518
 30
0.0
 11
376.0
 21
47.8035
 31
0.0
  0
LINE
  5
10F
  8
0
 10
376.0
 20
47.8035
 30
0.0
 11
375.969
 21
48.194
 31
0.0
  0
LINE
  5
110
  8
0
 10
375.969
 20
48.194
 30
0.0
 11
375.964
 21
48.2295
 31
0.0
  0
LINE
  5
111
  8
0
 10
375.964
 20
48.2295
 30
0.0
 11
375.749
 21
48.891
 31
0.0
  0
LINE
  5
112
  8
0
 10
375.749
 20
48.891
 30
0.0
 11
375.388
 21
49.3878
 31
0.0
  0
LINE
  5
113
  8
0
 10
375.388
 20
49.3878
 30
0.0
 11
374.891
 21
49.7487
 31
0.0
  0
LINE
  5
114
  8
0
 10
374.891
 20
49.7487
 30
0.0
 11
374.23
 21
49.9636
 31
0.0
  0
LINE
  5
115
  8
0
 10
374.23
 20
49.9636
 30
0.0
 11
374.194
 21
49.9693
 31
0.0
  0
LINE
  5
116
  8
0
 10
374.194
 20
49.9693
 30
0.0
 11
373.804
 21
50.0
 31
0.0
  0
LINE
  5
117
  8
0
 10
373.804
 20
50.0
 30
0.0
 11
-29.8035
 21
50.0
 31
0.0
  0
LINE
  5
118
  8
0
 10
-29.8035
 20
50.0
 30
0.0
 11
-30.194
 21
49.9693
 31
0.0
  0
LINE
  5
119
  8
0
 10
-30.194
 20
49.9693
 30
0.0
 11
-30.2295
 21
49.9636
 31
0.0
  0
LINE
  5
11A
  8
0
 10
-30.2295
 20
49.9636
 30
0.0
 11
-30.891
 21
49.7487
 31
0.0
  0
LINE
  5
11B
  8
0
 10
-30.891
 20
49.7487
 30
0.0
 11
-31.3878
 21
49.3878
 31
0.0
  0
LINE
  5
11C
  8
0
 10
-31.3878
 20
49.3878
 30
0.0
 11
-31.7487
 21
48.891
 31
0.0
  0
LINE
  5
11D
  8
0
 10
-31.7487
 20
48.891
 30
0.0
 11
-31.9637
 21
48.2295
 31
0.0
  0
LINE
  5
11E
  8
0
 10
-31.9637
 20
48.2295
 30
0.0
 11
-31.9693
 21
48.194
 31
0.0
  0
LINE
  5
11F
  8
0
 10
-31.9693
 20
48.194
 30
0.0
 11
-32.0
 21
47.8035
 31
0.0
  0
LINE
  5
120
  8
0
 10
-32.0
 20
47.8035
 30
0.0
 11
-32.0
 21
0.196426
 31
0.0
  0
LINE
  5
121
  8
0
 10
-32.0
 20
0.196426
 30
0.0
 11
-31.9693
 21
-0.19397
 31
0.0
  0
LINE
  5
122
  8
0
 10
-31.9693
 20
-0.19397
 30
0.0
 11
-30.4954
 21
-9.49988
 31
0.0
  0
LINE
  5
123
  8
0
 10
-30.4954
 20
-9.49988
 30
0.0
 11
-30.2552
 21
-10.2392
 31
0.0
  0
LINE
  5
124
  8
0
 10
-30.2552
 20
-10.2392
 30
0.0
 11
-26.0672
 21
-18.4585
 31
0.0
  0
LINE
  5
125
  8
0
 10
-26.0672
 20
-18.4585
 30
0.0
 11
-25.6103
 21
-19.0874
 31
0.0
  0
LINE
  5
126
  8
0
 10
-25.6103
 20
-19.0874
 30
0.0
 11
-19.0874
 21
-25.6103
 31
0.0
  0
LINE
  5
127
  8
0
 10
-19.0874
 20
-25.6103
 30
0.0
 11
-18.4585
 21
-26.0672
 31
0.0
  0
LINE
  5
128
  8
0
 10
-18.4585
 20
-26.0672
 30
0.0
 11
-10.2392
 21
-30.2552
 31
0.0
  0
LINE
  5
129
  8
0
 10
-10.2392
 20
-30.2552
 30
0.0
 11
-9.49988
 21
-30.4954
 31
0.0
  0
LINE
  5
12A
  8
0
 10
-9.49988
 20
-30.4954
 30
0.0
 11
-0.193893
 21
-31.9693
 31
0.0
  0
LINE
  5
12B
  8
0
 10
-0.193893
 20
-31.9693
 30
0.0
 11
0.196426
 21
-32.0
 31
0.0
  0
LINE
  5
12C
  8
0
 10
0.196426
 20
-32.0
 30
0.0
 11
343.804
 21
-32.0
 31
0.0
  0
LINE
  5
12D
  8
0
 10
343.804
 20
-32.0
 30
0.0
 11
344.194
 21
-31.9693
 31
0.0
  0
LINE
  5
12E
  8
0
 10
331.729
 20
9.37885
 30
0.0
 11
330.107
 21
10.6401
 31
0.0
  0
LINE
  5
12F
  8
0
 10
330.107
 20
10.6401
 30
0.0
 11
288.83
 21
27.1004
 31
0.0
  0
LINE
  5
130
  8
0
 10
288.83
 20
27.1004
 30
0.0
 11
286.637
 21
34.6836
 31
0.0
  0
LINE
  5
131
  8
0
 10
286.637
 20
34.6836
 30
0.0
 11
289.545
 21
38.6857
 31
0.0
  0
LINE
  5
132
  8
0
 10
289.545
 20
38.6857
 30
0.0
 11
289.545
 21
40.0
 31
0.0
  0
LINE
  5
133
  8
0
 10
289.545
 20
40.0
 30
0.0
 11
294.545
 21
45.0
 31
0.0
  0
LINE
  5
134
  8
0
 10
294.545
 20
45.0
 30
0.0
 11
338.693
 21
45.0
 31
0.0
  0
LINE
  5
135
  8
0
 10
338.693
 20
45.0
 30
0.0
 11
343.693
 21
40.0
 31
0.0
  0
LINE
  5
136
  8
0
 10
343.693
 20
40.0
 30
0.0
 11
343.693
 21
14.5914
 31
0.0
  0
LINE
  5
137
  8
0
 10
343.693
 20
14.5914
 30
0.0
 11
340.238
 21
9.83611
 31
0.0
  0
LINE
  5
138
  8
0
 10
340.238
 20
9.83611
 30
0.0
 11
336.343
 21
8.57056
 31
0.0
  0
LINE
  5
139
  8
0
 10
336.343
 20
8.57056
 30
0.0
 11
331.729
 21
9.37885
 31
0.0
  0
LINE
  5
13A
  8
0
 10
248.107
 20
2.21506
 30
0.0
 11
213.613
 21
33.1435
 31
0.0
  0
LINE
  5
13B
  8
0
 10
213.613
 20
33.1435
 30
0.0
 11
212.905
 21
39.8052
 31
0.0
  0
LINE
  5
13C
  8
0
 10
212.905
 20
39.8052
 30
0.0
 11
214.5
 21
42.0
 31
0.0
  0
LINE
  5
13D
  8
0
 10
214.5
 20
42.0
 30
0.0
 11
215.105
 21
41.5602
 31
0.0
  0
LINE
  5
13E
  8
0
 10
215.105
 20
41.5602
 30
0.0
 11
218.545
 21
45.0
 31
0.0
  0
LINE
  5
13F
  8
0
 10
218.545
 20
45.0
 30
0.0
 11
233.741
 21
45.0
 31
0.0
  0
LINE
  5
140
  8
0
 10
233.741
 20
45.0
 30
0.0
 11
238.741
 21
40.0
 31
0.0
  0
LINE
  5
141
  8
0
 10
238.741
 20
40.0
 30
0.0
 11
238.741
 21
37.804
 31
0.0
  0
LINE
  5
142
  8
0
 10
238.741
 20
37.804
 30
0.0
 11
240.286
 21
35.6774
 31
0.0
  0
LINE
  5
143
  8
0
 10
240.286
 20
35.6774
 30
0.0
 11
244.464
 21
34.3202
 31
0.0
  0
LINE
  5
144
  8
0
 10
244.464
 20
34.3202
 30
0.0
 11
245.32
 21
34.5983
 31
0.0
  0
LINE
  5
145
  8
0
 10
245.32
 20
34.5983
 30
0.0
 11
250.91
 21
32.782
 31
0.0
  0
LINE
  5
146
  8
0
 10
250.91
 20
32.782
 30
0.0
 11
251.865
 21
29.843
 31
0.0
  0
LINE
  5
147
  8
0
 10
251.865
 20
29.843
 30
0.0
 11
251.865
 21
24.8078
 31
0.0
  0
LINE
  5
148
  8
0
 10
251.865
 20
24.8078
 30
0.0
 11
253.41
 21
22.6812
 31
0.0
  0
LINE
  5
149
  8
0
 10
253.41
 20
22.6812
 30
0.0
 11
259.195
 21
20.8015
 31
0.0
  0
LINE
  5
14A
  8
0
 10
259.195
 20
20.8015
 30
0.0
 11
262.65
 21
16.0462
 31
0.0
  0
LINE
  5
14B
  8
0
 10
262.65
 20
16.0462
 30
0.0
 11
262.65
 21
7.95374
 31
0.0
  0
LINE
  5
14C
  8
0
 10
262.65
 20
7.95374
 30
0.0
 11
259.195
 21
3.19846
 31
0.0
  0
LINE
  5
14D
  8
0
 10
259.195
 20
3.19846
 30
0.0
 11
252.99
 21
1.18251
 31
0.0
  0
LINE
  5
14E
  8
0
 10
252.99
 20
1.18251
 30
0.0
 11
248.107
 21
2.21506
 31
0.0
  0
LINE
  5
14F
  8
0
 10
-5.93723
 20
13.0333
 30
0.0
 11
-21.6355
 21
37.2829
 31
0.0
  0
LINE
  5
150
  8
0
 10
-21.6355
 20
37.2829
 30
0.0
 11
-21.3194
 21
43.1522
 31
0.0
  0
LINE
  5
151
  8
0
 10
-21.3194
 20
43.1522
 30
0.0
 11
-17.4382
 21
45.0
 31
0.0
  0
LINE
  5
152
  8
0
 10
-17.4382
 20
45.0
 30
0.0
 11
-10.2586
 21
45.0
 31
0.0
  0
LINE
  5
153
  8
0
 10
-10.2586
 20
45.0
 30
0.0
 11
-6.30817
 21
41.0496
 31
0.0
  0
LINE
  5
154
  8
0
 10
-6.30817
 20
41.0496
 30
0.0
 11
-6.21353
 21
41.1183
 31
0.0
  0
LINE
  5
155
  8
0
 10
-6.21353
 20
41.1183
 30
0.0
 11
-5.77942
 21
40.5208
 31
0.0
  0
LINE
  5
156
  8
0
 10
-5.77942
 20
40.5208
 30
0.0
 11
-5.25861
 21
40.0
 31
0.0
  0
LINE
  5
157
  8
0
 10
-5.25861
 20
40.0
 30
0.0
 11
-5.25861
 21
39.804
 31
0.0
  0
LINE
  5
158
  8
0
 10
-5.25861
 20
39.804
 30
0.0
 11
-3.71352
 21
37.6774
 31
0.0
  0
LINE
  5
159
  8
0
 10
-3.71352
 20
37.6774
 30
0.0
 11
0.463531
 21
36.3202
 31
0.0
  0
LINE
  5
15A
  8
0
 10
0.463531
 20
36.3202
 30
0.0
 11
2.96353
 21
37.1324
 31
0.0
  0
LINE
  5
15B
  8
0
 10
2.96353
 20
37.1324
 30
0.0
 11
3.77788
 21
38.2533
 31
0.0
  0
LINE
  5
15C
  8
0
 10
3.77788
 20
38.2533
 30
0.0
 11
11.868
 21
38.2533
 31
0.0
  0
LINE
  5
15D
  8
0
 10
11.868
 20
38.2533
 30
0.0
 11
12.2865
 21
37.6774
 31
0.0
  0
LINE
  5
15E
  8
0
 10
12.2865
 20
37.6774
 30
0.0
 11
16.6912
 21
36.2462
 31
0.0
  0
LINE
  5
15F
  8
0
 10
16.6912
 20
36.2462
 30
0.0
 11
20.1461
 21
31.4909
 31
0.0
  0
LINE
  5
160
  8
0
 10
20.1461
 20
31.4909
 30
0.0
 11
19.082
 21
28.4073
 31
0.0
  0
LINE
  5
161
  8
0
 10
19.082
 20
28.4073
 30
0.0
 11
7.53532
 21
13.6691
 31
0.0
  0
LINE
  5
162
  8
0
 10
7.53532
 20
13.6691
 30
0.0
 11
3.94852
 21
12.5751
 31
0.0
  0
LINE
  5
163
  8
0
 10
3.94852
 20
12.5751
 30
0.0
 11
4.01721
 21
12.3637
 31
0.0
  0
LINE
  5
164
  8
0
 10
4.01721
 20
12.3637
 30
0.0
 11
-0.19487
 21
10.9951
 31
0.0
  0
LINE
  5
165
  8
0
 10
-0.19487
 20
10.9951
 30
0.0
 11
-5.93723
 21
13.0333
 31
0.0
  0
LINE
  5
166
  8
0
 10
350.851
 20
8.46394
 30
0.0
 11
349.17
 21
10.7766
 31
0.0
  0
LINE
  5
167
  8
0
 10
349.17
 20
10.7766
 30
0.0
 11
348.215
 21
13.7155
 31
0.0
  0
LINE
  5
168
  8
0
 10
348.215
 20
13.7155
 30
0.0
 11
348.215
 21
40.0
 31
0.0
  0
LINE
  5
169
  8
0
 10
348.215
 20
40.0
 30
0.0
 11
353.215
 21
45.0
 31
0.0
  0
LINE
  5
16A
  8
0
 10
353.215
 20
45.0
 30
0.0
 11
366.0
 21
45.0
 31
0.0
  0
LINE
  5
16B
  8
0
 10
366.0
 20
45.0
 30
0.0
 11
371.0
 21
40.0
 31
0.0
  0
LINE
  5
16C
  8
0
 10
371.0
 20
40.0
 30
0.0
 11
371.0
 21
15.3564
 31
0.0
  0
LINE
  5
16D
  8
0
 10
371.0
 20
15.3564
 30
0.0
 11
367.677
 21
10.6461
 31
0.0
  0
LINE
  5
16E
  8
0
 10
367.677
 20
10.6461
 30
0.0
 11
356.573
 21
6.6925
 31
0.0
  0
LINE
  5
16F
  8
0
 10
356.573
 20
6.6925
 30
0.0
 11
350.851
 21
8.46394
 31
0.0
  0
LINE
  5
170
  8
0
 10
34.6015
 20
-0.564835
 30
0.0
 11
30.1635
 21
3.28914
 31
0.0
  0
LINE
  5
171
  8
0
 10
30.1635
 20
3.28914
 30
0.0
 11
33.3701
 21
9.13113
 31
0.0
  0
LINE
  5
172
  8
0
 10
33.3701
 20
9.13113
 30
0.0
 11
103.788
 21
33.9926
 31
0.0
  0
LINE
  5
173
  8
0
 10
103.788
 20
33.9926
 30
0.0
 11
104.951
 21
34.8601
 31
0.0
  0
LINE
  5
174
  8
0
 10
104.951
 20
34.8601
 30
0.0
 11
105.109
 21
35.0771
 31
0.0
  0
LINE
  5
175
  8
0
 10
105.109
 20
35.0771
 30
0.0
 11
105.345
 21
35.1539
 31
0.0
  0
LINE
  5
176
  8
0
 10
105.345
 20
35.1539
 30
0.0
 11
105.56
 21
35.3143
 31
0.0
  0
LINE
  5
177
  8
0
 10
105.56
 20
35.3143
 30
0.0
 11
105.614
 21
35.2414
 31
0.0
  0
LINE
  5
178
  8
0
 10
105.614
 20
35.2414
 30
0.0
 11
110.699
 21
36.8935
 31
0.0
  0
LINE
  5
179
  8
0
 10
110.699
 20
36.8935
 30
0.0
 11
112.464
 21
36.3202
 31
0.0
  0
LINE
  5
17A
  8
0
 10
112.464
 20
36.3202
 30
0.0
 11
114.964
 21
37.1324
 31
0.0
  0
LINE
  5
17B
  8
0
 10
114.964
 20
37.1324
 30
0.0
 11
115.778
 21
38.2533
 31
0.0
  0
LINE
  5
17C
  8
0
 10
115.778
 20
38.2533
 30
0.0
 11
123.868
 21
38.2533
 31
0.0
  0
LINE
  5
17D
  8
0
 10
123.868
 20
38.2533
 30
0.0
 11
124.365
 21
37.5686
 31
0.0
  0
LINE
  5
17E
  8
0
 10
124.365
 20
37.5686
 30
0.0
 11
124.365
 21
33.4695
 31
0.0
  0
LINE
  5
17F
  8
0
 10
124.365
 20
33.4695
 30
0.0
 11
124.477
 21
33.4695
 31
0.0
  0
LINE
  5
180
  8
0
 10
124.477
 20
33.4695
 30
0.0
 11
124.477
 21
31.0396
 31
0.0
  0
LINE
  5
181
  8
0
 10
124.477
 20
31.0396
 30
0.0
 11
124.678
 21
30.0628
 31
0.0
  0
LINE
  5
182
  8
0
 10
124.678
 20
30.0628
 30
0.0
 11
135.881
 21
3.99387
 31
0.0
  0
LINE
  5
183
  8
0
 10
135.881
 20
3.99387
 30
0.0
 11
134.584
 21
-1.73914
 31
0.0
  0
LINE
  5
184
  8
0
 10
134.584
 20
-1.73914
 30
0.0
 11
129.742
 21
-2.73543
 31
0.0
  0
LINE
  5
185
  8
0
 10
129.742
 20
-2.73543
 30
0.0
 11
128.464
 21
-2.32016
 31
0.0
  0
LINE
  5
186
  8
0
 10
128.464
 20
-2.32016
 30
0.0
 11
124.286
 21
-3.67735
 31
0.0
  0
LINE
  5
187
  8
0
 10
124.286
 20
-3.67735
 30
0.0
 11
122.744
 21
-5.79982
 31
0.0
  0
LINE
  5
188
  8
0
 10
122.744
 20
-5.79982
 30
0.0
 11
118.266
 21
-7.84207
 31
0.0
  0
LINE
  5
189
  8
0
 10
118.266
 20
-7.84207
 30
0.0
 11
34.6015
 21
-0.564835
 31
0.0
  0
LINE
  5
18A
  8
0
 10
154.545
 20
-13.6223
 30
0.0
 11
149.545
 21
-8.62233
 31
0.0
  0
LINE
  5
18B
  8
0
 10
149.545
 20
-8.62233
 30
0.0
 11
149.545
 21
-6.68567
 31
0.0
  0
LINE
  5
18C
  8
0
 10
149.545
 20
-6.68567
 30
0.0
 11
146.964
 21
-3.13245
 31
0.0
  0
LINE
  5
18D
  8
0
 10
146.964
 20
-3.13245
 30
0.0
 11
145.786
 21
-2.74983
 31
0.0
  0
LINE
  5
18E
  8
0
 10
145.786
 20
-2.74983
 30
0.0
 11
142.737
 21
0.0314331
 31
0.0
  0
LINE
  5
18F
  8
0
 10
142.737
 20
0.0314331
 30
0.0
 11
129.467
 21
30.9143
 31
0.0
  0
LINE
  5
190
  8
0
 10
129.467
 20
30.9143
 30
0.0
 11
130.015
 21
35.8273
 31
0.0
  0
LINE
  5
191
  8
0
 10
130.015
 20
35.8273
 30
0.0
 11
131.778
 21
38.2533
 31
0.0
  0
LINE
  5
192
  8
0
 10
131.778
 20
38.2533
 30
0.0
 11
139.868
 21
38.2533
 31
0.0
  0
LINE
  5
193
  8
0
 10
139.868
 20
38.2533
 30
0.0
 11
140.286
 21
37.6774
 31
0.0
  0
LINE
  5
194
  8
0
 10
140.286
 20
37.6774
 30
0.0
 11
144.464
 21
36.3202
 31
0.0
  0
LINE
  5
195
  8
0
 10
144.464
 20
36.3202
 30
0.0
 11
146.964
 21
37.1324
 31
0.0
  0
LINE
  5
196
  8
0
 10
146.964
 20
37.1324
 30
0.0
 11
147.778
 21
38.2533
 31
0.0
  0
LINE
  5
197
  8
0
 10
147.778
 20
38.2533
 30
0.0
 11
155.868
 21
38.2533
 31
0.0
  0
LINE
  5
198
  8
0
 10
155.868
 20
38.2533
 30
0.0
 11
156.286
 21
37.6774
 31
0.0
  0
LINE
  5
199
  8
0
 10
156.286
 20
37.6774
 30
0.0
 11
160.464
 21
36.3202
 31
0.0
  0
LINE
  5
19A
  8
0
 10
160.464
 20
36.3202
 30
0.0
 11
162.964
 21
37.1324
 31
0.0
  0
LINE
  5
19B
  8
0
 10
162.964
 20
37.1324
 30
0.0
 11
163.778
 21
38.2533
 31
0.0
  0
LINE
  5
19C
  8
0
 10
163.778
 20
38.2533
 30
0.0
 11
171.868
 21
38.2533
 31
0.0
  0
LINE
  5
19D
  8
0
 10
171.868
 20
38.2533
 30
0.0
 11
172.286
 21
37.6774
 31
0.0
  0
LINE
  5
19E
  8
0
 10
172.286
 20
37.6774
 30
0.0
 11
176.464
 21
36.3202
 31
0.0
  0
LINE
  5
19F
  8
0
 10
176.464
 20
36.3202
 30
0.0
 11
178.964
 21
37.1324
 31
0.0
  0
LINE
  5
1A0
  8
0
 10
178.964
 20
37.1324
 30
0.0
 11
179.778
 21
38.2533
 31
0.0
  0
LINE
  5
1A1
  8
0
 10
179.778
 20
38.2533
 30
0.0
 11
187.868
 21
38.2533
 31
0.0
  0
LINE
  5
1A2
  8
0
 10
187.868
 20
38.2533
 30
0.0
 11
189.241
 21
36.363
 31
0.0
  0
LINE
  5
1A3
  8
0
 10
189.241
 20
36.363
 30
0.0
 11
188.683
 21
35.9575
 31
0.0
  0
LINE
  5
1A4
  8
0
 10
188.683
 20
35.9575
 30
0.0
 11
190.625
 21
33.2848
 31
0.0
  0
LINE
  5
1A5
  8
0
 10
190.625
 20
33.2848
 30
0.0
 11
189.533
 21
30.165
 31
0.0
  0
LINE
  5
1A6
  8
0
 10
189.533
 20
30.165
 30
0.0
 11
165.008
 21
-0.550903
 31
0.0
  0
LINE
  5
1A7
  8
0
 10
165.008
 20
-0.550903
 30
0.0
 11
164.196
 21
-2.86813
 31
0.0
  0
LINE
  5
1A8
  8
0
 10
164.196
 20
-2.86813
 30
0.0
 11
164.134
 21
-2.84634
 31
0.0
  0
LINE
  5
1A9
  8
0
 10
164.134
 20
-2.84634
 30
0.0
 11
163.523
 21
-4.72881
 31
0.0
  0
LINE
  5
1AA
  8
0
 10
163.523
 20
-4.72881
 30
0.0
 11
162.741
 21
-5.80399
 31
0.0
  0
LINE
  5
1AB
  8
0
 10
162.741
 20
-5.80399
 30
0.0
 11
162.741
 21
-8.62234
 31
0.0
  0
LINE
  5
1AC
  8
0
 10
162.741
 20
-8.62234
 30
0.0
 11
157.741
 21
-13.6223
 31
0.0
  0
LINE
  5
1AD
  8
0
 10
157.741
 20
-13.6223
 30
0.0
 11
154.545
 21
-13.6223
 31
0.0
  0
LINE
  5
1AE
  8
0
 10
16.5613
 20
11.6945
 30
0.0
 11
16.595
 21
17.8181
 31
0.0
  0
LINE
  5
1AF
  8
0
 10
16.595
 20
17.8181
 30
0.0
 11
29.4372
 21
34.2099
 31
0.0
  0
LINE
  5
1B0
  8
0
 10
29.4372
 20
34.2099
 30
0.0
 11
29.4917
 21
34.2822
 31
0.0
  0
LINE
  5
1B1
  8
0
 10
29.4917
 20
34.2822
 30
0.0
 11
29.5567
 21
34.3717
 31
0.0
  0
LINE
  5
1B2
  8
0
 10
29.5567
 20
34.3717
 30
0.0
 11
32.0567
 21
36.188
 31
0.0
  0
LINE
  5
1B3
  8
0
 10
32.0567
 20
36.188
 30
0.0
 11
34.9635
 21
37.1324
 31
0.0
  0
LINE
  5
1B4
  8
0
 10
34.9635
 20
37.1324
 30
0.0
 11
35.7779
 21
38.2533
 31
0.0
  0
LINE
  5
1B5
  8
0
 10
35.7779
 20
38.2533
 30
0.0
 11
43.868
 21
38.2533
 31
0.0
  0
LINE
  5
1B6
  8
0
 10
43.868
 20
38.2533
 30
0.0
 11
44.2865
 21
37.6774
 31
0.0
  0
LINE
  5
1B7
  8
0
 10
44.2865
 20
37.6774
 30
0.0
 11
48.4635
 21
36.3202
 31
0.0
  0
LINE
  5
1B8
  8
0
 10
48.4635
 20
36.3202
 30
0.0
 11
50.9635
 21
37.1324
 31
0.0
  0
LINE
  5
1B9
  8
0
 10
50.9635
 20
37.1324
 30
0.0
 11
51.7779
 21
38.2533
 31
0.0
  0
LINE
  5
1BA
  8
0
 10
51.7779
 20
38.2533
 30
0.0
 11
59.868
 21
38.2533
 31
0.0
  0
LINE
  5
1BB
  8
0
 10
59.868
 20
38.2533
 30
0.0
 11
60.2865
 21
37.6774
 31
0.0
  0
LINE
  5
1BC
  8
0
 10
60.2865
 20
37.6774
 30
0.0
 11
64.4635
 21
36.3202
 31
0.0
  0
LINE
  5
1BD
  8
0
 10
64.4635
 20
36.3202
 30
0.0
 11
66.9635
 21
37.1324
 31
0.0
  0
LINE
  5
1BE
  8
0
 10
66.9635
 20
37.1324
 30
0.0
 11
67.7779
 21
38.2533
 31
0.0
  0
LINE
  5
1BF
  8
0
 10
67.7779
 20
38.2533
 30
0.0
 11
75.868
 21
38.2533
 31
0.0
  0
LINE
  5
1C0
  8
0
 10
75.868
 20
38.2533
 30
0.0
 11
77.2414
 21
36.363
 31
0.0
  0
LINE
  5
1C1
  8
0
 10
77.2414
 20
36.363
 30
0.0
 11
76.5395
 21
35.853
 31
0.0
  0
LINE
  5
1C2
  8
0
 10
76.5395
 20
35.853
 30
0.0
 11
78.3375
 21
33.3783
 31
0.0
  0
LINE
  5
1C3
  8
0
 10
78.3375
 20
33.3783
 30
0.0
 11
75.0021
 21
28.6634
 31
0.0
  0
LINE
  5
1C4
  8
0
 10
75.0021
 20
28.6634
 30
0.0
 11
22.1955
 21
10.0198
 31
0.0
  0
LINE
  5
1C5
  8
0
 10
22.1955
 20
10.0198
 30
0.0
 11
16.5613
 21
11.6945
 31
0.0
  0
LINE
  5
1C6
  8
0
 10
229.724
 20
-22.932
 30
0.0
 11
226.823
 21
-18.9389
 31
0.0
  0
LINE
  5
1C7
  8
0
 10
226.823
 20
-18.9389
 30
0.0
 11
226.823
 21
-13.0611
 31
0.0
  0
LINE
  5
1C8
  8
0
 10
226.823
 20
-13.0611
 30
0.0
 11
229.545
 21
-9.31433
 31
0.0
  0
LINE
  5
1C9
  8
0
 10
229.545
 20
-9.31433
 30
0.0
 11
229.545
 21
-6.68567
 31
0.0
  0
LINE
  5
1CA
  8
0
 10
229.545
 20
-6.68567
 30
0.0
 11
226.964
 21
-3.13245
 31
0.0
  0
LINE
  5
1CB
  8
0
 10
226.964
 20
-3.13245
 30
0.0
 11
224.464
 21
-2.32016
 31
0.0
  0
LINE
  5
1CC
  8
0
 10
224.464
 20
-2.32016
 30
0.0
 11
220.286
 21
-3.67735
 31
0.0
  0
LINE
  5
1CD
  8
0
 10
220.286
 20
-3.67735
 30
0.0
 11
219.868
 21
-4.25328
 31
0.0
  0
LINE
  5
1CE
  8
0
 10
219.868
 20
-4.25328
 30
0.0
 11
211.778
 21
-4.2533
 31
0.0
  0
LINE
  5
1CF
  8
0
 10
211.778
 20
-4.2533
 30
0.0
 11
210.964
 21
-3.13245
 31
0.0
  0
LINE
  5
1D0
  8
0
 10
210.964
 20
-3.13245
 30
0.0
 11
208.464
 21
-2.32016
 31
0.0
  0
LINE
  5
1D1
  8
0
 10
208.464
 20
-2.32016
 30
0.0
 11
204.286
 21
-3.67735
 31
0.0
  0
LINE
  5
1D2
  8
0
 10
204.286
 20
-3.67735
 30
0.0
 11
202.741
 21
-5.80399
 31
0.0
  0
LINE
  5
1D3
  8
0
 10
202.741
 20
-5.80399
 30
0.0
 11
202.741
 21
-8.62234
 31
0.0
  0
LINE
  5
1D4
  8
0
 10
202.741
 20
-8.62234
 30
0.0
 11
197.741
 21
-13.6223
 31
0.0
  0
LINE
  5
1D5
  8
0
 10
197.741
 20
-13.6223
 30
0.0
 11
194.545
 21
-13.6223
 31
0.0
  0
LINE
  5
1D6
  8
0
 10
194.545
 20
-13.6223
 30
0.0
 11
189.545
 21
-8.62233
 31
0.0
  0
LINE
  5
1D7
  8
0
 10
189.545
 20
-8.62233
 30
0.0
 11
189.545
 21
-6.68567
 31
0.0
  0
LINE
  5
1D8
  8
0
 10
189.545
 20
-6.68567
 30
0.0
 11
186.964
 21
-3.13245
 31
0.0
  0
LINE
  5
1D9
  8
0
 10
186.964
 20
-3.13245
 30
0.0
 11
184.464
 21
-2.32016
 31
0.0
  0
LINE
  5
1DA
  8
0
 10
184.464
 20
-2.32016
 30
0.0
 11
180.06
 21
-3.75104
 31
0.0
  0
LINE
  5
1DB
  8
0
 10
180.06
 20
-3.75104
 30
0.0
 11
174.47
 21
-1.93468
 31
0.0
  0
LINE
  5
1DC
  8
0
 10
174.47
 20
-1.93468
 30
0.0
 11
174.607
 21
4.12398
 31
0.0
  0
LINE
  5
1DD
  8
0
 10
174.607
 20
4.12398
 30
0.0
 11
197.41
 21
32.6836
 31
0.0
  0
LINE
  5
1DE
  8
0
 10
197.41
 20
32.6836
 30
0.0
 11
197.479
 21
32.7736
 31
0.0
  0
LINE
  5
1DF
  8
0
 10
197.479
 20
32.7736
 30
0.0
 11
198.192
 21
33.7547
 31
0.0
  0
LINE
  5
1E0
  8
0
 10
198.192
 20
33.7547
 30
0.0
 11
203.782
 21
35.5711
 31
0.0
  0
LINE
  5
1E1
  8
0
 10
203.782
 20
35.5711
 30
0.0
 11
205.958
 21
33.614
 31
0.0
  0
LINE
  5
1E2
  8
0
 10
205.958
 20
33.614
 30
0.0
 11
205.977
 21
33.6361
 31
0.0
  0
LINE
  5
1E3
  8
0
 10
205.977
 20
33.6361
 30
0.0
 11
245.735
 21
-2.01138
 31
0.0
  0
LINE
  5
1E4
  8
0
 10
245.735
 20
-2.01138
 30
0.0
 11
246.97
 21
-7.75821
 31
0.0
  0
LINE
  5
1E5
  8
0
 10
246.97
 20
-7.75821
 30
0.0
 11
243.943
 21
-10.4894
 31
0.0
  0
LINE
  5
1E6
  8
0
 10
243.943
 20
-10.4894
 30
0.0
 11
240.286
 21
-11.6774
 31
0.0
  0
LINE
  5
1E7
  8
0
 10
240.286
 20
-11.6774
 30
0.0
 11
238.741
 21
-13.804
 31
0.0
  0
LINE
  5
1E8
  8
0
 10
238.741
 20
-13.804
 30
0.0
 11
238.741
 21
-19.8206
 31
0.0
  0
LINE
  5
1E9
  8
0
 10
238.741
 20
-19.8206
 30
0.0
 11
237.863
 21
-19.8206
 31
0.0
  0
LINE
  5
1EA
  8
0
 10
237.863
 20
-19.8206
 30
0.0
 11
237.863
 21
-22.8649
 31
0.0
  0
LINE
  5
1EB
  8
0
 10
237.863
 20
-22.8649
 30
0.0
 11
237.814
 21
-22.932
 31
0.0
  0
LINE
  5
1EC
  8
0
 10
237.814
 20
-22.932
 30
0.0
 11
232.224
 21
-24.7484
 31
0.0
  0
LINE
  5
1ED
  8
0
 10
232.224
 20
-24.7484
 30
0.0
 11
229.724
 21
-22.932
 31
0.0
  0
LINE
  5
1EE
  8
0
 10
290.955
 20
-20.9963
 30
0.0
 11
289.545
 21
-17.5166
 31
0.0
  0
LINE
  5
1EF
  8
0
 10
289.545
 20
-17.5166
 30
0.0
 11
289.545
 21
-14.6857
 31
0.0
  0
LINE
  5
1F0
  8
0
 10
289.545
 20
-14.6857
 30
0.0
 11
286.964
 21
-11.1324
 31
0.0
  0
LINE
  5
1F1
  8
0
 10
286.964
 20
-11.1324
 30
0.0
 11
282.918
 21
-9.81813
 31
0.0
  0
LINE
  5
1F2
  8
0
 10
282.918
 20
-9.81813
 30
0.0
 11
283.117
 21
-9.20837
 31
0.0
  0
LINE
  5
1F3
  8
0
 10
283.117
 20
-9.20837
 30
0.0
 11
280.227
 21
-7.10875
 31
0.0
  0
LINE
  5
1F4
  8
0
 10
280.227
 20
-7.10875
 30
0.0
 11
279.0
 21
-8.0
 31
0.0
  0
LINE
  5
1F5
  8
0
 10
279.0
 20
-8.0
 30
0.0
 11
268.635
 21
6.26584
 31
0.0
  0
LINE
  5
1F6
  8
0
 10
268.635
 20
6.26584
 30
0.0
 11
269.154
 21
6.64256
 31
0.0
  0
LINE
  5
1F7
  8
0
 10
269.154
 20
6.64256
 30
0.0
 11
267.172
 21
9.36986
 31
0.0
  0
LINE
  5
1F8
  8
0
 10
267.172
 20
9.36986
 30
0.0
 11
267.172
 21
14.6301
 31
0.0
  0
LINE
  5
1F9
  8
0
 10
267.172
 20
14.6301
 30
0.0
 11
269.154
 21
17.3574
 31
0.0
  0
LINE
  5
1FA
  8
0
 10
269.154
 20
17.3574
 30
0.0
 11
268.635
 21
17.7341
 31
0.0
  0
LINE
  5
1FB
  8
0
 10
268.635
 20
17.7341
 30
0.0
 11
273.368
 21
24.2478
 31
0.0
  0
LINE
  5
1FC
  8
0
 10
273.368
 20
24.2478
 30
0.0
 11
279.265
 21
25.9532
 31
0.0
  0
LINE
  5
1FD
  8
0
 10
279.265
 20
25.9532
 30
0.0
 11
327.894
 21
6.56079
 31
0.0
  0
LINE
  5
1FE
  8
0
 10
327.894
 20
6.56079
 30
0.0
 11
328.048
 21
6.50523
 31
0.0
  0
LINE
  5
1FF
  8
0
 10
328.048
 20
6.50523
 30
0.0
 11
330.028
 21
5.86179
 31
0.0
  0
LINE
  5
200
  8
0
 10
330.028
 20
5.86179
 30
0.0
 11
333.483
 21
1.10651
 31
0.0
  0
LINE
  5
201
  8
0
 10
333.483
 20
1.10651
 30
0.0
 11
333.483
 21
-0.889191
 31
0.0
  0
LINE
  5
202
  8
0
 10
333.483
 20
-0.889191
 30
0.0
 11
330.683
 21
-5.37924
 31
0.0
  0
LINE
  5
203
  8
0
 10
330.683
 20
-5.37924
 30
0.0
 11
296.745
 21
-22.0067
 31
0.0
  0
LINE
  5
204
  8
0
 10
296.745
 20
-22.0067
 30
0.0
 11
290.955
 21
-20.9963
 31
0.0
  0
LINE
  5
205
  8
0
 10
-24.9305
 20
-9.67604
 30
0.0
 11
-25.2597
 21
-9.02977
 31
0.0
  0
LINE
  5
206
  8
0
 10
-25.2597
 20
-9.02977
 30
0.0
 11
-25.7431
 21
-7.54202
 31
0.0
  0
LINE
  5
207
  8
0
 10
-25.7431
 20
-7.54202
 30
0.0
 11
-26.9384
 21
0.00489807
 31
0.0
  0
LINE
  5
208
  8
0
 10
-26.9384
 20
0.00489807
 30
0.0
 11
-27.0
 21
0.787064
 31
0.0
  0
LINE
  5
209
  8
0
 10
-27.0
 20
0.787064
 30
0.0
 11
-27.0
 21
20.1896
 31
0.0
  0
LINE
  5
20A
  8
0
 10
-27.0
 20
20.1896
 30
0.0
 11
-23.5451
 21
24.9449
 31
0.0
  0
LINE
  5
20B
  8
0
 10
-23.5451
 20
24.9449
 30
0.0
 11
-17.8027
 21
22.9067
 31
0.0
  0
LINE
  5
20C
  8
0
 10
-17.8027
 20
22.9067
 30
0.0
 11
-10.4524
 21
11.5524
 31
0.0
  0
LINE
  5
20D
  8
0
 10
-10.4524
 20
11.5524
 30
0.0
 11
-10.5576
 21
7.6412
 31
0.0
  0
LINE
  5
20E
  8
0
 10
-10.5576
 20
7.6412
 30
0.0
 11
-10.5172
 21
7.6412
 31
0.0
  0
LINE
  5
20F
  8
0
 10
-10.5172
 20
7.6412
 30
0.0
 11
-10.5172
 21
-3.27211
 31
0.0
  0
LINE
  5
210
  8
0
 10
-10.5172
 20
-3.27211
 30
0.0
 11
-12.3153
 21
-7.11238
 31
0.0
  0
LINE
  5
211
  8
0
 10
-12.3153
 20
-7.11238
 30
0.0
 11
-17.2735
 21
-11.2464
 31
0.0
  0
LINE
  5
212
  8
0
 10
-17.2735
 20
-11.2464
 30
0.0
 11
-24.9305
 21
-9.67604
 31
0.0
  0
LINE
  5
213
  8
0
 10
358.802
 20
-14.6784
 30
0.0
 11
354.609
 21
-10.0973
 31
0.0
  0
LINE
  5
214
  8
0
 10
354.609
 20
-10.0973
 30
0.0
 11
354.252
 21
-3.78247
 31
0.0
  0
LINE
  5
215
  8
0
 10
354.252
 20
-3.78247
 30
0.0
 11
357.0
 21
0.0
 31
0.0
  0
LINE
  5
216
  8
0
 10
357.0
 20
0.0
 30
0.0
 11
357.238
 21
-0.173248
 31
0.0
  0
LINE
  5
217
  8
0
 10
357.238
 20
-0.173248
 30
0.0
 11
359.368
 21
2.84546
 31
0.0
  0
LINE
  5
218
  8
0
 10
359.368
 20
2.84546
 30
0.0
 11
364.174
 21
4.55653
 31
0.0
  0
LINE
  5
219
  8
0
 10
364.174
 20
4.55653
 30
0.0
 11
369.813
 21
2.89673
 31
0.0
  0
LINE
  5
21A
  8
0
 10
369.813
 20
2.89673
 30
0.0
 11
370.789
 21
-0.936005
 31
0.0
  0
LINE
  5
21B
  8
0
 10
370.789
 20
-0.936005
 30
0.0
 11
369.743
 21
-7.54204
 31
0.0
  0
LINE
  5
21C
  8
0
 10
369.743
 20
-7.54204
 30
0.0
 11
369.26
 21
-9.02982
 31
0.0
  0
LINE
  5
21D
  8
0
 10
369.26
 20
-9.02982
 30
0.0
 11
366.945
 21
-13.5725
 31
0.0
  0
LINE
  5
21E
  8
0
 10
366.945
 20
-13.5725
 30
0.0
 11
361.708
 21
-16.241
 31
0.0
  0
LINE
  5
21F
  8
0
 10
361.708
 20
-16.241
 30
0.0
 11
358.802
 21
-14.6784
 31
0.0
  0
LINE
  5
220
  8
0
 10
49.2771
 20
-27.0
 30
0.0
 11
45.877
 21
-25.6659
 31
0.0
  0
LINE
  5
221
  8
0
 10
45.877
 20
-25.6659
 30
0.0
 11
45.2497
 21
-25.0841
 31
0.0
  0
LINE
  5
222
  8
0
 10
45.2497
 20
-25.0841
 30
0.0
 11
27.6496
 21
-14.2172
 31
0.0
  0
LINE
  5
223
  8
0
 10
27.6496
 20
-14.2172
 30
0.0
 11
25.4185
 21
-8.77924
 31
0.0
  0
LINE
  5
224
  8
0
 10
25.4185
 20
-8.77924
 30
0.0
 11
30.7097
 21
-4.98161
 31
0.0
  0
LINE
  5
225
  8
0
 10
30.7097
 20
-4.98161
 30
0.0
 11
119.957
 21
-12.7445
 31
0.0
  0
LINE
  5
226
  8
0
 10
119.957
 20
-12.7445
 30
0.0
 11
124.395
 21
-16.5985
 31
0.0
  0
LINE
  5
227
  8
0
 10
124.395
 20
-16.5985
 30
0.0
 11
123.569
 21
-20.6646
 31
0.0
  0
LINE
  5
228
  8
0
 10
123.569
 20
-20.6646
 30
0.0
 11
122.741
 21
-21.804
 31
0.0
  0
LINE
  5
229
  8
0
 10
122.741
 20
-21.804
 30
0.0
 11
122.741
 21
-22.0
 31
0.0
  0
LINE
  5
22A
  8
0
 10
122.741
 20
-22.0
 30
0.0
 11
122.221
 21
-22.5208
 31
0.0
  0
LINE
  5
22B
  8
0
 10
122.221
 20
-22.5208
 30
0.0
 11
121.786
 21
-23.1183
 31
0.0
  0
LINE
  5
22C
  8
0
 10
121.786
 20
-23.1183
 30
0.0
 11
121.692
 21
-23.0496
 31
0.0
  0
LINE
  5
22D
  8
0
 10
121.692
 20
-23.0496
 30
0.0
 11
117.741
 21
-27.0
 31
0.0
  0
LINE
  5
22E
  8
0
 10
117.741
 20
-27.0
 30
0.0
 11
49.2771
 21
-27.0
 31
0.0
  0
LINE
  5
22F
  8
0
 10
318.77
 20
-27.0
 30
0.0
 11
314.015
 21
-23.5451
 31
0.0
  0
LINE
  5
230
  8
0
 10
314.015
 20
-23.5451
 30
0.0
 11
316.57
 21
-17.5099
 31
0.0
  0
LINE
  5
231
  8
0
 10
316.57
 20
-17.5099
 30
0.0
 11
333.606
 21
-9.16336
 31
0.0
  0
LINE
  5
232
  8
0
 10
333.606
 20
-9.16336
 30
0.0
 11
337.351
 21
-8.89813
 31
0.0
  0
LINE
  5
233
  8
0
 10
337.351
 20
-8.89813
 30
0.0
 11
348.017
 21
-12.3637
 31
0.0
  0
LINE
  5
234
  8
0
 10
348.017
 20
-12.3637
 30
0.0
 11
347.973
 21
-12.5002
 31
0.0
  0
LINE
  5
235
  8
0
 10
347.973
 20
-12.5002
 30
0.0
 11
351.293
 21
-13.3752
 31
0.0
  0
LINE
  5
236
  8
0
 10
351.293
 20
-13.3752
 30
0.0
 11
354.826
 21
-17.2361
 31
0.0
  0
LINE
  5
237
  8
0
 10
354.826
 20
-17.2361
 30
0.0
 11
353.408
 21
-25.067
 31
0.0
  0
LINE
  5
238
  8
0
 10
353.408
 20
-25.067
 30
0.0
 11
353.03
 21
-25.2597
 31
0.0
  0
LINE
  5
239
  8
0
 10
353.03
 20
-25.2597
 30
0.0
 11
351.542
 21
-25.7431
 31
0.0
  0
LINE
  5
23A
  8
0
 10
351.542
 20
-25.7431
 30
0.0
 11
343.995
 21
-26.9384
 31
0.0
  0
LINE
  5
23B
  8
0
 10
343.995
 20
-26.9384
 30
0.0
 11
343.213
 21
-27.0
 31
0.0
  0
LINE
  5
23C
  8
0
 10
343.213
 20
-27.0
 30
0.0
 11
318.77
 21
-27.0
 31
0.0
  0
LINE
  5
23D
  8
0
 10
0.787064
 20
-27.0
 30
0.0
 11
0.00489807
 21
-26.9384
 31
0.0
  0
LINE
  5
23E
  8
0
 10
0.00489807
 20
-26.9384
 30
0.0
 11
-7.54202
 21
-25.7431
 31
0.0
  0
LINE
  5
23F
  8
0
 10
-7.54202
 20
-25.7431
 30
0.0
 11
-9.02982
 21
-25.2597
 31
0.0
  0
LINE
  5
240
  8
0
 10
-9.02982
 20
-25.2597
 30
0.0
 11
-13.226
 21
-23.1217
 31
0.0
  0
LINE
  5
241
  8
0
 10
-13.226
 20
-23.1217
 30
0.0
 11
-15.8945
 21
-17.8844
 31
0.0
  0
LINE
  5
242
  8
0
 10
-15.8945
 20
-17.8844
 30
0.0
 11
-14.1579
 21
-14.8264
 31
0.0
  0
LINE
  5
243
  8
0
 10
-14.1579
 20
-14.8264
 30
0.0
 11
-9.05679
 21
-10.5731
 31
0.0
  0
LINE
  5
244
  8
0
 10
-9.05679
 20
-10.5731
 30
0.0
 11
-4.3098
 21
-9.65813
 31
0.0
  0
LINE
  5
245
  8
0
 10
-4.3098
 20
-9.65813
 30
0.0
 11
2.47212
 21
-11.8617
 31
0.0
  0
LINE
  5
246
  8
0
 10
2.47212
 20
-11.8617
 30
0.0
 11
6.51721
 21
-10.5474
 31
0.0
  0
LINE
  5
247
  8
0
 10
6.51721
 20
-10.5474
 30
0.0
 11
6.60886
 21
-10.8295
 31
0.0
  0
LINE
  5
248
  8
0
 10
6.60886
 20
-10.8295
 30
0.0
 11
11.5569
 21
-9.85388
 31
0.0
  0
LINE
  5
249
  8
0
 10
11.5569
 20
-9.85388
 30
0.0
 11
24.3383
 21
-17.7456
 31
0.0
  0
LINE
  5
24A
  8
0
 10
24.3383
 20
-17.7456
 30
0.0
 11
26.5694
 21
-23.1836
 31
0.0
  0
LINE
  5
24B
  8
0
 10
26.5694
 20
-23.1836
 30
0.0
 11
21.7115
 21
-27.0
 31
0.0
  0
LINE
  5
24C
  8
0
 10
21.7115
 20
-27.0
 30
0.0
 11
0.787064
 21
-27.0
 31
0.0
  0
CIRCLE
  5
282
  8
0
 10
208.0
 20
-7.999999999999969
 30
0.0
 40
1.5
  0
CIRCLE
  5
283
  8
0
 10
224.0
 20
-23.99999999999997
 30
0.0
 40
1.5
  0
CIRCLE
  5
284
  8
0
 10
168.0
 20
-7.999999999999981
 30
0.0
 40
1.5
  0
CIRCLE
  5
285
  8
0
 10
184.0
 20
-23.99999999999998
 30
0.0
 40
1.5
  0
CIRCLE
  5
286
  8
0
 10
144.0
 20
-23.99999999999999
 30
0.0
 40
1.5
  0
CIRCLE
  5
287
  8
0
 10
144.0
 20
-7.999999999999993
 30
0.0
 40
1.5
  0
CIRCLE
  5
288
  8
0
 10
208.0
 20
42.00000000000011
 30
0.0
 40
1.499999999999998
  0
CIRCLE
  5
289
  8
0
 10
175.9999999999999
 20
42.00000000000009
 30
0.0
 40
1.499999999999998
  0
CIRCLE
  5
28A
  8
0
 10
144.0
 20
42.00000000000009
 30
0.0
 40
1.499999999999998
  0
CIRCLE
  5
28B
  8
0
 10
111.9999999999999
 20
42.00000000000006
 30
0.0
 40
1.499999999999998
  0
CIRCLE
  5
28C
  8
0
 10
79.99999999999999
 20
42.00000000000004
 30
0.0
 40
1.499999999999998
  0
CIRCLE
  5
28D
  8
0
 10
47.99999999999998
 20
42.00000000000002
 30
0.0
 40
1.499999999999998
  0
CIRCLE
  5
28E
  8
0
 10
31.99999999999999
 20
42.00000000000001
 30
0.0
 40
1.499999999999998
  0
CIRCLE
  5
28F
  8
0
 10
15.99999999999999
 20
42.00000000000001
 30
0.0
 40
1.499999999999998
  0
CIRCLE
  5
290
  8
0
 10
-6.7e-15
 20
42.0
 30
0.0
 40
1.499999999999998
  0
CIRCLE
  5
291
  8
0
 10
284.0
 20
-16.0
 30
0.0
 40
1.5
  0
CIRCLE
  5
292
  8
0
 10
244.0
 20
-16.0
 30
0.0
 40
1.5
  0
CIRCLE
  5
293
  8
0
 10
244.0
 20
40.0
 30
0.0
 40
1.5
  0
CIRCLE
  5
294
  8
0
 10
284.0
 20
40.0
 30
0.0
 40
1.5
  0
CIRCLE
  5
295
  8
0
 10
63.99999999999998
 20
42.00000000000003
 30
0.0
 40
1.499999999999998
  0
CIRCLE
  5
296
  8
0
 10
95.99999999999997
 20
42.00000000000005
 30
0.0
 40
1.499999999999998
  0
CIRCLE
  5
297
  8
0
 10
128.0
 20
42.00000000000007
 30
0.0
 40
1.499999999999998
  0
CIRCLE
  5
298
  8
0
 10
159.9999999999999
 20
42.00000000000009
 30
0.0
 40
1.499999999999998
  0
CIRCLE
  5
299
  8
0
 10
192.0
 20
42.0000000000001
 30
0.0
 40
1.499999999999998
  0
CIRCLE
  5
29A
  8
0
 10
128.0
 20
-7.999999999999993
 30
0.0
 40
1.5
  0
CIRCLE
  5
29B
  8
0
 10
128.0
 20
-23.99999999999999
 30
0.0
 40
1.5
  0
CIRCLE
  5
29C
  8
0
 10
184.0
 20
-7.999999999999981
 30
0.0
 40
1.5
  0
CIRCLE
  5
29D
  8
0
 10
168.0
 20
-23.99999999999998
 30
0.0
 40
1.5
  0
CIRCLE
  5
29E
  8
0
 10
224.0
 20
-7.999999999999969
 30
0.0
 40
1.5
  0
CIRCLE
  5
29F
  8
0
 10
208.0
 20
-23.99999999999997
 30
0.0
 40
1.5
  0
CIRCLE
  5
2A0
  8
0
 10
264.0
 20
-8.0
 30
0.0
 40
10.0
  0
CIRCLE
  5
2A1
  8
0
 10
264.0
 20
32.0
 30
0.0
 40
10.00000000000001
  0
CIRCLE
  5
2A2
  8
0
 10
344.0
 20
0.0
 30
0.0
 40
7.999999999999976
  0
CIRCLE
  5
2A3
  8
0
 10
0.0
 20
0.0
 30
0.0
 40
8.0
  0
ENDSEC
  0
EOF
