  0
SECTION
  2
HEADER
  9
$ACADVER
  1
AC1009
  9
$DWGCODEPAGE
  3
ANSI_1252
  9
$INSBASE
 10
0.0
 20
0.0
 30
0.0
  9
$EXTMIN
 10
-100
 20
-100
 30
-100
  9
$EXTMAX
 10
100
 20
100
 30
100
  9
$LIMMIN
 10
0.0
 20
0.0
  9
$LIMMAX
 10
420.0
 20
297.0
  9
$ORTHOMODE
 70
0
  9
$REGENMODE
 70
1
  9
$DRAGMODE
 70
2
  9
$FILLMODE
 70
1
  9
$QTEXTMODE
 70
0
  9
$MIRRTEXT
 70
1
  9
$OSMODE
 70
20583
  9
$LTSCALE
 40
1.0
  9
$ATTMODE
 70
1
  9
$TEXTSIZE
 40
2.5
  9
$TRACEWID
 40
1.0
  9
$TEXTSTYLE
  7
Standard
  9
$CLAYER
  8
0
  9
$CELTYPE
  6
ByLayer
  9
$CECOLOR
 62
256
  9
$DIMSCALE
 40
1.0
  9
$DIMASZ
 40
2.5
  9
$DIMEXO
 40
0.625
  9
$DIMDLI
 40
3.75
  9
$DIMRND
 40
0.0
  9
$DIMDLE
 40
0.0
  9
$DIMEXE
 40
1.25
  9
$DIMTP
 40
0.0
  9
$DIMTM
 40
0.0
  9
$DIMTXT
 40
2.5
  9
$DIMCEN
 40
2.5
  9
$DIMTSZ
 40
0.0
  9
$DIMTOL
 70
0
  9
$DIMLIM
 70
0
  9
$DIMTIH
 70
0
  9
$DIMTOH
 70
0
  9
$DIMSE1
 70
0
  9
$DIMSE2
 70
0
  9
$DIMTAD
 70
1
  9
$DIMZIN
 70
8
  9
$DIMBLK
  1

  9
$DIMASO
 70
1
  9
$DIMSHO
 70
1
  9
$DIMPOST
  1

  9
$DIMAPOST
  1

  9
$DIMALT
 70
0
  9
$DIMALTD
 70
3
  9
$DIMALTF
 40
0.03937007874
  9
$DIMLFAC
 40
1.0
  9
$DIMTOFL
 70
1
  9
$DIMTVP
 40
0.0
  9
$DIMTIX
 70
0
  9
$DIMSOXD
 70
0
  9
$DIMSAH
 70
0
  9
$DIMBLK1
  1

  9
$DIMBLK2
  1

  9
$DIMSTYLE
  2
ISO-25
  9
$DIMCLRD
 70
0
  9
$DIMCLRE
 70
0
  9
$DIMCLRT
 70
0
  9
$DIMTFAC
 40
1.0
  9
$DIMGAP
 40
0.625
  9
$COORDS
 70
1
  9
$ATTDIA
 70
0
  9
$ATTREQ
 70
1
  9
$HANDLING
 70
1
  9
$LUNITS
 70
2
  9
$LUPREC
 70
4
  9
$SKETCHINC
 40
1.0
  9
$FILLETRAD
 40
10.0
  9
$AUNITS
 70
0
  9
$AUPREC
 70
2
  9
$MENU
  1
.
  9
$ELEVATION
 40
0.0
  9
$PELEVATION
 40
0.0
  9
$THICKNESS
 40
0.0
  9
$LIMCHECK
 70
0
  9
$CHAMFERA
 40
0.0
  9
$CHAMFERB
 40
0.0
  9
$SKPOLY
 70
0
  9
$TDCREATE
 40
2459087.5039699073
  9
$TDUPDATE
 40
2459087.5039699073
  9
$TDINDWG
 40
0.0
  9
$TDUSRTIMER
 40
0.0
  9
$USRTIMER
 70
1
  9
$ANGBASE
 50
0.0
  9
$ANGDIR
 70
0
  9
$PDMODE
 70
0
  9
$PDSIZE
 40
0.0
  9
$PLINEWID
 40
0.0
  9
$SPLFRAME
 70
0
  9
$SPLINETYPE
 70
6
  9
$SPLINESEGS
 70
8
  9
$HANDSEED
  5
692
  9
$SURFTAB1
 70
6
  9
$SURFTAB2
 70
6
  9
$SURFTYPE
 70
6
  9
$SURFU
 70
6
  9
$SURFV
 70
6
  9
$UCSNAME
  2

  9
$UCSORG
 10
0.0
 20
0.0
 30
0.0
  9
$UCSXDIR
 10
1.0
 20
0.0
 30
0.0
  9
$UCSYDIR
 10
0.0
 20
1.0
 30
0.0
  9
$PUCSNAME
  2

  9
$PUCSORG
 10
0.0
 20
0.0
 30
0.0
  9
$PUCSXDIR
 10
1.0
 20
0.0
 30
0.0
  9
$PUCSYDIR
 10
0.0
 20
1.0
 30
0.0
  9
$USERI1
 70
0
  9
$USERI2
 70
0
  9
$USERI3
 70
0
  9
$USERI4
 70
0
  9
$USERI5
 70
0
  9
$USERR1
 40
0.0
  9
$USERR2
 40
0.0
  9
$USERR3
 40
0.0
  9
$USERR4
 40
0.0
  9
$USERR5
 40
0.0
  9
$WORLDVIEW
 70
1
  9
$SHADEDGE
 70
3
  9
$SHADEDIF
 70
70
  9
$TILEMODE
 70
1
  9
$MAXACTVP
 70
64
  9
$PLIMCHECK
 70
0
  9
$PEXTMIN
 10
1e+20
 20
1e+20
 30
1e+20
  9
$PEXTMAX
 10
-1e+20
 20
-1e+20
 30
-1e+20
  9
$PLIMMIN
 10
0.0
 20
0.0
  9
$PLIMMAX
 10
420.0
 20
297.0
  9
$UNITMODE
 70
0
  9
$VISRETAIN
 70
1
  9
$PLINEGEN
 70
0
  9
$PSLTSCALE
 70
1
  0
ENDSEC
  0
SECTION
  2
TABLES
  0
TABLE
  2
VPORT
 70
1
  0
VPORT
  5
683
  2
*Active
 70
0
 10
0.0
 20
0.0
 11
1.0
 21
1.0
 12
70.0
 22
50.0
 13
0.0
 23
0.0
 14
0.5
 24
0.5
 15
0.5
 25
0.5
 16
0.0
 26
0.0
 36
1.0
 17
0.0
 27
0.0
 37
0.0
 40
1.0
 41
1.34
 42
50.0
 43
0.0
 44
0.0
 50
0.0
 51
0.0
 71
0
 72
1000
 73
1
 74
3
 75
0
 76
0
 77
0
 78
0
  0
ENDTAB
  0
TABLE
  2
LTYPE
 70
3
  0
LTYPE
  5
684
  2
ByBlock
 70
0
  3

 72
65
 73
0
 40
0.0
  0
LTYPE
  5
685
  2
ByLayer
 70
0
  3

 72
65
 73
0
 40
0.0
  0
LTYPE
  5
686
  2
Continuous
 70
0
  3

 72
65
 73
0
 40
0.0
  0
ENDTAB
  0
TABLE
  2
LAYER
 70
2
  0
LAYER
  5
687
  2
0
 70
0
 62
7
  6
Continuous
  0
LAYER
  5
688
  2
Defpoints
 70
0
 62
7
  6
Continuous
  0
ENDTAB
  0
TABLE
  2
STYLE
 70
1
  0
STYLE
  5
689
  2
Standard
 70
0
 40
0.0
 41
1.0
 50
0.0
 71
0
 42
2.5
  3
txt
  4

  0
ENDTAB
  0
TABLE
  2
VIEW
 70
0
  0
ENDTAB
  0
TABLE
  2
UCS
 70
0
  0
ENDTAB
  0
TABLE
  2
APPID
 70
1
  0
APPID
  5
68A
  2
ACAD
 70
0
  0
ENDTAB
  0
TABLE
  2
DIMSTYLE
 70
1
  0
DIMSTYLE
105
68B
  2
Standard
 70
0
  3

  4

  5

  6

  7

 40
1.0
 41
2.5
 42
0.625
 43
3.75
 44
1.25
 45
0.0
 46
0.0
 47
0.0
 48
0.0
140
2.5
141
2.5
142
0.0
143
0.03937007874
144
1.0
145
0.0
146
1.0
147
0.625
 71
0
 72
0
 73
0
 74
0
 75
0
 76
0
 77
1
 78
8
170
0
171
3
172
1
173
0
174
0
175
0
176
0
177
0
178
0
  0
ENDTAB
  0
ENDSEC
  0
SECTION
  2
BLOCKS
  0
BLOCK
  5
664
  8
0
  2
$Model_Space
 70
0
 10
0.0
 20
0.0
 30
0.0
  3
$Model_Space
  1

  0
ENDBLK
  5
665
  8
0
  0
BLOCK
  5
666
  8
0
  2
$Paper_Space
 70
0
 10
0.0
 20
0.0
 30
0.0
  3
$Paper_Space
  1

  0
ENDBLK
  5
667
  8
0
  0
ENDSEC
  0
SECTION
  2
ENTITIES
  0
LINE
  5
100
  8
0
 10
-1.00009
 20
0.0
 30
0.0
 11
-0.96788
 21
0.000518799
 31
0.0
  0
LINE
  5
101
  8
0
 10
-0.96788
 20
0.000518799
 30
0.0
 11
-0.935516
 21
0.00209045
 31
0.0
  0
LINE
  5
102
  8
0
 10
-0.935516
 20
0.00209045
 30
0.0
 11
-0.933716
 21
0.00221252
 31
0.0
  0
LINE
  5
103
  8
0
 10
-0.933716
 20
0.00221252
 30
0.0
 11
-0.901367
 21
0.00488281
 31
0.0
  0
LINE
  5
104
  8
0
 10
-0.901367
 20
0.00488281
 30
0.0
 11
-0.8694
 21
0.00856018
 31
0.0
  0
LINE
  5
105
  8
0
 10
-0.8694
 20
0.00856018
 30
0.0
 11
-0.837097
 21
0.0133514
 31
0.0
  0
LINE
  5
106
  8
0
 10
-0.837097
 20
0.0133514
 30
0.0
 11
-0.804901
 21
0.0192108
 31
0.0
  0
LINE
  5
107
  8
0
 10
-0.804901
 20
0.0192108
 30
0.0
 11
-0.772354
 21
0.0262451
 31
0.0
  0
LINE
  5
108
  8
0
 10
-0.772354
 20
0.0262451
 30
0.0
 11
-0.741806
 21
0.0339203
 31
0.0
  0
LINE
  5
109
  8
0
 10
-0.741806
 20
0.0339203
 30
0.0
 11
-0.709564
 21
0.0430908
 31
0.0
  0
LINE
  5
10A
  8
0
 10
-0.709564
 20
0.0430908
 30
0.0
 11
-0.679169
 21
0.0528564
 31
0.0
  0
LINE
  5
10B
  8
0
 10
-0.679169
 20
0.0528564
 30
0.0
 11
-0.648682
 21
0.0637512
 31
0.0
  0
LINE
  5
10C
  8
0
 10
-0.648682
 20
0.0637512
 30
0.0
 11
-0.646774
 21
0.0644684
 31
0.0
  0
LINE
  5
10D
  8
0
 10
-0.646774
 20
0.0644684
 30
0.0
 11
-0.618118
 21
0.0757904
 31
0.0
  0
LINE
  5
10E
  8
0
 10
-0.618118
 20
0.0757904
 30
0.0
 11
-0.587952
 21
0.0888367
 31
0.0
  0
LINE
  5
10F
  8
0
 10
-0.587952
 20
0.0888367
 30
0.0
 11
-0.586441
 21
0.0895233
 31
0.0
  0
LINE
  5
110
  8
0
 10
-0.586441
 20
0.0895233
 30
0.0
 11
-0.558533
 21
0.102737
 31
0.0
  0
LINE
  5
111
  8
0
 10
-0.558533
 20
0.102737
 30
0.0
 11
-0.556915
 21
0.103531
 31
0.0
  0
LINE
  5
112
  8
0
 10
-0.556915
 20
0.103531
 30
0.0
 11
-0.528122
 21
0.118332
 31
0.0
  0
LINE
  5
113
  8
0
 10
-0.528122
 20
0.118332
 30
0.0
 11
-0.500748
 21
0.13356
 31
0.0
  0
LINE
  5
114
  8
0
 10
-0.500748
 20
0.13356
 30
0.0
 11
-0.499344
 21
0.134369
 31
0.0
  0
LINE
  5
115
  8
0
 10
-0.499344
 20
0.134369
 30
0.0
 11
-0.472641
 21
0.15036
 31
0.0
  0
LINE
  5
116
  8
0
 10
-0.472641
 20
0.15036
 30
0.0
 11
-0.471222
 21
0.151245
 31
0.0
  0
LINE
  5
117
  8
0
 10
-0.471222
 20
0.151245
 30
0.0
 11
-0.444031
 21
0.168793
 31
0.0
  0
LINE
  5
118
  8
0
 10
-0.444031
 20
0.168793
 30
0.0
 11
-0.417175
 21
0.187393
 31
0.0
  0
LINE
  5
119
  8
0
 10
-0.417175
 20
0.187393
 30
0.0
 11
-0.391953
 21
0.2061
 31
0.0
  0
LINE
  5
11A
  8
0
 10
-0.391953
 20
0.2061
 30
0.0
 11
-0.365601
 21
0.226974
 31
0.0
  0
LINE
  5
11B
  8
0
 10
-0.365601
 20
0.226974
 30
0.0
 11
-0.340652
 21
0.248154
 31
0.0
  0
LINE
  5
11C
  8
0
 10
-0.340652
 20
0.248154
 30
0.0
 11
-0.316406
 21
0.270126
 31
0.0
  0
LINE
  5
11D
  8
0
 10
-0.316406
 20
0.270126
 30
0.0
 11
-0.292892
 21
0.292892
 31
0.0
  0
LINE
  5
11E
  8
0
 10
-0.292892
 20
0.292892
 30
0.0
 11
-0.270126
 21
0.316406
 31
0.0
  0
LINE
  5
11F
  8
0
 10
-0.270126
 20
0.316406
 30
0.0
 11
-0.248154
 21
0.340652
 31
0.0
  0
LINE
  5
120
  8
0
 10
-0.248154
 20
0.340652
 30
0.0
 11
-0.226974
 21
0.365601
 31
0.0
  0
LINE
  5
121
  8
0
 10
-0.226974
 20
0.365601
 30
0.0
 11
-0.206131
 21
0.391907
 31
0.0
  0
LINE
  5
122
  8
0
 10
-0.206131
 20
0.391907
 30
0.0
 11
-0.187393
 21
0.417175
 31
0.0
  0
LINE
  5
123
  8
0
 10
-0.187393
 20
0.417175
 30
0.0
 11
-0.168793
 21
0.444031
 31
0.0
  0
LINE
  5
124
  8
0
 10
-0.168793
 20
0.444031
 30
0.0
 11
-0.151245
 21
0.471222
 31
0.0
  0
LINE
  5
125
  8
0
 10
-0.151245
 20
0.471222
 30
0.0
 11
-0.150391
 21
0.472595
 31
0.0
  0
LINE
  5
126
  8
0
 10
-0.150391
 20
0.472595
 30
0.0
 11
-0.134384
 21
0.499313
 31
0.0
  0
LINE
  5
127
  8
0
 10
-0.134384
 20
0.499313
 30
0.0
 11
-0.13356
 21
0.500748
 31
0.0
  0
LINE
  5
128
  8
0
 10
-0.13356
 20
0.500748
 30
0.0
 11
-0.118332
 21
0.528122
 31
0.0
  0
LINE
  5
129
  8
0
 10
-0.118332
 20
0.528122
 30
0.0
 11
-0.103531
 21
0.556915
 31
0.0
  0
LINE
  5
12A
  8
0
 10
-0.103531
 20
0.556915
 30
0.0
 11
-0.102631
 21
0.558731
 31
0.0
  0
LINE
  5
12B
  8
0
 10
-0.102631
 20
0.558731
 30
0.0
 11
-0.0895233
 21
0.586441
 31
0.0
  0
LINE
  5
12C
  8
0
 10
-0.0895233
 20
0.586441
 30
0.0
 11
-0.0888367
 21
0.587952
 31
0.0
  0
LINE
  5
12D
  8
0
 10
-0.0888367
 20
0.587952
 30
0.0
 11
-0.0765228
 21
0.616348
 31
0.0
  0
LINE
  5
12E
  8
0
 10
-0.0765228
 20
0.616348
 30
0.0
 11
-0.0757904
 21
0.618118
 31
0.0
  0
LINE
  5
12F
  8
0
 10
-0.0757904
 20
0.618118
 30
0.0
 11
-0.0644684
 21
0.646774
 31
0.0
  0
LINE
  5
130
  8
0
 10
-0.0644684
 20
0.646774
 30
0.0
 11
-0.0637512
 21
0.648682
 31
0.0
  0
LINE
  5
131
  8
0
 10
-0.0637512
 20
0.648682
 30
0.0
 11
-0.0528259
 21
0.67926
 31
0.0
  0
LINE
  5
132
  8
0
 10
-0.0528259
 20
0.67926
 30
0.0
 11
-0.043045
 21
0.709702
 31
0.0
  0
LINE
  5
133
  8
0
 10
-0.043045
 20
0.709702
 30
0.0
 11
-0.0338898
 21
0.741898
 31
0.0
  0
LINE
  5
134
  8
0
 10
-0.0338898
 20
0.741898
 30
0.0
 11
-0.0262756
 21
0.772232
 31
0.0
  0
LINE
  5
135
  8
0
 10
-0.0262756
 20
0.772232
 30
0.0
 11
-0.0192108
 21
0.804901
 31
0.0
  0
LINE
  5
136
  8
0
 10
-0.0192108
 20
0.804901
 30
0.0
 11
-0.0133514
 21
0.837097
 31
0.0
  0
LINE
  5
137
  8
0
 10
-0.0133514
 20
0.837097
 30
0.0
 11
-0.00854492
 21
0.869461
 31
0.0
  0
LINE
  5
138
  8
0
 10
-0.00854492
 20
0.869461
 30
0.0
 11
-0.00492859
 21
0.900879
 31
0.0
  0
LINE
  5
139
  8
0
 10
-0.00492859
 20
0.900879
 30
0.0
 11
-0.00473022
 21
0.902924
 31
0.0
  0
LINE
  5
13A
  8
0
 10
-0.00473022
 20
0.902924
 30
0.0
 11
-0.00221252
 21
0.933716
 31
0.0
  0
LINE
  5
13B
  8
0
 10
-0.00221252
 20
0.933716
 30
0.0
 11
-0.0020752
 21
0.935745
 31
0.0
  0
LINE
  5
13C
  8
0
 10
-0.0020752
 20
0.935745
 30
0.0
 11
-0.000534058
 21
0.967545
 31
0.0
  0
LINE
  5
13D
  8
0
 10
-0.000534058
 20
0.967545
 30
0.0
 11
0.0
 21
1.0
 31
0.0
  0
LINE
  5
13E
  8
0
 10
0.0
 20
1.0
 30
0.0
 11
-1.52588e-05
 21
4.00102
 31
0.0
  0
LINE
  5
13F
  8
0
 10
-1.52588e-05
 20
4.00102
 30
0.0
 11
-0.000518799
 21
4.03188
 31
0.0
  0
LINE
  5
140
  8
0
 10
-0.000518799
 20
4.03188
 30
0.0
 11
-0.0020752
 21
4.06424
 31
0.0
  0
LINE
  5
141
  8
0
 10
-0.0020752
 20
4.06424
 30
0.0
 11
-0.00219727
 21
4.0661
 31
0.0
  0
LINE
  5
142
  8
0
 10
-0.00219727
 20
4.0661
 30
0.0
 11
-0.00488281
 21
4.09862
 31
0.0
  0
LINE
  5
143
  8
0
 10
-0.00488281
 20
4.09862
 30
0.0
 11
-0.00854492
 21
4.13052
 31
0.0
  0
LINE
  5
144
  8
0
 10
-0.00854492
 20
4.13052
 30
0.0
 11
-0.0133514
 21
4.16289
 31
0.0
  0
LINE
  5
145
  8
0
 10
-0.0133514
 20
4.16289
 30
0.0
 11
-0.0192108
 21
4.19508
 31
0.0
  0
LINE
  5
146
  8
0
 10
-0.0192108
 20
4.19508
 30
0.0
 11
-0.0262756
 21
4.22775
 31
0.0
  0
LINE
  5
147
  8
0
 10
-0.0262756
 20
4.22775
 30
0.0
 11
-0.0337982
 21
4.25774
 31
0.0
  0
LINE
  5
148
  8
0
 10
-0.0337982
 20
4.25774
 30
0.0
 11
-0.034317
 21
4.25966
 31
0.0
  0
LINE
  5
149
  8
0
 10
-0.034317
 20
4.25966
 30
0.0
 11
-0.043045
 21
4.29028
 31
0.0
  0
LINE
  5
14A
  8
0
 10
-0.043045
 20
4.29028
 30
0.0
 11
-0.0528259
 21
4.32072
 31
0.0
  0
LINE
  5
14B
  8
0
 10
-0.0528259
 20
4.32072
 30
0.0
 11
-0.0637512
 21
4.3513
 31
0.0
  0
LINE
  5
14C
  8
0
 10
-0.0637512
 20
4.3513
 30
0.0
 11
-0.0644684
 21
4.35321
 31
0.0
  0
LINE
  5
14D
  8
0
 10
-0.0644684
 20
4.35321
 30
0.0
 11
-0.0757904
 21
4.38187
 31
0.0
  0
LINE
  5
14E
  8
0
 10
-0.0757904
 20
4.38187
 30
0.0
 11
-0.0894165
 21
4.41331
 31
0.0
  0
LINE
  5
14F
  8
0
 10
-0.0894165
 20
4.41331
 30
0.0
 11
-0.102631
 21
4.44125
 31
0.0
  0
LINE
  5
150
  8
0
 10
-0.102631
 20
4.44125
 30
0.0
 11
-0.103531
 21
4.44307
 31
0.0
  0
LINE
  5
151
  8
0
 10
-0.103531
 20
4.44307
 30
0.0
 11
-0.118286
 21
4.47179
 31
0.0
  0
LINE
  5
152
  8
0
 10
-0.118286
 20
4.47179
 30
0.0
 11
-0.133774
 21
4.49965
 31
0.0
  0
LINE
  5
153
  8
0
 10
-0.133774
 20
4.49965
 30
0.0
 11
-0.151154
 21
4.52863
 31
0.0
  0
LINE
  5
154
  8
0
 10
-0.151154
 20
4.52863
 30
0.0
 11
-0.168793
 21
4.55595
 31
0.0
  0
LINE
  5
155
  8
0
 10
-0.168793
 20
4.55595
 30
0.0
 11
-0.187393
 21
4.58281
 31
0.0
  0
LINE
  5
156
  8
0
 10
-0.187393
 20
4.58281
 30
0.0
 11
-0.2061
 21
4.60803
 31
0.0
  0
LINE
  5
157
  8
0
 10
-0.2061
 20
4.60803
 30
0.0
 11
-0.226974
 21
4.63438
 31
0.0
  0
LINE
  5
158
  8
0
 10
-0.226974
 20
4.63438
 30
0.0
 11
-0.248154
 21
4.65933
 31
0.0
  0
LINE
  5
159
  8
0
 10
-0.248154
 20
4.65933
 30
0.0
 11
-0.270126
 21
4.68358
 31
0.0
  0
LINE
  5
15A
  8
0
 10
-0.270126
 20
4.68358
 30
0.0
 11
-0.292892
 21
4.70709
 31
0.0
  0
LINE
  5
15B
  8
0
 10
-0.292892
 20
4.70709
 30
0.0
 11
-0.316406
 21
4.72986
 31
0.0
  0
LINE
  5
15C
  8
0
 10
-0.316406
 20
4.72986
 30
0.0
 11
-0.340652
 21
4.75183
 31
0.0
  0
LINE
  5
15D
  8
0
 10
-0.340652
 20
4.75183
 30
0.0
 11
-0.365601
 21
4.77301
 31
0.0
  0
LINE
  5
15E
  8
0
 10
-0.365601
 20
4.77301
 30
0.0
 11
-0.390762
 21
4.79297
 31
0.0
  0
LINE
  5
15F
  8
0
 10
-0.390762
 20
4.79297
 30
0.0
 11
-0.416809
 21
4.81232
 31
0.0
  0
LINE
  5
160
  8
0
 10
-0.416809
 20
4.81232
 30
0.0
 11
-0.444901
 21
4.83177
 31
0.0
  0
LINE
  5
161
  8
0
 10
-0.444901
 20
4.83177
 30
0.0
 11
-0.471222
 21
4.84874
 31
0.0
  0
LINE
  5
162
  8
0
 10
-0.471222
 20
4.84874
 30
0.0
 11
-0.472595
 21
4.84959
 31
0.0
  0
LINE
  5
163
  8
0
 10
-0.472595
 20
4.84959
 30
0.0
 11
-0.499313
 21
4.8656
 31
0.0
  0
LINE
  5
164
  8
0
 10
-0.499313
 20
4.8656
 30
0.0
 11
-0.500748
 21
4.86642
 31
0.0
  0
LINE
  5
165
  8
0
 10
-0.500748
 20
4.86642
 30
0.0
 11
-0.528122
 21
4.88165
 31
0.0
  0
LINE
  5
166
  8
0
 10
-0.528122
 20
4.88165
 30
0.0
 11
-0.556915
 21
4.89645
 31
0.0
  0
LINE
  5
167
  8
0
 10
-0.556915
 20
4.89645
 30
0.0
 11
-0.558533
 21
4.89725
 31
0.0
  0
LINE
  5
168
  8
0
 10
-0.558533
 20
4.89725
 30
0.0
 11
-0.586441
 21
4.91046
 31
0.0
  0
LINE
  5
169
  8
0
 10
-0.586441
 20
4.91046
 30
0.0
 11
-0.587952
 21
4.91115
 31
0.0
  0
LINE
  5
16A
  8
0
 10
-0.587952
 20
4.91115
 30
0.0
 11
-0.617981
 21
4.92413
 31
0.0
  0
LINE
  5
16B
  8
0
 10
-0.617981
 20
4.92413
 30
0.0
 11
-0.646774
 21
4.93552
 31
0.0
  0
LINE
  5
16C
  8
0
 10
-0.646774
 20
4.93552
 30
0.0
 11
-0.648575
 21
4.93619
 31
0.0
  0
LINE
  5
16D
  8
0
 10
-0.648575
 20
4.93619
 30
0.0
 11
-0.679169
 21
4.94713
 31
0.0
  0
LINE
  5
16E
  8
0
 10
-0.679169
 20
4.94713
 30
0.0
 11
-0.709778
 21
4.95695
 31
0.0
  0
LINE
  5
16F
  8
0
 10
-0.709778
 20
4.95695
 30
0.0
 11
-0.741806
 21
4.96606
 31
0.0
  0
LINE
  5
170
  8
0
 10
-0.741806
 20
4.96606
 30
0.0
 11
-0.772354
 21
4.97374
 31
0.0
  0
LINE
  5
171
  8
0
 10
-0.772354
 20
4.97374
 30
0.0
 11
-0.804901
 21
4.98077
 31
0.0
  0
LINE
  5
172
  8
0
 10
-0.804901
 20
4.98077
 30
0.0
 11
-0.837097
 21
4.98663
 31
0.0
  0
LINE
  5
173
  8
0
 10
-0.837097
 20
4.98663
 30
0.0
 11
-0.869553
 21
4.99146
 31
0.0
  0
LINE
  5
174
  8
0
 10
-0.869553
 20
4.99146
 30
0.0
 11
-0.901367
 21
4.9951
 31
0.0
  0
LINE
  5
175
  8
0
 10
-0.901367
 20
4.9951
 30
0.0
 11
-0.933716
 21
4.99777
 31
0.0
  0
LINE
  5
176
  8
0
 10
-0.933716
 20
4.99777
 30
0.0
 11
-0.935516
 21
4.99789
 31
0.0
  0
LINE
  5
177
  8
0
 10
-0.935516
 20
4.99789
 30
0.0
 11
-0.967957
 21
4.99947
 31
0.0
  0
LINE
  5
178
  8
0
 10
-0.967957
 20
4.99947
 30
0.0
 11
-1.00012
 21
5.0
 31
0.0
  0
LINE
  5
179
  8
0
 10
-1.00012
 20
5.0
 30
0.0
 11
-4.00092
 21
4.99998
 31
0.0
  0
LINE
  5
17A
  8
0
 10
-4.00092
 20
4.99998
 30
0.0
 11
-4.03206
 21
4.99947
 31
0.0
  0
LINE
  5
17B
  8
0
 10
-4.03206
 20
4.99947
 30
0.0
 11
-4.06447
 21
4.99789
 31
0.0
  0
LINE
  5
17C
  8
0
 10
-4.06447
 20
4.99789
 30
0.0
 11
-4.06627
 21
4.99777
 31
0.0
  0
LINE
  5
17D
  8
0
 10
-4.06627
 20
4.99777
 30
0.0
 11
-4.09862
 21
4.9951
 31
0.0
  0
LINE
  5
17E
  8
0
 10
-4.09862
 20
4.9951
 30
0.0
 11
-4.13058
 21
4.99142
 31
0.0
  0
LINE
  5
17F
  8
0
 10
-4.13058
 20
4.99142
 30
0.0
 11
-4.16289
 21
4.98663
 31
0.0
  0
LINE
  5
180
  8
0
 10
-4.16289
 20
4.98663
 30
0.0
 11
-4.19508
 21
4.98077
 31
0.0
  0
LINE
  5
181
  8
0
 10
-4.19508
 20
4.98077
 30
0.0
 11
-4.22763
 21
4.97374
 31
0.0
  0
LINE
  5
182
  8
0
 10
-4.22763
 20
4.97374
 30
0.0
 11
-4.25818
 21
4.96606
 31
0.0
  0
LINE
  5
183
  8
0
 10
-4.25818
 20
4.96606
 30
0.0
 11
-4.29042
 21
4.95689
 31
0.0
  0
LINE
  5
184
  8
0
 10
-4.29042
 20
4.95689
 30
0.0
 11
-4.32082
 21
4.94713
 31
0.0
  0
LINE
  5
185
  8
0
 10
-4.32082
 20
4.94713
 30
0.0
 11
-4.35141
 21
4.93619
 31
0.0
  0
LINE
  5
186
  8
0
 10
-4.35141
 20
4.93619
 30
0.0
 11
-4.35321
 21
4.93552
 31
0.0
  0
LINE
  5
187
  8
0
 10
-4.35321
 20
4.93552
 30
0.0
 11
-4.382
 21
4.92413
 31
0.0
  0
LINE
  5
188
  8
0
 10
-4.382
 20
4.92413
 30
0.0
 11
-4.41203
 21
4.91115
 31
0.0
  0
LINE
  5
189
  8
0
 10
-4.41203
 20
4.91115
 30
0.0
 11
-4.41354
 21
4.91046
 31
0.0
  0
LINE
  5
18A
  8
0
 10
-4.41354
 20
4.91046
 30
0.0
 11
-4.44145
 21
4.89725
 31
0.0
  0
LINE
  5
18B
  8
0
 10
-4.44145
 20
4.89725
 30
0.0
 11
-4.44307
 21
4.89645
 31
0.0
  0
LINE
  5
18C
  8
0
 10
-4.44307
 20
4.89645
 30
0.0
 11
-4.47186
 21
4.88165
 31
0.0
  0
LINE
  5
18D
  8
0
 10
-4.47186
 20
4.88165
 30
0.0
 11
-4.49965
 21
4.86621
 31
0.0
  0
LINE
  5
18E
  8
0
 10
-4.49965
 20
4.86621
 30
0.0
 11
-4.52878
 21
4.84874
 31
0.0
  0
LINE
  5
18F
  8
0
 10
-4.52878
 20
4.84874
 30
0.0
 11
-4.55595
 21
4.83119
 31
0.0
  0
LINE
  5
190
  8
0
 10
-4.55595
 20
4.83119
 30
0.0
 11
-4.58318
 21
4.81232
 31
0.0
  0
LINE
  5
191
  8
0
 10
-4.58318
 20
4.81232
 30
0.0
 11
-4.60922
 21
4.79297
 31
0.0
  0
LINE
  5
192
  8
0
 10
-4.60922
 20
4.79297
 30
0.0
 11
-4.63445
 21
4.77295
 31
0.0
  0
LINE
  5
193
  8
0
 10
-4.63445
 20
4.77295
 30
0.0
 11
-4.65956
 21
4.75162
 31
0.0
  0
LINE
  5
194
  8
0
 10
-4.65956
 20
4.75162
 30
0.0
 11
-4.68358
 21
4.72986
 31
0.0
  0
LINE
  5
195
  8
0
 10
-4.68358
 20
4.72986
 30
0.0
 11
-4.70709
 21
4.70709
 31
0.0
  0
LINE
  5
196
  8
0
 10
-4.70709
 20
4.70709
 30
0.0
 11
-4.72986
 21
4.68358
 31
0.0
  0
LINE
  5
197
  8
0
 10
-4.72986
 20
4.68358
 30
0.0
 11
-4.752
 21
4.65913
 31
0.0
  0
LINE
  5
198
  8
0
 10
-4.752
 20
4.65913
 30
0.0
 11
-4.77307
 21
4.63431
 31
0.0
  0
LINE
  5
199
  8
0
 10
-4.77307
 20
4.63431
 30
0.0
 11
-4.79388
 21
4.60803
 31
0.0
  0
LINE
  5
19A
  8
0
 10
-4.79388
 20
4.60803
 30
0.0
 11
-4.81259
 21
4.58281
 31
0.0
  0
LINE
  5
19B
  8
0
 10
-4.81259
 20
4.58281
 30
0.0
 11
-4.83119
 21
4.55595
 31
0.0
  0
LINE
  5
19C
  8
0
 10
-4.83119
 20
4.55595
 30
0.0
 11
-4.84883
 21
4.52863
 31
0.0
  0
LINE
  5
19D
  8
0
 10
-4.84883
 20
4.52863
 30
0.0
 11
-4.86621
 21
4.49965
 31
0.0
  0
LINE
  5
19E
  8
0
 10
-4.86621
 20
4.49965
 30
0.0
 11
-4.8817
 21
4.47179
 31
0.0
  0
LINE
  5
19F
  8
0
 10
-4.8817
 20
4.47179
 30
0.0
 11
-4.89645
 21
4.44307
 31
0.0
  0
LINE
  5
1A0
  8
0
 10
-4.89645
 20
4.44307
 30
0.0
 11
-4.89735
 21
4.44125
 31
0.0
  0
LINE
  5
1A1
  8
0
 10
-4.89735
 20
4.44125
 30
0.0
 11
-4.91057
 21
4.41331
 31
0.0
  0
LINE
  5
1A2
  8
0
 10
-4.91057
 20
4.41331
 30
0.0
 11
-4.92363
 21
4.38322
 31
0.0
  0
LINE
  5
1A3
  8
0
 10
-4.92363
 20
4.38322
 30
0.0
 11
-4.92419
 21
4.38187
 31
0.0
  0
LINE
  5
1A4
  8
0
 10
-4.92419
 20
4.38187
 30
0.0
 11
-4.93552
 21
4.35321
 31
0.0
  0
LINE
  5
1A5
  8
0
 10
-4.93552
 20
4.35321
 30
0.0
 11
-4.93623
 21
4.3513
 31
0.0
  0
LINE
  5
1A6
  8
0
 10
-4.93623
 20
4.3513
 30
0.0
 11
-4.94716
 21
4.32072
 31
0.0
  0
LINE
  5
1A7
  8
0
 10
-4.94716
 20
4.32072
 30
0.0
 11
-4.957
 21
4.29008
 31
0.0
  0
LINE
  5
1A8
  8
0
 10
-4.957
 20
4.29008
 30
0.0
 11
-4.96567
 21
4.25966
 31
0.0
  0
LINE
  5
1A9
  8
0
 10
-4.96567
 20
4.25966
 30
0.0
 11
-4.96619
 21
4.25774
 31
0.0
  0
LINE
  5
1AA
  8
0
 10
-4.96619
 20
4.25774
 30
0.0
 11
-4.97374
 21
4.22763
 31
0.0
  0
LINE
  5
1AB
  8
0
 10
-4.97374
 20
4.22763
 30
0.0
 11
-4.98077
 21
4.19508
 31
0.0
  0
LINE
  5
1AC
  8
0
 10
-4.98077
 20
4.19508
 30
0.0
 11
-4.98663
 21
4.16289
 31
0.0
  0
LINE
  5
1AD
  8
0
 10
-4.98663
 20
4.16289
 30
0.0
 11
-4.99153
 21
4.12979
 31
0.0
  0
LINE
  5
1AE
  8
0
 10
-4.99153
 20
4.12979
 30
0.0
 11
-4.9951
 21
4.09862
 31
0.0
  0
LINE
  5
1AF
  8
0
 10
-4.9951
 20
4.09862
 30
0.0
 11
-4.99779
 21
4.0661
 31
0.0
  0
LINE
  5
1B0
  8
0
 10
-4.99779
 20
4.0661
 30
0.0
 11
-4.99791
 21
4.06424
 31
0.0
  0
LINE
  5
1B1
  8
0
 10
-4.99791
 20
4.06424
 30
0.0
 11
-4.99947
 21
4.03188
 31
0.0
  0
LINE
  5
1B2
  8
0
 10
-4.99947
 20
4.03188
 30
0.0
 11
-5.0
 21
4.0
 31
0.0
  0
LINE
  5
1B3
  8
0
 10
-5.0
 20
4.0
 30
0.0
 11
-4.99998
 21
0.998947
 31
0.0
  0
LINE
  5
1B4
  8
0
 10
-4.99998
 20
0.998947
 30
0.0
 11
-4.99947
 21
0.968109
 31
0.0
  0
LINE
  5
1B5
  8
0
 10
-4.99947
 20
0.968109
 30
0.0
 11
-4.9994
 21
0.966217
 31
0.0
  0
LINE
  5
1B6
  8
0
 10
-4.9994
 20
0.966217
 30
0.0
 11
-4.99789
 21
0.935516
 31
0.0
  0
LINE
  5
1B7
  8
0
 10
-4.99789
 20
0.935516
 30
0.0
 11
-4.99777
 21
0.933716
 31
0.0
  0
LINE
  5
1B8
  8
0
 10
-4.99777
 20
0.933716
 30
0.0
 11
-4.99525
 21
0.902924
 31
0.0
  0
LINE
  5
1B9
  8
0
 10
-4.99525
 20
0.902924
 30
0.0
 11
-4.99506
 21
0.900879
 31
0.0
  0
LINE
  5
1BA
  8
0
 10
-4.99506
 20
0.900879
 30
0.0
 11
-4.99144
 21
0.869461
 31
0.0
  0
LINE
  5
1BB
  8
0
 10
-4.99144
 20
0.869461
 30
0.0
 11
-4.98663
 21
0.837097
 31
0.0
  0
LINE
  5
1BC
  8
0
 10
-4.98663
 20
0.837097
 30
0.0
 11
-4.98077
 21
0.804901
 31
0.0
  0
LINE
  5
1BD
  8
0
 10
-4.98077
 20
0.804901
 30
0.0
 11
-4.97371
 21
0.772232
 31
0.0
  0
LINE
  5
1BE
  8
0
 10
-4.97371
 20
0.772232
 30
0.0
 11
-4.96609
 21
0.741898
 31
0.0
  0
LINE
  5
1BF
  8
0
 10
-4.96609
 20
0.741898
 30
0.0
 11
-4.95694
 21
0.709702
 31
0.0
  0
LINE
  5
1C0
  8
0
 10
-4.95694
 20
0.709702
 30
0.0
 11
-4.94716
 21
0.67926
 31
0.0
  0
LINE
  5
1C1
  8
0
 10
-4.94716
 20
0.67926
 30
0.0
 11
-4.93623
 21
0.648682
 31
0.0
  0
LINE
  5
1C2
  8
0
 10
-4.93623
 20
0.648682
 30
0.0
 11
-4.93552
 21
0.646774
 31
0.0
  0
LINE
  5
1C3
  8
0
 10
-4.93552
 20
0.646774
 30
0.0
 11
-4.92419
 21
0.618118
 31
0.0
  0
LINE
  5
1C4
  8
0
 10
-4.92419
 20
0.618118
 30
0.0
 11
-4.92346
 21
0.616348
 31
0.0
  0
LINE
  5
1C5
  8
0
 10
-4.92346
 20
0.616348
 30
0.0
 11
-4.91115
 21
0.587952
 31
0.0
  0
LINE
  5
1C6
  8
0
 10
-4.91115
 20
0.587952
 30
0.0
 11
-4.91046
 21
0.586441
 31
0.0
  0
LINE
  5
1C7
  8
0
 10
-4.91046
 20
0.586441
 30
0.0
 11
-4.89735
 21
0.558731
 31
0.0
  0
LINE
  5
1C8
  8
0
 10
-4.89735
 20
0.558731
 30
0.0
 11
-4.89645
 21
0.556915
 31
0.0
  0
LINE
  5
1C9
  8
0
 10
-4.89645
 20
0.556915
 30
0.0
 11
-4.88165
 21
0.528122
 31
0.0
  0
LINE
  5
1CA
  8
0
 10
-4.88165
 20
0.528122
 30
0.0
 11
-4.86642
 21
0.500748
 31
0.0
  0
LINE
  5
1CB
  8
0
 10
-4.86642
 20
0.500748
 30
0.0
 11
-4.8656
 21
0.499313
 31
0.0
  0
LINE
  5
1CC
  8
0
 10
-4.8656
 20
0.499313
 30
0.0
 11
-4.84959
 21
0.472595
 31
0.0
  0
LINE
  5
1CD
  8
0
 10
-4.84959
 20
0.472595
 30
0.0
 11
-4.84874
 21
0.471222
 31
0.0
  0
LINE
  5
1CE
  8
0
 10
-4.84874
 20
0.471222
 30
0.0
 11
-4.83119
 21
0.444031
 31
0.0
  0
LINE
  5
1CF
  8
0
 10
-4.83119
 20
0.444031
 30
0.0
 11
-4.81259
 21
0.417175
 31
0.0
  0
LINE
  5
1D0
  8
0
 10
-4.81259
 20
0.417175
 30
0.0
 11
-4.79385
 21
0.391907
 31
0.0
  0
LINE
  5
1D1
  8
0
 10
-4.79385
 20
0.391907
 30
0.0
 11
-4.77301
 21
0.365601
 31
0.0
  0
LINE
  5
1D2
  8
0
 10
-4.77301
 20
0.365601
 30
0.0
 11
-4.75183
 21
0.340652
 31
0.0
  0
LINE
  5
1D3
  8
0
 10
-4.75183
 20
0.340652
 30
0.0
 11
-4.72986
 21
0.316406
 31
0.0
  0
LINE
  5
1D4
  8
0
 10
-4.72986
 20
0.316406
 30
0.0
 11
-4.70709
 21
0.292892
 31
0.0
  0
LINE
  5
1D5
  8
0
 10
-4.70709
 20
0.292892
 30
0.0
 11
-4.68358
 21
0.270126
 31
0.0
  0
LINE
  5
1D6
  8
0
 10
-4.68358
 20
0.270126
 30
0.0
 11
-4.65933
 21
0.248154
 31
0.0
  0
LINE
  5
1D7
  8
0
 10
-4.65933
 20
0.248154
 30
0.0
 11
-4.63438
 21
0.226974
 31
0.0
  0
LINE
  5
1D8
  8
0
 10
-4.63438
 20
0.226974
 30
0.0
 11
-4.60803
 21
0.2061
 31
0.0
  0
LINE
  5
1D9
  8
0
 10
-4.60803
 20
0.2061
 30
0.0
 11
-4.58281
 21
0.187393
 31
0.0
  0
LINE
  5
1DA
  8
0
 10
-4.58281
 20
0.187393
 30
0.0
 11
-4.55508
 21
0.168213
 31
0.0
  0
LINE
  5
1DB
  8
0
 10
-4.55508
 20
0.168213
 30
0.0
 11
-4.52863
 21
0.151154
 31
0.0
  0
LINE
  5
1DC
  8
0
 10
-4.52863
 20
0.151154
 30
0.0
 11
-4.49965
 21
0.133774
 31
0.0
  0
LINE
  5
1DD
  8
0
 10
-4.49965
 20
0.133774
 30
0.0
 11
-4.47179
 21
0.118286
 31
0.0
  0
LINE
  5
1DE
  8
0
 10
-4.47179
 20
0.118286
 30
0.0
 11
-4.44307
 21
0.103531
 31
0.0
  0
LINE
  5
1DF
  8
0
 10
-4.44307
 20
0.103531
 30
0.0
 11
-4.44145
 21
0.102737
 31
0.0
  0
LINE
  5
1E0
  8
0
 10
-4.44145
 20
0.102737
 30
0.0
 11
-4.41354
 21
0.0895233
 31
0.0
  0
LINE
  5
1E1
  8
0
 10
-4.41354
 20
0.0895233
 30
0.0
 11
-4.41203
 21
0.0888367
 31
0.0
  0
LINE
  5
1E2
  8
0
 10
-4.41203
 20
0.0888367
 30
0.0
 11
-4.38187
 21
0.0757904
 31
0.0
  0
LINE
  5
1E3
  8
0
 10
-4.38187
 20
0.0757904
 30
0.0
 11
-4.35321
 21
0.0644684
 31
0.0
  0
LINE
  5
1E4
  8
0
 10
-4.35321
 20
0.0644684
 30
0.0
 11
-4.3513
 21
0.0637512
 31
0.0
  0
LINE
  5
1E5
  8
0
 10
-4.3513
 20
0.0637512
 30
0.0
 11
-4.32082
 21
0.0528564
 31
0.0
  0
LINE
  5
1E6
  8
0
 10
-4.32082
 20
0.0528564
 30
0.0
 11
-4.29021
 21
0.0430298
 31
0.0
  0
LINE
  5
1E7
  8
0
 10
-4.29021
 20
0.0430298
 30
0.0
 11
-4.25818
 21
0.0339203
 31
0.0
  0
LINE
  5
1E8
  8
0
 10
-4.25818
 20
0.0339203
 30
0.0
 11
-4.22763
 21
0.0262451
 31
0.0
  0
LINE
  5
1E9
  8
0
 10
-4.22763
 20
0.0262451
 30
0.0
 11
-4.19508
 21
0.0192108
 31
0.0
  0
LINE
  5
1EA
  8
0
 10
-4.19508
 20
0.0192108
 30
0.0
 11
-4.16289
 21
0.0133514
 31
0.0
  0
LINE
  5
1EB
  8
0
 10
-4.16289
 20
0.0133514
 30
0.0
 11
-4.13043
 21
0.00852966
 31
0.0
  0
LINE
  5
1EC
  8
0
 10
-4.13043
 20
0.00852966
 30
0.0
 11
-4.09862
 21
0.00488281
 31
0.0
  0
LINE
  5
1ED
  8
0
 10
-4.09862
 20
0.00488281
 30
0.0
 11
-4.06627
 21
0.00221252
 31
0.0
  0
LINE
  5
1EE
  8
0
 10
-4.06627
 20
0.00221252
 30
0.0
 11
-4.06447
 21
0.00209045
 31
0.0
  0
LINE
  5
1EF
  8
0
 10
-4.06447
 20
0.00209045
 30
0.0
 11
-4.0321
 21
0.000518799
 31
0.0
  0
LINE
  5
1F0
  8
0
 10
-4.0321
 20
0.000518799
 30
0.0
 11
-3.99991
 21
0.0
 31
0.0
  0
LINE
  5
1F1
  8
0
 10
-3.99991
 20
0.0
 30
0.0
 11
-1.00009
 21
0.0
 31
0.0
  0
LINE
  5
1F2
  8
0
 10
-4.00085
 20
0.0625153
 30
0.0
 11
-4.02933
 21
0.0629883
 31
0.0
  0
LINE
  5
1F3
  8
0
 10
-4.02933
 20
0.0629883
 30
0.0
 11
-4.03133
 21
0.0630493
 31
0.0
  0
LINE
  5
1F4
  8
0
 10
-4.03133
 20
0.0630493
 30
0.0
 11
-4.06049
 21
0.0644684
 31
0.0
  0
LINE
  5
1F5
  8
0
 10
-4.06049
 20
0.0644684
 30
0.0
 11
-4.06255
 21
0.0646057
 31
0.0
  0
LINE
  5
1F6
  8
0
 10
-4.06255
 20
0.0646057
 30
0.0
 11
-4.09073
 21
0.0669098
 31
0.0
  0
LINE
  5
1F7
  8
0
 10
-4.09073
 20
0.0669098
 30
0.0
 11
-4.09276
 21
0.0671082
 31
0.0
  0
LINE
  5
1F8
  8
0
 10
-4.09276
 20
0.0671082
 30
0.0
 11
-4.12119
 21
0.0703735
 31
0.0
  0
LINE
  5
1F9
  8
0
 10
-4.12119
 20
0.0703735
 30
0.0
 11
-4.12325
 21
0.0706482
 31
0.0
  0
LINE
  5
1FA
  8
0
 10
-4.12325
 20
0.0706482
 30
0.0
 11
-4.15358
 21
0.0751801
 31
0.0
  0
LINE
  5
1FB
  8
0
 10
-4.15358
 20
0.0751801
 30
0.0
 11
-4.18198
 21
0.0803528
 31
0.0
  0
LINE
  5
1FC
  8
0
 10
-4.18198
 20
0.0803528
 30
0.0
 11
-4.18393
 21
0.0807495
 31
0.0
  0
LINE
  5
1FD
  8
0
 10
-4.18393
 20
0.0807495
 30
0.0
 11
-4.21172
 21
0.086731
 31
0.0
  0
LINE
  5
1FE
  8
0
 10
-4.21172
 20
0.086731
 30
0.0
 11
-4.21379
 21
0.087204
 31
0.0
  0
LINE
  5
1FF
  8
0
 10
-4.21379
 20
0.087204
 30
0.0
 11
-4.24203
 21
0.0942993
 31
0.0
  0
LINE
  5
200
  8
0
 10
-4.24203
 20
0.0942993
 30
0.0
 11
-4.24394
 21
0.0948181
 31
0.0
  0
LINE
  5
201
  8
0
 10
-4.24394
 20
0.0948181
 30
0.0
 11
-4.27098
 21
0.102524
 31
0.0
  0
LINE
  5
202
  8
0
 10
-4.27098
 20
0.102524
 30
0.0
 11
-4.27296
 21
0.103119
 31
0.0
  0
LINE
  5
203
  8
0
 10
-4.27296
 20
0.103119
 30
0.0
 11
-4.3008
 21
0.112061
 31
0.0
  0
LINE
  5
204
  8
0
 10
-4.3008
 20
0.112061
 30
0.0
 11
-4.30275
 21
0.112732
 31
0.0
  0
LINE
  5
205
  8
0
 10
-4.30275
 20
0.112732
 30
0.0
 11
-4.32909
 21
0.122162
 31
0.0
  0
LINE
  5
206
  8
0
 10
-4.32909
 20
0.122162
 30
0.0
 11
-4.33099
 21
0.122879
 31
0.0
  0
LINE
  5
207
  8
0
 10
-4.33099
 20
0.122879
 30
0.0
 11
-4.35747
 21
0.133347
 31
0.0
  0
LINE
  5
208
  8
0
 10
-4.35747
 20
0.133347
 30
0.0
 11
-4.35934
 21
0.134125
 31
0.0
  0
LINE
  5
209
  8
0
 10
-4.35934
 20
0.134125
 30
0.0
 11
-4.386
 21
0.145676
 31
0.0
  0
LINE
  5
20A
  8
0
 10
-4.386
 20
0.145676
 30
0.0
 11
-4.38788
 21
0.14653
 31
0.0
  0
LINE
  5
20B
  8
0
 10
-4.38788
 20
0.14653
 30
0.0
 11
-4.41412
 21
0.158951
 31
0.0
  0
LINE
  5
20C
  8
0
 10
-4.41412
 20
0.158951
 30
0.0
 11
-4.41594
 21
0.159836
 31
0.0
  0
LINE
  5
20D
  8
0
 10
-4.41594
 20
0.159836
 30
0.0
 11
-4.44075
 21
0.172577
 31
0.0
  0
LINE
  5
20E
  8
0
 10
-4.44075
 20
0.172577
 30
0.0
 11
-4.44258
 21
0.173553
 31
0.0
  0
LINE
  5
20F
  8
0
 10
-4.44258
 20
0.173553
 30
0.0
 11
-4.46796
 21
0.187668
 31
0.0
  0
LINE
  5
210
  8
0
 10
-4.46796
 20
0.187668
 30
0.0
 11
-4.4697
 21
0.188675
 31
0.0
  0
LINE
  5
211
  8
0
 10
-4.4697
 20
0.188675
 30
0.0
 11
-4.49405
 21
0.203262
 31
0.0
  0
LINE
  5
212
  8
0
 10
-4.49405
 20
0.203262
 30
0.0
 11
-4.49579
 21
0.204346
 31
0.0
  0
LINE
  5
213
  8
0
 10
-4.49579
 20
0.204346
 30
0.0
 11
-4.51996
 21
0.219925
 31
0.0
  0
LINE
  5
214
  8
0
 10
-4.51996
 20
0.219925
 30
0.0
 11
-4.52168
 21
0.221069
 31
0.0
  0
LINE
  5
215
  8
0
 10
-4.52168
 20
0.221069
 30
0.0
 11
-4.54524
 21
0.237381
 31
0.0
  0
LINE
  5
216
  8
0
 10
-4.54524
 20
0.237381
 30
0.0
 11
-4.56961
 21
0.255432
 31
0.0
  0
LINE
  5
217
  8
0
 10
-4.56961
 20
0.255432
 30
0.0
 11
-4.57118
 21
0.256638
 31
0.0
  0
LINE
  5
218
  8
0
 10
-4.57118
 20
0.256638
 30
0.0
 11
-4.59378
 21
0.274551
 31
0.0
  0
LINE
  5
219
  8
0
 10
-4.59378
 20
0.274551
 30
0.0
 11
-4.59541
 21
0.275894
 31
0.0
  0
LINE
  5
21A
  8
0
 10
-4.59541
 20
0.275894
 30
0.0
 11
-4.61748
 21
0.294632
 31
0.0
  0
LINE
  5
21B
  8
0
 10
-4.61748
 20
0.294632
 30
0.0
 11
-4.61902
 21
0.295975
 31
0.0
  0
LINE
  5
21C
  8
0
 10
-4.61902
 20
0.295975
 30
0.0
 11
-4.64018
 21
0.31517
 31
0.0
  0
LINE
  5
21D
  8
0
 10
-4.64018
 20
0.31517
 30
0.0
 11
-4.64166
 21
0.316559
 31
0.0
  0
LINE
  5
21E
  8
0
 10
-4.64166
 20
0.316559
 30
0.0
 11
-4.66216
 21
0.336395
 31
0.0
  0
LINE
  5
21F
  8
0
 10
-4.66216
 20
0.336395
 30
0.0
 11
-4.66359
 21
0.33783
 31
0.0
  0
LINE
  5
220
  8
0
 10
-4.66359
 20
0.33783
 30
0.0
 11
-4.68343
 21
0.358322
 31
0.0
  0
LINE
  5
221
  8
0
 10
-4.68343
 20
0.358322
 30
0.0
 11
-4.68481
 21
0.359802
 31
0.0
  0
LINE
  5
222
  8
0
 10
-4.68481
 20
0.359802
 30
0.0
 11
-4.70401
 21
0.380966
 31
0.0
  0
LINE
  5
223
  8
0
 10
-4.70401
 20
0.380966
 30
0.0
 11
-4.70535
 21
0.382507
 31
0.0
  0
LINE
  5
224
  8
0
 10
-4.70535
 20
0.382507
 30
0.0
 11
-4.72409
 21
0.404572
 31
0.0
  0
LINE
  5
225
  8
0
 10
-4.72409
 20
0.404572
 30
0.0
 11
-4.72543
 21
0.406204
 31
0.0
  0
LINE
  5
226
  8
0
 10
-4.72543
 20
0.406204
 30
0.0
 11
-4.74335
 21
0.428802
 31
0.0
  0
LINE
  5
227
  8
0
 10
-4.74335
 20
0.428802
 30
0.0
 11
-4.74455
 21
0.430374
 31
0.0
  0
LINE
  5
228
  8
0
 10
-4.74455
 20
0.430374
 30
0.0
 11
-4.7626
 21
0.454742
 31
0.0
  0
LINE
  5
229
  8
0
 10
-4.7626
 20
0.454742
 30
0.0
 11
-4.77892
 21
0.478302
 31
0.0
  0
LINE
  5
22A
  8
0
 10
-4.77892
 20
0.478302
 30
0.0
 11
-4.79553
 21
0.504028
 31
0.0
  0
LINE
  5
22B
  8
0
 10
-4.79553
 20
0.504028
 30
0.0
 11
-4.79663
 21
0.505798
 31
0.0
  0
LINE
  5
22C
  8
0
 10
-4.79663
 20
0.505798
 30
0.0
 11
-4.81131
 21
0.530319
 31
0.0
  0
LINE
  5
22D
  8
0
 10
-4.81131
 20
0.530319
 30
0.0
 11
-4.81232
 21
0.532059
 31
0.0
  0
LINE
  5
22E
  8
0
 10
-4.81232
 20
0.532059
 30
0.0
 11
-4.82632
 21
0.557251
 31
0.0
  0
LINE
  5
22F
  8
0
 10
-4.82632
 20
0.557251
 30
0.0
 11
-4.82729
 21
0.559052
 31
0.0
  0
LINE
  5
230
  8
0
 10
-4.82729
 20
0.559052
 30
0.0
 11
-4.84023
 21
0.584229
 31
0.0
  0
LINE
  5
231
  8
0
 10
-4.84023
 20
0.584229
 30
0.0
 11
-4.84113
 21
0.58606
 31
0.0
  0
LINE
  5
232
  8
0
 10
-4.84113
 20
0.58606
 30
0.0
 11
-4.85345
 21
0.612106
 31
0.0
  0
LINE
  5
233
  8
0
 10
-4.85345
 20
0.612106
 30
0.0
 11
-4.85431
 21
0.613983
 31
0.0
  0
LINE
  5
234
  8
0
 10
-4.85431
 20
0.613983
 30
0.0
 11
-4.86586
 21
0.64064
 31
0.0
  0
LINE
  5
235
  8
0
 10
-4.86586
 20
0.64064
 30
0.0
 11
-4.86664
 21
0.642517
 31
0.0
  0
LINE
  5
236
  8
0
 10
-4.86664
 20
0.642517
 30
0.0
 11
-4.87711
 21
0.668991
 31
0.0
  0
LINE
  5
237
  8
0
 10
-4.87711
 20
0.668991
 30
0.0
 11
-4.87782
 21
0.670898
 31
0.0
  0
LINE
  5
238
  8
0
 10
-4.87782
 20
0.670898
 30
0.0
 11
-4.88725
 21
0.697235
 31
0.0
  0
LINE
  5
239
  8
0
 10
-4.88725
 20
0.697235
 30
0.0
 11
-4.88792
 21
0.699188
 31
0.0
  0
LINE
  5
23A
  8
0
 10
-4.88792
 20
0.699188
 30
0.0
 11
-4.89687
 21
0.72702
 31
0.0
  0
LINE
  5
23B
  8
0
 10
-4.89687
 20
0.72702
 30
0.0
 11
-4.89746
 21
0.729004
 31
0.0
  0
LINE
  5
23C
  8
0
 10
-4.89746
 20
0.729004
 30
0.0
 11
-4.90517
 21
0.756042
 31
0.0
  0
LINE
  5
23D
  8
0
 10
-4.90517
 20
0.756042
 30
0.0
 11
-4.90569
 21
0.75795
 31
0.0
  0
LINE
  5
23E
  8
0
 10
-4.90569
 20
0.75795
 30
0.0
 11
-4.91278
 21
0.786194
 31
0.0
  0
LINE
  5
23F
  8
0
 10
-4.91278
 20
0.786194
 30
0.0
 11
-4.91325
 21
0.788269
 31
0.0
  0
LINE
  5
240
  8
0
 10
-4.91325
 20
0.788269
 30
0.0
 11
-4.91924
 21
0.816055
 31
0.0
  0
LINE
  5
241
  8
0
 10
-4.91924
 20
0.816055
 30
0.0
 11
-4.91963
 21
0.818008
 31
0.0
  0
LINE
  5
242
  8
0
 10
-4.91963
 20
0.818008
 30
0.0
 11
-4.9248
 21
0.846405
 31
0.0
  0
LINE
  5
243
  8
0
 10
-4.9248
 20
0.846405
 30
0.0
 11
-4.92934
 21
0.87674
 31
0.0
  0
LINE
  5
244
  8
0
 10
-4.92934
 20
0.87674
 30
0.0
 11
-4.92961
 21
0.878799
 31
0.0
  0
LINE
  5
245
  8
0
 10
-4.92961
 20
0.878799
 30
0.0
 11
-4.93288
 21
0.907227
 31
0.0
  0
LINE
  5
246
  8
0
 10
-4.93288
 20
0.907227
 30
0.0
 11
-4.93307
 21
0.909256
 31
0.0
  0
LINE
  5
247
  8
0
 10
-4.93307
 20
0.909256
 30
0.0
 11
-4.93538
 21
0.937439
 31
0.0
  0
LINE
  5
248
  8
0
 10
-4.93538
 20
0.937439
 30
0.0
 11
-4.93552
 21
0.939499
 31
0.0
  0
LINE
  5
249
  8
0
 10
-4.93552
 20
0.939499
 30
0.0
 11
-4.93694
 21
0.968658
 31
0.0
  0
LINE
  5
24A
  8
0
 10
-4.93694
 20
0.968658
 30
0.0
 11
-4.937
 21
0.970612
 31
0.0
  0
LINE
  5
24B
  8
0
 10
-4.937
 20
0.970612
 30
0.0
 11
-4.9375
 21
1.0
 31
0.0
  0
LINE
  5
24C
  8
0
 10
-4.9375
 20
1.0
 30
0.0
 11
-4.93748
 21
4.00108
 31
0.0
  0
LINE
  5
24D
  8
0
 10
-4.93748
 20
4.00108
 30
0.0
 11
-4.937
 21
4.02937
 31
0.0
  0
LINE
  5
24E
  8
0
 10
-4.937
 20
4.02937
 30
0.0
 11
-4.93694
 21
4.03133
 31
0.0
  0
LINE
  5
24F
  8
0
 10
-4.93694
 20
4.03133
 30
0.0
 11
-4.93552
 21
4.06049
 31
0.0
  0
LINE
  5
250
  8
0
 10
-4.93552
 20
4.06049
 30
0.0
 11
-4.93538
 21
4.06255
 31
0.0
  0
LINE
  5
251
  8
0
 10
-4.93538
 20
4.06255
 30
0.0
 11
-4.93307
 21
4.0907
 31
0.0
  0
LINE
  5
252
  8
0
 10
-4.93307
 20
4.0907
 30
0.0
 11
-4.93288
 21
4.09273
 31
0.0
  0
LINE
  5
253
  8
0
 10
-4.93288
 20
4.09273
 30
0.0
 11
-4.92961
 21
4.12119
 31
0.0
  0
LINE
  5
254
  8
0
 10
-4.92961
 20
4.12119
 30
0.0
 11
-4.92934
 21
4.12325
 31
0.0
  0
LINE
  5
255
  8
0
 10
-4.92934
 20
4.12325
 30
0.0
 11
-4.9248
 21
4.15358
 31
0.0
  0
LINE
  5
256
  8
0
 10
-4.9248
 20
4.15358
 30
0.0
 11
-4.91963
 21
4.18198
 31
0.0
  0
LINE
  5
257
  8
0
 10
-4.91963
 20
4.18198
 30
0.0
 11
-4.91924
 21
4.18393
 31
0.0
  0
LINE
  5
258
  8
0
 10
-4.91924
 20
4.18393
 30
0.0
 11
-4.91325
 21
4.21172
 31
0.0
  0
LINE
  5
259
  8
0
 10
-4.91325
 20
4.21172
 30
0.0
 11
-4.91278
 21
4.21379
 31
0.0
  0
LINE
  5
25A
  8
0
 10
-4.91278
 20
4.21379
 30
0.0
 11
-4.90569
 21
4.24203
 31
0.0
  0
LINE
  5
25B
  8
0
 10
-4.90569
 20
4.24203
 30
0.0
 11
-4.90517
 21
4.24394
 31
0.0
  0
LINE
  5
25C
  8
0
 10
-4.90517
 20
4.24394
 30
0.0
 11
-4.89746
 21
4.27098
 31
0.0
  0
LINE
  5
25D
  8
0
 10
-4.89746
 20
4.27098
 30
0.0
 11
-4.89687
 21
4.27296
 31
0.0
  0
LINE
  5
25E
  8
0
 10
-4.89687
 20
4.27296
 30
0.0
 11
-4.88792
 21
4.3008
 31
0.0
  0
LINE
  5
25F
  8
0
 10
-4.88792
 20
4.3008
 30
0.0
 11
-4.88725
 21
4.30275
 31
0.0
  0
LINE
  5
260
  8
0
 10
-4.88725
 20
4.30275
 30
0.0
 11
-4.87782
 21
4.32909
 31
0.0
  0
LINE
  5
261
  8
0
 10
-4.87782
 20
4.32909
 30
0.0
 11
-4.87711
 21
4.33099
 31
0.0
  0
LINE
  5
262
  8
0
 10
-4.87711
 20
4.33099
 30
0.0
 11
-4.86664
 21
4.35747
 31
0.0
  0
LINE
  5
263
  8
0
 10
-4.86664
 20
4.35747
 30
0.0
 11
-4.86586
 21
4.35934
 31
0.0
  0
LINE
  5
264
  8
0
 10
-4.86586
 20
4.35934
 30
0.0
 11
-4.85431
 21
4.386
 31
0.0
  0
LINE
  5
265
  8
0
 10
-4.85431
 20
4.386
 30
0.0
 11
-4.85345
 21
4.38788
 31
0.0
  0
LINE
  5
266
  8
0
 10
-4.85345
 20
4.38788
 30
0.0
 11
-4.84103
 21
4.41412
 31
0.0
  0
LINE
  5
267
  8
0
 10
-4.84103
 20
4.41412
 30
0.0
 11
-4.84015
 21
4.41594
 31
0.0
  0
LINE
  5
268
  8
0
 10
-4.84015
 20
4.41594
 30
0.0
 11
-4.82741
 21
4.44075
 31
0.0
  0
LINE
  5
269
  8
0
 10
-4.82741
 20
4.44075
 30
0.0
 11
-4.82643
 21
4.44257
 31
0.0
  0
LINE
  5
26A
  8
0
 10
-4.82643
 20
4.44257
 30
0.0
 11
-4.81233
 21
4.46793
 31
0.0
  0
LINE
  5
26B
  8
0
 10
-4.81233
 20
4.46793
 30
0.0
 11
-4.81131
 21
4.46968
 31
0.0
  0
LINE
  5
26C
  8
0
 10
-4.81131
 20
4.46968
 30
0.0
 11
-4.79564
 21
4.49579
 31
0.0
  0
LINE
  5
26D
  8
0
 10
-4.79564
 20
4.49579
 30
0.0
 11
-4.78006
 21
4.51996
 31
0.0
  0
LINE
  5
26E
  8
0
 10
-4.78006
 20
4.51996
 30
0.0
 11
-4.77892
 21
4.52168
 31
0.0
  0
LINE
  5
26F
  8
0
 10
-4.77892
 20
4.52168
 30
0.0
 11
-4.7626
 21
4.54524
 31
0.0
  0
LINE
  5
270
  8
0
 10
-4.7626
 20
4.54524
 30
0.0
 11
-4.74455
 21
4.56961
 31
0.0
  0
LINE
  5
271
  8
0
 10
-4.74455
 20
4.56961
 30
0.0
 11
-4.74335
 21
4.57118
 31
0.0
  0
LINE
  5
272
  8
0
 10
-4.74335
 20
4.57118
 30
0.0
 11
-4.72543
 21
4.59378
 31
0.0
  0
LINE
  5
273
  8
0
 10
-4.72543
 20
4.59378
 30
0.0
 11
-4.72409
 21
4.59541
 31
0.0
  0
LINE
  5
274
  8
0
 10
-4.72409
 20
4.59541
 30
0.0
 11
-4.70535
 21
4.61748
 31
0.0
  0
LINE
  5
275
  8
0
 10
-4.70535
 20
4.61748
 30
0.0
 11
-4.70401
 21
4.61902
 31
0.0
  0
LINE
  5
276
  8
0
 10
-4.70401
 20
4.61902
 30
0.0
 11
-4.68481
 21
4.64018
 31
0.0
  0
LINE
  5
277
  8
0
 10
-4.68481
 20
4.64018
 30
0.0
 11
-4.68343
 21
4.64166
 31
0.0
  0
LINE
  5
278
  8
0
 10
-4.68343
 20
4.64166
 30
0.0
 11
-4.66359
 21
4.66216
 31
0.0
  0
LINE
  5
279
  8
0
 10
-4.66359
 20
4.66216
 30
0.0
 11
-4.66216
 21
4.66359
 31
0.0
  0
LINE
  5
27A
  8
0
 10
-4.66216
 20
4.66359
 30
0.0
 11
-4.64166
 21
4.68343
 31
0.0
  0
LINE
  5
27B
  8
0
 10
-4.64166
 20
4.68343
 30
0.0
 11
-4.64018
 21
4.68481
 31
0.0
  0
LINE
  5
27C
  8
0
 10
-4.64018
 20
4.68481
 30
0.0
 11
-4.61902
 21
4.70401
 31
0.0
  0
LINE
  5
27D
  8
0
 10
-4.61902
 20
4.70401
 30
0.0
 11
-4.61748
 21
4.70535
 31
0.0
  0
LINE
  5
27E
  8
0
 10
-4.61748
 20
4.70535
 30
0.0
 11
-4.59541
 21
4.72409
 31
0.0
  0
LINE
  5
27F
  8
0
 10
-4.59541
 20
4.72409
 30
0.0
 11
-4.59378
 21
4.72543
 31
0.0
  0
LINE
  5
280
  8
0
 10
-4.59378
 20
4.72543
 30
0.0
 11
-4.57118
 21
4.74335
 31
0.0
  0
LINE
  5
281
  8
0
 10
-4.57118
 20
4.74335
 30
0.0
 11
-4.56961
 21
4.74455
 31
0.0
  0
LINE
  5
282
  8
0
 10
-4.56961
 20
4.74455
 30
0.0
 11
-4.54524
 21
4.7626
 31
0.0
  0
LINE
  5
283
  8
0
 10
-4.54524
 20
4.7626
 30
0.0
 11
-4.52168
 21
4.77892
 31
0.0
  0
LINE
  5
284
  8
0
 10
-4.52168
 20
4.77892
 30
0.0
 11
-4.51996
 21
4.78006
 31
0.0
  0
LINE
  5
285
  8
0
 10
-4.51996
 20
4.78006
 30
0.0
 11
-4.49579
 21
4.79564
 31
0.0
  0
LINE
  5
286
  8
0
 10
-4.49579
 20
4.79564
 30
0.0
 11
-4.49405
 21
4.79672
 31
0.0
  0
LINE
  5
287
  8
0
 10
-4.49405
 20
4.79672
 30
0.0
 11
-4.4697
 21
4.81131
 31
0.0
  0
LINE
  5
288
  8
0
 10
-4.4697
 20
4.81131
 30
0.0
 11
-4.46796
 21
4.81232
 31
0.0
  0
LINE
  5
289
  8
0
 10
-4.46796
 20
4.81232
 30
0.0
 11
-4.44258
 21
4.82643
 31
0.0
  0
LINE
  5
28A
  8
0
 10
-4.44258
 20
4.82643
 30
0.0
 11
-4.44075
 21
4.82741
 31
0.0
  0
LINE
  5
28B
  8
0
 10
-4.44075
 20
4.82741
 30
0.0
 11
-4.41594
 21
4.84015
 31
0.0
  0
LINE
  5
28C
  8
0
 10
-4.41594
 20
4.84015
 30
0.0
 11
-4.41412
 21
4.84103
 31
0.0
  0
LINE
  5
28D
  8
0
 10
-4.41412
 20
4.84103
 30
0.0
 11
-4.38788
 21
4.85345
 31
0.0
  0
LINE
  5
28E
  8
0
 10
-4.38788
 20
4.85345
 30
0.0
 11
-4.386
 21
4.85431
 31
0.0
  0
LINE
  5
28F
  8
0
 10
-4.386
 20
4.85431
 30
0.0
 11
-4.35934
 21
4.86586
 31
0.0
  0
LINE
  5
290
  8
0
 10
-4.35934
 20
4.86586
 30
0.0
 11
-4.35747
 21
4.86664
 31
0.0
  0
LINE
  5
291
  8
0
 10
-4.35747
 20
4.86664
 30
0.0
 11
-4.33099
 21
4.87711
 31
0.0
  0
LINE
  5
292
  8
0
 10
-4.33099
 20
4.87711
 30
0.0
 11
-4.32909
 21
4.87782
 31
0.0
  0
LINE
  5
293
  8
0
 10
-4.32909
 20
4.87782
 30
0.0
 11
-4.30275
 21
4.88725
 31
0.0
  0
LINE
  5
294
  8
0
 10
-4.30275
 20
4.88725
 30
0.0
 11
-4.3008
 21
4.88792
 31
0.0
  0
LINE
  5
295
  8
0
 10
-4.3008
 20
4.88792
 30
0.0
 11
-4.27296
 21
4.89687
 31
0.0
  0
LINE
  5
296
  8
0
 10
-4.27296
 20
4.89687
 30
0.0
 11
-4.27098
 21
4.89746
 31
0.0
  0
LINE
  5
297
  8
0
 10
-4.27098
 20
4.89746
 30
0.0
 11
-4.24394
 21
4.90517
 31
0.0
  0
LINE
  5
298
  8
0
 10
-4.24394
 20
4.90517
 30
0.0
 11
-4.24203
 21
4.90569
 31
0.0
  0
LINE
  5
299
  8
0
 10
-4.24203
 20
4.90569
 30
0.0
 11
-4.21379
 21
4.91278
 31
0.0
  0
LINE
  5
29A
  8
0
 10
-4.21379
 20
4.91278
 30
0.0
 11
-4.21172
 21
4.91325
 31
0.0
  0
LINE
  5
29B
  8
0
 10
-4.21172
 20
4.91325
 30
0.0
 11
-4.18393
 21
4.91924
 31
0.0
  0
LINE
  5
29C
  8
0
 10
-4.18393
 20
4.91924
 30
0.0
 11
-4.18198
 21
4.91963
 31
0.0
  0
LINE
  5
29D
  8
0
 10
-4.18198
 20
4.91963
 30
0.0
 11
-4.15358
 21
4.9248
 31
0.0
  0
LINE
  5
29E
  8
0
 10
-4.15358
 20
4.9248
 30
0.0
 11
-4.12325
 21
4.92934
 31
0.0
  0
LINE
  5
29F
  8
0
 10
-4.12325
 20
4.92934
 30
0.0
 11
-4.12119
 21
4.92961
 31
0.0
  0
LINE
  5
2A0
  8
0
 10
-4.12119
 20
4.92961
 30
0.0
 11
-4.09276
 21
4.93288
 31
0.0
  0
LINE
  5
2A1
  8
0
 10
-4.09276
 20
4.93288
 30
0.0
 11
-4.09073
 21
4.93307
 31
0.0
  0
LINE
  5
2A2
  8
0
 10
-4.09073
 20
4.93307
 30
0.0
 11
-4.06255
 21
4.93538
 31
0.0
  0
LINE
  5
2A3
  8
0
 10
-4.06255
 20
4.93538
 30
0.0
 11
-4.06049
 21
4.93552
 31
0.0
  0
LINE
  5
2A4
  8
0
 10
-4.06049
 20
4.93552
 30
0.0
 11
-4.03133
 21
4.93694
 31
0.0
  0
LINE
  5
2A5
  8
0
 10
-4.03133
 20
4.93694
 30
0.0
 11
-4.02936
 21
4.937
 31
0.0
  0
LINE
  5
2A6
  8
0
 10
-4.02936
 20
4.937
 30
0.0
 11
-3.99971
 21
4.9375
 31
0.0
  0
LINE
  5
2A7
  8
0
 10
-3.99971
 20
4.9375
 30
0.0
 11
-0.999222
 21
4.93748
 31
0.0
  0
LINE
  5
2A8
  8
0
 10
-0.999222
 20
4.93748
 30
0.0
 11
-0.970627
 21
4.937
 31
0.0
  0
LINE
  5
2A9
  8
0
 10
-0.970627
 20
4.937
 30
0.0
 11
-0.968658
 21
4.93694
 31
0.0
  0
LINE
  5
2AA
  8
0
 10
-0.968658
 20
4.93694
 30
0.0
 11
-0.939499
 21
4.93552
 31
0.0
  0
LINE
  5
2AB
  8
0
 10
-0.939499
 20
4.93552
 30
0.0
 11
-0.937439
 21
4.93538
 31
0.0
  0
LINE
  5
2AC
  8
0
 10
-0.937439
 20
4.93538
 30
0.0
 11
-0.909256
 21
4.93307
 31
0.0
  0
LINE
  5
2AD
  8
0
 10
-0.909256
 20
4.93307
 30
0.0
 11
-0.907227
 21
4.93288
 31
0.0
  0
LINE
  5
2AE
  8
0
 10
-0.907227
 20
4.93288
 30
0.0
 11
-0.878799
 21
4.92961
 31
0.0
  0
LINE
  5
2AF
  8
0
 10
-0.878799
 20
4.92961
 30
0.0
 11
-0.87674
 21
4.92934
 31
0.0
  0
LINE
  5
2B0
  8
0
 10
-0.87674
 20
4.92934
 30
0.0
 11
-0.846405
 21
4.9248
 31
0.0
  0
LINE
  5
2B1
  8
0
 10
-0.846405
 20
4.9248
 30
0.0
 11
-0.818008
 21
4.91963
 31
0.0
  0
LINE
  5
2B2
  8
0
 10
-0.818008
 20
4.91963
 30
0.0
 11
-0.816055
 21
4.91924
 31
0.0
  0
LINE
  5
2B3
  8
0
 10
-0.816055
 20
4.91924
 30
0.0
 11
-0.788269
 21
4.91325
 31
0.0
  0
LINE
  5
2B4
  8
0
 10
-0.788269
 20
4.91325
 30
0.0
 11
-0.786194
 21
4.91278
 31
0.0
  0
LINE
  5
2B5
  8
0
 10
-0.786194
 20
4.91278
 30
0.0
 11
-0.75795
 21
4.90569
 31
0.0
  0
LINE
  5
2B6
  8
0
 10
-0.75795
 20
4.90569
 30
0.0
 11
-0.756042
 21
4.90517
 31
0.0
  0
LINE
  5
2B7
  8
0
 10
-0.756042
 20
4.90517
 30
0.0
 11
-0.729004
 21
4.89746
 31
0.0
  0
LINE
  5
2B8
  8
0
 10
-0.729004
 20
4.89746
 30
0.0
 11
-0.72702
 21
4.89687
 31
0.0
  0
LINE
  5
2B9
  8
0
 10
-0.72702
 20
4.89687
 30
0.0
 11
-0.699188
 21
4.88792
 31
0.0
  0
LINE
  5
2BA
  8
0
 10
-0.699188
 20
4.88792
 30
0.0
 11
-0.697235
 21
4.88725
 31
0.0
  0
LINE
  5
2BB
  8
0
 10
-0.697235
 20
4.88725
 30
0.0
 11
-0.670898
 21
4.87782
 31
0.0
  0
LINE
  5
2BC
  8
0
 10
-0.670898
 20
4.87782
 30
0.0
 11
-0.668991
 21
4.87711
 31
0.0
  0
LINE
  5
2BD
  8
0
 10
-0.668991
 20
4.87711
 30
0.0
 11
-0.642517
 21
4.86664
 31
0.0
  0
LINE
  5
2BE
  8
0
 10
-0.642517
 20
4.86664
 30
0.0
 11
-0.64064
 21
4.86586
 31
0.0
  0
LINE
  5
2BF
  8
0
 10
-0.64064
 20
4.86586
 30
0.0
 11
-0.613983
 21
4.85431
 31
0.0
  0
LINE
  5
2C0
  8
0
 10
-0.613983
 20
4.85431
 30
0.0
 11
-0.612106
 21
4.85345
 31
0.0
  0
LINE
  5
2C1
  8
0
 10
-0.612106
 20
4.85345
 30
0.0
 11
-0.58606
 21
4.84113
 31
0.0
  0
LINE
  5
2C2
  8
0
 10
-0.58606
 20
4.84113
 30
0.0
 11
-0.584229
 21
4.84023
 31
0.0
  0
LINE
  5
2C3
  8
0
 10
-0.584229
 20
4.84023
 30
0.0
 11
-0.559052
 21
4.82729
 31
0.0
  0
LINE
  5
2C4
  8
0
 10
-0.559052
 20
4.82729
 30
0.0
 11
-0.557251
 21
4.82632
 31
0.0
  0
LINE
  5
2C5
  8
0
 10
-0.557251
 20
4.82632
 30
0.0
 11
-0.532196
 21
4.81239
 31
0.0
  0
LINE
  5
2C6
  8
0
 10
-0.532196
 20
4.81239
 30
0.0
 11
-0.530472
 21
4.8114
 31
0.0
  0
LINE
  5
2C7
  8
0
 10
-0.530472
 20
4.8114
 30
0.0
 11
-0.505814
 21
4.79665
 31
0.0
  0
LINE
  5
2C8
  8
0
 10
-0.505814
 20
4.79665
 30
0.0
 11
-0.504028
 21
4.79553
 31
0.0
  0
LINE
  5
2C9
  8
0
 10
-0.504028
 20
4.79553
 30
0.0
 11
-0.478302
 21
4.77892
 31
0.0
  0
LINE
  5
2CA
  8
0
 10
-0.478302
 20
4.77892
 30
0.0
 11
-0.454742
 21
4.7626
 31
0.0
  0
LINE
  5
2CB
  8
0
 10
-0.454742
 20
4.7626
 30
0.0
 11
-0.430374
 21
4.74455
 31
0.0
  0
LINE
  5
2CC
  8
0
 10
-0.430374
 20
4.74455
 30
0.0
 11
-0.428802
 21
4.74335
 31
0.0
  0
LINE
  5
2CD
  8
0
 10
-0.428802
 20
4.74335
 30
0.0
 11
-0.406204
 21
4.72543
 31
0.0
  0
LINE
  5
2CE
  8
0
 10
-0.406204
 20
4.72543
 30
0.0
 11
-0.404572
 21
4.72409
 31
0.0
  0
LINE
  5
2CF
  8
0
 10
-0.404572
 20
4.72409
 30
0.0
 11
-0.382507
 21
4.70535
 31
0.0
  0
LINE
  5
2D0
  8
0
 10
-0.382507
 20
4.70535
 30
0.0
 11
-0.380966
 21
4.70401
 31
0.0
  0
LINE
  5
2D1
  8
0
 10
-0.380966
 20
4.70401
 30
0.0
 11
-0.359802
 21
4.68481
 31
0.0
  0
LINE
  5
2D2
  8
0
 10
-0.359802
 20
4.68481
 30
0.0
 11
-0.358322
 21
4.68343
 31
0.0
  0
LINE
  5
2D3
  8
0
 10
-0.358322
 20
4.68343
 30
0.0
 11
-0.33783
 21
4.66359
 31
0.0
  0
LINE
  5
2D4
  8
0
 10
-0.33783
 20
4.66359
 30
0.0
 11
-0.336395
 21
4.66216
 31
0.0
  0
LINE
  5
2D5
  8
0
 10
-0.336395
 20
4.66216
 30
0.0
 11
-0.316559
 21
4.64166
 31
0.0
  0
LINE
  5
2D6
  8
0
 10
-0.316559
 20
4.64166
 30
0.0
 11
-0.31517
 21
4.64018
 31
0.0
  0
LINE
  5
2D7
  8
0
 10
-0.31517
 20
4.64018
 30
0.0
 11
-0.295975
 21
4.61902
 31
0.0
  0
LINE
  5
2D8
  8
0
 10
-0.295975
 20
4.61902
 30
0.0
 11
-0.294632
 21
4.61748
 31
0.0
  0
LINE
  5
2D9
  8
0
 10
-0.294632
 20
4.61748
 30
0.0
 11
-0.275894
 21
4.59541
 31
0.0
  0
LINE
  5
2DA
  8
0
 10
-0.275894
 20
4.59541
 30
0.0
 11
-0.274551
 21
4.59378
 31
0.0
  0
LINE
  5
2DB
  8
0
 10
-0.274551
 20
4.59378
 30
0.0
 11
-0.256638
 21
4.57118
 31
0.0
  0
LINE
  5
2DC
  8
0
 10
-0.256638
 20
4.57118
 30
0.0
 11
-0.255432
 21
4.56961
 31
0.0
  0
LINE
  5
2DD
  8
0
 10
-0.255432
 20
4.56961
 30
0.0
 11
-0.237381
 21
4.54524
 31
0.0
  0
LINE
  5
2DE
  8
0
 10
-0.237381
 20
4.54524
 30
0.0
 11
-0.221069
 21
4.52168
 31
0.0
  0
LINE
  5
2DF
  8
0
 10
-0.221069
 20
4.52168
 30
0.0
 11
-0.219925
 21
4.51996
 31
0.0
  0
LINE
  5
2E0
  8
0
 10
-0.219925
 20
4.51996
 30
0.0
 11
-0.204346
 21
4.49579
 31
0.0
  0
LINE
  5
2E1
  8
0
 10
-0.204346
 20
4.49579
 30
0.0
 11
-0.188675
 21
4.46968
 31
0.0
  0
LINE
  5
2E2
  8
0
 10
-0.188675
 20
4.46968
 30
0.0
 11
-0.187653
 21
4.46793
 31
0.0
  0
LINE
  5
2E3
  8
0
 10
-0.187653
 20
4.46793
 30
0.0
 11
-0.173553
 21
4.44257
 31
0.0
  0
LINE
  5
2E4
  8
0
 10
-0.173553
 20
4.44257
 30
0.0
 11
-0.172577
 21
4.44075
 31
0.0
  0
LINE
  5
2E5
  8
0
 10
-0.172577
 20
4.44075
 30
0.0
 11
-0.159836
 21
4.41594
 31
0.0
  0
LINE
  5
2E6
  8
0
 10
-0.159836
 20
4.41594
 30
0.0
 11
-0.158951
 21
4.41412
 31
0.0
  0
LINE
  5
2E7
  8
0
 10
-0.158951
 20
4.41412
 30
0.0
 11
-0.14653
 21
4.38788
 31
0.0
  0
LINE
  5
2E8
  8
0
 10
-0.14653
 20
4.38788
 30
0.0
 11
-0.145676
 21
4.386
 31
0.0
  0
LINE
  5
2E9
  8
0
 10
-0.145676
 20
4.386
 30
0.0
 11
-0.134125
 21
4.35934
 31
0.0
  0
LINE
  5
2EA
  8
0
 10
-0.134125
 20
4.35934
 30
0.0
 11
-0.133347
 21
4.35747
 31
0.0
  0
LINE
  5
2EB
  8
0
 10
-0.133347
 20
4.35747
 30
0.0
 11
-0.122879
 21
4.33099
 31
0.0
  0
LINE
  5
2EC
  8
0
 10
-0.122879
 20
4.33099
 30
0.0
 11
-0.122162
 21
4.32909
 31
0.0
  0
LINE
  5
2ED
  8
0
 10
-0.122162
 20
4.32909
 30
0.0
 11
-0.112732
 21
4.30275
 31
0.0
  0
LINE
  5
2EE
  8
0
 10
-0.112732
 20
4.30275
 30
0.0
 11
-0.112061
 21
4.3008
 31
0.0
  0
LINE
  5
2EF
  8
0
 10
-0.112061
 20
4.3008
 30
0.0
 11
-0.103119
 21
4.27296
 31
0.0
  0
LINE
  5
2F0
  8
0
 10
-0.103119
 20
4.27296
 30
0.0
 11
-0.102524
 21
4.27098
 31
0.0
  0
LINE
  5
2F1
  8
0
 10
-0.102524
 20
4.27098
 30
0.0
 11
-0.0948181
 21
4.24394
 31
0.0
  0
LINE
  5
2F2
  8
0
 10
-0.0948181
 20
4.24394
 30
0.0
 11
-0.0942993
 21
4.24203
 31
0.0
  0
LINE
  5
2F3
  8
0
 10
-0.0942993
 20
4.24203
 30
0.0
 11
-0.087204
 21
4.21379
 31
0.0
  0
LINE
  5
2F4
  8
0
 10
-0.087204
 20
4.21379
 30
0.0
 11
-0.086731
 21
4.21172
 31
0.0
  0
LINE
  5
2F5
  8
0
 10
-0.086731
 20
4.21172
 30
0.0
 11
-0.0807495
 21
4.18393
 31
0.0
  0
LINE
  5
2F6
  8
0
 10
-0.0807495
 20
4.18393
 30
0.0
 11
-0.0803528
 21
4.18198
 31
0.0
  0
LINE
  5
2F7
  8
0
 10
-0.0803528
 20
4.18198
 30
0.0
 11
-0.0751801
 21
4.15358
 31
0.0
  0
LINE
  5
2F8
  8
0
 10
-0.0751801
 20
4.15358
 30
0.0
 11
-0.0706482
 21
4.12325
 31
0.0
  0
LINE
  5
2F9
  8
0
 10
-0.0706482
 20
4.12325
 30
0.0
 11
-0.0703735
 21
4.12119
 31
0.0
  0
LINE
  5
2FA
  8
0
 10
-0.0703735
 20
4.12119
 30
0.0
 11
-0.0671082
 21
4.09273
 31
0.0
  0
LINE
  5
2FB
  8
0
 10
-0.0671082
 20
4.09273
 30
0.0
 11
-0.0669098
 21
4.0907
 31
0.0
  0
LINE
  5
2FC
  8
0
 10
-0.0669098
 20
4.0907
 30
0.0
 11
-0.0646057
 21
4.06255
 31
0.0
  0
LINE
  5
2FD
  8
0
 10
-0.0646057
 20
4.06255
 30
0.0
 11
-0.0644684
 21
4.06049
 31
0.0
  0
LINE
  5
2FE
  8
0
 10
-0.0644684
 20
4.06049
 30
0.0
 11
-0.0630493
 21
4.03133
 31
0.0
  0
LINE
  5
2FF
  8
0
 10
-0.0630493
 20
4.03133
 30
0.0
 11
-0.0629883
 21
4.02933
 31
0.0
  0
LINE
  5
300
  8
0
 10
-0.0629883
 20
4.02933
 30
0.0
 11
-0.0625
 21
4.0
 31
0.0
  0
LINE
  5
301
  8
0
 10
-0.0625
 20
4.0
 30
0.0
 11
-0.0625153
 21
0.998962
 31
0.0
  0
LINE
  5
302
  8
0
 10
-0.0625153
 20
0.998962
 30
0.0
 11
-0.0629883
 21
0.970657
 31
0.0
  0
LINE
  5
303
  8
0
 10
-0.0629883
 20
0.970657
 30
0.0
 11
-0.0630493
 21
0.968658
 31
0.0
  0
LINE
  5
304
  8
0
 10
-0.0630493
 20
0.968658
 30
0.0
 11
-0.0644684
 21
0.939499
 31
0.0
  0
LINE
  5
305
  8
0
 10
-0.0644684
 20
0.939499
 30
0.0
 11
-0.0646057
 21
0.937439
 31
0.0
  0
LINE
  5
306
  8
0
 10
-0.0646057
 20
0.937439
 30
0.0
 11
-0.0669098
 21
0.909256
 31
0.0
  0
LINE
  5
307
  8
0
 10
-0.0669098
 20
0.909256
 30
0.0
 11
-0.0671082
 21
0.907227
 31
0.0
  0
LINE
  5
308
  8
0
 10
-0.0671082
 20
0.907227
 30
0.0
 11
-0.0703735
 21
0.878799
 31
0.0
  0
LINE
  5
309
  8
0
 10
-0.0703735
 20
0.878799
 30
0.0
 11
-0.0706482
 21
0.87674
 31
0.0
  0
LINE
  5
30A
  8
0
 10
-0.0706482
 20
0.87674
 30
0.0
 11
-0.0751801
 21
0.846405
 31
0.0
  0
LINE
  5
30B
  8
0
 10
-0.0751801
 20
0.846405
 30
0.0
 11
-0.0803528
 21
0.818008
 31
0.0
  0
LINE
  5
30C
  8
0
 10
-0.0803528
 20
0.818008
 30
0.0
 11
-0.0807495
 21
0.816055
 31
0.0
  0
LINE
  5
30D
  8
0
 10
-0.0807495
 20
0.816055
 30
0.0
 11
-0.086731
 21
0.788269
 31
0.0
  0
LINE
  5
30E
  8
0
 10
-0.086731
 20
0.788269
 30
0.0
 11
-0.087204
 21
0.786194
 31
0.0
  0
LINE
  5
30F
  8
0
 10
-0.087204
 20
0.786194
 30
0.0
 11
-0.0942993
 21
0.75795
 31
0.0
  0
LINE
  5
310
  8
0
 10
-0.0942993
 20
0.75795
 30
0.0
 11
-0.0948181
 21
0.756042
 31
0.0
  0
LINE
  5
311
  8
0
 10
-0.0948181
 20
0.756042
 30
0.0
 11
-0.102524
 21
0.729004
 31
0.0
  0
LINE
  5
312
  8
0
 10
-0.102524
 20
0.729004
 30
0.0
 11
-0.103119
 21
0.72702
 31
0.0
  0
LINE
  5
313
  8
0
 10
-0.103119
 20
0.72702
 30
0.0
 11
-0.112061
 21
0.699188
 31
0.0
  0
LINE
  5
314
  8
0
 10
-0.112061
 20
0.699188
 30
0.0
 11
-0.112732
 21
0.697235
 31
0.0
  0
LINE
  5
315
  8
0
 10
-0.112732
 20
0.697235
 30
0.0
 11
-0.122162
 21
0.670898
 31
0.0
  0
LINE
  5
316
  8
0
 10
-0.122162
 20
0.670898
 30
0.0
 11
-0.122879
 21
0.668991
 31
0.0
  0
LINE
  5
317
  8
0
 10
-0.122879
 20
0.668991
 30
0.0
 11
-0.133347
 21
0.642517
 31
0.0
  0
LINE
  5
318
  8
0
 10
-0.133347
 20
0.642517
 30
0.0
 11
-0.134125
 21
0.64064
 31
0.0
  0
LINE
  5
319
  8
0
 10
-0.134125
 20
0.64064
 30
0.0
 11
-0.145676
 21
0.613983
 31
0.0
  0
LINE
  5
31A
  8
0
 10
-0.145676
 20
0.613983
 30
0.0
 11
-0.14653
 21
0.612106
 31
0.0
  0
LINE
  5
31B
  8
0
 10
-0.14653
 20
0.612106
 30
0.0
 11
-0.158859
 21
0.58606
 31
0.0
  0
LINE
  5
31C
  8
0
 10
-0.158859
 20
0.58606
 30
0.0
 11
-0.15976
 21
0.584229
 31
0.0
  0
LINE
  5
31D
  8
0
 10
-0.15976
 20
0.584229
 30
0.0
 11
-0.172699
 21
0.559052
 31
0.0
  0
LINE
  5
31E
  8
0
 10
-0.172699
 20
0.559052
 30
0.0
 11
-0.17366
 21
0.557251
 31
0.0
  0
LINE
  5
31F
  8
0
 10
-0.17366
 20
0.557251
 30
0.0
 11
-0.187668
 21
0.532059
 31
0.0
  0
LINE
  5
320
  8
0
 10
-0.187668
 20
0.532059
 30
0.0
 11
-0.188675
 21
0.530319
 31
0.0
  0
LINE
  5
321
  8
0
 10
-0.188675
 20
0.530319
 30
0.0
 11
-0.203354
 21
0.505798
 31
0.0
  0
LINE
  5
322
  8
0
 10
-0.203354
 20
0.505798
 30
0.0
 11
-0.204453
 21
0.504028
 31
0.0
  0
LINE
  5
323
  8
0
 10
-0.204453
 20
0.504028
 30
0.0
 11
-0.221069
 21
0.478302
 31
0.0
  0
LINE
  5
324
  8
0
 10
-0.221069
 20
0.478302
 30
0.0
 11
-0.237381
 21
0.454742
 31
0.0
  0
LINE
  5
325
  8
0
 10
-0.237381
 20
0.454742
 30
0.0
 11
-0.255432
 21
0.430374
 31
0.0
  0
LINE
  5
326
  8
0
 10
-0.255432
 20
0.430374
 30
0.0
 11
-0.256638
 21
0.428802
 31
0.0
  0
LINE
  5
327
  8
0
 10
-0.256638
 20
0.428802
 30
0.0
 11
-0.274551
 21
0.406204
 31
0.0
  0
LINE
  5
328
  8
0
 10
-0.274551
 20
0.406204
 30
0.0
 11
-0.275894
 21
0.404572
 31
0.0
  0
LINE
  5
329
  8
0
 10
-0.275894
 20
0.404572
 30
0.0
 11
-0.294632
 21
0.382507
 31
0.0
  0
LINE
  5
32A
  8
0
 10
-0.294632
 20
0.382507
 30
0.0
 11
-0.295975
 21
0.380966
 31
0.0
  0
LINE
  5
32B
  8
0
 10
-0.295975
 20
0.380966
 30
0.0
 11
-0.31517
 21
0.359802
 31
0.0
  0
LINE
  5
32C
  8
0
 10
-0.31517
 20
0.359802
 30
0.0
 11
-0.316559
 21
0.358322
 31
0.0
  0
LINE
  5
32D
  8
0
 10
-0.316559
 20
0.358322
 30
0.0
 11
-0.336395
 21
0.33783
 31
0.0
  0
LINE
  5
32E
  8
0
 10
-0.336395
 20
0.33783
 30
0.0
 11
-0.33783
 21
0.336395
 31
0.0
  0
LINE
  5
32F
  8
0
 10
-0.33783
 20
0.336395
 30
0.0
 11
-0.358322
 21
0.316559
 31
0.0
  0
LINE
  5
330
  8
0
 10
-0.358322
 20
0.316559
 30
0.0
 11
-0.359802
 21
0.31517
 31
0.0
  0
LINE
  5
331
  8
0
 10
-0.359802
 20
0.31517
 30
0.0
 11
-0.380966
 21
0.295975
 31
0.0
  0
LINE
  5
332
  8
0
 10
-0.380966
 20
0.295975
 30
0.0
 11
-0.382507
 21
0.294632
 31
0.0
  0
LINE
  5
333
  8
0
 10
-0.382507
 20
0.294632
 30
0.0
 11
-0.404572
 21
0.275894
 31
0.0
  0
LINE
  5
334
  8
0
 10
-0.404572
 20
0.275894
 30
0.0
 11
-0.406204
 21
0.274551
 31
0.0
  0
LINE
  5
335
  8
0
 10
-0.406204
 20
0.274551
 30
0.0
 11
-0.428802
 21
0.256638
 31
0.0
  0
LINE
  5
336
  8
0
 10
-0.428802
 20
0.256638
 30
0.0
 11
-0.430374
 21
0.255432
 31
0.0
  0
LINE
  5
337
  8
0
 10
-0.430374
 20
0.255432
 30
0.0
 11
-0.454742
 21
0.237381
 31
0.0
  0
LINE
  5
338
  8
0
 10
-0.454742
 20
0.237381
 30
0.0
 11
-0.478302
 21
0.221069
 31
0.0
  0
LINE
  5
339
  8
0
 10
-0.478302
 20
0.221069
 30
0.0
 11
-0.504028
 21
0.204453
 31
0.0
  0
LINE
  5
33A
  8
0
 10
-0.504028
 20
0.204453
 30
0.0
 11
-0.505814
 21
0.203339
 31
0.0
  0
LINE
  5
33B
  8
0
 10
-0.505814
 20
0.203339
 30
0.0
 11
-0.530472
 21
0.188583
 31
0.0
  0
LINE
  5
33C
  8
0
 10
-0.530472
 20
0.188583
 30
0.0
 11
-0.532196
 21
0.187592
 31
0.0
  0
LINE
  5
33D
  8
0
 10
-0.532196
 20
0.187592
 30
0.0
 11
-0.557251
 21
0.17366
 31
0.0
  0
LINE
  5
33E
  8
0
 10
-0.557251
 20
0.17366
 30
0.0
 11
-0.559052
 21
0.172699
 31
0.0
  0
LINE
  5
33F
  8
0
 10
-0.559052
 20
0.172699
 30
0.0
 11
-0.584229
 21
0.15976
 31
0.0
  0
LINE
  5
340
  8
0
 10
-0.584229
 20
0.15976
 30
0.0
 11
-0.58606
 21
0.158859
 31
0.0
  0
LINE
  5
341
  8
0
 10
-0.58606
 20
0.158859
 30
0.0
 11
-0.612106
 21
0.14653
 31
0.0
  0
LINE
  5
342
  8
0
 10
-0.612106
 20
0.14653
 30
0.0
 11
-0.613983
 21
0.145676
 31
0.0
  0
LINE
  5
343
  8
0
 10
-0.613983
 20
0.145676
 30
0.0
 11
-0.64064
 21
0.134125
 31
0.0
  0
LINE
  5
344
  8
0
 10
-0.64064
 20
0.134125
 30
0.0
 11
-0.642517
 21
0.133347
 31
0.0
  0
LINE
  5
345
  8
0
 10
-0.642517
 20
0.133347
 30
0.0
 11
-0.668991
 21
0.122879
 31
0.0
  0
LINE
  5
346
  8
0
 10
-0.668991
 20
0.122879
 30
0.0
 11
-0.670898
 21
0.122162
 31
0.0
  0
LINE
  5
347
  8
0
 10
-0.670898
 20
0.122162
 30
0.0
 11
-0.697235
 21
0.112732
 31
0.0
  0
LINE
  5
348
  8
0
 10
-0.697235
 20
0.112732
 30
0.0
 11
-0.699188
 21
0.112061
 31
0.0
  0
LINE
  5
349
  8
0
 10
-0.699188
 20
0.112061
 30
0.0
 11
-0.72702
 21
0.103119
 31
0.0
  0
LINE
  5
34A
  8
0
 10
-0.72702
 20
0.103119
 30
0.0
 11
-0.729004
 21
0.102524
 31
0.0
  0
LINE
  5
34B
  8
0
 10
-0.729004
 20
0.102524
 30
0.0
 11
-0.756042
 21
0.0948181
 31
0.0
  0
LINE
  5
34C
  8
0
 10
-0.756042
 20
0.0948181
 30
0.0
 11
-0.75795
 21
0.0942993
 31
0.0
  0
LINE
  5
34D
  8
0
 10
-0.75795
 20
0.0942993
 30
0.0
 11
-0.786194
 21
0.087204
 31
0.0
  0
LINE
  5
34E
  8
0
 10
-0.786194
 20
0.087204
 30
0.0
 11
-0.788269
 21
0.086731
 31
0.0
  0
LINE
  5
34F
  8
0
 10
-0.788269
 20
0.086731
 30
0.0
 11
-0.816055
 21
0.0807495
 31
0.0
  0
LINE
  5
350
  8
0
 10
-0.816055
 20
0.0807495
 30
0.0
 11
-0.818008
 21
0.0803528
 31
0.0
  0
LINE
  5
351
  8
0
 10
-0.818008
 20
0.0803528
 30
0.0
 11
-0.846405
 21
0.0751801
 31
0.0
  0
LINE
  5
352
  8
0
 10
-0.846405
 20
0.0751801
 30
0.0
 11
-0.87674
 21
0.0706482
 31
0.0
  0
LINE
  5
353
  8
0
 10
-0.87674
 20
0.0706482
 30
0.0
 11
-0.878799
 21
0.0703735
 31
0.0
  0
LINE
  5
354
  8
0
 10
-0.878799
 20
0.0703735
 30
0.0
 11
-0.907227
 21
0.0671082
 31
0.0
  0
LINE
  5
355
  8
0
 10
-0.907227
 20
0.0671082
 30
0.0
 11
-0.909256
 21
0.0669098
 31
0.0
  0
LINE
  5
356
  8
0
 10
-0.909256
 20
0.0669098
 30
0.0
 11
-0.937439
 21
0.0646057
 31
0.0
  0
LINE
  5
357
  8
0
 10
-0.937439
 20
0.0646057
 30
0.0
 11
-0.939499
 21
0.0644684
 31
0.0
  0
LINE
  5
358
  8
0
 10
-0.939499
 20
0.0644684
 30
0.0
 11
-0.968658
 21
0.0630493
 31
0.0
  0
LINE
  5
359
  8
0
 10
-0.968658
 20
0.0630493
 30
0.0
 11
-0.970657
 21
0.0629883
 31
0.0
  0
LINE
  5
35A
  8
0
 10
-0.970657
 20
0.0629883
 30
0.0
 11
-0.999146
 21
0.0625153
 31
0.0
  0
LINE
  5
35B
  8
0
 10
-0.999146
 20
0.0625153
 30
0.0
 11
-4.00085
 21
0.0625153
 31
0.0
  0
LINE
  5
35C
  8
0
 10
-3.9287
 20
0.442169
 30
0.0
 11
-3.92448
 21
0.442719
 31
0.0
  0
LINE
  5
35D
  8
0
 10
-3.92448
 20
0.442719
 30
0.0
 11
-3.85641
 21
0.456268
 31
0.0
  0
LINE
  5
35E
  8
0
 10
-3.85641
 20
0.456268
 30
0.0
 11
-3.85254
 21
0.457306
 31
0.0
  0
LINE
  5
35F
  8
0
 10
-3.85254
 20
0.457306
 30
0.0
 11
-3.78654
 21
0.479706
 31
0.0
  0
LINE
  5
360
  8
0
 10
-3.78654
 20
0.479706
 30
0.0
 11
-3.78297
 21
0.481186
 31
0.0
  0
LINE
  5
361
  8
0
 10
-3.78297
 20
0.481186
 30
0.0
 11
-3.72064
 21
0.511917
 31
0.0
  0
LINE
  5
362
  8
0
 10
-3.72064
 20
0.511917
 30
0.0
 11
-3.71698
 21
0.514023
 31
0.0
  0
LINE
  5
363
  8
0
 10
-3.71698
 20
0.514023
 30
0.0
 11
-3.65927
 21
0.552582
 31
0.0
  0
LINE
  5
364
  8
0
 10
-3.65927
 20
0.552582
 30
0.0
 11
-3.65602
 21
0.555084
 31
0.0
  0
LINE
  5
365
  8
0
 10
-3.65602
 20
0.555084
 30
0.0
 11
-3.60374
 21
0.600937
 31
0.0
  0
LINE
  5
366
  8
0
 10
-3.60374
 20
0.600937
 30
0.0
 11
-3.60094
 21
0.603745
 31
0.0
  0
LINE
  5
367
  8
0
 10
-3.60094
 20
0.603745
 30
0.0
 11
-3.55508
 21
0.656021
 31
0.0
  0
LINE
  5
368
  8
0
 10
-3.55508
 20
0.656021
 30
0.0
 11
-3.55258
 21
0.659271
 31
0.0
  0
LINE
  5
369
  8
0
 10
-3.55258
 20
0.659271
 30
0.0
 11
-3.51402
 21
0.71698
 31
0.0
  0
LINE
  5
36A
  8
0
 10
-3.51402
 20
0.71698
 30
0.0
 11
-3.51192
 21
0.720642
 31
0.0
  0
LINE
  5
36B
  8
0
 10
-3.51192
 20
0.720642
 30
0.0
 11
-3.48119
 21
0.782974
 31
0.0
  0
LINE
  5
36C
  8
0
 10
-3.48119
 20
0.782974
 30
0.0
 11
-3.47971
 21
0.786545
 31
0.0
  0
LINE
  5
36D
  8
0
 10
-3.47971
 20
0.786545
 30
0.0
 11
-3.45731
 21
0.852539
 31
0.0
  0
LINE
  5
36E
  8
0
 10
-3.45731
 20
0.852539
 30
0.0
 11
-3.45627
 21
0.856415
 31
0.0
  0
LINE
  5
36F
  8
0
 10
-3.45627
 20
0.856415
 30
0.0
 11
-3.44392
 21
0.918442
 31
0.0
  0
LINE
  5
370
  8
0
 10
-3.44392
 20
0.918442
 30
0.0
 11
-3.44182
 21
0.926346
 31
0.0
  0
LINE
  5
371
  8
0
 10
-3.44182
 20
0.926346
 30
0.0
 11
-3.43869
 21
0.933899
 31
0.0
  0
LINE
  5
372
  8
0
 10
-3.43869
 20
0.933899
 30
0.0
 11
-3.4346
 21
0.940979
 31
0.0
  0
LINE
  5
373
  8
0
 10
-3.4346
 20
0.940979
 30
0.0
 11
-3.42961
 21
0.947464
 31
0.0
  0
LINE
  5
374
  8
0
 10
-3.42961
 20
0.947464
 30
0.0
 11
-3.42384
 21
0.953247
 31
0.0
  0
LINE
  5
375
  8
0
 10
-3.42384
 20
0.953247
 30
0.0
 11
-3.41734
 21
0.958221
 31
0.0
  0
LINE
  5
376
  8
0
 10
-3.41734
 20
0.958221
 30
0.0
 11
-3.41026
 21
0.962311
 31
0.0
  0
LINE
  5
377
  8
0
 10
-3.41026
 20
0.962311
 30
0.0
 11
-3.40271
 21
0.965439
 31
0.0
  0
LINE
  5
378
  8
0
 10
-3.40271
 20
0.965439
 30
0.0
 11
-3.39482
 21
0.967545
 31
0.0
  0
LINE
  5
379
  8
0
 10
-3.39482
 20
0.967545
 30
0.0
 11
-3.38263
 21
0.96875
 31
0.0
  0
LINE
  5
37A
  8
0
 10
-3.38263
 20
0.96875
 30
0.0
 11
-1.61736
 21
0.96875
 31
0.0
  0
LINE
  5
37B
  8
0
 10
-1.61736
 20
0.96875
 30
0.0
 11
-1.60919
 21
0.968216
 31
0.0
  0
LINE
  5
37C
  8
0
 10
-1.60919
 20
0.968216
 30
0.0
 11
-1.60118
 21
0.966614
 31
0.0
  0
LINE
  5
37D
  8
0
 10
-1.60118
 20
0.966614
 30
0.0
 11
-1.59344
 21
0.963989
 31
0.0
  0
LINE
  5
37E
  8
0
 10
-1.59344
 20
0.963989
 30
0.0
 11
-1.58611
 21
0.960373
 31
0.0
  0
LINE
  5
37F
  8
0
 10
-1.58611
 20
0.960373
 30
0.0
 11
-1.57932
 21
0.955841
 31
0.0
  0
LINE
  5
380
  8
0
 10
-1.57932
 20
0.955841
 30
0.0
 11
-1.57317
 21
0.950439
 31
0.0
  0
LINE
  5
381
  8
0
 10
-1.57317
 20
0.950439
 30
0.0
 11
-1.56776
 21
0.94429
 31
0.0
  0
LINE
  5
382
  8
0
 10
-1.56776
 20
0.94429
 30
0.0
 11
-1.56323
 21
0.9375
 31
0.0
  0
LINE
  5
383
  8
0
 10
-1.56323
 20
0.9375
 30
0.0
 11
-1.55962
 21
0.930161
 31
0.0
  0
LINE
  5
384
  8
0
 10
-1.55962
 20
0.930161
 30
0.0
 11
-1.55606
 21
0.918442
 31
0.0
  0
LINE
  5
385
  8
0
 10
-1.55606
 20
0.918442
 30
0.0
 11
-1.54372
 21
0.856415
 31
0.0
  0
LINE
  5
386
  8
0
 10
-1.54372
 20
0.856415
 30
0.0
 11
-1.54268
 21
0.852539
 31
0.0
  0
LINE
  5
387
  8
0
 10
-1.54268
 20
0.852539
 30
0.0
 11
-1.52028
 21
0.786545
 31
0.0
  0
LINE
  5
388
  8
0
 10
-1.52028
 20
0.786545
 30
0.0
 11
-1.5188
 21
0.782974
 31
0.0
  0
LINE
  5
389
  8
0
 10
-1.5188
 20
0.782974
 30
0.0
 11
-1.48807
 21
0.720642
 31
0.0
  0
LINE
  5
38A
  8
0
 10
-1.48807
 20
0.720642
 30
0.0
 11
-1.48596
 21
0.71698
 31
0.0
  0
LINE
  5
38B
  8
0
 10
-1.48596
 20
0.71698
 30
0.0
 11
-1.4474
 21
0.659271
 31
0.0
  0
LINE
  5
38C
  8
0
 10
-1.4474
 20
0.659271
 30
0.0
 11
-1.4449
 21
0.656021
 31
0.0
  0
LINE
  5
38D
  8
0
 10
-1.4449
 20
0.656021
 30
0.0
 11
-1.39905
 21
0.603745
 31
0.0
  0
LINE
  5
38E
  8
0
 10
-1.39905
 20
0.603745
 30
0.0
 11
-1.39624
 21
0.600937
 31
0.0
  0
LINE
  5
38F
  8
0
 10
-1.39624
 20
0.600937
 30
0.0
 11
-1.34395
 21
0.555069
 31
0.0
  0
LINE
  5
390
  8
0
 10
-1.34395
 20
0.555069
 30
0.0
 11
-1.34079
 21
0.552643
 31
0.0
  0
LINE
  5
391
  8
0
 10
-1.34079
 20
0.552643
 30
0.0
 11
-1.28288
 21
0.513947
 31
0.0
  0
LINE
  5
392
  8
0
 10
-1.28288
 20
0.513947
 30
0.0
 11
-1.27945
 21
0.511963
 31
0.0
  0
LINE
  5
393
  8
0
 10
-1.27945
 20
0.511963
 30
0.0
 11
-1.21701
 21
0.481186
 31
0.0
  0
LINE
  5
394
  8
0
 10
-1.21701
 20
0.481186
 30
0.0
 11
-1.21344
 21
0.479706
 31
0.0
  0
LINE
  5
395
  8
0
 10
-1.21344
 20
0.479706
 30
0.0
 11
-1.14745
 21
0.457306
 31
0.0
  0
LINE
  5
396
  8
0
 10
-1.14745
 20
0.457306
 30
0.0
 11
-1.14357
 21
0.456268
 31
0.0
  0
LINE
  5
397
  8
0
 10
-1.14357
 20
0.456268
 30
0.0
 11
-1.0755
 21
0.442719
 31
0.0
  0
LINE
  5
398
  8
0
 10
-1.0755
 20
0.442719
 30
0.0
 11
-1.07129
 21
0.442169
 31
0.0
  0
LINE
  5
399
  8
0
 10
-1.07129
 20
0.442169
 30
0.0
 11
-1.00209
 21
0.437637
 31
0.0
  0
LINE
  5
39A
  8
0
 10
-1.00209
 20
0.437637
 30
0.0
 11
-0.99791
 21
0.437637
 31
0.0
  0
LINE
  5
39B
  8
0
 10
-0.99791
 20
0.437637
 30
0.0
 11
-0.928696
 21
0.442169
 31
0.0
  0
LINE
  5
39C
  8
0
 10
-0.928696
 20
0.442169
 30
0.0
 11
-0.924484
 21
0.442719
 31
0.0
  0
LINE
  5
39D
  8
0
 10
-0.924484
 20
0.442719
 30
0.0
 11
-0.856415
 21
0.456268
 31
0.0
  0
LINE
  5
39E
  8
0
 10
-0.856415
 20
0.456268
 30
0.0
 11
-0.852539
 21
0.457306
 31
0.0
  0
LINE
  5
39F
  8
0
 10
-0.852539
 20
0.457306
 30
0.0
 11
-0.786545
 21
0.479706
 31
0.0
  0
LINE
  5
3A0
  8
0
 10
-0.786545
 20
0.479706
 30
0.0
 11
-0.782974
 21
0.481186
 31
0.0
  0
LINE
  5
3A1
  8
0
 10
-0.782974
 20
0.481186
 30
0.0
 11
-0.720642
 21
0.511917
 31
0.0
  0
LINE
  5
3A2
  8
0
 10
-0.720642
 20
0.511917
 30
0.0
 11
-0.71698
 21
0.514023
 31
0.0
  0
LINE
  5
3A3
  8
0
 10
-0.71698
 20
0.514023
 30
0.0
 11
-0.659271
 21
0.552582
 31
0.0
  0
LINE
  5
3A4
  8
0
 10
-0.659271
 20
0.552582
 30
0.0
 11
-0.656021
 21
0.555084
 31
0.0
  0
LINE
  5
3A5
  8
0
 10
-0.656021
 20
0.555084
 30
0.0
 11
-0.603745
 21
0.600937
 31
0.0
  0
LINE
  5
3A6
  8
0
 10
-0.603745
 20
0.600937
 30
0.0
 11
-0.600937
 21
0.603745
 31
0.0
  0
LINE
  5
3A7
  8
0
 10
-0.600937
 20
0.603745
 30
0.0
 11
-0.555084
 21
0.656021
 31
0.0
  0
LINE
  5
3A8
  8
0
 10
-0.555084
 20
0.656021
 30
0.0
 11
-0.552582
 21
0.659271
 31
0.0
  0
LINE
  5
3A9
  8
0
 10
-0.552582
 20
0.659271
 30
0.0
 11
-0.514023
 21
0.71698
 31
0.0
  0
LINE
  5
3AA
  8
0
 10
-0.514023
 20
0.71698
 30
0.0
 11
-0.511917
 21
0.720642
 31
0.0
  0
LINE
  5
3AB
  8
0
 10
-0.511917
 20
0.720642
 30
0.0
 11
-0.481186
 21
0.782974
 31
0.0
  0
LINE
  5
3AC
  8
0
 10
-0.481186
 20
0.782974
 30
0.0
 11
-0.479706
 21
0.786545
 31
0.0
  0
LINE
  5
3AD
  8
0
 10
-0.479706
 20
0.786545
 30
0.0
 11
-0.457306
 21
0.852539
 31
0.0
  0
LINE
  5
3AE
  8
0
 10
-0.457306
 20
0.852539
 30
0.0
 11
-0.456268
 21
0.856415
 31
0.0
  0
LINE
  5
3AF
  8
0
 10
-0.456268
 20
0.856415
 30
0.0
 11
-0.442719
 21
0.924484
 31
0.0
  0
LINE
  5
3B0
  8
0
 10
-0.442719
 20
0.924484
 30
0.0
 11
-0.442169
 21
0.928696
 31
0.0
  0
LINE
  5
3B1
  8
0
 10
-0.442169
 20
0.928696
 30
0.0
 11
-0.437637
 21
0.99791
 31
0.0
  0
LINE
  5
3B2
  8
0
 10
-0.437637
 20
0.99791
 30
0.0
 11
-0.437637
 21
1.00209
 31
0.0
  0
LINE
  5
3B3
  8
0
 10
-0.437637
 20
1.00209
 30
0.0
 11
-0.442169
 21
1.07129
 31
0.0
  0
LINE
  5
3B4
  8
0
 10
-0.442169
 20
1.07129
 30
0.0
 11
-0.442719
 21
1.0755
 31
0.0
  0
LINE
  5
3B5
  8
0
 10
-0.442719
 20
1.0755
 30
0.0
 11
-0.456268
 21
1.14357
 31
0.0
  0
LINE
  5
3B6
  8
0
 10
-0.456268
 20
1.14357
 30
0.0
 11
-0.457306
 21
1.14745
 31
0.0
  0
LINE
  5
3B7
  8
0
 10
-0.457306
 20
1.14745
 30
0.0
 11
-0.479706
 21
1.21344
 31
0.0
  0
LINE
  5
3B8
  8
0
 10
-0.479706
 20
1.21344
 30
0.0
 11
-0.481186
 21
1.21701
 31
0.0
  0
LINE
  5
3B9
  8
0
 10
-0.481186
 20
1.21701
 30
0.0
 11
-0.511963
 21
1.27945
 31
0.0
  0
LINE
  5
3BA
  8
0
 10
-0.511963
 20
1.27945
 30
0.0
 11
-0.513947
 21
1.28288
 31
0.0
  0
LINE
  5
3BB
  8
0
 10
-0.513947
 20
1.28288
 30
0.0
 11
-0.552643
 21
1.34079
 31
0.0
  0
LINE
  5
3BC
  8
0
 10
-0.552643
 20
1.34079
 30
0.0
 11
-0.555069
 21
1.34395
 31
0.0
  0
LINE
  5
3BD
  8
0
 10
-0.555069
 20
1.34395
 30
0.0
 11
-0.600937
 21
1.39624
 31
0.0
  0
LINE
  5
3BE
  8
0
 10
-0.600937
 20
1.39624
 30
0.0
 11
-0.603745
 21
1.39905
 31
0.0
  0
LINE
  5
3BF
  8
0
 10
-0.603745
 20
1.39905
 30
0.0
 11
-0.656021
 21
1.4449
 31
0.0
  0
LINE
  5
3C0
  8
0
 10
-0.656021
 20
1.4449
 30
0.0
 11
-0.659271
 21
1.4474
 31
0.0
  0
LINE
  5
3C1
  8
0
 10
-0.659271
 20
1.4474
 30
0.0
 11
-0.71698
 21
1.48596
 31
0.0
  0
LINE
  5
3C2
  8
0
 10
-0.71698
 20
1.48596
 30
0.0
 11
-0.720642
 21
1.48807
 31
0.0
  0
LINE
  5
3C3
  8
0
 10
-0.720642
 20
1.48807
 30
0.0
 11
-0.782974
 21
1.5188
 31
0.0
  0
LINE
  5
3C4
  8
0
 10
-0.782974
 20
1.5188
 30
0.0
 11
-0.786545
 21
1.52028
 31
0.0
  0
LINE
  5
3C5
  8
0
 10
-0.786545
 20
1.52028
 30
0.0
 11
-0.852539
 21
1.54268
 31
0.0
  0
LINE
  5
3C6
  8
0
 10
-0.852539
 20
1.54268
 30
0.0
 11
-0.856415
 21
1.54372
 31
0.0
  0
LINE
  5
3C7
  8
0
 10
-0.856415
 20
1.54372
 30
0.0
 11
-0.918442
 21
1.55606
 31
0.0
  0
LINE
  5
3C8
  8
0
 10
-0.918442
 20
1.55606
 30
0.0
 11
-0.926346
 21
1.55817
 31
0.0
  0
LINE
  5
3C9
  8
0
 10
-0.926346
 20
1.55817
 30
0.0
 11
-0.933899
 21
1.56129
 31
0.0
  0
LINE
  5
3CA
  8
0
 10
-0.933899
 20
1.56129
 30
0.0
 11
-0.940979
 21
1.56538
 31
0.0
  0
LINE
  5
3CB
  8
0
 10
-0.940979
 20
1.56538
 30
0.0
 11
-0.947464
 21
1.57037
 31
0.0
  0
LINE
  5
3CC
  8
0
 10
-0.947464
 20
1.57037
 30
0.0
 11
-0.953247
 21
1.57614
 31
0.0
  0
LINE
  5
3CD
  8
0
 10
-0.953247
 20
1.57614
 30
0.0
 11
-0.958221
 21
1.58264
 31
0.0
  0
LINE
  5
3CE
  8
0
 10
-0.958221
 20
1.58264
 30
0.0
 11
-0.962311
 21
1.58972
 31
0.0
  0
LINE
  5
3CF
  8
0
 10
-0.962311
 20
1.58972
 30
0.0
 11
-0.965439
 21
1.59727
 31
0.0
  0
LINE
  5
3D0
  8
0
 10
-0.965439
 20
1.59727
 30
0.0
 11
-0.967545
 21
1.60516
 31
0.0
  0
LINE
  5
3D1
  8
0
 10
-0.967545
 20
1.60516
 30
0.0
 11
-0.96875
 21
1.61736
 31
0.0
  0
LINE
  5
3D2
  8
0
 10
-0.96875
 20
1.61736
 30
0.0
 11
-0.96875
 21
3.38263
 31
0.0
  0
LINE
  5
3D3
  8
0
 10
-0.96875
 20
3.38263
 30
0.0
 11
-0.968216
 21
3.39079
 31
0.0
  0
LINE
  5
3D4
  8
0
 10
-0.968216
 20
3.39079
 30
0.0
 11
-0.966614
 21
3.3988
 31
0.0
  0
LINE
  5
3D5
  8
0
 10
-0.966614
 20
3.3988
 30
0.0
 11
-0.963989
 21
3.40654
 31
0.0
  0
LINE
  5
3D6
  8
0
 10
-0.963989
 20
3.40654
 30
0.0
 11
-0.960373
 21
3.41388
 31
0.0
  0
LINE
  5
3D7
  8
0
 10
-0.960373
 20
3.41388
 30
0.0
 11
-0.955841
 21
3.42067
 31
0.0
  0
LINE
  5
3D8
  8
0
 10
-0.955841
 20
3.42067
 30
0.0
 11
-0.950439
 21
3.42682
 31
0.0
  0
LINE
  5
3D9
  8
0
 10
-0.950439
 20
3.42682
 30
0.0
 11
-0.94429
 21
3.43222
 31
0.0
  0
LINE
  5
3DA
  8
0
 10
-0.94429
 20
3.43222
 30
0.0
 11
-0.9375
 21
3.43675
 31
0.0
  0
LINE
  5
3DB
  8
0
 10
-0.9375
 20
3.43675
 30
0.0
 11
-0.930161
 21
3.44037
 31
0.0
  0
LINE
  5
3DC
  8
0
 10
-0.930161
 20
3.44037
 30
0.0
 11
-0.918442
 21
3.44392
 31
0.0
  0
LINE
  5
3DD
  8
0
 10
-0.918442
 20
3.44392
 30
0.0
 11
-0.856415
 21
3.45627
 31
0.0
  0
LINE
  5
3DE
  8
0
 10
-0.856415
 20
3.45627
 30
0.0
 11
-0.852539
 21
3.45731
 31
0.0
  0
LINE
  5
3DF
  8
0
 10
-0.852539
 20
3.45731
 30
0.0
 11
-0.786545
 21
3.47971
 31
0.0
  0
LINE
  5
3E0
  8
0
 10
-0.786545
 20
3.47971
 30
0.0
 11
-0.782974
 21
3.48119
 31
0.0
  0
LINE
  5
3E1
  8
0
 10
-0.782974
 20
3.48119
 30
0.0
 11
-0.720642
 21
3.51192
 31
0.0
  0
LINE
  5
3E2
  8
0
 10
-0.720642
 20
3.51192
 30
0.0
 11
-0.71698
 21
3.51402
 31
0.0
  0
LINE
  5
3E3
  8
0
 10
-0.71698
 20
3.51402
 30
0.0
 11
-0.659271
 21
3.55258
 31
0.0
  0
LINE
  5
3E4
  8
0
 10
-0.659271
 20
3.55258
 30
0.0
 11
-0.656021
 21
3.55508
 31
0.0
  0
LINE
  5
3E5
  8
0
 10
-0.656021
 20
3.55508
 30
0.0
 11
-0.603745
 21
3.60094
 31
0.0
  0
LINE
  5
3E6
  8
0
 10
-0.603745
 20
3.60094
 30
0.0
 11
-0.600937
 21
3.60374
 31
0.0
  0
LINE
  5
3E7
  8
0
 10
-0.600937
 20
3.60374
 30
0.0
 11
-0.555084
 21
3.65602
 31
0.0
  0
LINE
  5
3E8
  8
0
 10
-0.555084
 20
3.65602
 30
0.0
 11
-0.552582
 21
3.65927
 31
0.0
  0
LINE
  5
3E9
  8
0
 10
-0.552582
 20
3.65927
 30
0.0
 11
-0.514023
 21
3.71698
 31
0.0
  0
LINE
  5
3EA
  8
0
 10
-0.514023
 20
3.71698
 30
0.0
 11
-0.511917
 21
3.72064
 31
0.0
  0
LINE
  5
3EB
  8
0
 10
-0.511917
 20
3.72064
 30
0.0
 11
-0.481186
 21
3.78297
 31
0.0
  0
LINE
  5
3EC
  8
0
 10
-0.481186
 20
3.78297
 30
0.0
 11
-0.479706
 21
3.78654
 31
0.0
  0
LINE
  5
3ED
  8
0
 10
-0.479706
 20
3.78654
 30
0.0
 11
-0.457306
 21
3.85254
 31
0.0
  0
LINE
  5
3EE
  8
0
 10
-0.457306
 20
3.85254
 30
0.0
 11
-0.456268
 21
3.85641
 31
0.0
  0
LINE
  5
3EF
  8
0
 10
-0.456268
 20
3.85641
 30
0.0
 11
-0.442719
 21
3.92448
 31
0.0
  0
LINE
  5
3F0
  8
0
 10
-0.442719
 20
3.92448
 30
0.0
 11
-0.442169
 21
3.9287
 31
0.0
  0
LINE
  5
3F1
  8
0
 10
-0.442169
 20
3.9287
 30
0.0
 11
-0.437637
 21
3.99791
 31
0.0
  0
LINE
  5
3F2
  8
0
 10
-0.437637
 20
3.99791
 30
0.0
 11
-0.437637
 21
4.00209
 31
0.0
  0
LINE
  5
3F3
  8
0
 10
-0.437637
 20
4.00209
 30
0.0
 11
-0.442169
 21
4.07129
 31
0.0
  0
LINE
  5
3F4
  8
0
 10
-0.442169
 20
4.07129
 30
0.0
 11
-0.442719
 21
4.0755
 31
0.0
  0
LINE
  5
3F5
  8
0
 10
-0.442719
 20
4.0755
 30
0.0
 11
-0.456268
 21
4.14357
 31
0.0
  0
LINE
  5
3F6
  8
0
 10
-0.456268
 20
4.14357
 30
0.0
 11
-0.457306
 21
4.14745
 31
0.0
  0
LINE
  5
3F7
  8
0
 10
-0.457306
 20
4.14745
 30
0.0
 11
-0.479706
 21
4.21344
 31
0.0
  0
LINE
  5
3F8
  8
0
 10
-0.479706
 20
4.21344
 30
0.0
 11
-0.481186
 21
4.21701
 31
0.0
  0
LINE
  5
3F9
  8
0
 10
-0.481186
 20
4.21701
 30
0.0
 11
-0.511963
 21
4.27945
 31
0.0
  0
LINE
  5
3FA
  8
0
 10
-0.511963
 20
4.27945
 30
0.0
 11
-0.513947
 21
4.28288
 31
0.0
  0
LINE
  5
3FB
  8
0
 10
-0.513947
 20
4.28288
 30
0.0
 11
-0.552643
 21
4.34079
 31
0.0
  0
LINE
  5
3FC
  8
0
 10
-0.552643
 20
4.34079
 30
0.0
 11
-0.555069
 21
4.34395
 31
0.0
  0
LINE
  5
3FD
  8
0
 10
-0.555069
 20
4.34395
 30
0.0
 11
-0.600937
 21
4.39624
 31
0.0
  0
LINE
  5
3FE
  8
0
 10
-0.600937
 20
4.39624
 30
0.0
 11
-0.603745
 21
4.39905
 31
0.0
  0
LINE
  5
3FF
  8
0
 10
-0.603745
 20
4.39905
 30
0.0
 11
-0.656021
 21
4.4449
 31
0.0
  0
LINE
  5
400
  8
0
 10
-0.656021
 20
4.4449
 30
0.0
 11
-0.659271
 21
4.4474
 31
0.0
  0
LINE
  5
401
  8
0
 10
-0.659271
 20
4.4474
 30
0.0
 11
-0.71698
 21
4.48596
 31
0.0
  0
LINE
  5
402
  8
0
 10
-0.71698
 20
4.48596
 30
0.0
 11
-0.720642
 21
4.48807
 31
0.0
  0
LINE
  5
403
  8
0
 10
-0.720642
 20
4.48807
 30
0.0
 11
-0.782974
 21
4.5188
 31
0.0
  0
LINE
  5
404
  8
0
 10
-0.782974
 20
4.5188
 30
0.0
 11
-0.786545
 21
4.52028
 31
0.0
  0
LINE
  5
405
  8
0
 10
-0.786545
 20
4.52028
 30
0.0
 11
-0.852539
 21
4.54268
 31
0.0
  0
LINE
  5
406
  8
0
 10
-0.852539
 20
4.54268
 30
0.0
 11
-0.856415
 21
4.54372
 31
0.0
  0
LINE
  5
407
  8
0
 10
-0.856415
 20
4.54372
 30
0.0
 11
-0.924484
 21
4.55727
 31
0.0
  0
LINE
  5
408
  8
0
 10
-0.924484
 20
4.55727
 30
0.0
 11
-0.928696
 21
4.55782
 31
0.0
  0
LINE
  5
409
  8
0
 10
-0.928696
 20
4.55782
 30
0.0
 11
-0.99791
 21
4.56236
 31
0.0
  0
LINE
  5
40A
  8
0
 10
-0.99791
 20
4.56236
 30
0.0
 11
-1.00209
 21
4.56236
 31
0.0
  0
LINE
  5
40B
  8
0
 10
-1.00209
 20
4.56236
 30
0.0
 11
-1.07129
 21
4.55782
 31
0.0
  0
LINE
  5
40C
  8
0
 10
-1.07129
 20
4.55782
 30
0.0
 11
-1.0755
 21
4.55727
 31
0.0
  0
LINE
  5
40D
  8
0
 10
-1.0755
 20
4.55727
 30
0.0
 11
-1.14357
 21
4.54372
 31
0.0
  0
LINE
  5
40E
  8
0
 10
-1.14357
 20
4.54372
 30
0.0
 11
-1.14745
 21
4.54268
 31
0.0
  0
LINE
  5
40F
  8
0
 10
-1.14745
 20
4.54268
 30
0.0
 11
-1.21344
 21
4.52028
 31
0.0
  0
LINE
  5
410
  8
0
 10
-1.21344
 20
4.52028
 30
0.0
 11
-1.21701
 21
4.5188
 31
0.0
  0
LINE
  5
411
  8
0
 10
-1.21701
 20
4.5188
 30
0.0
 11
-1.27945
 21
4.48802
 31
0.0
  0
LINE
  5
412
  8
0
 10
-1.27945
 20
4.48802
 30
0.0
 11
-1.28288
 21
4.48604
 31
0.0
  0
LINE
  5
413
  8
0
 10
-1.28288
 20
4.48604
 30
0.0
 11
-1.34079
 21
4.44734
 31
0.0
  0
LINE
  5
414
  8
0
 10
-1.34079
 20
4.44734
 30
0.0
 11
-1.34395
 21
4.44492
 31
0.0
  0
LINE
  5
415
  8
0
 10
-1.34395
 20
4.44492
 30
0.0
 11
-1.39624
 21
4.39905
 31
0.0
  0
LINE
  5
416
  8
0
 10
-1.39624
 20
4.39905
 30
0.0
 11
-1.39905
 21
4.39624
 31
0.0
  0
LINE
  5
417
  8
0
 10
-1.39905
 20
4.39624
 30
0.0
 11
-1.44492
 21
4.34395
 31
0.0
  0
LINE
  5
418
  8
0
 10
-1.44492
 20
4.34395
 30
0.0
 11
-1.44734
 21
4.34079
 31
0.0
  0
LINE
  5
419
  8
0
 10
-1.44734
 20
4.34079
 30
0.0
 11
-1.48604
 21
4.28288
 31
0.0
  0
LINE
  5
41A
  8
0
 10
-1.48604
 20
4.28288
 30
0.0
 11
-1.48802
 21
4.27945
 31
0.0
  0
LINE
  5
41B
  8
0
 10
-1.48802
 20
4.27945
 30
0.0
 11
-1.5188
 21
4.21701
 31
0.0
  0
LINE
  5
41C
  8
0
 10
-1.5188
 20
4.21701
 30
0.0
 11
-1.52028
 21
4.21344
 31
0.0
  0
LINE
  5
41D
  8
0
 10
-1.52028
 20
4.21344
 30
0.0
 11
-1.54268
 21
4.14745
 31
0.0
  0
LINE
  5
41E
  8
0
 10
-1.54268
 20
4.14745
 30
0.0
 11
-1.54372
 21
4.14355
 31
0.0
  0
LINE
  5
41F
  8
0
 10
-1.54372
 20
4.14355
 30
0.0
 11
-1.55606
 21
4.08156
 31
0.0
  0
LINE
  5
420
  8
0
 10
-1.55606
 20
4.08156
 30
0.0
 11
-1.55817
 21
4.07365
 31
0.0
  0
LINE
  5
421
  8
0
 10
-1.55817
 20
4.07365
 30
0.0
 11
-1.56131
 21
4.0661
 31
0.0
  0
LINE
  5
422
  8
0
 10
-1.56131
 20
4.0661
 30
0.0
 11
-1.56538
 21
4.05902
 31
0.0
  0
LINE
  5
423
  8
0
 10
-1.56538
 20
4.05902
 30
0.0
 11
-1.57037
 21
4.05254
 31
0.0
  0
LINE
  5
424
  8
0
 10
-1.57037
 20
4.05254
 30
0.0
 11
-1.57616
 21
4.04675
 31
0.0
  0
LINE
  5
425
  8
0
 10
-1.57616
 20
4.04675
 30
0.0
 11
-1.58264
 21
4.04178
 31
0.0
  0
LINE
  5
426
  8
0
 10
-1.58264
 20
4.04178
 30
0.0
 11
-1.58972
 21
4.03769
 31
0.0
  0
LINE
  5
427
  8
0
 10
-1.58972
 20
4.03769
 30
0.0
 11
-1.59727
 21
4.03456
 31
0.0
  0
LINE
  5
428
  8
0
 10
-1.59727
 20
4.03456
 30
0.0
 11
-1.60516
 21
4.03246
 31
0.0
  0
LINE
  5
429
  8
0
 10
-1.60516
 20
4.03246
 30
0.0
 11
-1.61736
 21
4.03125
 31
0.0
  0
LINE
  5
42A
  8
0
 10
-1.61736
 20
4.03125
 30
0.0
 11
-3.38263
 21
4.03125
 31
0.0
  0
LINE
  5
42B
  8
0
 10
-3.38263
 20
4.03125
 30
0.0
 11
-3.39079
 21
4.03178
 31
0.0
  0
LINE
  5
42C
  8
0
 10
-3.39079
 20
4.03178
 30
0.0
 11
-3.3988
 21
4.03339
 31
0.0
  0
LINE
  5
42D
  8
0
 10
-3.3988
 20
4.03339
 30
0.0
 11
-3.40654
 21
4.03601
 31
0.0
  0
LINE
  5
42E
  8
0
 10
-3.40654
 20
4.03601
 30
0.0
 11
-3.41388
 21
4.03963
 31
0.0
  0
LINE
  5
42F
  8
0
 10
-3.41388
 20
4.03963
 30
0.0
 11
-3.42067
 21
4.04416
 31
0.0
  0
LINE
  5
430
  8
0
 10
-3.42067
 20
4.04416
 30
0.0
 11
-3.42682
 21
4.04956
 31
0.0
  0
LINE
  5
431
  8
0
 10
-3.42682
 20
4.04956
 30
0.0
 11
-3.43222
 21
4.05571
 31
0.0
  0
LINE
  5
432
  8
0
 10
-3.43222
 20
4.05571
 30
0.0
 11
-3.43675
 21
4.0625
 31
0.0
  0
LINE
  5
433
  8
0
 10
-3.43675
 20
4.0625
 30
0.0
 11
-3.44037
 21
4.06984
 31
0.0
  0
LINE
  5
434
  8
0
 10
-3.44037
 20
4.06984
 30
0.0
 11
-3.44392
 21
4.08156
 31
0.0
  0
LINE
  5
435
  8
0
 10
-3.44392
 20
4.08156
 30
0.0
 11
-3.45627
 21
4.14355
 31
0.0
  0
LINE
  5
436
  8
0
 10
-3.45627
 20
4.14355
 30
0.0
 11
-3.45731
 21
4.14745
 31
0.0
  0
LINE
  5
437
  8
0
 10
-3.45731
 20
4.14745
 30
0.0
 11
-3.47971
 21
4.21344
 31
0.0
  0
LINE
  5
438
  8
0
 10
-3.47971
 20
4.21344
 30
0.0
 11
-3.48119
 21
4.21701
 31
0.0
  0
LINE
  5
439
  8
0
 10
-3.48119
 20
4.21701
 30
0.0
 11
-3.51196
 21
4.27945
 31
0.0
  0
LINE
  5
43A
  8
0
 10
-3.51196
 20
4.27945
 30
0.0
 11
-3.51395
 21
4.28288
 31
0.0
  0
LINE
  5
43B
  8
0
 10
-3.51395
 20
4.28288
 30
0.0
 11
-3.55264
 21
4.34079
 31
0.0
  0
LINE
  5
43C
  8
0
 10
-3.55264
 20
4.34079
 30
0.0
 11
-3.55507
 21
4.34395
 31
0.0
  0
LINE
  5
43D
  8
0
 10
-3.55507
 20
4.34395
 30
0.0
 11
-3.60094
 21
4.39624
 31
0.0
  0
LINE
  5
43E
  8
0
 10
-3.60094
 20
4.39624
 30
0.0
 11
-3.60374
 21
4.39905
 31
0.0
  0
LINE
  5
43F
  8
0
 10
-3.60374
 20
4.39905
 30
0.0
 11
-3.65602
 21
4.4449
 31
0.0
  0
LINE
  5
440
  8
0
 10
-3.65602
 20
4.4449
 30
0.0
 11
-3.65927
 21
4.4474
 31
0.0
  0
LINE
  5
441
  8
0
 10
-3.65927
 20
4.4474
 30
0.0
 11
-3.71698
 21
4.48596
 31
0.0
  0
LINE
  5
442
  8
0
 10
-3.71698
 20
4.48596
 30
0.0
 11
-3.72064
 21
4.48807
 31
0.0
  0
LINE
  5
443
  8
0
 10
-3.72064
 20
4.48807
 30
0.0
 11
-3.78297
 21
4.5188
 31
0.0
  0
LINE
  5
444
  8
0
 10
-3.78297
 20
4.5188
 30
0.0
 11
-3.78654
 21
4.52028
 31
0.0
  0
LINE
  5
445
  8
0
 10
-3.78654
 20
4.52028
 30
0.0
 11
-3.85254
 21
4.54268
 31
0.0
  0
LINE
  5
446
  8
0
 10
-3.85254
 20
4.54268
 30
0.0
 11
-3.85641
 21
4.54372
 31
0.0
  0
LINE
  5
447
  8
0
 10
-3.85641
 20
4.54372
 30
0.0
 11
-3.92448
 21
4.55727
 31
0.0
  0
LINE
  5
448
  8
0
 10
-3.92448
 20
4.55727
 30
0.0
 11
-3.9287
 21
4.55782
 31
0.0
  0
LINE
  5
449
  8
0
 10
-3.9287
 20
4.55782
 30
0.0
 11
-3.99791
 21
4.56236
 31
0.0
  0
LINE
  5
44A
  8
0
 10
-3.99791
 20
4.56236
 30
0.0
 11
-4.00209
 21
4.56236
 31
0.0
  0
LINE
  5
44B
  8
0
 10
-4.00209
 20
4.56236
 30
0.0
 11
-4.07129
 21
4.55782
 31
0.0
  0
LINE
  5
44C
  8
0
 10
-4.07129
 20
4.55782
 30
0.0
 11
-4.0755
 21
4.55727
 31
0.0
  0
LINE
  5
44D
  8
0
 10
-4.0755
 20
4.55727
 30
0.0
 11
-4.14357
 21
4.54372
 31
0.0
  0
LINE
  5
44E
  8
0
 10
-4.14357
 20
4.54372
 30
0.0
 11
-4.14745
 21
4.54268
 31
0.0
  0
LINE
  5
44F
  8
0
 10
-4.14745
 20
4.54268
 30
0.0
 11
-4.21344
 21
4.52028
 31
0.0
  0
LINE
  5
450
  8
0
 10
-4.21344
 20
4.52028
 30
0.0
 11
-4.21701
 21
4.5188
 31
0.0
  0
LINE
  5
451
  8
0
 10
-4.21701
 20
4.5188
 30
0.0
 11
-4.27945
 21
4.48802
 31
0.0
  0
LINE
  5
452
  8
0
 10
-4.27945
 20
4.48802
 30
0.0
 11
-4.28288
 21
4.48604
 31
0.0
  0
LINE
  5
453
  8
0
 10
-4.28288
 20
4.48604
 30
0.0
 11
-4.34079
 21
4.44734
 31
0.0
  0
LINE
  5
454
  8
0
 10
-4.34079
 20
4.44734
 30
0.0
 11
-4.34395
 21
4.44492
 31
0.0
  0
LINE
  5
455
  8
0
 10
-4.34395
 20
4.44492
 30
0.0
 11
-4.39624
 21
4.39905
 31
0.0
  0
LINE
  5
456
  8
0
 10
-4.39624
 20
4.39905
 30
0.0
 11
-4.39905
 21
4.39624
 31
0.0
  0
LINE
  5
457
  8
0
 10
-4.39905
 20
4.39624
 30
0.0
 11
-4.44492
 21
4.34395
 31
0.0
  0
LINE
  5
458
  8
0
 10
-4.44492
 20
4.34395
 30
0.0
 11
-4.44734
 21
4.34079
 31
0.0
  0
LINE
  5
459
  8
0
 10
-4.44734
 20
4.34079
 30
0.0
 11
-4.48604
 21
4.28288
 31
0.0
  0
LINE
  5
45A
  8
0
 10
-4.48604
 20
4.28288
 30
0.0
 11
-4.48802
 21
4.27945
 31
0.0
  0
LINE
  5
45B
  8
0
 10
-4.48802
 20
4.27945
 30
0.0
 11
-4.5188
 21
4.21701
 31
0.0
  0
LINE
  5
45C
  8
0
 10
-4.5188
 20
4.21701
 30
0.0
 11
-4.52028
 21
4.21344
 31
0.0
  0
LINE
  5
45D
  8
0
 10
-4.52028
 20
4.21344
 30
0.0
 11
-4.54268
 21
4.14745
 31
0.0
  0
LINE
  5
45E
  8
0
 10
-4.54268
 20
4.14745
 30
0.0
 11
-4.54372
 21
4.14357
 31
0.0
  0
LINE
  5
45F
  8
0
 10
-4.54372
 20
4.14357
 30
0.0
 11
-4.55727
 21
4.0755
 31
0.0
  0
LINE
  5
460
  8
0
 10
-4.55727
 20
4.0755
 30
0.0
 11
-4.55782
 21
4.07129
 31
0.0
  0
LINE
  5
461
  8
0
 10
-4.55782
 20
4.07129
 30
0.0
 11
-4.56236
 21
4.00209
 31
0.0
  0
LINE
  5
462
  8
0
 10
-4.56236
 20
4.00209
 30
0.0
 11
-4.56236
 21
3.99791
 31
0.0
  0
LINE
  5
463
  8
0
 10
-4.56236
 20
3.99791
 30
0.0
 11
-4.55782
 21
3.9287
 31
0.0
  0
LINE
  5
464
  8
0
 10
-4.55782
 20
3.9287
 30
0.0
 11
-4.55727
 21
3.92448
 31
0.0
  0
LINE
  5
465
  8
0
 10
-4.55727
 20
3.92448
 30
0.0
 11
-4.54372
 21
3.85641
 31
0.0
  0
LINE
  5
466
  8
0
 10
-4.54372
 20
3.85641
 30
0.0
 11
-4.54268
 21
3.85254
 31
0.0
  0
LINE
  5
467
  8
0
 10
-4.54268
 20
3.85254
 30
0.0
 11
-4.52028
 21
3.78654
 31
0.0
  0
LINE
  5
468
  8
0
 10
-4.52028
 20
3.78654
 30
0.0
 11
-4.5188
 21
3.78297
 31
0.0
  0
LINE
  5
469
  8
0
 10
-4.5188
 20
3.78297
 30
0.0
 11
-4.48807
 21
3.72064
 31
0.0
  0
LINE
  5
46A
  8
0
 10
-4.48807
 20
3.72064
 30
0.0
 11
-4.48596
 21
3.71698
 31
0.0
  0
LINE
  5
46B
  8
0
 10
-4.48596
 20
3.71698
 30
0.0
 11
-4.4474
 21
3.65927
 31
0.0
  0
LINE
  5
46C
  8
0
 10
-4.4474
 20
3.65927
 30
0.0
 11
-4.4449
 21
3.65602
 31
0.0
  0
LINE
  5
46D
  8
0
 10
-4.4449
 20
3.65602
 30
0.0
 11
-4.39905
 21
3.60374
 31
0.0
  0
LINE
  5
46E
  8
0
 10
-4.39905
 20
3.60374
 30
0.0
 11
-4.39624
 21
3.60094
 31
0.0
  0
LINE
  5
46F
  8
0
 10
-4.39624
 20
3.60094
 30
0.0
 11
-4.34395
 21
3.55507
 31
0.0
  0
LINE
  5
470
  8
0
 10
-4.34395
 20
3.55507
 30
0.0
 11
-4.34079
 21
3.55264
 31
0.0
  0
LINE
  5
471
  8
0
 10
-4.34079
 20
3.55264
 30
0.0
 11
-4.28288
 21
3.51395
 31
0.0
  0
LINE
  5
472
  8
0
 10
-4.28288
 20
3.51395
 30
0.0
 11
-4.27945
 21
3.51196
 31
0.0
  0
LINE
  5
473
  8
0
 10
-4.27945
 20
3.51196
 30
0.0
 11
-4.21701
 21
3.48119
 31
0.0
  0
LINE
  5
474
  8
0
 10
-4.21701
 20
3.48119
 30
0.0
 11
-4.21344
 21
3.47971
 31
0.0
  0
LINE
  5
475
  8
0
 10
-4.21344
 20
3.47971
 30
0.0
 11
-4.14745
 21
3.45731
 31
0.0
  0
LINE
  5
476
  8
0
 10
-4.14745
 20
3.45731
 30
0.0
 11
-4.14355
 21
3.45627
 31
0.0
  0
LINE
  5
477
  8
0
 10
-4.14355
 20
3.45627
 30
0.0
 11
-4.08156
 21
3.44392
 31
0.0
  0
LINE
  5
478
  8
0
 10
-4.08156
 20
3.44392
 30
0.0
 11
-4.07365
 21
3.44182
 31
0.0
  0
LINE
  5
479
  8
0
 10
-4.07365
 20
3.44182
 30
0.0
 11
-4.0661
 21
3.43867
 31
0.0
  0
LINE
  5
47A
  8
0
 10
-4.0661
 20
3.43867
 30
0.0
 11
-4.05902
 21
3.4346
 31
0.0
  0
LINE
  5
47B
  8
0
 10
-4.05902
 20
3.4346
 30
0.0
 11
-4.05254
 21
3.42961
 31
0.0
  0
LINE
  5
47C
  8
0
 10
-4.05254
 20
3.42961
 30
0.0
 11
-4.04675
 21
3.42383
 31
0.0
  0
LINE
  5
47D
  8
0
 10
-4.04675
 20
3.42383
 30
0.0
 11
-4.04178
 21
3.41734
 31
0.0
  0
LINE
  5
47E
  8
0
 10
-4.04178
 20
3.41734
 30
0.0
 11
-4.03769
 21
3.41026
 31
0.0
  0
LINE
  5
47F
  8
0
 10
-4.03769
 20
3.41026
 30
0.0
 11
-4.03456
 21
3.40271
 31
0.0
  0
LINE
  5
480
  8
0
 10
-4.03456
 20
3.40271
 30
0.0
 11
-4.03246
 21
3.39482
 31
0.0
  0
LINE
  5
481
  8
0
 10
-4.03246
 20
3.39482
 30
0.0
 11
-4.03125
 21
3.38263
 31
0.0
  0
LINE
  5
482
  8
0
 10
-4.03125
 20
3.38263
 30
0.0
 11
-4.03125
 21
1.61736
 31
0.0
  0
LINE
  5
483
  8
0
 10
-4.03125
 20
1.61736
 30
0.0
 11
-4.03178
 21
1.60919
 31
0.0
  0
LINE
  5
484
  8
0
 10
-4.03178
 20
1.60919
 30
0.0
 11
-4.03339
 21
1.60118
 31
0.0
  0
LINE
  5
485
  8
0
 10
-4.03339
 20
1.60118
 30
0.0
 11
-4.03601
 21
1.59344
 31
0.0
  0
LINE
  5
486
  8
0
 10
-4.03601
 20
1.59344
 30
0.0
 11
-4.03963
 21
1.58611
 31
0.0
  0
LINE
  5
487
  8
0
 10
-4.03963
 20
1.58611
 30
0.0
 11
-4.04416
 21
1.57932
 31
0.0
  0
LINE
  5
488
  8
0
 10
-4.04416
 20
1.57932
 30
0.0
 11
-4.04956
 21
1.57317
 31
0.0
  0
LINE
  5
489
  8
0
 10
-4.04956
 20
1.57317
 30
0.0
 11
-4.05571
 21
1.56776
 31
0.0
  0
LINE
  5
48A
  8
0
 10
-4.05571
 20
1.56776
 30
0.0
 11
-4.0625
 21
1.56323
 31
0.0
  0
LINE
  5
48B
  8
0
 10
-4.0625
 20
1.56323
 30
0.0
 11
-4.06984
 21
1.55962
 31
0.0
  0
LINE
  5
48C
  8
0
 10
-4.06984
 20
1.55962
 30
0.0
 11
-4.08156
 21
1.55606
 31
0.0
  0
LINE
  5
48D
  8
0
 10
-4.08156
 20
1.55606
 30
0.0
 11
-4.14355
 21
1.54372
 31
0.0
  0
LINE
  5
48E
  8
0
 10
-4.14355
 20
1.54372
 30
0.0
 11
-4.14745
 21
1.54268
 31
0.0
  0
LINE
  5
48F
  8
0
 10
-4.14745
 20
1.54268
 30
0.0
 11
-4.21344
 21
1.52028
 31
0.0
  0
LINE
  5
490
  8
0
 10
-4.21344
 20
1.52028
 30
0.0
 11
-4.21701
 21
1.5188
 31
0.0
  0
LINE
  5
491
  8
0
 10
-4.21701
 20
1.5188
 30
0.0
 11
-4.27945
 21
1.48802
 31
0.0
  0
LINE
  5
492
  8
0
 10
-4.27945
 20
1.48802
 30
0.0
 11
-4.28288
 21
1.48604
 31
0.0
  0
LINE
  5
493
  8
0
 10
-4.28288
 20
1.48604
 30
0.0
 11
-4.34079
 21
1.44734
 31
0.0
  0
LINE
  5
494
  8
0
 10
-4.34079
 20
1.44734
 30
0.0
 11
-4.34395
 21
1.44492
 31
0.0
  0
LINE
  5
495
  8
0
 10
-4.34395
 20
1.44492
 30
0.0
 11
-4.39624
 21
1.39905
 31
0.0
  0
LINE
  5
496
  8
0
 10
-4.39624
 20
1.39905
 30
0.0
 11
-4.39905
 21
1.39624
 31
0.0
  0
LINE
  5
497
  8
0
 10
-4.39905
 20
1.39624
 30
0.0
 11
-4.44492
 21
1.34395
 31
0.0
  0
LINE
  5
498
  8
0
 10
-4.44492
 20
1.34395
 30
0.0
 11
-4.44734
 21
1.34079
 31
0.0
  0
LINE
  5
499
  8
0
 10
-4.44734
 20
1.34079
 30
0.0
 11
-4.48604
 21
1.28288
 31
0.0
  0
LINE
  5
49A
  8
0
 10
-4.48604
 20
1.28288
 30
0.0
 11
-4.48802
 21
1.27945
 31
0.0
  0
LINE
  5
49B
  8
0
 10
-4.48802
 20
1.27945
 30
0.0
 11
-4.5188
 21
1.21701
 31
0.0
  0
LINE
  5
49C
  8
0
 10
-4.5188
 20
1.21701
 30
0.0
 11
-4.52028
 21
1.21344
 31
0.0
  0
LINE
  5
49D
  8
0
 10
-4.52028
 20
1.21344
 30
0.0
 11
-4.54268
 21
1.14745
 31
0.0
  0
LINE
  5
49E
  8
0
 10
-4.54268
 20
1.14745
 30
0.0
 11
-4.54372
 21
1.14357
 31
0.0
  0
LINE
  5
49F
  8
0
 10
-4.54372
 20
1.14357
 30
0.0
 11
-4.55727
 21
1.0755
 31
0.0
  0
LINE
  5
4A0
  8
0
 10
-4.55727
 20
1.0755
 30
0.0
 11
-4.55782
 21
1.07129
 31
0.0
  0
LINE
  5
4A1
  8
0
 10
-4.55782
 20
1.07129
 30
0.0
 11
-4.56236
 21
1.00209
 31
0.0
  0
LINE
  5
4A2
  8
0
 10
-4.56236
 20
1.00209
 30
0.0
 11
-4.56236
 21
0.99791
 31
0.0
  0
LINE
  5
4A3
  8
0
 10
-4.56236
 20
0.99791
 30
0.0
 11
-4.55782
 21
0.928696
 31
0.0
  0
LINE
  5
4A4
  8
0
 10
-4.55782
 20
0.928696
 30
0.0
 11
-4.55727
 21
0.924484
 31
0.0
  0
LINE
  5
4A5
  8
0
 10
-4.55727
 20
0.924484
 30
0.0
 11
-4.54372
 21
0.856415
 31
0.0
  0
LINE
  5
4A6
  8
0
 10
-4.54372
 20
0.856415
 30
0.0
 11
-4.54268
 21
0.852539
 31
0.0
  0
LINE
  5
4A7
  8
0
 10
-4.54268
 20
0.852539
 30
0.0
 11
-4.52028
 21
0.786545
 31
0.0
  0
LINE
  5
4A8
  8
0
 10
-4.52028
 20
0.786545
 30
0.0
 11
-4.5188
 21
0.782974
 31
0.0
  0
LINE
  5
4A9
  8
0
 10
-4.5188
 20
0.782974
 30
0.0
 11
-4.48807
 21
0.720642
 31
0.0
  0
LINE
  5
4AA
  8
0
 10
-4.48807
 20
0.720642
 30
0.0
 11
-4.48596
 21
0.71698
 31
0.0
  0
LINE
  5
4AB
  8
0
 10
-4.48596
 20
0.71698
 30
0.0
 11
-4.4474
 21
0.659271
 31
0.0
  0
LINE
  5
4AC
  8
0
 10
-4.4474
 20
0.659271
 30
0.0
 11
-4.4449
 21
0.656021
 31
0.0
  0
LINE
  5
4AD
  8
0
 10
-4.4449
 20
0.656021
 30
0.0
 11
-4.39905
 21
0.603745
 31
0.0
  0
LINE
  5
4AE
  8
0
 10
-4.39905
 20
0.603745
 30
0.0
 11
-4.39624
 21
0.600937
 31
0.0
  0
LINE
  5
4AF
  8
0
 10
-4.39624
 20
0.600937
 30
0.0
 11
-4.34395
 21
0.555069
 31
0.0
  0
LINE
  5
4B0
  8
0
 10
-4.34395
 20
0.555069
 30
0.0
 11
-4.34079
 21
0.552643
 31
0.0
  0
LINE
  5
4B1
  8
0
 10
-4.34079
 20
0.552643
 30
0.0
 11
-4.28288
 21
0.513947
 31
0.0
  0
LINE
  5
4B2
  8
0
 10
-4.28288
 20
0.513947
 30
0.0
 11
-4.27945
 21
0.511963
 31
0.0
  0
LINE
  5
4B3
  8
0
 10
-4.27945
 20
0.511963
 30
0.0
 11
-4.21701
 21
0.481186
 31
0.0
  0
LINE
  5
4B4
  8
0
 10
-4.21701
 20
0.481186
 30
0.0
 11
-4.21344
 21
0.479706
 31
0.0
  0
LINE
  5
4B5
  8
0
 10
-4.21344
 20
0.479706
 30
0.0
 11
-4.14745
 21
0.457306
 31
0.0
  0
LINE
  5
4B6
  8
0
 10
-4.14745
 20
0.457306
 30
0.0
 11
-4.14357
 21
0.456268
 31
0.0
  0
LINE
  5
4B7
  8
0
 10
-4.14357
 20
0.456268
 30
0.0
 11
-4.0755
 21
0.442719
 31
0.0
  0
LINE
  5
4B8
  8
0
 10
-4.0755
 20
0.442719
 30
0.0
 11
-4.07129
 21
0.442169
 31
0.0
  0
LINE
  5
4B9
  8
0
 10
-4.07129
 20
0.442169
 30
0.0
 11
-4.00209
 21
0.437637
 31
0.0
  0
LINE
  5
4BA
  8
0
 10
-4.00209
 20
0.437637
 30
0.0
 11
-3.99791
 21
0.437637
 31
0.0
  0
LINE
  5
4BB
  8
0
 10
-3.99791
 20
0.437637
 30
0.0
 11
-3.9287
 21
0.442169
 31
0.0
  0
LINE
  5
4BC
  8
0
 10
-1.7832
 20
3.29558
 30
0.0
 11
-1.79121
 21
3.29718
 31
0.0
  0
LINE
  5
4BD
  8
0
 10
-1.79121
 20
3.29718
 30
0.0
 11
-1.79897
 21
3.2998
 31
0.0
  0
LINE
  5
4BE
  8
0
 10
-1.79897
 20
3.2998
 30
0.0
 11
-1.80629
 21
3.30342
 31
0.0
  0
LINE
  5
4BF
  8
0
 10
-1.80629
 20
3.30342
 30
0.0
 11
-1.81624
 21
3.31055
 31
0.0
  0
LINE
  5
4C0
  8
0
 10
-1.81624
 20
3.31055
 30
0.0
 11
-1.85161
 21
3.34155
 31
0.0
  0
LINE
  5
4C1
  8
0
 10
-1.85161
 20
3.34155
 30
0.0
 11
-1.8548
 21
3.34401
 31
0.0
  0
LINE
  5
4C2
  8
0
 10
-1.8548
 20
3.34401
 30
0.0
 11
-1.96709
 21
3.41904
 31
0.0
  0
LINE
  5
4C3
  8
0
 10
-1.96709
 20
3.41904
 30
0.0
 11
-1.97054
 21
3.42104
 31
0.0
  0
LINE
  5
4C4
  8
0
 10
-1.97054
 20
3.42104
 30
0.0
 11
-2.09174
 21
3.4808
 31
0.0
  0
LINE
  5
4C5
  8
0
 10
-2.09174
 20
3.4808
 30
0.0
 11
-2.09512
 21
3.48221
 31
0.0
  0
LINE
  5
4C6
  8
0
 10
-2.09512
 20
3.48221
 30
0.0
 11
-2.22313
 21
3.52565
 31
0.0
  0
LINE
  5
4C7
  8
0
 10
-2.22313
 20
3.52565
 30
0.0
 11
-2.22701
 21
3.52669
 31
0.0
  0
LINE
  5
4C8
  8
0
 10
-2.22701
 20
3.52669
 30
0.0
 11
-2.35922
 21
3.55299
 31
0.0
  0
LINE
  5
4C9
  8
0
 10
-2.35922
 20
3.55299
 30
0.0
 11
-2.36343
 21
3.55354
 31
0.0
  0
LINE
  5
4CA
  8
0
 10
-2.36343
 20
3.55354
 30
0.0
 11
-2.49791
 21
3.56236
 31
0.0
  0
LINE
  5
4CB
  8
0
 10
-2.49791
 20
3.56236
 30
0.0
 11
-2.50209
 21
3.56236
 31
0.0
  0
LINE
  5
4CC
  8
0
 10
-2.50209
 20
3.56236
 30
0.0
 11
-2.63655
 21
3.55354
 31
0.0
  0
LINE
  5
4CD
  8
0
 10
-2.63655
 20
3.55354
 30
0.0
 11
-2.64076
 21
3.55299
 31
0.0
  0
LINE
  5
4CE
  8
0
 10
-2.64076
 20
3.55299
 30
0.0
 11
-2.77298
 21
3.52669
 31
0.0
  0
LINE
  5
4CF
  8
0
 10
-2.77298
 20
3.52669
 30
0.0
 11
-2.77686
 21
3.52565
 31
0.0
  0
LINE
  5
4D0
  8
0
 10
-2.77686
 20
3.52565
 30
0.0
 11
-2.90479
 21
3.48222
 31
0.0
  0
LINE
  5
4D1
  8
0
 10
-2.90479
 20
3.48222
 30
0.0
 11
-2.90836
 21
3.48074
 31
0.0
  0
LINE
  5
4D2
  8
0
 10
-2.90836
 20
3.48074
 30
0.0
 11
-3.02945
 21
3.42104
 31
0.0
  0
LINE
  5
4D3
  8
0
 10
-3.02945
 20
3.42104
 30
0.0
 11
-3.03288
 21
3.41905
 31
0.0
  0
LINE
  5
4D4
  8
0
 10
-3.03288
 20
3.41905
 30
0.0
 11
-3.14517
 21
3.34401
 31
0.0
  0
LINE
  5
4D5
  8
0
 10
-3.14517
 20
3.34401
 30
0.0
 11
-3.14832
 21
3.3416
 31
0.0
  0
LINE
  5
4D6
  8
0
 10
-3.14832
 20
3.3416
 30
0.0
 11
-3.18375
 21
3.31053
 31
0.0
  0
LINE
  5
4D7
  8
0
 10
-3.18375
 20
3.31053
 30
0.0
 11
-3.19023
 21
3.30556
 31
0.0
  0
LINE
  5
4D8
  8
0
 10
-3.19023
 20
3.30556
 30
0.0
 11
-3.19731
 21
3.30147
 31
0.0
  0
LINE
  5
4D9
  8
0
 10
-3.19731
 20
3.30147
 30
0.0
 11
-3.20486
 21
3.29834
 31
0.0
  0
LINE
  5
4DA
  8
0
 10
-3.20486
 20
3.29834
 30
0.0
 11
-3.21275
 21
3.29623
 31
0.0
  0
LINE
  5
4DB
  8
0
 10
-3.21275
 20
3.29623
 30
0.0
 11
-3.22086
 21
3.29517
 31
0.0
  0
LINE
  5
4DC
  8
0
 10
-3.22086
 20
3.29517
 30
0.0
 11
-3.22903
 21
3.29517
 31
0.0
  0
LINE
  5
4DD
  8
0
 10
-3.22903
 20
3.29517
 30
0.0
 11
-3.23714
 21
3.29623
 31
0.0
  0
LINE
  5
4DE
  8
0
 10
-3.23714
 20
3.29623
 30
0.0
 11
-3.24504
 21
3.29834
 31
0.0
  0
LINE
  5
4DF
  8
0
 10
-3.24504
 20
3.29834
 30
0.0
 11
-3.25259
 21
3.30148
 31
0.0
  0
LINE
  5
4E0
  8
0
 10
-3.25259
 20
3.30148
 30
0.0
 11
-3.25967
 21
3.30556
 31
0.0
  0
LINE
  5
4E1
  8
0
 10
-3.25967
 20
3.30556
 30
0.0
 11
-3.26913
 21
3.31334
 31
0.0
  0
LINE
  5
4E2
  8
0
 10
-3.26913
 20
3.31334
 30
0.0
 11
-3.54134
 21
3.58554
 31
0.0
  0
LINE
  5
4E3
  8
0
 10
-3.54134
 20
3.58554
 30
0.0
 11
-3.54674
 21
3.59169
 31
0.0
  0
LINE
  5
4E4
  8
0
 10
-3.54674
 20
3.59169
 30
0.0
 11
-3.55127
 21
3.59848
 31
0.0
  0
LINE
  5
4E5
  8
0
 10
-3.55127
 20
3.59848
 30
0.0
 11
-3.55489
 21
3.60582
 31
0.0
  0
LINE
  5
4E6
  8
0
 10
-3.55489
 20
3.60582
 30
0.0
 11
-3.55751
 21
3.61356
 31
0.0
  0
LINE
  5
4E7
  8
0
 10
-3.55751
 20
3.61356
 30
0.0
 11
-3.55911
 21
3.62157
 31
0.0
  0
LINE
  5
4E8
  8
0
 10
-3.55911
 20
3.62157
 30
0.0
 11
-3.55965
 21
3.62973
 31
0.0
  0
LINE
  5
4E9
  8
0
 10
-3.55965
 20
3.62973
 30
0.0
 11
-3.55911
 21
3.63789
 31
0.0
  0
LINE
  5
4EA
  8
0
 10
-3.55911
 20
3.63789
 30
0.0
 11
-3.55751
 21
3.6459
 31
0.0
  0
LINE
  5
4EB
  8
0
 10
-3.55751
 20
3.6459
 30
0.0
 11
-3.55489
 21
3.65364
 31
0.0
  0
LINE
  5
4EC
  8
0
 10
-3.55489
 20
3.65364
 30
0.0
 11
-3.54912
 21
3.66444
 31
0.0
  0
LINE
  5
4ED
  8
0
 10
-3.54912
 20
3.66444
 30
0.0
 11
-3.51402
 21
3.71698
 31
0.0
  0
LINE
  5
4EE
  8
0
 10
-3.51402
 20
3.71698
 30
0.0
 11
-3.51192
 21
3.72064
 31
0.0
  0
LINE
  5
4EF
  8
0
 10
-3.51192
 20
3.72064
 30
0.0
 11
-3.48119
 21
3.78297
 31
0.0
  0
LINE
  5
4F0
  8
0
 10
-3.48119
 20
3.78297
 30
0.0
 11
-3.47971
 21
3.78654
 31
0.0
  0
LINE
  5
4F1
  8
0
 10
-3.47971
 20
3.78654
 30
0.0
 11
-3.45731
 21
3.85254
 31
0.0
  0
LINE
  5
4F2
  8
0
 10
-3.45731
 20
3.85254
 30
0.0
 11
-3.45627
 21
3.85641
 31
0.0
  0
LINE
  5
4F3
  8
0
 10
-3.45627
 20
3.85641
 30
0.0
 11
-3.44392
 21
3.91844
 31
0.0
  0
LINE
  5
4F4
  8
0
 10
-3.44392
 20
3.91844
 30
0.0
 11
-3.44182
 21
3.92635
 31
0.0
  0
LINE
  5
4F5
  8
0
 10
-3.44182
 20
3.92635
 30
0.0
 11
-3.43869
 21
3.9339
 31
0.0
  0
LINE
  5
4F6
  8
0
 10
-3.43869
 20
3.9339
 30
0.0
 11
-3.4346
 21
3.94098
 31
0.0
  0
LINE
  5
4F7
  8
0
 10
-3.4346
 20
3.94098
 30
0.0
 11
-3.42961
 21
3.94746
 31
0.0
  0
LINE
  5
4F8
  8
0
 10
-3.42961
 20
3.94746
 30
0.0
 11
-3.42384
 21
3.95325
 31
0.0
  0
LINE
  5
4F9
  8
0
 10
-3.42384
 20
3.95325
 30
0.0
 11
-3.41734
 21
3.95822
 31
0.0
  0
LINE
  5
4FA
  8
0
 10
-3.41734
 20
3.95822
 30
0.0
 11
-3.41026
 21
3.96231
 31
0.0
  0
LINE
  5
4FB
  8
0
 10
-3.41026
 20
3.96231
 30
0.0
 11
-3.40271
 21
3.96544
 31
0.0
  0
LINE
  5
4FC
  8
0
 10
-3.40271
 20
3.96544
 30
0.0
 11
-3.39482
 21
3.96754
 31
0.0
  0
LINE
  5
4FD
  8
0
 10
-3.39482
 20
3.96754
 30
0.0
 11
-3.38263
 21
3.96875
 31
0.0
  0
LINE
  5
4FE
  8
0
 10
-3.38263
 20
3.96875
 30
0.0
 11
-1.61736
 21
3.96875
 31
0.0
  0
LINE
  5
4FF
  8
0
 10
-1.61736
 20
3.96875
 30
0.0
 11
-1.60919
 21
3.96822
 31
0.0
  0
LINE
  5
500
  8
0
 10
-1.60919
 20
3.96822
 30
0.0
 11
-1.60118
 21
3.96661
 31
0.0
  0
LINE
  5
501
  8
0
 10
-1.60118
 20
3.96661
 30
0.0
 11
-1.59344
 21
3.96399
 31
0.0
  0
LINE
  5
502
  8
0
 10
-1.59344
 20
3.96399
 30
0.0
 11
-1.58611
 21
3.96037
 31
0.0
  0
LINE
  5
503
  8
0
 10
-1.58611
 20
3.96037
 30
0.0
 11
-1.57932
 21
3.95584
 31
0.0
  0
LINE
  5
504
  8
0
 10
-1.57932
 20
3.95584
 30
0.0
 11
-1.57317
 21
3.95044
 31
0.0
  0
LINE
  5
505
  8
0
 10
-1.57317
 20
3.95044
 30
0.0
 11
-1.56776
 21
3.94429
 31
0.0
  0
LINE
  5
506
  8
0
 10
-1.56776
 20
3.94429
 30
0.0
 11
-1.56323
 21
3.9375
 31
0.0
  0
LINE
  5
507
  8
0
 10
-1.56323
 20
3.9375
 30
0.0
 11
-1.55962
 21
3.93016
 31
0.0
  0
LINE
  5
508
  8
0
 10
-1.55962
 20
3.93016
 30
0.0
 11
-1.55606
 21
3.91844
 31
0.0
  0
LINE
  5
509
  8
0
 10
-1.55606
 20
3.91844
 30
0.0
 11
-1.54372
 21
3.85641
 31
0.0
  0
LINE
  5
50A
  8
0
 10
-1.54372
 20
3.85641
 30
0.0
 11
-1.54268
 21
3.85254
 31
0.0
  0
LINE
  5
50B
  8
0
 10
-1.54268
 20
3.85254
 30
0.0
 11
-1.52028
 21
3.78654
 31
0.0
  0
LINE
  5
50C
  8
0
 10
-1.52028
 20
3.78654
 30
0.0
 11
-1.5188
 21
3.78297
 31
0.0
  0
LINE
  5
50D
  8
0
 10
-1.5188
 20
3.78297
 30
0.0
 11
-1.48807
 21
3.72064
 31
0.0
  0
LINE
  5
50E
  8
0
 10
-1.48807
 20
3.72064
 30
0.0
 11
-1.48596
 21
3.71698
 31
0.0
  0
LINE
  5
50F
  8
0
 10
-1.48596
 20
3.71698
 30
0.0
 11
-1.45087
 21
3.66444
 31
0.0
  0
LINE
  5
510
  8
0
 10
-1.45087
 20
3.66444
 30
0.0
 11
-1.44678
 21
3.65736
 31
0.0
  0
LINE
  5
511
  8
0
 10
-1.44678
 20
3.65736
 30
0.0
 11
-1.44365
 21
3.64981
 31
0.0
  0
LINE
  5
512
  8
0
 10
-1.44365
 20
3.64981
 30
0.0
 11
-1.44154
 21
3.64191
 31
0.0
  0
LINE
  5
513
  8
0
 10
-1.44154
 20
3.64191
 30
0.0
 11
-1.44048
 21
3.6338
 31
0.0
  0
LINE
  5
514
  8
0
 10
-1.44048
 20
3.6338
 30
0.0
 11
-1.44048
 21
3.62563
 31
0.0
  0
LINE
  5
515
  8
0
 10
-1.44048
 20
3.62563
 30
0.0
 11
-1.44154
 21
3.61752
 31
0.0
  0
LINE
  5
516
  8
0
 10
-1.44154
 20
3.61752
 30
0.0
 11
-1.44366
 21
3.60963
 31
0.0
  0
LINE
  5
517
  8
0
 10
-1.44366
 20
3.60963
 30
0.0
 11
-1.44679
 21
3.60208
 31
0.0
  0
LINE
  5
518
  8
0
 10
-1.44679
 20
3.60208
 30
0.0
 11
-1.45088
 21
3.595
 31
0.0
  0
LINE
  5
519
  8
0
 10
-1.45088
 20
3.595
 30
0.0
 11
-1.45865
 21
3.58554
 31
0.0
  0
LINE
  5
51A
  8
0
 10
-1.45865
 20
3.58554
 30
0.0
 11
-1.73085
 21
3.31335
 31
0.0
  0
LINE
  5
51B
  8
0
 10
-1.73085
 20
3.31335
 30
0.0
 11
-1.737
 21
3.30795
 31
0.0
  0
LINE
  5
51C
  8
0
 10
-1.737
 20
3.30795
 30
0.0
 11
-1.74379
 21
3.30342
 31
0.0
  0
LINE
  5
51D
  8
0
 10
-1.74379
 20
3.30342
 30
0.0
 11
-1.75113
 21
3.2998
 31
0.0
  0
LINE
  5
51E
  8
0
 10
-1.75113
 20
3.2998
 30
0.0
 11
-1.75887
 21
3.29718
 31
0.0
  0
LINE
  5
51F
  8
0
 10
-1.75887
 20
3.29718
 30
0.0
 11
-1.76688
 21
3.29558
 31
0.0
  0
LINE
  5
520
  8
0
 10
-1.76688
 20
3.29558
 30
0.0
 11
-1.77504
 21
3.29504
 31
0.0
  0
LINE
  5
521
  8
0
 10
-1.77504
 20
3.29504
 30
0.0
 11
-1.7832
 21
3.29558
 31
0.0
  0
LINE
  5
522
  8
0
 10
-1.37434
 20
1.44048
 30
0.0
 11
-1.38245
 21
1.44154
 31
0.0
  0
LINE
  5
523
  8
0
 10
-1.38245
 20
1.44154
 30
0.0
 11
-1.39034
 21
1.44365
 31
0.0
  0
LINE
  5
524
  8
0
 10
-1.39034
 20
1.44365
 30
0.0
 11
-1.39789
 21
1.44678
 31
0.0
  0
LINE
  5
525
  8
0
 10
-1.39789
 20
1.44678
 30
0.0
 11
-1.40497
 21
1.45087
 31
0.0
  0
LINE
  5
526
  8
0
 10
-1.40497
 20
1.45087
 30
0.0
 11
-1.41147
 21
1.45584
 31
0.0
  0
LINE
  5
527
  8
0
 10
-1.41147
 20
1.45584
 30
0.0
 11
-1.41444
 21
1.45865
 31
0.0
  0
LINE
  5
528
  8
0
 10
-1.41444
 20
1.45865
 30
0.0
 11
-1.68665
 21
1.73085
 31
0.0
  0
LINE
  5
529
  8
0
 10
-1.68665
 20
1.73085
 30
0.0
 11
-1.69205
 21
1.737
 31
0.0
  0
LINE
  5
52A
  8
0
 10
-1.69205
 20
1.737
 30
0.0
 11
-1.69658
 21
1.74379
 31
0.0
  0
LINE
  5
52B
  8
0
 10
-1.69658
 20
1.74379
 30
0.0
 11
-1.7002
 21
1.75113
 31
0.0
  0
LINE
  5
52C
  8
0
 10
-1.7002
 20
1.75113
 30
0.0
 11
-1.70282
 21
1.75887
 31
0.0
  0
LINE
  5
52D
  8
0
 10
-1.70282
 20
1.75887
 30
0.0
 11
-1.70442
 21
1.76688
 31
0.0
  0
LINE
  5
52E
  8
0
 10
-1.70442
 20
1.76688
 30
0.0
 11
-1.70496
 21
1.77504
 31
0.0
  0
LINE
  5
52F
  8
0
 10
-1.70496
 20
1.77504
 30
0.0
 11
-1.70442
 21
1.7832
 31
0.0
  0
LINE
  5
530
  8
0
 10
-1.70442
 20
1.7832
 30
0.0
 11
-1.70282
 21
1.79121
 31
0.0
  0
LINE
  5
531
  8
0
 10
-1.70282
 20
1.79121
 30
0.0
 11
-1.7002
 21
1.79895
 31
0.0
  0
LINE
  5
532
  8
0
 10
-1.7002
 20
1.79895
 30
0.0
 11
-1.69658
 21
1.80629
 31
0.0
  0
LINE
  5
533
  8
0
 10
-1.69658
 20
1.80629
 30
0.0
 11
-1.68945
 21
1.81624
 31
0.0
  0
LINE
  5
534
  8
0
 10
-1.68945
 20
1.81624
 30
0.0
 11
-1.65839
 21
1.85167
 31
0.0
  0
LINE
  5
535
  8
0
 10
-1.65839
 20
1.85167
 30
0.0
 11
-1.65598
 21
1.85481
 31
0.0
  0
LINE
  5
536
  8
0
 10
-1.65598
 20
1.85481
 30
0.0
 11
-1.58095
 21
1.96709
 31
0.0
  0
LINE
  5
537
  8
0
 10
-1.58095
 20
1.96709
 30
0.0
 11
-1.57895
 21
1.97054
 31
0.0
  0
LINE
  5
538
  8
0
 10
-1.57895
 20
1.97054
 30
0.0
 11
-1.51918
 21
2.09174
 31
0.0
  0
LINE
  5
539
  8
0
 10
-1.51918
 20
2.09174
 30
0.0
 11
-1.51778
 21
2.09512
 31
0.0
  0
LINE
  5
53A
  8
0
 10
-1.51778
 20
2.09512
 30
0.0
 11
-1.47433
 21
2.22313
 31
0.0
  0
LINE
  5
53B
  8
0
 10
-1.47433
 20
2.22313
 30
0.0
 11
-1.4733
 21
2.22701
 31
0.0
  0
LINE
  5
53C
  8
0
 10
-1.4733
 20
2.22701
 30
0.0
 11
-1.44699
 21
2.35922
 31
0.0
  0
LINE
  5
53D
  8
0
 10
-1.44699
 20
2.35922
 30
0.0
 11
-1.44644
 21
2.36343
 31
0.0
  0
LINE
  5
53E
  8
0
 10
-1.44644
 20
2.36343
 30
0.0
 11
-1.43764
 21
2.49791
 31
0.0
  0
LINE
  5
53F
  8
0
 10
-1.43764
 20
2.49791
 30
0.0
 11
-1.43764
 21
2.50209
 31
0.0
  0
LINE
  5
540
  8
0
 10
-1.43764
 20
2.50209
 30
0.0
 11
-1.44644
 21
2.63655
 31
0.0
  0
LINE
  5
541
  8
0
 10
-1.44644
 20
2.63655
 30
0.0
 11
-1.44699
 21
2.64076
 31
0.0
  0
LINE
  5
542
  8
0
 10
-1.44699
 20
2.64076
 30
0.0
 11
-1.4733
 21
2.77298
 31
0.0
  0
LINE
  5
543
  8
0
 10
-1.4733
 20
2.77298
 30
0.0
 11
-1.47433
 21
2.77686
 31
0.0
  0
LINE
  5
544
  8
0
 10
-1.47433
 20
2.77686
 30
0.0
 11
-1.51776
 21
2.90479
 31
0.0
  0
LINE
  5
545
  8
0
 10
-1.51776
 20
2.90479
 30
0.0
 11
-1.51924
 21
2.90836
 31
0.0
  0
LINE
  5
546
  8
0
 10
-1.51924
 20
2.90836
 30
0.0
 11
-1.57895
 21
3.02945
 31
0.0
  0
LINE
  5
547
  8
0
 10
-1.57895
 20
3.02945
 30
0.0
 11
-1.58093
 21
3.03288
 31
0.0
  0
LINE
  5
548
  8
0
 10
-1.58093
 20
3.03288
 30
0.0
 11
-1.65598
 21
3.14519
 31
0.0
  0
LINE
  5
549
  8
0
 10
-1.65598
 20
3.14519
 30
0.0
 11
-1.65833
 21
3.14825
 31
0.0
  0
LINE
  5
54A
  8
0
 10
-1.65833
 20
3.14825
 30
0.0
 11
-1.68945
 21
3.18375
 31
0.0
  0
LINE
  5
54B
  8
0
 10
-1.68945
 20
3.18375
 30
0.0
 11
-1.69443
 21
3.19025
 31
0.0
  0
LINE
  5
54C
  8
0
 10
-1.69443
 20
3.19025
 30
0.0
 11
-1.69852
 21
3.19733
 31
0.0
  0
LINE
  5
54D
  8
0
 10
-1.69852
 20
3.19733
 30
0.0
 11
-1.70164
 21
3.20488
 31
0.0
  0
LINE
  5
54E
  8
0
 10
-1.70164
 20
3.20488
 30
0.0
 11
-1.70375
 21
3.21277
 31
0.0
  0
LINE
  5
54F
  8
0
 10
-1.70375
 20
3.21277
 30
0.0
 11
-1.70482
 21
3.22087
 31
0.0
  0
LINE
  5
550
  8
0
 10
-1.70482
 20
3.22087
 30
0.0
 11
-1.70482
 21
3.22905
 31
0.0
  0
LINE
  5
551
  8
0
 10
-1.70482
 20
3.22905
 30
0.0
 11
-1.70375
 21
3.23715
 31
0.0
  0
LINE
  5
552
  8
0
 10
-1.70375
 20
3.23715
 30
0.0
 11
-1.70164
 21
3.24506
 31
0.0
  0
LINE
  5
553
  8
0
 10
-1.70164
 20
3.24506
 30
0.0
 11
-1.69852
 21
3.25261
 31
0.0
  0
LINE
  5
554
  8
0
 10
-1.69852
 20
3.25261
 30
0.0
 11
-1.69443
 21
3.25969
 31
0.0
  0
LINE
  5
555
  8
0
 10
-1.69443
 20
3.25969
 30
0.0
 11
-1.68665
 21
3.26915
 31
0.0
  0
LINE
  5
556
  8
0
 10
-1.68665
 20
3.26915
 30
0.0
 11
-1.41444
 21
3.54134
 31
0.0
  0
LINE
  5
557
  8
0
 10
-1.41444
 20
3.54134
 30
0.0
 11
-1.40829
 21
3.54674
 31
0.0
  0
LINE
  5
558
  8
0
 10
-1.40829
 20
3.54674
 30
0.0
 11
-1.4015
 21
3.55127
 31
0.0
  0
LINE
  5
559
  8
0
 10
-1.4015
 20
3.55127
 30
0.0
 11
-1.39417
 21
3.55489
 31
0.0
  0
LINE
  5
55A
  8
0
 10
-1.39417
 20
3.55489
 30
0.0
 11
-1.38643
 21
3.55751
 31
0.0
  0
LINE
  5
55B
  8
0
 10
-1.38643
 20
3.55751
 30
0.0
 11
-1.37842
 21
3.55911
 31
0.0
  0
LINE
  5
55C
  8
0
 10
-1.37842
 20
3.55911
 30
0.0
 11
-1.37025
 21
3.55965
 31
0.0
  0
LINE
  5
55D
  8
0
 10
-1.37025
 20
3.55965
 30
0.0
 11
-1.36209
 21
3.55911
 31
0.0
  0
LINE
  5
55E
  8
0
 10
-1.36209
 20
3.55911
 30
0.0
 11
-1.35408
 21
3.55751
 31
0.0
  0
LINE
  5
55F
  8
0
 10
-1.35408
 20
3.55751
 30
0.0
 11
-1.34633
 21
3.55489
 31
0.0
  0
LINE
  5
560
  8
0
 10
-1.34633
 20
3.55489
 30
0.0
 11
-1.339
 21
3.55127
 31
0.0
  0
LINE
  5
561
  8
0
 10
-1.339
 20
3.55127
 30
0.0
 11
-1.33553
 21
3.54912
 31
0.0
  0
LINE
  5
562
  8
0
 10
-1.33553
 20
3.54912
 30
0.0
 11
-1.28288
 21
3.51395
 31
0.0
  0
LINE
  5
563
  8
0
 10
-1.28288
 20
3.51395
 30
0.0
 11
-1.27945
 21
3.51196
 31
0.0
  0
LINE
  5
564
  8
0
 10
-1.27945
 20
3.51196
 30
0.0
 11
-1.21701
 21
3.48119
 31
0.0
  0
LINE
  5
565
  8
0
 10
-1.21701
 20
3.48119
 30
0.0
 11
-1.21344
 21
3.47971
 31
0.0
  0
LINE
  5
566
  8
0
 10
-1.21344
 20
3.47971
 30
0.0
 11
-1.14745
 21
3.45731
 31
0.0
  0
LINE
  5
567
  8
0
 10
-1.14745
 20
3.45731
 30
0.0
 11
-1.14355
 21
3.45627
 31
0.0
  0
LINE
  5
568
  8
0
 10
-1.14355
 20
3.45627
 30
0.0
 11
-1.08156
 21
3.44392
 31
0.0
  0
LINE
  5
569
  8
0
 10
-1.08156
 20
3.44392
 30
0.0
 11
-1.07365
 21
3.44182
 31
0.0
  0
LINE
  5
56A
  8
0
 10
-1.07365
 20
3.44182
 30
0.0
 11
-1.0661
 21
3.43867
 31
0.0
  0
LINE
  5
56B
  8
0
 10
-1.0661
 20
3.43867
 30
0.0
 11
-1.05902
 21
3.4346
 31
0.0
  0
LINE
  5
56C
  8
0
 10
-1.05902
 20
3.4346
 30
0.0
 11
-1.05254
 21
3.42961
 31
0.0
  0
LINE
  5
56D
  8
0
 10
-1.05254
 20
3.42961
 30
0.0
 11
-1.04675
 21
3.42383
 31
0.0
  0
LINE
  5
56E
  8
0
 10
-1.04675
 20
3.42383
 30
0.0
 11
-1.04178
 21
3.41734
 31
0.0
  0
LINE
  5
56F
  8
0
 10
-1.04178
 20
3.41734
 30
0.0
 11
-1.03769
 21
3.41026
 31
0.0
  0
LINE
  5
570
  8
0
 10
-1.03769
 20
3.41026
 30
0.0
 11
-1.03456
 21
3.40271
 31
0.0
  0
LINE
  5
571
  8
0
 10
-1.03456
 20
3.40271
 30
0.0
 11
-1.03246
 21
3.39482
 31
0.0
  0
LINE
  5
572
  8
0
 10
-1.03246
 20
3.39482
 30
0.0
 11
-1.03125
 21
3.38263
 31
0.0
  0
LINE
  5
573
  8
0
 10
-1.03125
 20
3.38263
 30
0.0
 11
-1.03125
 21
1.61736
 31
0.0
  0
LINE
  5
574
  8
0
 10
-1.03125
 20
1.61736
 30
0.0
 11
-1.03178
 21
1.60919
 31
0.0
  0
LINE
  5
575
  8
0
 10
-1.03178
 20
1.60919
 30
0.0
 11
-1.03339
 21
1.60118
 31
0.0
  0
LINE
  5
576
  8
0
 10
-1.03339
 20
1.60118
 30
0.0
 11
-1.03601
 21
1.59344
 31
0.0
  0
LINE
  5
577
  8
0
 10
-1.03601
 20
1.59344
 30
0.0
 11
-1.03963
 21
1.58611
 31
0.0
  0
LINE
  5
578
  8
0
 10
-1.03963
 20
1.58611
 30
0.0
 11
-1.04416
 21
1.57932
 31
0.0
  0
LINE
  5
579
  8
0
 10
-1.04416
 20
1.57932
 30
0.0
 11
-1.04956
 21
1.57317
 31
0.0
  0
LINE
  5
57A
  8
0
 10
-1.04956
 20
1.57317
 30
0.0
 11
-1.05571
 21
1.56776
 31
0.0
  0
LINE
  5
57B
  8
0
 10
-1.05571
 20
1.56776
 30
0.0
 11
-1.0625
 21
1.56323
 31
0.0
  0
LINE
  5
57C
  8
0
 10
-1.0625
 20
1.56323
 30
0.0
 11
-1.06984
 21
1.55962
 31
0.0
  0
LINE
  5
57D
  8
0
 10
-1.06984
 20
1.55962
 30
0.0
 11
-1.08156
 21
1.55606
 31
0.0
  0
LINE
  5
57E
  8
0
 10
-1.08156
 20
1.55606
 30
0.0
 11
-1.14355
 21
1.54372
 31
0.0
  0
LINE
  5
57F
  8
0
 10
-1.14355
 20
1.54372
 30
0.0
 11
-1.14745
 21
1.54268
 31
0.0
  0
LINE
  5
580
  8
0
 10
-1.14745
 20
1.54268
 30
0.0
 11
-1.21344
 21
1.52028
 31
0.0
  0
LINE
  5
581
  8
0
 10
-1.21344
 20
1.52028
 30
0.0
 11
-1.21701
 21
1.5188
 31
0.0
  0
LINE
  5
582
  8
0
 10
-1.21701
 20
1.5188
 30
0.0
 11
-1.27945
 21
1.48802
 31
0.0
  0
LINE
  5
583
  8
0
 10
-1.27945
 20
1.48802
 30
0.0
 11
-1.28288
 21
1.48604
 31
0.0
  0
LINE
  5
584
  8
0
 10
-1.28288
 20
1.48604
 30
0.0
 11
-1.33553
 21
1.45087
 31
0.0
  0
LINE
  5
585
  8
0
 10
-1.33553
 20
1.45087
 30
0.0
 11
-1.34261
 21
1.44679
 31
0.0
  0
LINE
  5
586
  8
0
 10
-1.34261
 20
1.44679
 30
0.0
 11
-1.35016
 21
1.44365
 31
0.0
  0
LINE
  5
587
  8
0
 10
-1.35016
 20
1.44365
 30
0.0
 11
-1.35806
 21
1.44154
 31
0.0
  0
LINE
  5
588
  8
0
 10
-1.35806
 20
1.44154
 30
0.0
 11
-1.36617
 21
1.44048
 31
0.0
  0
LINE
  5
589
  8
0
 10
-1.36617
 20
1.44048
 30
0.0
 11
-1.37434
 21
1.44048
 31
0.0
  0
LINE
  5
58A
  8
0
 10
-3.63789
 20
1.44087
 30
0.0
 11
-3.6459
 21
1.44247
 31
0.0
  0
LINE
  5
58B
  8
0
 10
-3.6459
 20
1.44247
 30
0.0
 11
-3.65364
 21
1.4451
 31
0.0
  0
LINE
  5
58C
  8
0
 10
-3.65364
 20
1.4451
 30
0.0
 11
-3.66444
 21
1.45087
 31
0.0
  0
LINE
  5
58D
  8
0
 10
-3.66444
 20
1.45087
 30
0.0
 11
-3.71698
 21
1.48596
 31
0.0
  0
LINE
  5
58E
  8
0
 10
-3.71698
 20
1.48596
 30
0.0
 11
-3.72064
 21
1.48807
 31
0.0
  0
LINE
  5
58F
  8
0
 10
-3.72064
 20
1.48807
 30
0.0
 11
-3.78297
 21
1.5188
 31
0.0
  0
LINE
  5
590
  8
0
 10
-3.78297
 20
1.5188
 30
0.0
 11
-3.78654
 21
1.52028
 31
0.0
  0
LINE
  5
591
  8
0
 10
-3.78654
 20
1.52028
 30
0.0
 11
-3.85254
 21
1.54268
 31
0.0
  0
LINE
  5
592
  8
0
 10
-3.85254
 20
1.54268
 30
0.0
 11
-3.85641
 21
1.54372
 31
0.0
  0
LINE
  5
593
  8
0
 10
-3.85641
 20
1.54372
 30
0.0
 11
-3.91844
 21
1.55606
 31
0.0
  0
LINE
  5
594
  8
0
 10
-3.91844
 20
1.55606
 30
0.0
 11
-3.92635
 21
1.55817
 31
0.0
  0
LINE
  5
595
  8
0
 10
-3.92635
 20
1.55817
 30
0.0
 11
-3.9339
 21
1.56129
 31
0.0
  0
LINE
  5
596
  8
0
 10
-3.9339
 20
1.56129
 30
0.0
 11
-3.94098
 21
1.56538
 31
0.0
  0
LINE
  5
597
  8
0
 10
-3.94098
 20
1.56538
 30
0.0
 11
-3.94746
 21
1.57037
 31
0.0
  0
LINE
  5
598
  8
0
 10
-3.94746
 20
1.57037
 30
0.0
 11
-3.95325
 21
1.57614
 31
0.0
  0
LINE
  5
599
  8
0
 10
-3.95325
 20
1.57614
 30
0.0
 11
-3.95822
 21
1.58264
 31
0.0
  0
LINE
  5
59A
  8
0
 10
-3.95822
 20
1.58264
 30
0.0
 11
-3.96231
 21
1.58972
 31
0.0
  0
LINE
  5
59B
  8
0
 10
-3.96231
 20
1.58972
 30
0.0
 11
-3.96544
 21
1.59727
 31
0.0
  0
LINE
  5
59C
  8
0
 10
-3.96544
 20
1.59727
 30
0.0
 11
-3.96754
 21
1.60516
 31
0.0
  0
LINE
  5
59D
  8
0
 10
-3.96754
 20
1.60516
 30
0.0
 11
-3.96875
 21
1.61736
 31
0.0
  0
LINE
  5
59E
  8
0
 10
-3.96875
 20
1.61736
 30
0.0
 11
-3.96875
 21
3.38263
 31
0.0
  0
LINE
  5
59F
  8
0
 10
-3.96875
 20
3.38263
 30
0.0
 11
-3.96822
 21
3.39079
 31
0.0
  0
LINE
  5
5A0
  8
0
 10
-3.96822
 20
3.39079
 30
0.0
 11
-3.96661
 21
3.3988
 31
0.0
  0
LINE
  5
5A1
  8
0
 10
-3.96661
 20
3.3988
 30
0.0
 11
-3.96399
 21
3.40654
 31
0.0
  0
LINE
  5
5A2
  8
0
 10
-3.96399
 20
3.40654
 30
0.0
 11
-3.96037
 21
3.41388
 31
0.0
  0
LINE
  5
5A3
  8
0
 10
-3.96037
 20
3.41388
 30
0.0
 11
-3.95584
 21
3.42067
 31
0.0
  0
LINE
  5
5A4
  8
0
 10
-3.95584
 20
3.42067
 30
0.0
 11
-3.95044
 21
3.42682
 31
0.0
  0
LINE
  5
5A5
  8
0
 10
-3.95044
 20
3.42682
 30
0.0
 11
-3.94429
 21
3.43222
 31
0.0
  0
LINE
  5
5A6
  8
0
 10
-3.94429
 20
3.43222
 30
0.0
 11
-3.9375
 21
3.43675
 31
0.0
  0
LINE
  5
5A7
  8
0
 10
-3.9375
 20
3.43675
 30
0.0
 11
-3.93016
 21
3.44037
 31
0.0
  0
LINE
  5
5A8
  8
0
 10
-3.93016
 20
3.44037
 30
0.0
 11
-3.91844
 21
3.44392
 31
0.0
  0
LINE
  5
5A9
  8
0
 10
-3.91844
 20
3.44392
 30
0.0
 11
-3.85641
 21
3.45627
 31
0.0
  0
LINE
  5
5AA
  8
0
 10
-3.85641
 20
3.45627
 30
0.0
 11
-3.85254
 21
3.45731
 31
0.0
  0
LINE
  5
5AB
  8
0
 10
-3.85254
 20
3.45731
 30
0.0
 11
-3.78654
 21
3.47971
 31
0.0
  0
LINE
  5
5AC
  8
0
 10
-3.78654
 20
3.47971
 30
0.0
 11
-3.78297
 21
3.48119
 31
0.0
  0
LINE
  5
5AD
  8
0
 10
-3.78297
 20
3.48119
 30
0.0
 11
-3.72064
 21
3.51192
 31
0.0
  0
LINE
  5
5AE
  8
0
 10
-3.72064
 20
3.51192
 30
0.0
 11
-3.71698
 21
3.51402
 31
0.0
  0
LINE
  5
5AF
  8
0
 10
-3.71698
 20
3.51402
 30
0.0
 11
-3.66444
 21
3.54912
 31
0.0
  0
LINE
  5
5B0
  8
0
 10
-3.66444
 20
3.54912
 30
0.0
 11
-3.65736
 21
3.55321
 31
0.0
  0
LINE
  5
5B1
  8
0
 10
-3.65736
 20
3.55321
 30
0.0
 11
-3.64981
 21
3.55634
 31
0.0
  0
LINE
  5
5B2
  8
0
 10
-3.64981
 20
3.55634
 30
0.0
 11
-3.64191
 21
3.55844
 31
0.0
  0
LINE
  5
5B3
  8
0
 10
-3.64191
 20
3.55844
 30
0.0
 11
-3.6338
 21
3.55951
 31
0.0
  0
LINE
  5
5B4
  8
0
 10
-3.6338
 20
3.55951
 30
0.0
 11
-3.62563
 21
3.55951
 31
0.0
  0
LINE
  5
5B5
  8
0
 10
-3.62563
 20
3.55951
 30
0.0
 11
-3.61752
 21
3.55844
 31
0.0
  0
LINE
  5
5B6
  8
0
 10
-3.61752
 20
3.55844
 30
0.0
 11
-3.60963
 21
3.55632
 31
0.0
  0
LINE
  5
5B7
  8
0
 10
-3.60963
 20
3.55632
 30
0.0
 11
-3.60208
 21
3.55319
 31
0.0
  0
LINE
  5
5B8
  8
0
 10
-3.60208
 20
3.55319
 30
0.0
 11
-3.595
 21
3.5491
 31
0.0
  0
LINE
  5
5B9
  8
0
 10
-3.595
 20
3.5491
 30
0.0
 11
-3.58554
 21
3.54134
 31
0.0
  0
LINE
  5
5BA
  8
0
 10
-3.58554
 20
3.54134
 30
0.0
 11
-3.31334
 21
3.26913
 31
0.0
  0
LINE
  5
5BB
  8
0
 10
-3.31334
 20
3.26913
 30
0.0
 11
-3.30794
 21
3.26299
 31
0.0
  0
LINE
  5
5BC
  8
0
 10
-3.30794
 20
3.26299
 30
0.0
 11
-3.30341
 21
3.2562
 31
0.0
  0
LINE
  5
5BD
  8
0
 10
-3.30341
 20
3.2562
 30
0.0
 11
-3.29979
 21
3.24886
 31
0.0
  0
LINE
  5
5BE
  8
0
 10
-3.29979
 20
3.24886
 30
0.0
 11
-3.29716
 21
3.24112
 31
0.0
  0
LINE
  5
5BF
  8
0
 10
-3.29716
 20
3.24112
 30
0.0
 11
-3.29556
 21
3.23311
 31
0.0
  0
LINE
  5
5C0
  8
0
 10
-3.29556
 20
3.23311
 30
0.0
 11
-3.29503
 21
3.22495
 31
0.0
  0
LINE
  5
5C1
  8
0
 10
-3.29503
 20
3.22495
 30
0.0
 11
-3.29556
 21
3.21678
 31
0.0
  0
LINE
  5
5C2
  8
0
 10
-3.29556
 20
3.21678
 30
0.0
 11
-3.29716
 21
3.20877
 31
0.0
  0
LINE
  5
5C3
  8
0
 10
-3.29716
 20
3.20877
 30
0.0
 11
-3.29979
 21
3.20103
 31
0.0
  0
LINE
  5
5C4
  8
0
 10
-3.29979
 20
3.20103
 30
0.0
 11
-3.30341
 21
3.1937
 31
0.0
  0
LINE
  5
5C5
  8
0
 10
-3.30341
 20
3.1937
 30
0.0
 11
-3.31053
 21
3.18375
 31
0.0
  0
LINE
  5
5C6
  8
0
 10
-3.31053
 20
3.18375
 30
0.0
 11
-3.3416
 21
3.14832
 31
0.0
  0
LINE
  5
5C7
  8
0
 10
-3.3416
 20
3.14832
 30
0.0
 11
-3.34401
 21
3.14517
 31
0.0
  0
LINE
  5
5C8
  8
0
 10
-3.34401
 20
3.14517
 30
0.0
 11
-3.41905
 21
3.03288
 31
0.0
  0
LINE
  5
5C9
  8
0
 10
-3.41905
 20
3.03288
 30
0.0
 11
-3.42104
 21
3.02945
 31
0.0
  0
LINE
  5
5CA
  8
0
 10
-3.42104
 20
3.02945
 30
0.0
 11
-3.48074
 21
2.90836
 31
0.0
  0
LINE
  5
5CB
  8
0
 10
-3.48074
 20
2.90836
 30
0.0
 11
-3.48222
 21
2.90479
 31
0.0
  0
LINE
  5
5CC
  8
0
 10
-3.48222
 20
2.90479
 30
0.0
 11
-3.52565
 21
2.77686
 31
0.0
  0
LINE
  5
5CD
  8
0
 10
-3.52565
 20
2.77686
 30
0.0
 11
-3.52669
 21
2.77298
 31
0.0
  0
LINE
  5
5CE
  8
0
 10
-3.52669
 20
2.77298
 30
0.0
 11
-3.55299
 21
2.64076
 31
0.0
  0
LINE
  5
5CF
  8
0
 10
-3.55299
 20
2.64076
 30
0.0
 11
-3.55354
 21
2.63655
 31
0.0
  0
LINE
  5
5D0
  8
0
 10
-3.55354
 20
2.63655
 30
0.0
 11
-3.56236
 21
2.50209
 31
0.0
  0
LINE
  5
5D1
  8
0
 10
-3.56236
 20
2.50209
 30
0.0
 11
-3.56236
 21
2.49791
 31
0.0
  0
LINE
  5
5D2
  8
0
 10
-3.56236
 20
2.49791
 30
0.0
 11
-3.55354
 21
2.36343
 31
0.0
  0
LINE
  5
5D3
  8
0
 10
-3.55354
 20
2.36343
 30
0.0
 11
-3.55299
 21
2.35922
 31
0.0
  0
LINE
  5
5D4
  8
0
 10
-3.55299
 20
2.35922
 30
0.0
 11
-3.52669
 21
2.22701
 31
0.0
  0
LINE
  5
5D5
  8
0
 10
-3.52669
 20
2.22701
 30
0.0
 11
-3.52565
 21
2.22313
 31
0.0
  0
LINE
  5
5D6
  8
0
 10
-3.52565
 20
2.22313
 30
0.0
 11
-3.48221
 21
2.09512
 31
0.0
  0
LINE
  5
5D7
  8
0
 10
-3.48221
 20
2.09512
 30
0.0
 11
-3.4808
 21
2.09174
 31
0.0
  0
LINE
  5
5D8
  8
0
 10
-3.4808
 20
2.09174
 30
0.0
 11
-3.42104
 21
1.97054
 31
0.0
  0
LINE
  5
5D9
  8
0
 10
-3.42104
 20
1.97054
 30
0.0
 11
-3.41904
 21
1.96709
 31
0.0
  0
LINE
  5
5DA
  8
0
 10
-3.41904
 20
1.96709
 30
0.0
 11
-3.34401
 21
1.8548
 31
0.0
  0
LINE
  5
5DB
  8
0
 10
-3.34401
 20
1.8548
 30
0.0
 11
-3.34155
 21
1.85161
 31
0.0
  0
LINE
  5
5DC
  8
0
 10
-3.34155
 20
1.85161
 30
0.0
 11
-3.31055
 21
1.81624
 31
0.0
  0
LINE
  5
5DD
  8
0
 10
-3.31055
 20
1.81624
 30
0.0
 11
-3.30557
 21
1.80975
 31
0.0
  0
LINE
  5
5DE
  8
0
 10
-3.30557
 20
1.80975
 30
0.0
 11
-3.30148
 21
1.80267
 31
0.0
  0
LINE
  5
5DF
  8
0
 10
-3.30148
 20
1.80267
 30
0.0
 11
-3.29836
 21
1.79512
 31
0.0
  0
LINE
  5
5E0
  8
0
 10
-3.29836
 20
1.79512
 30
0.0
 11
-3.29625
 21
1.78723
 31
0.0
  0
LINE
  5
5E1
  8
0
 10
-3.29625
 20
1.78723
 30
0.0
 11
-3.29518
 21
1.77913
 31
0.0
  0
LINE
  5
5E2
  8
0
 10
-3.29518
 20
1.77913
 30
0.0
 11
-3.29518
 21
1.77095
 31
0.0
  0
LINE
  5
5E3
  8
0
 10
-3.29518
 20
1.77095
 30
0.0
 11
-3.29625
 21
1.76285
 31
0.0
  0
LINE
  5
5E4
  8
0
 10
-3.29625
 20
1.76285
 30
0.0
 11
-3.29836
 21
1.75494
 31
0.0
  0
LINE
  5
5E5
  8
0
 10
-3.29836
 20
1.75494
 30
0.0
 11
-3.3015
 21
1.74739
 31
0.0
  0
LINE
  5
5E6
  8
0
 10
-3.3015
 20
1.74739
 30
0.0
 11
-3.30557
 21
1.74031
 31
0.0
  0
LINE
  5
5E7
  8
0
 10
-3.30557
 20
1.74031
 30
0.0
 11
-3.31335
 21
1.73085
 31
0.0
  0
LINE
  5
5E8
  8
0
 10
-3.31335
 20
1.73085
 30
0.0
 11
-3.58554
 21
1.45865
 31
0.0
  0
LINE
  5
5E9
  8
0
 10
-3.58554
 20
1.45865
 30
0.0
 11
-3.59167
 21
1.45325
 31
0.0
  0
LINE
  5
5EA
  8
0
 10
-3.59167
 20
1.45325
 30
0.0
 11
-3.59848
 21
1.44872
 31
0.0
  0
LINE
  5
5EB
  8
0
 10
-3.59848
 20
1.44872
 30
0.0
 11
-3.6058
 21
1.4451
 31
0.0
  0
LINE
  5
5EC
  8
0
 10
-3.6058
 20
1.4451
 30
0.0
 11
-3.61356
 21
1.44247
 31
0.0
  0
LINE
  5
5ED
  8
0
 10
-3.61356
 20
1.44247
 30
0.0
 11
-3.62157
 21
1.44087
 31
0.0
  0
LINE
  5
5EE
  8
0
 10
-3.62157
 20
1.44087
 30
0.0
 11
-3.62973
 21
1.44034
 31
0.0
  0
LINE
  5
5EF
  8
0
 10
-3.62973
 20
1.44034
 30
0.0
 11
-3.63789
 21
1.44087
 31
0.0
  0
LINE
  5
5F0
  8
0
 10
-3.38263
 20
1.03125
 30
0.0
 11
-3.39079
 21
1.03178
 31
0.0
  0
LINE
  5
5F1
  8
0
 10
-3.39079
 20
1.03178
 30
0.0
 11
-3.3988
 21
1.03339
 31
0.0
  0
LINE
  5
5F2
  8
0
 10
-3.3988
 20
1.03339
 30
0.0
 11
-3.40654
 21
1.03601
 31
0.0
  0
LINE
  5
5F3
  8
0
 10
-3.40654
 20
1.03601
 30
0.0
 11
-3.41388
 21
1.03963
 31
0.0
  0
LINE
  5
5F4
  8
0
 10
-3.41388
 20
1.03963
 30
0.0
 11
-3.42067
 21
1.04416
 31
0.0
  0
LINE
  5
5F5
  8
0
 10
-3.42067
 20
1.04416
 30
0.0
 11
-3.42682
 21
1.04956
 31
0.0
  0
LINE
  5
5F6
  8
0
 10
-3.42682
 20
1.04956
 30
0.0
 11
-3.43222
 21
1.05571
 31
0.0
  0
LINE
  5
5F7
  8
0
 10
-3.43222
 20
1.05571
 30
0.0
 11
-3.43675
 21
1.0625
 31
0.0
  0
LINE
  5
5F8
  8
0
 10
-3.43675
 20
1.0625
 30
0.0
 11
-3.44037
 21
1.06984
 31
0.0
  0
LINE
  5
5F9
  8
0
 10
-3.44037
 20
1.06984
 30
0.0
 11
-3.44392
 21
1.08156
 31
0.0
  0
LINE
  5
5FA
  8
0
 10
-3.44392
 20
1.08156
 30
0.0
 11
-3.45627
 21
1.14355
 31
0.0
  0
LINE
  5
5FB
  8
0
 10
-3.45627
 20
1.14355
 30
0.0
 11
-3.45731
 21
1.14745
 31
0.0
  0
LINE
  5
5FC
  8
0
 10
-3.45731
 20
1.14745
 30
0.0
 11
-3.47971
 21
1.21344
 31
0.0
  0
LINE
  5
5FD
  8
0
 10
-3.47971
 20
1.21344
 30
0.0
 11
-3.48119
 21
1.21701
 31
0.0
  0
LINE
  5
5FE
  8
0
 10
-3.48119
 20
1.21701
 30
0.0
 11
-3.51196
 21
1.27945
 31
0.0
  0
LINE
  5
5FF
  8
0
 10
-3.51196
 20
1.27945
 30
0.0
 11
-3.51395
 21
1.28288
 31
0.0
  0
LINE
  5
600
  8
0
 10
-3.51395
 20
1.28288
 30
0.0
 11
-3.54912
 21
1.33553
 31
0.0
  0
LINE
  5
601
  8
0
 10
-3.54912
 20
1.33553
 30
0.0
 11
-3.55319
 21
1.34261
 31
0.0
  0
LINE
  5
602
  8
0
 10
-3.55319
 20
1.34261
 30
0.0
 11
-3.55634
 21
1.35016
 31
0.0
  0
LINE
  5
603
  8
0
 10
-3.55634
 20
1.35016
 30
0.0
 11
-3.55844
 21
1.35806
 31
0.0
  0
LINE
  5
604
  8
0
 10
-3.55844
 20
1.35806
 30
0.0
 11
-3.55951
 21
1.36617
 31
0.0
  0
LINE
  5
605
  8
0
 10
-3.55951
 20
1.36617
 30
0.0
 11
-3.55951
 21
1.37434
 31
0.0
  0
LINE
  5
606
  8
0
 10
-3.55951
 20
1.37434
 30
0.0
 11
-3.55844
 21
1.38245
 31
0.0
  0
LINE
  5
607
  8
0
 10
-3.55844
 20
1.38245
 30
0.0
 11
-3.55634
 21
1.39034
 31
0.0
  0
LINE
  5
608
  8
0
 10
-3.55634
 20
1.39034
 30
0.0
 11
-3.55321
 21
1.39789
 31
0.0
  0
LINE
  5
609
  8
0
 10
-3.55321
 20
1.39789
 30
0.0
 11
-3.54912
 21
1.40497
 31
0.0
  0
LINE
  5
60A
  8
0
 10
-3.54912
 20
1.40497
 30
0.0
 11
-3.54414
 21
1.41147
 31
0.0
  0
LINE
  5
60B
  8
0
 10
-3.54414
 20
1.41147
 30
0.0
 11
-3.54134
 21
1.41444
 31
0.0
  0
LINE
  5
60C
  8
0
 10
-3.54134
 20
1.41444
 30
0.0
 11
-3.26915
 21
1.68665
 31
0.0
  0
LINE
  5
60D
  8
0
 10
-3.26915
 20
1.68665
 30
0.0
 11
-3.26302
 21
1.69205
 31
0.0
  0
LINE
  5
60E
  8
0
 10
-3.26302
 20
1.69205
 30
0.0
 11
-3.25621
 21
1.69658
 31
0.0
  0
LINE
  5
60F
  8
0
 10
-3.25621
 20
1.69658
 30
0.0
 11
-3.24889
 21
1.7002
 31
0.0
  0
LINE
  5
610
  8
0
 10
-3.24889
 20
1.7002
 30
0.0
 11
-3.24113
 21
1.70282
 31
0.0
  0
LINE
  5
611
  8
0
 10
-3.24113
 20
1.70282
 30
0.0
 11
-3.23312
 21
1.70442
 31
0.0
  0
LINE
  5
612
  8
0
 10
-3.23312
 20
1.70442
 30
0.0
 11
-3.22496
 21
1.70496
 31
0.0
  0
LINE
  5
613
  8
0
 10
-3.22496
 20
1.70496
 30
0.0
 11
-3.2168
 21
1.70442
 31
0.0
  0
LINE
  5
614
  8
0
 10
-3.2168
 20
1.70442
 30
0.0
 11
-3.20879
 21
1.70282
 31
0.0
  0
LINE
  5
615
  8
0
 10
-3.20879
 20
1.70282
 30
0.0
 11
-3.20105
 21
1.7002
 31
0.0
  0
LINE
  5
616
  8
0
 10
-3.20105
 20
1.7002
 30
0.0
 11
-3.19371
 21
1.69658
 31
0.0
  0
LINE
  5
617
  8
0
 10
-3.19371
 20
1.69658
 30
0.0
 11
-3.18375
 21
1.68945
 31
0.0
  0
LINE
  5
618
  8
0
 10
-3.18375
 20
1.68945
 30
0.0
 11
-3.14825
 21
1.65833
 31
0.0
  0
LINE
  5
619
  8
0
 10
-3.14825
 20
1.65833
 30
0.0
 11
-3.14519
 21
1.65598
 31
0.0
  0
LINE
  5
61A
  8
0
 10
-3.14519
 20
1.65598
 30
0.0
 11
-3.03288
 21
1.58093
 31
0.0
  0
LINE
  5
61B
  8
0
 10
-3.03288
 20
1.58093
 30
0.0
 11
-3.02945
 21
1.57895
 31
0.0
  0
LINE
  5
61C
  8
0
 10
-3.02945
 20
1.57895
 30
0.0
 11
-2.90836
 21
1.51924
 31
0.0
  0
LINE
  5
61D
  8
0
 10
-2.90836
 20
1.51924
 30
0.0
 11
-2.90479
 21
1.51776
 31
0.0
  0
LINE
  5
61E
  8
0
 10
-2.90479
 20
1.51776
 30
0.0
 11
-2.77686
 21
1.47433
 31
0.0
  0
LINE
  5
61F
  8
0
 10
-2.77686
 20
1.47433
 30
0.0
 11
-2.77298
 21
1.4733
 31
0.0
  0
LINE
  5
620
  8
0
 10
-2.77298
 20
1.4733
 30
0.0
 11
-2.64076
 21
1.44699
 31
0.0
  0
LINE
  5
621
  8
0
 10
-2.64076
 20
1.44699
 30
0.0
 11
-2.63655
 21
1.44644
 31
0.0
  0
LINE
  5
622
  8
0
 10
-2.63655
 20
1.44644
 30
0.0
 11
-2.50209
 21
1.43764
 31
0.0
  0
LINE
  5
623
  8
0
 10
-2.50209
 20
1.43764
 30
0.0
 11
-2.49791
 21
1.43764
 31
0.0
  0
LINE
  5
624
  8
0
 10
-2.49791
 20
1.43764
 30
0.0
 11
-2.36343
 21
1.44644
 31
0.0
  0
LINE
  5
625
  8
0
 10
-2.36343
 20
1.44644
 30
0.0
 11
-2.35922
 21
1.44699
 31
0.0
  0
LINE
  5
626
  8
0
 10
-2.35922
 20
1.44699
 30
0.0
 11
-2.22701
 21
1.4733
 31
0.0
  0
LINE
  5
627
  8
0
 10
-2.22701
 20
1.4733
 30
0.0
 11
-2.22313
 21
1.47433
 31
0.0
  0
LINE
  5
628
  8
0
 10
-2.22313
 20
1.47433
 30
0.0
 11
-2.09512
 21
1.51778
 31
0.0
  0
LINE
  5
629
  8
0
 10
-2.09512
 20
1.51778
 30
0.0
 11
-2.09174
 21
1.51918
 31
0.0
  0
LINE
  5
62A
  8
0
 10
-2.09174
 20
1.51918
 30
0.0
 11
-1.97054
 21
1.57895
 31
0.0
  0
LINE
  5
62B
  8
0
 10
-1.97054
 20
1.57895
 30
0.0
 11
-1.96709
 21
1.58095
 31
0.0
  0
LINE
  5
62C
  8
0
 10
-1.96709
 20
1.58095
 30
0.0
 11
-1.85481
 21
1.65598
 31
0.0
  0
LINE
  5
62D
  8
0
 10
-1.85481
 20
1.65598
 30
0.0
 11
-1.85167
 21
1.65839
 31
0.0
  0
LINE
  5
62E
  8
0
 10
-1.85167
 20
1.65839
 30
0.0
 11
-1.81624
 21
1.68945
 31
0.0
  0
LINE
  5
62F
  8
0
 10
-1.81624
 20
1.68945
 30
0.0
 11
-1.80975
 21
1.69443
 31
0.0
  0
LINE
  5
630
  8
0
 10
-1.80975
 20
1.69443
 30
0.0
 11
-1.80267
 21
1.69852
 31
0.0
  0
LINE
  5
631
  8
0
 10
-1.80267
 20
1.69852
 30
0.0
 11
-1.79512
 21
1.70164
 31
0.0
  0
LINE
  5
632
  8
0
 10
-1.79512
 20
1.70164
 30
0.0
 11
-1.78723
 21
1.70375
 31
0.0
  0
LINE
  5
633
  8
0
 10
-1.78723
 20
1.70375
 30
0.0
 11
-1.77913
 21
1.70482
 31
0.0
  0
LINE
  5
634
  8
0
 10
-1.77913
 20
1.70482
 30
0.0
 11
-1.77095
 21
1.70482
 31
0.0
  0
LINE
  5
635
  8
0
 10
-1.77095
 20
1.70482
 30
0.0
 11
-1.76285
 21
1.70375
 31
0.0
  0
LINE
  5
636
  8
0
 10
-1.76285
 20
1.70375
 30
0.0
 11
-1.75494
 21
1.70164
 31
0.0
  0
LINE
  5
637
  8
0
 10
-1.75494
 20
1.70164
 30
0.0
 11
-1.74739
 21
1.6985
 31
0.0
  0
LINE
  5
638
  8
0
 10
-1.74739
 20
1.6985
 30
0.0
 11
-1.74031
 21
1.69443
 31
0.0
  0
LINE
  5
639
  8
0
 10
-1.74031
 20
1.69443
 30
0.0
 11
-1.73085
 21
1.68665
 31
0.0
  0
LINE
  5
63A
  8
0
 10
-1.73085
 20
1.68665
 30
0.0
 11
-1.45865
 21
1.41444
 31
0.0
  0
LINE
  5
63B
  8
0
 10
-1.45865
 20
1.41444
 30
0.0
 11
-1.45325
 21
1.40829
 31
0.0
  0
LINE
  5
63C
  8
0
 10
-1.45325
 20
1.40829
 30
0.0
 11
-1.44872
 21
1.4015
 31
0.0
  0
LINE
  5
63D
  8
0
 10
-1.44872
 20
1.4015
 30
0.0
 11
-1.4451
 21
1.39417
 31
0.0
  0
LINE
  5
63E
  8
0
 10
-1.4451
 20
1.39417
 30
0.0
 11
-1.44247
 21
1.38643
 31
0.0
  0
LINE
  5
63F
  8
0
 10
-1.44247
 20
1.38643
 30
0.0
 11
-1.44087
 21
1.37842
 31
0.0
  0
LINE
  5
640
  8
0
 10
-1.44087
 20
1.37842
 30
0.0
 11
-1.44034
 21
1.37025
 31
0.0
  0
LINE
  5
641
  8
0
 10
-1.44034
 20
1.37025
 30
0.0
 11
-1.44087
 21
1.36209
 31
0.0
  0
LINE
  5
642
  8
0
 10
-1.44087
 20
1.36209
 30
0.0
 11
-1.44247
 21
1.35408
 31
0.0
  0
LINE
  5
643
  8
0
 10
-1.44247
 20
1.35408
 30
0.0
 11
-1.4451
 21
1.34634
 31
0.0
  0
LINE
  5
644
  8
0
 10
-1.4451
 20
1.34634
 30
0.0
 11
-1.44872
 21
1.339
 31
0.0
  0
LINE
  5
645
  8
0
 10
-1.44872
 20
1.339
 30
0.0
 11
-1.45087
 21
1.33553
 31
0.0
  0
LINE
  5
646
  8
0
 10
-1.45087
 20
1.33553
 30
0.0
 11
-1.48604
 21
1.28288
 31
0.0
  0
LINE
  5
647
  8
0
 10
-1.48604
 20
1.28288
 30
0.0
 11
-1.48802
 21
1.27945
 31
0.0
  0
LINE
  5
648
  8
0
 10
-1.48802
 20
1.27945
 30
0.0
 11
-1.5188
 21
1.21701
 31
0.0
  0
LINE
  5
649
  8
0
 10
-1.5188
 20
1.21701
 30
0.0
 11
-1.52028
 21
1.21344
 31
0.0
  0
LINE
  5
64A
  8
0
 10
-1.52028
 20
1.21344
 30
0.0
 11
-1.54268
 21
1.14745
 31
0.0
  0
LINE
  5
64B
  8
0
 10
-1.54268
 20
1.14745
 30
0.0
 11
-1.54372
 21
1.14355
 31
0.0
  0
LINE
  5
64C
  8
0
 10
-1.54372
 20
1.14355
 30
0.0
 11
-1.55606
 21
1.08156
 31
0.0
  0
LINE
  5
64D
  8
0
 10
-1.55606
 20
1.08156
 30
0.0
 11
-1.55817
 21
1.07365
 31
0.0
  0
LINE
  5
64E
  8
0
 10
-1.55817
 20
1.07365
 30
0.0
 11
-1.56131
 21
1.0661
 31
0.0
  0
LINE
  5
64F
  8
0
 10
-1.56131
 20
1.0661
 30
0.0
 11
-1.56538
 21
1.05902
 31
0.0
  0
LINE
  5
650
  8
0
 10
-1.56538
 20
1.05902
 30
0.0
 11
-1.57037
 21
1.05254
 31
0.0
  0
LINE
  5
651
  8
0
 10
-1.57037
 20
1.05254
 30
0.0
 11
-1.57616
 21
1.04675
 31
0.0
  0
LINE
  5
652
  8
0
 10
-1.57616
 20
1.04675
 30
0.0
 11
-1.58264
 21
1.04178
 31
0.0
  0
LINE
  5
653
  8
0
 10
-1.58264
 20
1.04178
 30
0.0
 11
-1.58972
 21
1.03769
 31
0.0
  0
LINE
  5
654
  8
0
 10
-1.58972
 20
1.03769
 30
0.0
 11
-1.59727
 21
1.03456
 31
0.0
  0
LINE
  5
655
  8
0
 10
-1.59727
 20
1.03456
 30
0.0
 11
-1.60516
 21
1.03246
 31
0.0
  0
LINE
  5
656
  8
0
 10
-1.60516
 20
1.03246
 30
0.0
 11
-1.61736
 21
1.03125
 31
0.0
  0
LINE
  5
657
  8
0
 10
-1.61736
 20
1.03125
 30
0.0
 11
-3.38263
 21
1.03125
 31
0.0
  0
CIRCLE
  5
68D
  8
0
 10
-3.999999999999999
 20
0.9999999999999998
 30
0.0
 40
0.5
  0
CIRCLE
  5
68E
  8
0
 10
-3.999999999999999
 20
3.999999999999999
 30
0.0
 40
0.5000000000000001
  0
CIRCLE
  5
68F
  8
0
 10
-0.9999999999999998
 20
0.9999999999999998
 30
0.0
 40
0.5
  0
CIRCLE
  5
690
  8
0
 10
-0.9999999999999998
 20
3.999999999999999
 30
0.0
 40
0.5
  0
CIRCLE
  5
691
  8
0
 10
-2.499999999999999
 20
2.499999999999999
 30
0.0
 40
1.0
  0
ENDSEC
  0
EOF
