  0
SECTION
  2
HEADER
  9
$ACADVER
  1
AC1009
  9
$DWGCODEPAGE
  3
ANSI_1252
  9
$INSBASE
 10
0.0
 20
0.0
 30
0.0
  9
$EXTMIN
 10
-100
 20
-100
 30
-100
  9
$EXTMAX
 10
100
 20
100
 30
100
  9
$LIMMIN
 10
0.0
 20
0.0
  9
$LIMMAX
 10
420.0
 20
297.0
  9
$ORTHOMODE
 70
0
  9
$REGENMODE
 70
1
  9
$DRAGMODE
 70
2
  9
$FILLMODE
 70
1
  9
$QTEXTMODE
 70
0
  9
$MIRRTEXT
 70
1
  9
$OSMODE
 70
20583
  9
$LTSCALE
 40
1.0
  9
$ATTMODE
 70
1
  9
$TEXTSIZE
 40
2.5
  9
$TRACEWID
 40
1.0
  9
$TEXTSTYLE
  7
Standard
  9
$CLAYER
  8
0
  9
$CELTYPE
  6
ByLayer
  9
$CECOLOR
 62
256
  9
$DIMSCALE
 40
1.0
  9
$DIMASZ
 40
2.5
  9
$DIMEXO
 40
0.625
  9
$DIMDLI
 40
3.75
  9
$DIMRND
 40
0.0
  9
$DIMDLE
 40
0.0
  9
$DIMEXE
 40
1.25
  9
$DIMTP
 40
0.0
  9
$DIMTM
 40
0.0
  9
$DIMTXT
 40
2.5
  9
$DIMCEN
 40
2.5
  9
$DIMTSZ
 40
0.0
  9
$DIMTOL
 70
0
  9
$DIMLIM
 70
0
  9
$DIMTIH
 70
0
  9
$DIMTOH
 70
0
  9
$DIMSE1
 70
0
  9
$DIMSE2
 70
0
  9
$DIMTAD
 70
1
  9
$DIMZIN
 70
8
  9
$DIMBLK
  1

  9
$DIMASO
 70
1
  9
$DIMSHO
 70
1
  9
$DIMPOST
  1

  9
$DIMAPOST
  1

  9
$DIMALT
 70
0
  9
$DIMALTD
 70
3
  9
$DIMALTF
 40
0.03937007874
  9
$DIMLFAC
 40
1.0
  9
$DIMTOFL
 70
1
  9
$DIMTVP
 40
0.0
  9
$DIMTIX
 70
0
  9
$DIMSOXD
 70
0
  9
$DIMSAH
 70
0
  9
$DIMBLK1
  1

  9
$DIMBLK2
  1

  9
$DIMSTYLE
  2
ISO-25
  9
$DIMCLRD
 70
0
  9
$DIMCLRE
 70
0
  9
$DIMCLRT
 70
0
  9
$DIMTFAC
 40
1.0
  9
$DIMGAP
 40
0.625
  9
$COORDS
 70
1
  9
$ATTDIA
 70
0
  9
$ATTREQ
 70
1
  9
$HANDLING
 70
1
  9
$LUNITS
 70
2
  9
$LUPREC
 70
4
  9
$SKETCHINC
 40
1.0
  9
$FILLETRAD
 40
10.0
  9
$AUNITS
 70
0
  9
$AUPREC
 70
2
  9
$MENU
  1
.
  9
$ELEVATION
 40
0.0
  9
$PELEVATION
 40
0.0
  9
$THICKNESS
 40
0.0
  9
$LIMCHECK
 70
0
  9
$CHAMFERA
 40
0.0
  9
$CHAMFERB
 40
0.0
  9
$SKPOLY
 70
0
  9
$TDCREATE
 40
2459051.5039004628
  9
$TDUPDATE
 40
2459051.5039004628
  9
$TDINDWG
 40
0.0
  9
$TDUSRTIMER
 40
0.0
  9
$USRTIMER
 70
1
  9
$ANGBASE
 50
0.0
  9
$ANGDIR
 70
0
  9
$PDMODE
 70
0
  9
$PDSIZE
 40
0.0
  9
$PLINEWID
 40
0.0
  9
$SPLFRAME
 70
0
  9
$SPLINETYPE
 70
6
  9
$SPLINESEGS
 70
8
  9
$HANDSEED
  5
3A7
  9
$SURFTAB1
 70
6
  9
$SURFTAB2
 70
6
  9
$SURFTYPE
 70
6
  9
$SURFU
 70
6
  9
$SURFV
 70
6
  9
$UCSNAME
  2

  9
$UCSORG
 10
0.0
 20
0.0
 30
0.0
  9
$UCSXDIR
 10
1.0
 20
0.0
 30
0.0
  9
$UCSYDIR
 10
0.0
 20
1.0
 30
0.0
  9
$PUCSNAME
  2

  9
$PUCSORG
 10
0.0
 20
0.0
 30
0.0
  9
$PUCSXDIR
 10
1.0
 20
0.0
 30
0.0
  9
$PUCSYDIR
 10
0.0
 20
1.0
 30
0.0
  9
$USERI1
 70
0
  9
$USERI2
 70
0
  9
$USERI3
 70
0
  9
$USERI4
 70
0
  9
$USERI5
 70
0
  9
$USERR1
 40
0.0
  9
$USERR2
 40
0.0
  9
$USERR3
 40
0.0
  9
$USERR4
 40
0.0
  9
$USERR5
 40
0.0
  9
$WORLDVIEW
 70
1
  9
$SHADEDGE
 70
3
  9
$SHADEDIF
 70
70
  9
$TILEMODE
 70
1
  9
$MAXACTVP
 70
64
  9
$PLIMCHECK
 70
0
  9
$PEXTMIN
 10
1e+20
 20
1e+20
 30
1e+20
  9
$PEXTMAX
 10
-1e+20
 20
-1e+20
 30
-1e+20
  9
$PLIMMIN
 10
0.0
 20
0.0
  9
$PLIMMAX
 10
420.0
 20
297.0
  9
$UNITMODE
 70
0
  9
$VISRETAIN
 70
1
  9
$PLINEGEN
 70
0
  9
$PSLTSCALE
 70
1
  0
ENDSEC
  0
SECTION
  2
TABLES
  0
TABLE
  2
VPORT
 70
1
  0
VPORT
  5
398
  2
*Active
 70
0
 10
0.0
 20
0.0
 11
1.0
 21
1.0
 12
70.0
 22
50.0
 13
0.0
 23
0.0
 14
0.5
 24
0.5
 15
0.5
 25
0.5
 16
0.0
 26
0.0
 36
1.0
 17
0.0
 27
0.0
 37
0.0
 40
1.0
 41
1.34
 42
50.0
 43
0.0
 44
0.0
 50
0.0
 51
0.0
 71
0
 72
1000
 73
1
 74
3
 75
0
 76
0
 77
0
 78
0
  0
ENDTAB
  0
TABLE
  2
LTYPE
 70
3
  0
LTYPE
  5
399
  2
ByBlock
 70
0
  3

 72
65
 73
0
 40
0.0
  0
LTYPE
  5
39A
  2
ByLayer
 70
0
  3

 72
65
 73
0
 40
0.0
  0
LTYPE
  5
39B
  2
Continuous
 70
0
  3

 72
65
 73
0
 40
0.0
  0
ENDTAB
  0
TABLE
  2
LAYER
 70
2
  0
LAYER
  5
39C
  2
0
 70
0
 62
7
  6
Continuous
  0
LAYER
  5
39D
  2
Defpoints
 70
0
 62
7
  6
Continuous
  0
ENDTAB
  0
TABLE
  2
STYLE
 70
1
  0
STYLE
  5
39E
  2
Standard
 70
0
 40
0.0
 41
1.0
 50
0.0
 71
0
 42
2.5
  3
txt
  4

  0
ENDTAB
  0
TABLE
  2
VIEW
 70
0
  0
ENDTAB
  0
TABLE
  2
UCS
 70
0
  0
ENDTAB
  0
TABLE
  2
APPID
 70
1
  0
APPID
  5
39F
  2
ACAD
 70
0
  0
ENDTAB
  0
TABLE
  2
DIMSTYLE
 70
1
  0
DIMSTYLE
105
3A0
  2
Standard
 70
0
  3

  4

  5

  6

  7

 40
1.0
 41
2.5
 42
0.625
 43
3.75
 44
1.25
 45
0.0
 46
0.0
 47
0.0
 48
0.0
140
2.5
141
2.5
142
0.0
143
0.03937007874
144
1.0
145
0.0
146
1.0
147
0.625
 71
0
 72
0
 73
0
 74
0
 75
0
 76
0
 77
1
 78
8
170
0
171
3
172
1
173
0
174
0
175
0
176
0
177
0
178
0
  0
ENDTAB
  0
ENDSEC
  0
SECTION
  2
BLOCKS
  0
BLOCK
  5
379
  8
0
  2
$Model_Space
 70
0
 10
0.0
 20
0.0
 30
0.0
  3
$Model_Space
  1

  0
ENDBLK
  5
37A
  8
0
  0
BLOCK
  5
37B
  8
0
  2
$Paper_Space
 70
0
 10
0.0
 20
0.0
 30
0.0
  3
$Paper_Space
  1

  0
ENDBLK
  5
37C
  8
0
  0
ENDSEC
  0
SECTION
  2
ENTITIES
  0
LINE
  5
100
  8
0
 10
-0.998413
 20
3.05176e-05
 30
0.0
 11
-0.969513
 21
0.00050354
 31
0.0
  0
LINE
  5
101
  8
0
 10
-0.969513
 20
0.00050354
 30
0.0
 11
-0.964737
 21
0.000656128
 31
0.0
  0
LINE
  5
102
  8
0
 10
-0.964737
 20
0.000656128
 30
0.0
 11
-0.936935
 21
0.00201416
 31
0.0
  0
LINE
  5
103
  8
0
 10
-0.936935
 20
0.00201416
 30
0.0
 11
-0.932236
 21
0.00233459
 31
0.0
  0
LINE
  5
104
  8
0
 10
-0.932236
 20
0.00233459
 30
0.0
 11
-0.904388
 21
0.00460815
 31
0.0
  0
LINE
  5
105
  8
0
 10
-0.904388
 20
0.00460815
 30
0.0
 11
-0.899857
 21
0.00505066
 31
0.0
  0
LINE
  5
106
  8
0
 10
-0.899857
 20
0.00505066
 30
0.0
 11
-0.871277
 21
0.0083313
 31
0.0
  0
LINE
  5
107
  8
0
 10
-0.871277
 20
0.0083313
 30
0.0
 11
-0.867477
 21
0.00883484
 31
0.0
  0
LINE
  5
108
  8
0
 10
-0.867477
 20
0.00883484
 30
0.0
 11
-0.839172
 21
0.0130463
 31
0.0
  0
LINE
  5
109
  8
0
 10
-0.839172
 20
0.0130463
 30
0.0
 11
-0.835068
 21
0.0137177
 31
0.0
  0
LINE
  5
10A
  8
0
 10
-0.835068
 20
0.0137177
 30
0.0
 11
-0.807098
 21
0.0188141
 31
0.0
  0
LINE
  5
10B
  8
0
 10
-0.807098
 20
0.0188141
 30
0.0
 11
-0.802887
 21
0.0196381
 31
0.0
  0
LINE
  5
10C
  8
0
 10
-0.802887
 20
0.0196381
 30
0.0
 11
-0.775024
 21
0.02565
 31
0.0
  0
LINE
  5
10D
  8
0
 10
-0.775024
 20
0.02565
 30
0.0
 11
-0.770615
 21
0.0266876
 31
0.0
  0
LINE
  5
10E
  8
0
 10
-0.770615
 20
0.0266876
 30
0.0
 11
-0.743378
 21
0.0335236
 31
0.0
  0
LINE
  5
10F
  8
0
 10
-0.743378
 20
0.0335236
 30
0.0
 11
-0.738876
 21
0.034729
 31
0.0
  0
LINE
  5
110
  8
0
 10
-0.738876
 20
0.034729
 30
0.0
 11
-0.711594
 21
0.042511
 31
0.0
  0
LINE
  5
111
  8
0
 10
-0.711594
 20
0.042511
 30
0.0
 11
-0.707916
 21
0.0436096
 31
0.0
  0
LINE
  5
112
  8
0
 10
-0.707916
 20
0.0436096
 30
0.0
 11
-0.680862
 21
0.0523071
 31
0.0
  0
LINE
  5
113
  8
0
 10
-0.680862
 20
0.0523071
 30
0.0
 11
-0.676514
 21
0.0537872
 31
0.0
  0
LINE
  5
114
  8
0
 10
-0.676514
 20
0.0537872
 30
0.0
 11
-0.649185
 21
0.0635681
 31
0.0
  0
LINE
  5
115
  8
0
 10
-0.649185
 20
0.0635681
 30
0.0
 11
-0.646179
 21
0.0646973
 31
0.0
  0
LINE
  5
116
  8
0
 10
-0.646179
 20
0.0646973
 30
0.0
 11
-0.61972
 21
0.0751648
 31
0.0
  0
LINE
  5
117
  8
0
 10
-0.61972
 20
0.0751648
 30
0.0
 11
-0.615219
 21
0.0770111
 31
0.0
  0
LINE
  5
118
  8
0
 10
-0.615219
 20
0.0770111
 30
0.0
 11
-0.589127
 21
0.0883179
 31
0.0
  0
LINE
  5
119
  8
0
 10
-0.589127
 20
0.0883179
 30
0.0
 11
-0.585434
 21
0.0899963
 31
0.0
  0
LINE
  5
11A
  8
0
 10
-0.585434
 20
0.0899963
 30
0.0
 11
-0.559158
 21
0.102432
 31
0.0
  0
LINE
  5
11B
  8
0
 10
-0.559158
 20
0.102432
 30
0.0
 11
-0.556198
 21
0.103897
 31
0.0
  0
LINE
  5
11C
  8
0
 10
-0.556198
 20
0.103897
 30
0.0
 11
-0.530304
 21
0.117203
 31
0.0
  0
LINE
  5
11D
  8
0
 10
-0.530304
 20
0.117203
 30
0.0
 11
-0.526749
 21
0.119095
 31
0.0
  0
LINE
  5
11E
  8
0
 10
-0.526749
 20
0.119095
 30
0.0
 11
-0.50235
 21
0.13266
 31
0.0
  0
LINE
  5
11F
  8
0
 10
-0.50235
 20
0.13266
 30
0.0
 11
-0.497803
 21
0.135284
 31
0.0
  0
LINE
  5
120
  8
0
 10
-0.497803
 20
0.135284
 30
0.0
 11
-0.473877
 21
0.149612
 31
0.0
  0
LINE
  5
121
  8
0
 10
-0.473877
 20
0.149612
 30
0.0
 11
-0.469849
 21
0.15213
 31
0.0
  0
LINE
  5
122
  8
0
 10
-0.469849
 20
0.15213
 30
0.0
 11
-0.446243
 21
0.167343
 31
0.0
  0
LINE
  5
123
  8
0
 10
-0.446243
 20
0.167343
 30
0.0
 11
-0.442963
 21
0.169525
 31
0.0
  0
LINE
  5
124
  8
0
 10
-0.442963
 20
0.169525
 30
0.0
 11
-0.419113
 21
0.186035
 31
0.0
  0
LINE
  5
125
  8
0
 10
-0.419113
 20
0.186035
 30
0.0
 11
-0.415619
 21
0.188553
 31
0.0
  0
LINE
  5
126
  8
0
 10
-0.415619
 20
0.188553
 30
0.0
 11
-0.392944
 21
0.205368
 31
0.0
  0
LINE
  5
127
  8
0
 10
-0.392944
 20
0.205368
 30
0.0
 11
-0.389862
 21
0.207718
 31
0.0
  0
LINE
  5
128
  8
0
 10
-0.389862
 20
0.207718
 30
0.0
 11
-0.366806
 21
0.226013
 31
0.0
  0
LINE
  5
129
  8
0
 10
-0.366806
 20
0.226013
 30
0.0
 11
-0.364182
 21
0.22818
 31
0.0
  0
LINE
  5
12A
  8
0
 10
-0.364182
 20
0.22818
 30
0.0
 11
-0.342438
 21
0.246628
 31
0.0
  0
LINE
  5
12B
  8
0
 10
-0.342438
 20
0.246628
 30
0.0
 11
-0.338913
 21
0.249725
 31
0.0
  0
LINE
  5
12C
  8
0
 10
-0.338913
 20
0.249725
 30
0.0
 11
-0.318558
 21
0.268173
 31
0.0
  0
LINE
  5
12D
  8
0
 10
-0.318558
 20
0.268173
 30
0.0
 11
-0.314636
 21
0.271851
 31
0.0
  0
LINE
  5
12E
  8
0
 10
-0.314636
 20
0.271851
 30
0.0
 11
-0.293854
 21
0.291962
 31
0.0
  0
LINE
  5
12F
  8
0
 10
-0.293854
 20
0.291962
 30
0.0
 11
-0.291962
 21
0.293854
 31
0.0
  0
LINE
  5
130
  8
0
 10
-0.291962
 20
0.293854
 30
0.0
 11
-0.271851
 21
0.314636
 31
0.0
  0
LINE
  5
131
  8
0
 10
-0.271851
 20
0.314636
 30
0.0
 11
-0.268173
 21
0.318558
 31
0.0
  0
LINE
  5
132
  8
0
 10
-0.268173
 20
0.318558
 30
0.0
 11
-0.249725
 21
0.338913
 31
0.0
  0
LINE
  5
133
  8
0
 10
-0.249725
 20
0.338913
 30
0.0
 11
-0.246628
 21
0.342438
 31
0.0
  0
LINE
  5
134
  8
0
 10
-0.246628
 20
0.342438
 30
0.0
 11
-0.22818
 21
0.364182
 31
0.0
  0
LINE
  5
135
  8
0
 10
-0.22818
 20
0.364182
 30
0.0
 11
-0.226013
 21
0.366806
 31
0.0
  0
LINE
  5
136
  8
0
 10
-0.226013
 20
0.366806
 30
0.0
 11
-0.207718
 21
0.389862
 31
0.0
  0
LINE
  5
137
  8
0
 10
-0.207718
 20
0.389862
 30
0.0
 11
-0.205368
 21
0.392944
 31
0.0
  0
LINE
  5
138
  8
0
 10
-0.205368
 20
0.392944
 30
0.0
 11
-0.188553
 21
0.415619
 31
0.0
  0
LINE
  5
139
  8
0
 10
-0.188553
 20
0.415619
 30
0.0
 11
-0.186035
 21
0.419113
 31
0.0
  0
LINE
  5
13A
  8
0
 10
-0.186035
 20
0.419113
 30
0.0
 11
-0.169525
 21
0.442963
 31
0.0
  0
LINE
  5
13B
  8
0
 10
-0.169525
 20
0.442963
 30
0.0
 11
-0.167343
 21
0.446243
 31
0.0
  0
LINE
  5
13C
  8
0
 10
-0.167343
 20
0.446243
 30
0.0
 11
-0.15213
 21
0.469849
 31
0.0
  0
LINE
  5
13D
  8
0
 10
-0.15213
 20
0.469849
 30
0.0
 11
-0.149612
 21
0.473877
 31
0.0
  0
LINE
  5
13E
  8
0
 10
-0.149612
 20
0.473877
 30
0.0
 11
-0.135284
 21
0.497803
 31
0.0
  0
LINE
  5
13F
  8
0
 10
-0.135284
 20
0.497803
 30
0.0
 11
-0.13266
 21
0.50235
 31
0.0
  0
LINE
  5
140
  8
0
 10
-0.13266
 20
0.50235
 30
0.0
 11
-0.119095
 21
0.526749
 31
0.0
  0
LINE
  5
141
  8
0
 10
-0.119095
 20
0.526749
 30
0.0
 11
-0.117203
 21
0.530304
 31
0.0
  0
LINE
  5
142
  8
0
 10
-0.117203
 20
0.530304
 30
0.0
 11
-0.103897
 21
0.556198
 31
0.0
  0
LINE
  5
143
  8
0
 10
-0.103897
 20
0.556198
 30
0.0
 11
-0.102432
 21
0.559158
 31
0.0
  0
LINE
  5
144
  8
0
 10
-0.102432
 20
0.559158
 30
0.0
 11
-0.0899963
 21
0.585434
 31
0.0
  0
LINE
  5
145
  8
0
 10
-0.0899963
 20
0.585434
 30
0.0
 11
-0.0883179
 21
0.589127
 31
0.0
  0
LINE
  5
146
  8
0
 10
-0.0883179
 20
0.589127
 30
0.0
 11
-0.0770111
 21
0.615219
 31
0.0
  0
LINE
  5
147
  8
0
 10
-0.0770111
 20
0.615219
 30
0.0
 11
-0.0751648
 21
0.61972
 31
0.0
  0
LINE
  5
148
  8
0
 10
-0.0751648
 20
0.61972
 30
0.0
 11
-0.0646973
 21
0.646179
 31
0.0
  0
LINE
  5
149
  8
0
 10
-0.0646973
 20
0.646179
 30
0.0
 11
-0.0635681
 21
0.649185
 31
0.0
  0
LINE
  5
14A
  8
0
 10
-0.0635681
 20
0.649185
 30
0.0
 11
-0.0537872
 21
0.676514
 31
0.0
  0
LINE
  5
14B
  8
0
 10
-0.0537872
 20
0.676514
 30
0.0
 11
-0.0524902
 21
0.680328
 31
0.0
  0
LINE
  5
14C
  8
0
 10
-0.0524902
 20
0.680328
 30
0.0
 11
-0.0436096
 21
0.707916
 31
0.0
  0
LINE
  5
14D
  8
0
 10
-0.0436096
 20
0.707916
 30
0.0
 11
-0.042511
 21
0.711594
 31
0.0
  0
LINE
  5
14E
  8
0
 10
-0.042511
 20
0.711594
 30
0.0
 11
-0.034729
 21
0.738876
 31
0.0
  0
LINE
  5
14F
  8
0
 10
-0.034729
 20
0.738876
 30
0.0
 11
-0.0335236
 21
0.743378
 31
0.0
  0
LINE
  5
150
  8
0
 10
-0.0335236
 20
0.743378
 30
0.0
 11
-0.0266876
 21
0.770615
 31
0.0
  0
LINE
  5
151
  8
0
 10
-0.0266876
 20
0.770615
 30
0.0
 11
-0.02565
 21
0.775024
 31
0.0
  0
LINE
  5
152
  8
0
 10
-0.02565
 20
0.775024
 30
0.0
 11
-0.0196381
 21
0.802887
 31
0.0
  0
LINE
  5
153
  8
0
 10
-0.0196381
 20
0.802887
 30
0.0
 11
-0.0188141
 21
0.807098
 31
0.0
  0
LINE
  5
154
  8
0
 10
-0.0188141
 20
0.807098
 30
0.0
 11
-0.0137177
 21
0.835068
 31
0.0
  0
LINE
  5
155
  8
0
 10
-0.0137177
 20
0.835068
 30
0.0
 11
-0.0130463
 21
0.839172
 31
0.0
  0
LINE
  5
156
  8
0
 10
-0.0130463
 20
0.839172
 30
0.0
 11
-0.00883484
 21
0.867477
 31
0.0
  0
LINE
  5
157
  8
0
 10
-0.00883484
 20
0.867477
 30
0.0
 11
-0.0083313
 21
0.871277
 31
0.0
  0
LINE
  5
158
  8
0
 10
-0.0083313
 20
0.871277
 30
0.0
 11
-0.00505066
 21
0.899857
 31
0.0
  0
LINE
  5
159
  8
0
 10
-0.00505066
 20
0.899857
 30
0.0
 11
-0.00460815
 21
0.904388
 31
0.0
  0
LINE
  5
15A
  8
0
 10
-0.00460815
 20
0.904388
 30
0.0
 11
-0.00233459
 21
0.932236
 31
0.0
  0
LINE
  5
15B
  8
0
 10
-0.00233459
 20
0.932236
 30
0.0
 11
-0.00201416
 21
0.936935
 31
0.0
  0
LINE
  5
15C
  8
0
 10
-0.00201416
 20
0.936935
 30
0.0
 11
-0.000656128
 21
0.964737
 31
0.0
  0
LINE
  5
15D
  8
0
 10
-0.000656128
 20
0.964737
 30
0.0
 11
-0.00050354
 21
0.969513
 31
0.0
  0
LINE
  5
15E
  8
0
 10
-0.00050354
 20
0.969513
 30
0.0
 11
-3.05176e-05
 21
0.997803
 31
0.0
  0
LINE
  5
15F
  8
0
 10
-3.05176e-05
 20
0.997803
 30
0.0
 11
0.0
 21
1.00188
 31
0.0
  0
LINE
  5
160
  8
0
 10
0.0
 20
1.00188
 30
0.0
 11
0.0
 21
3.99812
 31
0.0
  0
LINE
  5
161
  8
0
 10
0.0
 20
3.99812
 30
0.0
 11
-3.05176e-05
 21
4.00159
 31
0.0
  0
LINE
  5
162
  8
0
 10
-3.05176e-05
 20
4.00159
 30
0.0
 11
-0.00050354
 21
4.03046
 31
0.0
  0
LINE
  5
163
  8
0
 10
-0.00050354
 20
4.03046
 30
0.0
 11
-0.000656128
 21
4.03525
 31
0.0
  0
LINE
  5
164
  8
0
 10
-0.000656128
 20
4.03525
 30
0.0
 11
-0.00201416
 21
4.06305
 31
0.0
  0
LINE
  5
165
  8
0
 10
-0.00201416
 20
4.06305
 30
0.0
 11
-0.00233459
 21
4.06775
 31
0.0
  0
LINE
  5
166
  8
0
 10
-0.00233459
 20
4.06775
 30
0.0
 11
-0.00460815
 21
4.0956
 31
0.0
  0
LINE
  5
167
  8
0
 10
-0.00460815
 20
4.0956
 30
0.0
 11
-0.00505066
 21
4.10013
 31
0.0
  0
LINE
  5
168
  8
0
 10
-0.00505066
 20
4.10013
 30
0.0
 11
-0.0083313
 21
4.12871
 31
0.0
  0
LINE
  5
169
  8
0
 10
-0.0083313
 20
4.12871
 30
0.0
 11
-0.00883484
 21
4.13251
 31
0.0
  0
LINE
  5
16A
  8
0
 10
-0.00883484
 20
4.13251
 30
0.0
 11
-0.0130463
 21
4.16081
 31
0.0
  0
LINE
  5
16B
  8
0
 10
-0.0130463
 20
4.16081
 30
0.0
 11
-0.0137177
 21
4.16492
 31
0.0
  0
LINE
  5
16C
  8
0
 10
-0.0137177
 20
4.16492
 30
0.0
 11
-0.0188141
 21
4.19289
 31
0.0
  0
LINE
  5
16D
  8
0
 10
-0.0188141
 20
4.19289
 30
0.0
 11
-0.0196381
 21
4.1971
 31
0.0
  0
LINE
  5
16E
  8
0
 10
-0.0196381
 20
4.1971
 30
0.0
 11
-0.02565
 21
4.22496
 31
0.0
  0
LINE
  5
16F
  8
0
 10
-0.02565
 20
4.22496
 30
0.0
 11
-0.0266876
 21
4.22937
 31
0.0
  0
LINE
  5
170
  8
0
 10
-0.0266876
 20
4.22937
 30
0.0
 11
-0.0335236
 21
4.25661
 31
0.0
  0
LINE
  5
171
  8
0
 10
-0.0335236
 20
4.25661
 30
0.0
 11
-0.034729
 21
4.26111
 31
0.0
  0
LINE
  5
172
  8
0
 10
-0.034729
 20
4.26111
 30
0.0
 11
-0.042511
 21
4.28839
 31
0.0
  0
LINE
  5
173
  8
0
 10
-0.042511
 20
4.28839
 30
0.0
 11
-0.0436096
 21
4.29207
 31
0.0
  0
LINE
  5
174
  8
0
 10
-0.0436096
 20
4.29207
 30
0.0
 11
-0.0523071
 21
4.31912
 31
0.0
  0
LINE
  5
175
  8
0
 10
-0.0523071
 20
4.31912
 30
0.0
 11
-0.0537872
 21
4.32347
 31
0.0
  0
LINE
  5
176
  8
0
 10
-0.0537872
 20
4.32347
 30
0.0
 11
-0.0635681
 21
4.3508
 31
0.0
  0
LINE
  5
177
  8
0
 10
-0.0635681
 20
4.3508
 30
0.0
 11
-0.0646973
 21
4.35381
 31
0.0
  0
LINE
  5
178
  8
0
 10
-0.0646973
 20
4.35381
 30
0.0
 11
-0.0751648
 21
4.38026
 31
0.0
  0
LINE
  5
179
  8
0
 10
-0.0751648
 20
4.38026
 30
0.0
 11
-0.0770111
 21
4.38477
 31
0.0
  0
LINE
  5
17A
  8
0
 10
-0.0770111
 20
4.38477
 30
0.0
 11
-0.0883179
 21
4.41086
 31
0.0
  0
LINE
  5
17B
  8
0
 10
-0.0883179
 20
4.41086
 30
0.0
 11
-0.0899963
 21
4.41455
 31
0.0
  0
LINE
  5
17C
  8
0
 10
-0.0899963
 20
4.41455
 30
0.0
 11
-0.102432
 21
4.44083
 31
0.0
  0
LINE
  5
17D
  8
0
 10
-0.102432
 20
4.44083
 30
0.0
 11
-0.103897
 21
4.44379
 31
0.0
  0
LINE
  5
17E
  8
0
 10
-0.103897
 20
4.44379
 30
0.0
 11
-0.117172
 21
4.46964
 31
0.0
  0
LINE
  5
17F
  8
0
 10
-0.117172
 20
4.46964
 30
0.0
 11
-0.119064
 21
4.47318
 31
0.0
  0
LINE
  5
180
  8
0
 10
-0.119064
 20
4.47318
 30
0.0
 11
-0.133026
 21
4.49831
 31
0.0
  0
LINE
  5
181
  8
0
 10
-0.133026
 20
4.49831
 30
0.0
 11
-0.134918
 21
4.50157
 31
0.0
  0
LINE
  5
182
  8
0
 10
-0.134918
 20
4.50157
 30
0.0
 11
-0.149796
 21
4.5264
 31
0.0
  0
LINE
  5
183
  8
0
 10
-0.149796
 20
4.5264
 30
0.0
 11
-0.152023
 21
4.52997
 31
0.0
  0
LINE
  5
184
  8
0
 10
-0.152023
 20
4.52997
 30
0.0
 11
-0.167343
 21
4.55374
 31
0.0
  0
LINE
  5
185
  8
0
 10
-0.167343
 20
4.55374
 30
0.0
 11
-0.169525
 21
4.55702
 31
0.0
  0
LINE
  5
186
  8
0
 10
-0.169525
 20
4.55702
 30
0.0
 11
-0.186035
 21
4.58087
 31
0.0
  0
LINE
  5
187
  8
0
 10
-0.186035
 20
4.58087
 30
0.0
 11
-0.188553
 21
4.58437
 31
0.0
  0
LINE
  5
188
  8
0
 10
-0.188553
 20
4.58437
 30
0.0
 11
-0.205368
 21
4.60704
 31
0.0
  0
LINE
  5
189
  8
0
 10
-0.205368
 20
4.60704
 30
0.0
 11
-0.207718
 21
4.61012
 31
0.0
  0
LINE
  5
18A
  8
0
 10
-0.207718
 20
4.61012
 30
0.0
 11
-0.226013
 21
4.63318
 31
0.0
  0
LINE
  5
18B
  8
0
 10
-0.226013
 20
4.63318
 30
0.0
 11
-0.22818
 21
4.6358
 31
0.0
  0
LINE
  5
18C
  8
0
 10
-0.22818
 20
4.6358
 30
0.0
 11
-0.246628
 21
4.65755
 31
0.0
  0
LINE
  5
18D
  8
0
 10
-0.246628
 20
4.65755
 30
0.0
 11
-0.249725
 21
4.66107
 31
0.0
  0
LINE
  5
18E
  8
0
 10
-0.249725
 20
4.66107
 30
0.0
 11
-0.268173
 21
4.68143
 31
0.0
  0
LINE
  5
18F
  8
0
 10
-0.268173
 20
4.68143
 30
0.0
 11
-0.271851
 21
4.68535
 31
0.0
  0
LINE
  5
190
  8
0
 10
-0.271851
 20
4.68535
 30
0.0
 11
-0.291962
 21
4.70613
 31
0.0
  0
LINE
  5
191
  8
0
 10
-0.291962
 20
4.70613
 30
0.0
 11
-0.293854
 21
4.70802
 31
0.0
  0
LINE
  5
192
  8
0
 10
-0.293854
 20
4.70802
 30
0.0
 11
-0.314636
 21
4.72813
 31
0.0
  0
LINE
  5
193
  8
0
 10
-0.314636
 20
4.72813
 30
0.0
 11
-0.318558
 21
4.73181
 31
0.0
  0
LINE
  5
194
  8
0
 10
-0.318558
 20
4.73181
 30
0.0
 11
-0.338913
 21
4.75026
 31
0.0
  0
LINE
  5
195
  8
0
 10
-0.338913
 20
4.75026
 30
0.0
 11
-0.342438
 21
4.75336
 31
0.0
  0
LINE
  5
196
  8
0
 10
-0.342438
 20
4.75336
 30
0.0
 11
-0.364182
 21
4.7718
 31
0.0
  0
LINE
  5
197
  8
0
 10
-0.364182
 20
4.7718
 30
0.0
 11
-0.366806
 21
4.77397
 31
0.0
  0
LINE
  5
198
  8
0
 10
-0.366806
 20
4.77397
 30
0.0
 11
-0.389862
 21
4.79227
 31
0.0
  0
LINE
  5
199
  8
0
 10
-0.389862
 20
4.79227
 30
0.0
 11
-0.392944
 21
4.79462
 31
0.0
  0
LINE
  5
19A
  8
0
 10
-0.392944
 20
4.79462
 30
0.0
 11
-0.415619
 21
4.81143
 31
0.0
  0
LINE
  5
19B
  8
0
 10
-0.415619
 20
4.81143
 30
0.0
 11
-0.419113
 21
4.81395
 31
0.0
  0
LINE
  5
19C
  8
0
 10
-0.419113
 20
4.81395
 30
0.0
 11
-0.442963
 21
4.83046
 31
0.0
  0
LINE
  5
19D
  8
0
 10
-0.442963
 20
4.83046
 30
0.0
 11
-0.446243
 21
4.83264
 31
0.0
  0
LINE
  5
19E
  8
0
 10
-0.446243
 20
4.83264
 30
0.0
 11
-0.469849
 21
4.84785
 31
0.0
  0
LINE
  5
19F
  8
0
 10
-0.469849
 20
4.84785
 30
0.0
 11
-0.473877
 21
4.85037
 31
0.0
  0
LINE
  5
1A0
  8
0
 10
-0.473877
 20
4.85037
 30
0.0
 11
-0.497803
 21
4.8647
 31
0.0
  0
LINE
  5
1A1
  8
0
 10
-0.497803
 20
4.8647
 30
0.0
 11
-0.50235
 21
4.86732
 31
0.0
  0
LINE
  5
1A2
  8
0
 10
-0.50235
 20
4.86732
 30
0.0
 11
-0.526749
 21
4.88089
 31
0.0
  0
LINE
  5
1A3
  8
0
 10
-0.526749
 20
4.88089
 30
0.0
 11
-0.530304
 21
4.88278
 31
0.0
  0
LINE
  5
1A4
  8
0
 10
-0.530304
 20
4.88278
 30
0.0
 11
-0.556198
 21
4.89609
 31
0.0
  0
LINE
  5
1A5
  8
0
 10
-0.556198
 20
4.89609
 30
0.0
 11
-0.559158
 21
4.89755
 31
0.0
  0
LINE
  5
1A6
  8
0
 10
-0.559158
 20
4.89755
 30
0.0
 11
-0.585434
 21
4.90999
 31
0.0
  0
LINE
  5
1A7
  8
0
 10
-0.585434
 20
4.90999
 30
0.0
 11
-0.589127
 21
4.91167
 31
0.0
  0
LINE
  5
1A8
  8
0
 10
-0.589127
 20
4.91167
 30
0.0
 11
-0.615219
 21
4.92297
 31
0.0
  0
LINE
  5
1A9
  8
0
 10
-0.615219
 20
4.92297
 30
0.0
 11
-0.61972
 21
4.92482
 31
0.0
  0
LINE
  5
1AA
  8
0
 10
-0.61972
 20
4.92482
 30
0.0
 11
-0.646179
 21
4.93529
 31
0.0
  0
LINE
  5
1AB
  8
0
 10
-0.646179
 20
4.93529
 30
0.0
 11
-0.649185
 21
4.93642
 31
0.0
  0
LINE
  5
1AC
  8
0
 10
-0.649185
 20
4.93642
 30
0.0
 11
-0.676514
 21
4.9462
 31
0.0
  0
LINE
  5
1AD
  8
0
 10
-0.676514
 20
4.9462
 30
0.0
 11
-0.680862
 21
4.94768
 31
0.0
  0
LINE
  5
1AE
  8
0
 10
-0.680862
 20
4.94768
 30
0.0
 11
-0.707916
 21
4.95638
 31
0.0
  0
LINE
  5
1AF
  8
0
 10
-0.707916
 20
4.95638
 30
0.0
 11
-0.711594
 21
4.95747
 31
0.0
  0
LINE
  5
1B0
  8
0
 10
-0.711594
 20
4.95747
 30
0.0
 11
-0.738876
 21
4.96526
 31
0.0
  0
LINE
  5
1B1
  8
0
 10
-0.738876
 20
4.96526
 30
0.0
 11
-0.743378
 21
4.96646
 31
0.0
  0
LINE
  5
1B2
  8
0
 10
-0.743378
 20
4.96646
 30
0.0
 11
-0.770615
 21
4.9733
 31
0.0
  0
LINE
  5
1B3
  8
0
 10
-0.770615
 20
4.9733
 30
0.0
 11
-0.775024
 21
4.97433
 31
0.0
  0
LINE
  5
1B4
  8
0
 10
-0.775024
 20
4.97433
 30
0.0
 11
-0.802887
 21
4.98035
 31
0.0
  0
LINE
  5
1B5
  8
0
 10
-0.802887
 20
4.98035
 30
0.0
 11
-0.807098
 21
4.98117
 31
0.0
  0
LINE
  5
1B6
  8
0
 10
-0.807098
 20
4.98117
 30
0.0
 11
-0.835068
 21
4.98627
 31
0.0
  0
LINE
  5
1B7
  8
0
 10
-0.835068
 20
4.98627
 30
0.0
 11
-0.839172
 21
4.98694
 31
0.0
  0
LINE
  5
1B8
  8
0
 10
-0.839172
 20
4.98694
 30
0.0
 11
-0.867477
 21
4.99115
 31
0.0
  0
LINE
  5
1B9
  8
0
 10
-0.867477
 20
4.99115
 30
0.0
 11
-0.871277
 21
4.99165
 31
0.0
  0
LINE
  5
1BA
  8
0
 10
-0.871277
 20
4.99165
 30
0.0
 11
-0.899857
 21
4.99493
 31
0.0
  0
LINE
  5
1BB
  8
0
 10
-0.899857
 20
4.99493
 30
0.0
 11
-0.904388
 21
4.99538
 31
0.0
  0
LINE
  5
1BC
  8
0
 10
-0.904388
 20
4.99538
 30
0.0
 11
-0.932236
 21
4.99765
 31
0.0
  0
LINE
  5
1BD
  8
0
 10
-0.932236
 20
4.99765
 30
0.0
 11
-0.936935
 21
4.99797
 31
0.0
  0
LINE
  5
1BE
  8
0
 10
-0.936935
 20
4.99797
 30
0.0
 11
-0.96553
 21
4.99936
 31
0.0
  0
LINE
  5
1BF
  8
0
 10
-0.96553
 20
4.99936
 30
0.0
 11
-0.968765
 21
4.99948
 31
0.0
  0
LINE
  5
1C0
  8
0
 10
-0.968765
 20
4.99948
 30
0.0
 11
-1.00182
 21
5.0
 31
0.0
  0
LINE
  5
1C1
  8
0
 10
-1.00182
 20
5.0
 30
0.0
 11
-3.99818
 21
5.0
 31
0.0
  0
LINE
  5
1C2
  8
0
 10
-3.99818
 20
5.0
 30
0.0
 11
-4.03122
 21
4.99948
 31
0.0
  0
LINE
  5
1C3
  8
0
 10
-4.03122
 20
4.99948
 30
0.0
 11
-4.03445
 21
4.99936
 31
0.0
  0
LINE
  5
1C4
  8
0
 10
-4.03445
 20
4.99936
 30
0.0
 11
-4.06305
 21
4.99797
 31
0.0
  0
LINE
  5
1C5
  8
0
 10
-4.06305
 20
4.99797
 30
0.0
 11
-4.06775
 21
4.99765
 31
0.0
  0
LINE
  5
1C6
  8
0
 10
-4.06775
 20
4.99765
 30
0.0
 11
-4.0956
 21
4.99538
 31
0.0
  0
LINE
  5
1C7
  8
0
 10
-4.0956
 20
4.99538
 30
0.0
 11
-4.10013
 21
4.99493
 31
0.0
  0
LINE
  5
1C8
  8
0
 10
-4.10013
 20
4.99493
 30
0.0
 11
-4.12871
 21
4.99165
 31
0.0
  0
LINE
  5
1C9
  8
0
 10
-4.12871
 20
4.99165
 30
0.0
 11
-4.13251
 21
4.99115
 31
0.0
  0
LINE
  5
1CA
  8
0
 10
-4.13251
 20
4.99115
 30
0.0
 11
-4.16081
 21
4.98694
 31
0.0
  0
LINE
  5
1CB
  8
0
 10
-4.16081
 20
4.98694
 30
0.0
 11
-4.16492
 21
4.98627
 31
0.0
  0
LINE
  5
1CC
  8
0
 10
-4.16492
 20
4.98627
 30
0.0
 11
-4.19289
 21
4.98117
 31
0.0
  0
LINE
  5
1CD
  8
0
 10
-4.19289
 20
4.98117
 30
0.0
 11
-4.1971
 21
4.98035
 31
0.0
  0
LINE
  5
1CE
  8
0
 10
-4.1971
 20
4.98035
 30
0.0
 11
-4.22496
 21
4.97433
 31
0.0
  0
LINE
  5
1CF
  8
0
 10
-4.22496
 20
4.97433
 30
0.0
 11
-4.22937
 21
4.9733
 31
0.0
  0
LINE
  5
1D0
  8
0
 10
-4.22937
 20
4.9733
 30
0.0
 11
-4.25661
 21
4.96646
 31
0.0
  0
LINE
  5
1D1
  8
0
 10
-4.25661
 20
4.96646
 30
0.0
 11
-4.26111
 21
4.96526
 31
0.0
  0
LINE
  5
1D2
  8
0
 10
-4.26111
 20
4.96526
 30
0.0
 11
-4.28839
 21
4.95747
 31
0.0
  0
LINE
  5
1D3
  8
0
 10
-4.28839
 20
4.95747
 30
0.0
 11
-4.29207
 21
4.95638
 31
0.0
  0
LINE
  5
1D4
  8
0
 10
-4.29207
 20
4.95638
 30
0.0
 11
-4.31912
 21
4.94768
 31
0.0
  0
LINE
  5
1D5
  8
0
 10
-4.31912
 20
4.94768
 30
0.0
 11
-4.32347
 21
4.9462
 31
0.0
  0
LINE
  5
1D6
  8
0
 10
-4.32347
 20
4.9462
 30
0.0
 11
-4.3508
 21
4.93642
 31
0.0
  0
LINE
  5
1D7
  8
0
 10
-4.3508
 20
4.93642
 30
0.0
 11
-4.35381
 21
4.93529
 31
0.0
  0
LINE
  5
1D8
  8
0
 10
-4.35381
 20
4.93529
 30
0.0
 11
-4.38026
 21
4.92482
 31
0.0
  0
LINE
  5
1D9
  8
0
 10
-4.38026
 20
4.92482
 30
0.0
 11
-4.38477
 21
4.92297
 31
0.0
  0
LINE
  5
1DA
  8
0
 10
-4.38477
 20
4.92297
 30
0.0
 11
-4.41086
 21
4.91167
 31
0.0
  0
LINE
  5
1DB
  8
0
 10
-4.41086
 20
4.91167
 30
0.0
 11
-4.41455
 21
4.90999
 31
0.0
  0
LINE
  5
1DC
  8
0
 10
-4.41455
 20
4.90999
 30
0.0
 11
-4.44083
 21
4.89755
 31
0.0
  0
LINE
  5
1DD
  8
0
 10
-4.44083
 20
4.89755
 30
0.0
 11
-4.44379
 21
4.89609
 31
0.0
  0
LINE
  5
1DE
  8
0
 10
-4.44379
 20
4.89609
 30
0.0
 11
-4.46964
 21
4.88281
 31
0.0
  0
LINE
  5
1DF
  8
0
 10
-4.46964
 20
4.88281
 30
0.0
 11
-4.47318
 21
4.88092
 31
0.0
  0
LINE
  5
1E0
  8
0
 10
-4.47318
 20
4.88092
 30
0.0
 11
-4.49831
 21
4.86696
 31
0.0
  0
LINE
  5
1E1
  8
0
 10
-4.49831
 20
4.86696
 30
0.0
 11
-4.50157
 21
4.86507
 31
0.0
  0
LINE
  5
1E2
  8
0
 10
-4.50157
 20
4.86507
 30
0.0
 11
-4.5264
 21
4.85019
 31
0.0
  0
LINE
  5
1E3
  8
0
 10
-4.5264
 20
4.85019
 30
0.0
 11
-4.52997
 21
4.84796
 31
0.0
  0
LINE
  5
1E4
  8
0
 10
-4.52997
 20
4.84796
 30
0.0
 11
-4.55374
 21
4.83264
 31
0.0
  0
LINE
  5
1E5
  8
0
 10
-4.55374
 20
4.83264
 30
0.0
 11
-4.55702
 21
4.83046
 31
0.0
  0
LINE
  5
1E6
  8
0
 10
-4.55702
 20
4.83046
 30
0.0
 11
-4.58087
 21
4.81395
 31
0.0
  0
LINE
  5
1E7
  8
0
 10
-4.58087
 20
4.81395
 30
0.0
 11
-4.58437
 21
4.81143
 31
0.0
  0
LINE
  5
1E8
  8
0
 10
-4.58437
 20
4.81143
 30
0.0
 11
-4.60704
 21
4.79462
 31
0.0
  0
LINE
  5
1E9
  8
0
 10
-4.60704
 20
4.79462
 30
0.0
 11
-4.61012
 21
4.79227
 31
0.0
  0
LINE
  5
1EA
  8
0
 10
-4.61012
 20
4.79227
 30
0.0
 11
-4.63318
 21
4.77397
 31
0.0
  0
LINE
  5
1EB
  8
0
 10
-4.63318
 20
4.77397
 30
0.0
 11
-4.6358
 21
4.7718
 31
0.0
  0
LINE
  5
1EC
  8
0
 10
-4.6358
 20
4.7718
 30
0.0
 11
-4.65755
 21
4.75336
 31
0.0
  0
LINE
  5
1ED
  8
0
 10
-4.65755
 20
4.75336
 30
0.0
 11
-4.66107
 21
4.75026
 31
0.0
  0
LINE
  5
1EE
  8
0
 10
-4.66107
 20
4.75026
 30
0.0
 11
-4.68143
 21
4.73181
 31
0.0
  0
LINE
  5
1EF
  8
0
 10
-4.68143
 20
4.73181
 30
0.0
 11
-4.68535
 21
4.72813
 31
0.0
  0
LINE
  5
1F0
  8
0
 10
-4.68535
 20
4.72813
 30
0.0
 11
-4.70613
 21
4.70802
 31
0.0
  0
LINE
  5
1F1
  8
0
 10
-4.70613
 20
4.70802
 30
0.0
 11
-4.70802
 21
4.70613
 31
0.0
  0
LINE
  5
1F2
  8
0
 10
-4.70802
 20
4.70613
 30
0.0
 11
-4.72813
 21
4.68535
 31
0.0
  0
LINE
  5
1F3
  8
0
 10
-4.72813
 20
4.68535
 30
0.0
 11
-4.73181
 21
4.68143
 31
0.0
  0
LINE
  5
1F4
  8
0
 10
-4.73181
 20
4.68143
 30
0.0
 11
-4.75026
 21
4.66107
 31
0.0
  0
LINE
  5
1F5
  8
0
 10
-4.75026
 20
4.66107
 30
0.0
 11
-4.75336
 21
4.65755
 31
0.0
  0
LINE
  5
1F6
  8
0
 10
-4.75336
 20
4.65755
 30
0.0
 11
-4.7718
 21
4.6358
 31
0.0
  0
LINE
  5
1F7
  8
0
 10
-4.7718
 20
4.6358
 30
0.0
 11
-4.77397
 21
4.63318
 31
0.0
  0
LINE
  5
1F8
  8
0
 10
-4.77397
 20
4.63318
 30
0.0
 11
-4.79227
 21
4.61012
 31
0.0
  0
LINE
  5
1F9
  8
0
 10
-4.79227
 20
4.61012
 30
0.0
 11
-4.79462
 21
4.60704
 31
0.0
  0
LINE
  5
1FA
  8
0
 10
-4.79462
 20
4.60704
 30
0.0
 11
-4.81143
 21
4.58437
 31
0.0
  0
LINE
  5
1FB
  8
0
 10
-4.81143
 20
4.58437
 30
0.0
 11
-4.81395
 21
4.58087
 31
0.0
  0
LINE
  5
1FC
  8
0
 10
-4.81395
 20
4.58087
 30
0.0
 11
-4.83046
 21
4.55702
 31
0.0
  0
LINE
  5
1FD
  8
0
 10
-4.83046
 20
4.55702
 30
0.0
 11
-4.83264
 21
4.55374
 31
0.0
  0
LINE
  5
1FE
  8
0
 10
-4.83264
 20
4.55374
 30
0.0
 11
-4.84796
 21
4.52997
 31
0.0
  0
LINE
  5
1FF
  8
0
 10
-4.84796
 20
4.52997
 30
0.0
 11
-4.85019
 21
4.5264
 31
0.0
  0
LINE
  5
200
  8
0
 10
-4.85019
 20
4.5264
 30
0.0
 11
-4.86507
 21
4.50157
 31
0.0
  0
LINE
  5
201
  8
0
 10
-4.86507
 20
4.50157
 30
0.0
 11
-4.86696
 21
4.49831
 31
0.0
  0
LINE
  5
202
  8
0
 10
-4.86696
 20
4.49831
 30
0.0
 11
-4.88092
 21
4.47318
 31
0.0
  0
LINE
  5
203
  8
0
 10
-4.88092
 20
4.47318
 30
0.0
 11
-4.88281
 21
4.46964
 31
0.0
  0
LINE
  5
204
  8
0
 10
-4.88281
 20
4.46964
 30
0.0
 11
-4.89609
 21
4.44379
 31
0.0
  0
LINE
  5
205
  8
0
 10
-4.89609
 20
4.44379
 30
0.0
 11
-4.89755
 21
4.44083
 31
0.0
  0
LINE
  5
206
  8
0
 10
-4.89755
 20
4.44083
 30
0.0
 11
-4.90999
 21
4.41455
 31
0.0
  0
LINE
  5
207
  8
0
 10
-4.90999
 20
4.41455
 30
0.0
 11
-4.91167
 21
4.41086
 31
0.0
  0
LINE
  5
208
  8
0
 10
-4.91167
 20
4.41086
 30
0.0
 11
-4.92297
 21
4.38477
 31
0.0
  0
LINE
  5
209
  8
0
 10
-4.92297
 20
4.38477
 30
0.0
 11
-4.92482
 21
4.38026
 31
0.0
  0
LINE
  5
20A
  8
0
 10
-4.92482
 20
4.38026
 30
0.0
 11
-4.93529
 21
4.35381
 31
0.0
  0
LINE
  5
20B
  8
0
 10
-4.93529
 20
4.35381
 30
0.0
 11
-4.93642
 21
4.3508
 31
0.0
  0
LINE
  5
20C
  8
0
 10
-4.93642
 20
4.3508
 30
0.0
 11
-4.9462
 21
4.32347
 31
0.0
  0
LINE
  5
20D
  8
0
 10
-4.9462
 20
4.32347
 30
0.0
 11
-4.94768
 21
4.31912
 31
0.0
  0
LINE
  5
20E
  8
0
 10
-4.94768
 20
4.31912
 30
0.0
 11
-4.95638
 21
4.29207
 31
0.0
  0
LINE
  5
20F
  8
0
 10
-4.95638
 20
4.29207
 30
0.0
 11
-4.95747
 21
4.28839
 31
0.0
  0
LINE
  5
210
  8
0
 10
-4.95747
 20
4.28839
 30
0.0
 11
-4.96526
 21
4.26111
 31
0.0
  0
LINE
  5
211
  8
0
 10
-4.96526
 20
4.26111
 30
0.0
 11
-4.96646
 21
4.25661
 31
0.0
  0
LINE
  5
212
  8
0
 10
-4.96646
 20
4.25661
 30
0.0
 11
-4.9733
 21
4.22937
 31
0.0
  0
LINE
  5
213
  8
0
 10
-4.9733
 20
4.22937
 30
0.0
 11
-4.97433
 21
4.22496
 31
0.0
  0
LINE
  5
214
  8
0
 10
-4.97433
 20
4.22496
 30
0.0
 11
-4.98035
 21
4.1971
 31
0.0
  0
LINE
  5
215
  8
0
 10
-4.98035
 20
4.1971
 30
0.0
 11
-4.98117
 21
4.19289
 31
0.0
  0
LINE
  5
216
  8
0
 10
-4.98117
 20
4.19289
 30
0.0
 11
-4.98627
 21
4.16492
 31
0.0
  0
LINE
  5
217
  8
0
 10
-4.98627
 20
4.16492
 30
0.0
 11
-4.98694
 21
4.16081
 31
0.0
  0
LINE
  5
218
  8
0
 10
-4.98694
 20
4.16081
 30
0.0
 11
-4.99115
 21
4.13251
 31
0.0
  0
LINE
  5
219
  8
0
 10
-4.99115
 20
4.13251
 30
0.0
 11
-4.99165
 21
4.12871
 31
0.0
  0
LINE
  5
21A
  8
0
 10
-4.99165
 20
4.12871
 30
0.0
 11
-4.99493
 21
4.10013
 31
0.0
  0
LINE
  5
21B
  8
0
 10
-4.99493
 20
4.10013
 30
0.0
 11
-4.99538
 21
4.0956
 31
0.0
  0
LINE
  5
21C
  8
0
 10
-4.99538
 20
4.0956
 30
0.0
 11
-4.99765
 21
4.06775
 31
0.0
  0
LINE
  5
21D
  8
0
 10
-4.99765
 20
4.06775
 30
0.0
 11
-4.99797
 21
4.06305
 31
0.0
  0
LINE
  5
21E
  8
0
 10
-4.99797
 20
4.06305
 30
0.0
 11
-4.99936
 21
4.03445
 31
0.0
  0
LINE
  5
21F
  8
0
 10
-4.99936
 20
4.03445
 30
0.0
 11
-4.99948
 21
4.03122
 31
0.0
  0
LINE
  5
220
  8
0
 10
-4.99948
 20
4.03122
 30
0.0
 11
-5.0
 21
3.99818
 31
0.0
  0
LINE
  5
221
  8
0
 10
-5.0
 20
3.99818
 30
0.0
 11
-5.0
 21
1.00182
 31
0.0
  0
LINE
  5
222
  8
0
 10
-5.0
 20
1.00182
 30
0.0
 11
-4.99997
 21
0.997803
 31
0.0
  0
LINE
  5
223
  8
0
 10
-4.99997
 20
0.997803
 30
0.0
 11
-4.99948
 21
0.968765
 31
0.0
  0
LINE
  5
224
  8
0
 10
-4.99948
 20
0.968765
 30
0.0
 11
-4.99936
 21
0.96553
 31
0.0
  0
LINE
  5
225
  8
0
 10
-4.99936
 20
0.96553
 30
0.0
 11
-4.99797
 21
0.936935
 31
0.0
  0
LINE
  5
226
  8
0
 10
-4.99797
 20
0.936935
 30
0.0
 11
-4.99765
 21
0.932236
 31
0.0
  0
LINE
  5
227
  8
0
 10
-4.99765
 20
0.932236
 30
0.0
 11
-4.99538
 21
0.904388
 31
0.0
  0
LINE
  5
228
  8
0
 10
-4.99538
 20
0.904388
 30
0.0
 11
-4.99493
 21
0.899857
 31
0.0
  0
LINE
  5
229
  8
0
 10
-4.99493
 20
0.899857
 30
0.0
 11
-4.99165
 21
0.871277
 31
0.0
  0
LINE
  5
22A
  8
0
 10
-4.99165
 20
0.871277
 30
0.0
 11
-4.99115
 21
0.867477
 31
0.0
  0
LINE
  5
22B
  8
0
 10
-4.99115
 20
0.867477
 30
0.0
 11
-4.98694
 21
0.839172
 31
0.0
  0
LINE
  5
22C
  8
0
 10
-4.98694
 20
0.839172
 30
0.0
 11
-4.98627
 21
0.835068
 31
0.0
  0
LINE
  5
22D
  8
0
 10
-4.98627
 20
0.835068
 30
0.0
 11
-4.98117
 21
0.807098
 31
0.0
  0
LINE
  5
22E
  8
0
 10
-4.98117
 20
0.807098
 30
0.0
 11
-4.98035
 21
0.802887
 31
0.0
  0
LINE
  5
22F
  8
0
 10
-4.98035
 20
0.802887
 30
0.0
 11
-4.97433
 21
0.775024
 31
0.0
  0
LINE
  5
230
  8
0
 10
-4.97433
 20
0.775024
 30
0.0
 11
-4.9733
 21
0.770615
 31
0.0
  0
LINE
  5
231
  8
0
 10
-4.9733
 20
0.770615
 30
0.0
 11
-4.96646
 21
0.743378
 31
0.0
  0
LINE
  5
232
  8
0
 10
-4.96646
 20
0.743378
 30
0.0
 11
-4.96526
 21
0.738876
 31
0.0
  0
LINE
  5
233
  8
0
 10
-4.96526
 20
0.738876
 30
0.0
 11
-4.95747
 21
0.711594
 31
0.0
  0
LINE
  5
234
  8
0
 10
-4.95747
 20
0.711594
 30
0.0
 11
-4.95638
 21
0.707916
 31
0.0
  0
LINE
  5
235
  8
0
 10
-4.95638
 20
0.707916
 30
0.0
 11
-4.94749
 21
0.680328
 31
0.0
  0
LINE
  5
236
  8
0
 10
-4.94749
 20
0.680328
 30
0.0
 11
-4.9462
 21
0.676514
 31
0.0
  0
LINE
  5
237
  8
0
 10
-4.9462
 20
0.676514
 30
0.0
 11
-4.93642
 21
0.649185
 31
0.0
  0
LINE
  5
238
  8
0
 10
-4.93642
 20
0.649185
 30
0.0
 11
-4.93529
 21
0.646179
 31
0.0
  0
LINE
  5
239
  8
0
 10
-4.93529
 20
0.646179
 30
0.0
 11
-4.92482
 21
0.61972
 31
0.0
  0
LINE
  5
23A
  8
0
 10
-4.92482
 20
0.61972
 30
0.0
 11
-4.92297
 21
0.615219
 31
0.0
  0
LINE
  5
23B
  8
0
 10
-4.92297
 20
0.615219
 30
0.0
 11
-4.91167
 21
0.589127
 31
0.0
  0
LINE
  5
23C
  8
0
 10
-4.91167
 20
0.589127
 30
0.0
 11
-4.90999
 21
0.585434
 31
0.0
  0
LINE
  5
23D
  8
0
 10
-4.90999
 20
0.585434
 30
0.0
 11
-4.89755
 21
0.559158
 31
0.0
  0
LINE
  5
23E
  8
0
 10
-4.89755
 20
0.559158
 30
0.0
 11
-4.89609
 21
0.556198
 31
0.0
  0
LINE
  5
23F
  8
0
 10
-4.89609
 20
0.556198
 30
0.0
 11
-4.88278
 21
0.530304
 31
0.0
  0
LINE
  5
240
  8
0
 10
-4.88278
 20
0.530304
 30
0.0
 11
-4.88089
 21
0.526749
 31
0.0
  0
LINE
  5
241
  8
0
 10
-4.88089
 20
0.526749
 30
0.0
 11
-4.86732
 21
0.50235
 31
0.0
  0
LINE
  5
242
  8
0
 10
-4.86732
 20
0.50235
 30
0.0
 11
-4.8647
 21
0.497803
 31
0.0
  0
LINE
  5
243
  8
0
 10
-4.8647
 20
0.497803
 30
0.0
 11
-4.85037
 21
0.473877
 31
0.0
  0
LINE
  5
244
  8
0
 10
-4.85037
 20
0.473877
 30
0.0
 11
-4.84785
 21
0.469849
 31
0.0
  0
LINE
  5
245
  8
0
 10
-4.84785
 20
0.469849
 30
0.0
 11
-4.83264
 21
0.446243
 31
0.0
  0
LINE
  5
246
  8
0
 10
-4.83264
 20
0.446243
 30
0.0
 11
-4.83046
 21
0.442963
 31
0.0
  0
LINE
  5
247
  8
0
 10
-4.83046
 20
0.442963
 30
0.0
 11
-4.81395
 21
0.419113
 31
0.0
  0
LINE
  5
248
  8
0
 10
-4.81395
 20
0.419113
 30
0.0
 11
-4.81143
 21
0.415619
 31
0.0
  0
LINE
  5
249
  8
0
 10
-4.81143
 20
0.415619
 30
0.0
 11
-4.79462
 21
0.392944
 31
0.0
  0
LINE
  5
24A
  8
0
 10
-4.79462
 20
0.392944
 30
0.0
 11
-4.79227
 21
0.389862
 31
0.0
  0
LINE
  5
24B
  8
0
 10
-4.79227
 20
0.389862
 30
0.0
 11
-4.77397
 21
0.366806
 31
0.0
  0
LINE
  5
24C
  8
0
 10
-4.77397
 20
0.366806
 30
0.0
 11
-4.7718
 21
0.364182
 31
0.0
  0
LINE
  5
24D
  8
0
 10
-4.7718
 20
0.364182
 30
0.0
 11
-4.75336
 21
0.342438
 31
0.0
  0
LINE
  5
24E
  8
0
 10
-4.75336
 20
0.342438
 30
0.0
 11
-4.75026
 21
0.338913
 31
0.0
  0
LINE
  5
24F
  8
0
 10
-4.75026
 20
0.338913
 30
0.0
 11
-4.73181
 21
0.318558
 31
0.0
  0
LINE
  5
250
  8
0
 10
-4.73181
 20
0.318558
 30
0.0
 11
-4.72813
 21
0.314636
 31
0.0
  0
LINE
  5
251
  8
0
 10
-4.72813
 20
0.314636
 30
0.0
 11
-4.70802
 21
0.293854
 31
0.0
  0
LINE
  5
252
  8
0
 10
-4.70802
 20
0.293854
 30
0.0
 11
-4.70613
 21
0.291962
 31
0.0
  0
LINE
  5
253
  8
0
 10
-4.70613
 20
0.291962
 30
0.0
 11
-4.68535
 21
0.271851
 31
0.0
  0
LINE
  5
254
  8
0
 10
-4.68535
 20
0.271851
 30
0.0
 11
-4.68143
 21
0.268173
 31
0.0
  0
LINE
  5
255
  8
0
 10
-4.68143
 20
0.268173
 30
0.0
 11
-4.66107
 21
0.249725
 31
0.0
  0
LINE
  5
256
  8
0
 10
-4.66107
 20
0.249725
 30
0.0
 11
-4.65755
 21
0.246628
 31
0.0
  0
LINE
  5
257
  8
0
 10
-4.65755
 20
0.246628
 30
0.0
 11
-4.6358
 21
0.22818
 31
0.0
  0
LINE
  5
258
  8
0
 10
-4.6358
 20
0.22818
 30
0.0
 11
-4.63318
 21
0.226013
 31
0.0
  0
LINE
  5
259
  8
0
 10
-4.63318
 20
0.226013
 30
0.0
 11
-4.61012
 21
0.207718
 31
0.0
  0
LINE
  5
25A
  8
0
 10
-4.61012
 20
0.207718
 30
0.0
 11
-4.60704
 21
0.205368
 31
0.0
  0
LINE
  5
25B
  8
0
 10
-4.60704
 20
0.205368
 30
0.0
 11
-4.58437
 21
0.188553
 31
0.0
  0
LINE
  5
25C
  8
0
 10
-4.58437
 20
0.188553
 30
0.0
 11
-4.58087
 21
0.186035
 31
0.0
  0
LINE
  5
25D
  8
0
 10
-4.58087
 20
0.186035
 30
0.0
 11
-4.55702
 21
0.169525
 31
0.0
  0
LINE
  5
25E
  8
0
 10
-4.55702
 20
0.169525
 30
0.0
 11
-4.55374
 21
0.167343
 31
0.0
  0
LINE
  5
25F
  8
0
 10
-4.55374
 20
0.167343
 30
0.0
 11
-4.52997
 21
0.152023
 31
0.0
  0
LINE
  5
260
  8
0
 10
-4.52997
 20
0.152023
 30
0.0
 11
-4.5264
 21
0.149796
 31
0.0
  0
LINE
  5
261
  8
0
 10
-4.5264
 20
0.149796
 30
0.0
 11
-4.50157
 21
0.134918
 31
0.0
  0
LINE
  5
262
  8
0
 10
-4.50157
 20
0.134918
 30
0.0
 11
-4.49831
 21
0.133026
 31
0.0
  0
LINE
  5
263
  8
0
 10
-4.49831
 20
0.133026
 30
0.0
 11
-4.47304
 21
0.118988
 31
0.0
  0
LINE
  5
264
  8
0
 10
-4.47304
 20
0.118988
 30
0.0
 11
-4.46964
 21
0.117172
 31
0.0
  0
LINE
  5
265
  8
0
 10
-4.46964
 20
0.117172
 30
0.0
 11
-4.44379
 21
0.103897
 31
0.0
  0
LINE
  5
266
  8
0
 10
-4.44379
 20
0.103897
 30
0.0
 11
-4.44083
 21
0.102432
 31
0.0
  0
LINE
  5
267
  8
0
 10
-4.44083
 20
0.102432
 30
0.0
 11
-4.41455
 21
0.0899963
 31
0.0
  0
LINE
  5
268
  8
0
 10
-4.41455
 20
0.0899963
 30
0.0
 11
-4.41086
 21
0.0883179
 31
0.0
  0
LINE
  5
269
  8
0
 10
-4.41086
 20
0.0883179
 30
0.0
 11
-4.38477
 21
0.0770111
 31
0.0
  0
LINE
  5
26A
  8
0
 10
-4.38477
 20
0.0770111
 30
0.0
 11
-4.38026
 21
0.0751648
 31
0.0
  0
LINE
  5
26B
  8
0
 10
-4.38026
 20
0.0751648
 30
0.0
 11
-4.35381
 21
0.0646973
 31
0.0
  0
LINE
  5
26C
  8
0
 10
-4.35381
 20
0.0646973
 30
0.0
 11
-4.3508
 21
0.0635681
 31
0.0
  0
LINE
  5
26D
  8
0
 10
-4.3508
 20
0.0635681
 30
0.0
 11
-4.32347
 21
0.0537872
 31
0.0
  0
LINE
  5
26E
  8
0
 10
-4.32347
 20
0.0537872
 30
0.0
 11
-4.31912
 21
0.0523071
 31
0.0
  0
LINE
  5
26F
  8
0
 10
-4.31912
 20
0.0523071
 30
0.0
 11
-4.29207
 21
0.0436096
 31
0.0
  0
LINE
  5
270
  8
0
 10
-4.29207
 20
0.0436096
 30
0.0
 11
-4.28839
 21
0.042511
 31
0.0
  0
LINE
  5
271
  8
0
 10
-4.28839
 20
0.042511
 30
0.0
 11
-4.26111
 21
0.034729
 31
0.0
  0
LINE
  5
272
  8
0
 10
-4.26111
 20
0.034729
 30
0.0
 11
-4.25661
 21
0.0335236
 31
0.0
  0
LINE
  5
273
  8
0
 10
-4.25661
 20
0.0335236
 30
0.0
 11
-4.22937
 21
0.0266876
 31
0.0
  0
LINE
  5
274
  8
0
 10
-4.22937
 20
0.0266876
 30
0.0
 11
-4.22496
 21
0.02565
 31
0.0
  0
LINE
  5
275
  8
0
 10
-4.22496
 20
0.02565
 30
0.0
 11
-4.1971
 21
0.0196381
 31
0.0
  0
LINE
  5
276
  8
0
 10
-4.1971
 20
0.0196381
 30
0.0
 11
-4.19289
 21
0.0188141
 31
0.0
  0
LINE
  5
277
  8
0
 10
-4.19289
 20
0.0188141
 30
0.0
 11
-4.16492
 21
0.0137177
 31
0.0
  0
LINE
  5
278
  8
0
 10
-4.16492
 20
0.0137177
 30
0.0
 11
-4.16081
 21
0.0130463
 31
0.0
  0
LINE
  5
279
  8
0
 10
-4.16081
 20
0.0130463
 30
0.0
 11
-4.13251
 21
0.00883484
 31
0.0
  0
LINE
  5
27A
  8
0
 10
-4.13251
 20
0.00883484
 30
0.0
 11
-4.12871
 21
0.0083313
 31
0.0
  0
LINE
  5
27B
  8
0
 10
-4.12871
 20
0.0083313
 30
0.0
 11
-4.10013
 21
0.00505066
 31
0.0
  0
LINE
  5
27C
  8
0
 10
-4.10013
 20
0.00505066
 30
0.0
 11
-4.0956
 21
0.00460815
 31
0.0
  0
LINE
  5
27D
  8
0
 10
-4.0956
 20
0.00460815
 30
0.0
 11
-4.06775
 21
0.00233459
 31
0.0
  0
LINE
  5
27E
  8
0
 10
-4.06775
 20
0.00233459
 30
0.0
 11
-4.06305
 21
0.00201416
 31
0.0
  0
LINE
  5
27F
  8
0
 10
-4.06305
 20
0.00201416
 30
0.0
 11
-4.03525
 21
0.000656128
 31
0.0
  0
LINE
  5
280
  8
0
 10
-4.03525
 20
0.000656128
 30
0.0
 11
-4.03046
 21
0.00050354
 31
0.0
  0
LINE
  5
281
  8
0
 10
-4.03046
 20
0.00050354
 30
0.0
 11
-4.00159
 21
3.05176e-05
 31
0.0
  0
LINE
  5
282
  8
0
 10
-4.00159
 20
3.05176e-05
 30
0.0
 11
-3.99812
 21
0.0
 31
0.0
  0
LINE
  5
283
  8
0
 10
-3.99812
 20
0.0
 30
0.0
 11
-1.00188
 21
0.0
 31
0.0
  0
LINE
  5
284
  8
0
 10
-1.00188
 20
0.0
 30
0.0
 11
-0.998413
 21
3.05176e-05
 31
0.0
  0
LINE
  5
285
  8
0
 10
-3.07352
 20
4.125
 30
0.0
 11
-3.10616
 21
4.12714
 31
0.0
  0
LINE
  5
286
  8
0
 10
-3.10616
 20
4.12714
 30
0.0
 11
-3.13821
 21
4.13351
 31
0.0
  0
LINE
  5
287
  8
0
 10
-3.13821
 20
4.13351
 30
0.0
 11
-3.16919
 21
4.14403
 31
0.0
  0
LINE
  5
288
  8
0
 10
-3.16919
 20
4.14403
 30
0.0
 11
-3.19852
 21
4.15849
 31
0.0
  0
LINE
  5
289
  8
0
 10
-3.19852
 20
4.15849
 30
0.0
 11
-3.22571
 21
4.17667
 31
0.0
  0
LINE
  5
28A
  8
0
 10
-3.22571
 20
4.17667
 30
0.0
 11
-3.25029
 21
4.19823
 31
0.0
  0
LINE
  5
28B
  8
0
 10
-3.25029
 20
4.19823
 30
0.0
 11
-3.27185
 21
4.22281
 31
0.0
  0
LINE
  5
28C
  8
0
 10
-3.27185
 20
4.22281
 30
0.0
 11
-3.29002
 21
4.25
 31
0.0
  0
LINE
  5
28D
  8
0
 10
-3.29002
 20
4.25
 30
0.0
 11
-3.30449
 21
4.27933
 31
0.0
  0
LINE
  5
28E
  8
0
 10
-3.30449
 20
4.27933
 30
0.0
 11
-3.31071
 21
4.29436
 31
0.0
  0
LINE
  5
28F
  8
0
 10
-3.31071
 20
4.29436
 30
0.0
 11
-3.34685
 21
4.36763
 31
0.0
  0
LINE
  5
290
  8
0
 10
-3.34685
 20
4.36763
 30
0.0
 11
-3.35106
 21
4.37492
 31
0.0
  0
LINE
  5
291
  8
0
 10
-3.35106
 20
4.37492
 30
0.0
 11
-3.36554
 21
4.40425
 31
0.0
  0
LINE
  5
292
  8
0
 10
-3.36554
 20
4.40425
 30
0.0
 11
-3.37605
 21
4.43521
 31
0.0
  0
LINE
  5
293
  8
0
 10
-3.37605
 20
4.43521
 30
0.0
 11
-3.38245
 21
4.46729
 31
0.0
  0
LINE
  5
294
  8
0
 10
-3.38245
 20
4.46729
 30
0.0
 11
-3.3846
 21
4.49992
 31
0.0
  0
LINE
  5
295
  8
0
 10
-3.3846
 20
4.49992
 30
0.0
 11
-3.38248
 21
4.53255
 31
0.0
  0
LINE
  5
296
  8
0
 10
-3.38248
 20
4.53255
 30
0.0
 11
-3.3761
 21
4.56462
 31
0.0
  0
LINE
  5
297
  8
0
 10
-3.3761
 20
4.56462
 30
0.0
 11
-3.3656
 21
4.5956
 31
0.0
  0
LINE
  5
298
  8
0
 10
-3.3656
 20
4.5956
 30
0.0
 11
-3.35115
 21
4.62492
 31
0.0
  0
LINE
  5
299
  8
0
 10
-3.35115
 20
4.62492
 30
0.0
 11
-3.33298
 21
4.65213
 31
0.0
  0
LINE
  5
29A
  8
0
 10
-3.33298
 20
4.65213
 30
0.0
 11
-3.31143
 21
4.67673
 31
0.0
  0
LINE
  5
29B
  8
0
 10
-3.31143
 20
4.67673
 30
0.0
 11
-3.28685
 21
4.69829
 31
0.0
  0
LINE
  5
29C
  8
0
 10
-3.28685
 20
4.69829
 30
0.0
 11
-3.25967
 21
4.71646
 31
0.0
  0
LINE
  5
29D
  8
0
 10
-3.25967
 20
4.71646
 30
0.0
 11
-3.23035
 21
4.73094
 31
0.0
  0
LINE
  5
29E
  8
0
 10
-3.23035
 20
4.73094
 30
0.0
 11
-3.19939
 21
4.74146
 31
0.0
  0
LINE
  5
29F
  8
0
 10
-3.19939
 20
4.74146
 30
0.0
 11
-3.16731
 21
4.74785
 31
0.0
  0
LINE
  5
2A0
  8
0
 10
-3.16731
 20
4.74785
 30
0.0
 11
-3.1346
 21
4.75
 31
0.0
  0
LINE
  5
2A1
  8
0
 10
-3.1346
 20
4.75
 30
0.0
 11
-1.86539
 21
4.75
 31
0.0
  0
LINE
  5
2A2
  8
0
 10
-1.86539
 20
4.75
 30
0.0
 11
-1.83275
 21
4.74786
 31
0.0
  0
LINE
  5
2A3
  8
0
 10
-1.83275
 20
4.74786
 30
0.0
 11
-1.80069
 21
4.74149
 31
0.0
  0
LINE
  5
2A4
  8
0
 10
-1.80069
 20
4.74149
 30
0.0
 11
-1.76971
 21
4.73097
 31
0.0
  0
LINE
  5
2A5
  8
0
 10
-1.76971
 20
4.73097
 30
0.0
 11
-1.74039
 21
4.71651
 31
0.0
  0
LINE
  5
2A6
  8
0
 10
-1.74039
 20
4.71651
 30
0.0
 11
-1.7132
 21
4.69833
 31
0.0
  0
LINE
  5
2A7
  8
0
 10
-1.7132
 20
4.69833
 30
0.0
 11
-1.68861
 21
4.67677
 31
0.0
  0
LINE
  5
2A8
  8
0
 10
-1.68861
 20
4.67677
 30
0.0
 11
-1.66705
 21
4.65219
 31
0.0
  0
LINE
  5
2A9
  8
0
 10
-1.66705
 20
4.65219
 30
0.0
 11
-1.64888
 21
4.625
 31
0.0
  0
LINE
  5
2AA
  8
0
 10
-1.64888
 20
4.625
 30
0.0
 11
-1.63441
 21
4.59567
 31
0.0
  0
LINE
  5
2AB
  8
0
 10
-1.63441
 20
4.59567
 30
0.0
 11
-1.6239
 21
4.5647
 31
0.0
  0
LINE
  5
2AC
  8
0
 10
-1.6239
 20
4.5647
 30
0.0
 11
-1.61752
 21
4.53264
 31
0.0
  0
LINE
  5
2AD
  8
0
 10
-1.61752
 20
4.53264
 30
0.0
 11
-1.61539
 21
4.5
 31
0.0
  0
LINE
  5
2AE
  8
0
 10
-1.61539
 20
4.5
 30
0.0
 11
-1.61752
 21
4.46736
 31
0.0
  0
LINE
  5
2AF
  8
0
 10
-1.61752
 20
4.46736
 30
0.0
 11
-1.6239
 21
4.4353
 31
0.0
  0
LINE
  5
2B0
  8
0
 10
-1.6239
 20
4.4353
 30
0.0
 11
-1.63441
 21
4.40433
 31
0.0
  0
LINE
  5
2B1
  8
0
 10
-1.63441
 20
4.40433
 30
0.0
 11
-1.64893
 21
4.37492
 31
0.0
  0
LINE
  5
2B2
  8
0
 10
-1.64893
 20
4.37492
 30
0.0
 11
-1.65314
 21
4.36763
 31
0.0
  0
LINE
  5
2B3
  8
0
 10
-1.65314
 20
4.36763
 30
0.0
 11
-1.68927
 21
4.29436
 31
0.0
  0
LINE
  5
2B4
  8
0
 10
-1.68927
 20
4.29436
 30
0.0
 11
-1.6955
 21
4.27933
 31
0.0
  0
LINE
  5
2B5
  8
0
 10
-1.6955
 20
4.27933
 30
0.0
 11
-1.70996
 21
4.25
 31
0.0
  0
LINE
  5
2B6
  8
0
 10
-1.70996
 20
4.25
 30
0.0
 11
-1.72812
 21
4.22281
 31
0.0
  0
LINE
  5
2B7
  8
0
 10
-1.72812
 20
4.22281
 30
0.0
 11
-1.74969
 21
4.19823
 31
0.0
  0
LINE
  5
2B8
  8
0
 10
-1.74969
 20
4.19823
 30
0.0
 11
-1.77428
 21
4.17667
 31
0.0
  0
LINE
  5
2B9
  8
0
 10
-1.77428
 20
4.17667
 30
0.0
 11
-1.80147
 21
4.15849
 31
0.0
  0
LINE
  5
2BA
  8
0
 10
-1.80147
 20
4.15849
 30
0.0
 11
-1.8308
 21
4.14403
 31
0.0
  0
LINE
  5
2BB
  8
0
 10
-1.8308
 20
4.14403
 30
0.0
 11
-1.86176
 21
4.13351
 31
0.0
  0
LINE
  5
2BC
  8
0
 10
-1.86176
 20
4.13351
 30
0.0
 11
-1.89383
 21
4.12714
 31
0.0
  0
LINE
  5
2BD
  8
0
 10
-1.89383
 20
4.12714
 30
0.0
 11
-1.92647
 21
4.125
 31
0.0
  0
LINE
  5
2BE
  8
0
 10
-1.92647
 20
4.125
 30
0.0
 11
-3.07352
 21
4.125
 31
0.0
  0
LINE
  5
2BF
  8
0
 10
-4.53255
 20
1.61751
 30
0.0
 11
-4.56462
 21
1.62389
 31
0.0
  0
LINE
  5
2C0
  8
0
 10
-4.56462
 20
1.62389
 30
0.0
 11
-4.5956
 21
1.63438
 31
0.0
  0
LINE
  5
2C1
  8
0
 10
-4.5956
 20
1.63438
 30
0.0
 11
-4.62492
 21
1.64883
 31
0.0
  0
LINE
  5
2C2
  8
0
 10
-4.62492
 20
1.64883
 30
0.0
 11
-4.65213
 21
1.66701
 31
0.0
  0
LINE
  5
2C3
  8
0
 10
-4.65213
 20
1.66701
 30
0.0
 11
-4.67673
 21
1.68855
 31
0.0
  0
LINE
  5
2C4
  8
0
 10
-4.67673
 20
1.68855
 30
0.0
 11
-4.69829
 21
1.71313
 31
0.0
  0
LINE
  5
2C5
  8
0
 10
-4.69829
 20
1.71313
 30
0.0
 11
-4.71646
 21
1.74031
 31
0.0
  0
LINE
  5
2C6
  8
0
 10
-4.71646
 20
1.74031
 30
0.0
 11
-4.73094
 21
1.76964
 31
0.0
  0
LINE
  5
2C7
  8
0
 10
-4.73094
 20
1.76964
 30
0.0
 11
-4.74146
 21
1.8006
 31
0.0
  0
LINE
  5
2C8
  8
0
 10
-4.74146
 20
1.8006
 30
0.0
 11
-4.74785
 21
1.83267
 31
0.0
  0
LINE
  5
2C9
  8
0
 10
-4.74785
 20
1.83267
 30
0.0
 11
-4.75
 21
1.86539
 31
0.0
  0
LINE
  5
2CA
  8
0
 10
-4.75
 20
1.86539
 30
0.0
 11
-4.75
 21
3.1346
 31
0.0
  0
LINE
  5
2CB
  8
0
 10
-4.75
 20
3.1346
 30
0.0
 11
-4.74786
 21
3.16724
 31
0.0
  0
LINE
  5
2CC
  8
0
 10
-4.74786
 20
3.16724
 30
0.0
 11
-4.74149
 21
3.1993
 31
0.0
  0
LINE
  5
2CD
  8
0
 10
-4.74149
 20
3.1993
 30
0.0
 11
-4.73097
 21
3.23027
 31
0.0
  0
LINE
  5
2CE
  8
0
 10
-4.73097
 20
3.23027
 30
0.0
 11
-4.71651
 21
3.2596
 31
0.0
  0
LINE
  5
2CF
  8
0
 10
-4.71651
 20
3.2596
 30
0.0
 11
-4.69833
 21
3.28679
 31
0.0
  0
LINE
  5
2D0
  8
0
 10
-4.69833
 20
3.28679
 30
0.0
 11
-4.67677
 21
3.31137
 31
0.0
  0
LINE
  5
2D1
  8
0
 10
-4.67677
 20
3.31137
 30
0.0
 11
-4.65219
 21
3.33293
 31
0.0
  0
LINE
  5
2D2
  8
0
 10
-4.65219
 20
3.33293
 30
0.0
 11
-4.625
 21
3.3511
 31
0.0
  0
LINE
  5
2D3
  8
0
 10
-4.625
 20
3.3511
 30
0.0
 11
-4.59567
 21
3.36557
 31
0.0
  0
LINE
  5
2D4
  8
0
 10
-4.59567
 20
3.36557
 30
0.0
 11
-4.5647
 21
3.37608
 31
0.0
  0
LINE
  5
2D5
  8
0
 10
-4.5647
 20
3.37608
 30
0.0
 11
-4.53264
 21
3.38246
 31
0.0
  0
LINE
  5
2D6
  8
0
 10
-4.53264
 20
3.38246
 30
0.0
 11
-4.5
 21
3.3846
 31
0.0
  0
LINE
  5
2D7
  8
0
 10
-4.5
 20
3.3846
 30
0.0
 11
-4.46736
 21
3.38246
 31
0.0
  0
LINE
  5
2D8
  8
0
 10
-4.46736
 20
3.38246
 30
0.0
 11
-4.4353
 21
3.37608
 31
0.0
  0
LINE
  5
2D9
  8
0
 10
-4.4353
 20
3.37608
 30
0.0
 11
-4.40433
 21
3.36557
 31
0.0
  0
LINE
  5
2DA
  8
0
 10
-4.40433
 20
3.36557
 30
0.0
 11
-4.37492
 21
3.35106
 31
0.0
  0
LINE
  5
2DB
  8
0
 10
-4.37492
 20
3.35106
 30
0.0
 11
-4.36763
 21
3.34685
 31
0.0
  0
LINE
  5
2DC
  8
0
 10
-4.36763
 20
3.34685
 30
0.0
 11
-4.29442
 21
3.31073
 31
0.0
  0
LINE
  5
2DD
  8
0
 10
-4.29442
 20
3.31073
 30
0.0
 11
-4.27933
 21
3.30449
 31
0.0
  0
LINE
  5
2DE
  8
0
 10
-4.27933
 20
3.30449
 30
0.0
 11
-4.25
 21
3.29002
 31
0.0
  0
LINE
  5
2DF
  8
0
 10
-4.25
 20
3.29002
 30
0.0
 11
-4.22281
 21
3.27187
 31
0.0
  0
LINE
  5
2E0
  8
0
 10
-4.22281
 20
3.27187
 30
0.0
 11
-4.19823
 21
3.25029
 31
0.0
  0
LINE
  5
2E1
  8
0
 10
-4.19823
 20
3.25029
 30
0.0
 11
-4.17667
 21
3.22571
 31
0.0
  0
LINE
  5
2E2
  8
0
 10
-4.17667
 20
3.22571
 30
0.0
 11
-4.15849
 21
3.19852
 31
0.0
  0
LINE
  5
2E3
  8
0
 10
-4.15849
 20
3.19852
 30
0.0
 11
-4.14403
 21
3.16919
 31
0.0
  0
LINE
  5
2E4
  8
0
 10
-4.14403
 20
3.16919
 30
0.0
 11
-4.13351
 21
3.13823
 31
0.0
  0
LINE
  5
2E5
  8
0
 10
-4.13351
 20
3.13823
 30
0.0
 11
-4.12714
 21
3.10616
 31
0.0
  0
LINE
  5
2E6
  8
0
 10
-4.12714
 20
3.10616
 30
0.0
 11
-4.125
 21
3.07352
 31
0.0
  0
LINE
  5
2E7
  8
0
 10
-4.125
 20
3.07352
 30
0.0
 11
-4.125
 21
1.92647
 31
0.0
  0
LINE
  5
2E8
  8
0
 10
-4.125
 20
1.92647
 30
0.0
 11
-4.12714
 21
1.89383
 31
0.0
  0
LINE
  5
2E9
  8
0
 10
-4.12714
 20
1.89383
 30
0.0
 11
-4.13351
 21
1.86177
 31
0.0
  0
LINE
  5
2EA
  8
0
 10
-4.13351
 20
1.86177
 30
0.0
 11
-4.14403
 21
1.8308
 31
0.0
  0
LINE
  5
2EB
  8
0
 10
-4.14403
 20
1.8308
 30
0.0
 11
-4.15849
 21
1.80147
 31
0.0
  0
LINE
  5
2EC
  8
0
 10
-4.15849
 20
1.80147
 30
0.0
 11
-4.17667
 21
1.77428
 31
0.0
  0
LINE
  5
2ED
  8
0
 10
-4.17667
 20
1.77428
 30
0.0
 11
-4.19823
 21
1.74969
 31
0.0
  0
LINE
  5
2EE
  8
0
 10
-4.19823
 20
1.74969
 30
0.0
 11
-4.22281
 21
1.72813
 31
0.0
  0
LINE
  5
2EF
  8
0
 10
-4.22281
 20
1.72813
 30
0.0
 11
-4.25
 21
1.70996
 31
0.0
  0
LINE
  5
2F0
  8
0
 10
-4.25
 20
1.70996
 30
0.0
 11
-4.27933
 21
1.6955
 31
0.0
  0
LINE
  5
2F1
  8
0
 10
-4.27933
 20
1.6955
 30
0.0
 11
-4.29442
 21
1.68925
 31
0.0
  0
LINE
  5
2F2
  8
0
 10
-4.29442
 20
1.68925
 30
0.0
 11
-4.36763
 21
1.65314
 31
0.0
  0
LINE
  5
2F3
  8
0
 10
-4.36763
 20
1.65314
 30
0.0
 11
-4.37492
 21
1.64893
 31
0.0
  0
LINE
  5
2F4
  8
0
 10
-4.37492
 20
1.64893
 30
0.0
 11
-4.40425
 21
1.63445
 31
0.0
  0
LINE
  5
2F5
  8
0
 10
-4.40425
 20
1.63445
 30
0.0
 11
-4.43521
 21
1.62393
 31
0.0
  0
LINE
  5
2F6
  8
0
 10
-4.43521
 20
1.62393
 30
0.0
 11
-4.46729
 21
1.61754
 31
0.0
  0
LINE
  5
2F7
  8
0
 10
-4.46729
 20
1.61754
 30
0.0
 11
-4.49992
 21
1.61539
 31
0.0
  0
LINE
  5
2F8
  8
0
 10
-4.49992
 20
1.61539
 30
0.0
 11
-4.53255
 21
1.61751
 31
0.0
  0
LINE
  5
2F9
  8
0
 10
-0.532639
 20
1.61754
 30
0.0
 11
-0.564697
 21
1.62392
 31
0.0
  0
LINE
  5
2FA
  8
0
 10
-0.564697
 20
1.62392
 30
0.0
 11
-0.595673
 21
1.63443
 31
0.0
  0
LINE
  5
2FB
  8
0
 10
-0.595673
 20
1.63443
 30
0.0
 11
-0.625
 21
1.6489
 31
0.0
  0
LINE
  5
2FC
  8
0
 10
-0.625
 20
1.6489
 30
0.0
 11
-0.632263
 21
1.65309
 31
0.0
  0
LINE
  5
2FD
  8
0
 10
-0.632263
 20
1.65309
 30
0.0
 11
-0.705673
 21
1.6893
 31
0.0
  0
LINE
  5
2FE
  8
0
 10
-0.705673
 20
1.6893
 30
0.0
 11
-0.720551
 21
1.69545
 31
0.0
  0
LINE
  5
2FF
  8
0
 10
-0.720551
 20
1.69545
 30
0.0
 11
-0.749893
 21
1.7099
 31
0.0
  0
LINE
  5
300
  8
0
 10
-0.749893
 20
1.7099
 30
0.0
 11
-0.777084
 21
1.72806
 31
0.0
  0
LINE
  5
301
  8
0
 10
-0.777084
 20
1.72806
 30
0.0
 11
-0.801682
 21
1.7496
 31
0.0
  0
LINE
  5
302
  8
0
 10
-0.801682
 20
1.7496
 30
0.0
 11
-0.823257
 21
1.77419
 31
0.0
  0
LINE
  5
303
  8
0
 10
-0.823257
 20
1.77419
 30
0.0
 11
-0.841446
 21
1.80136
 31
0.0
  0
LINE
  5
304
  8
0
 10
-0.841446
 20
1.80136
 30
0.0
 11
-0.855927
 21
1.83069
 31
0.0
  0
LINE
  5
305
  8
0
 10
-0.855927
 20
1.83069
 30
0.0
 11
-0.866455
 21
1.86165
 31
0.0
  0
LINE
  5
306
  8
0
 10
-0.866455
 20
1.86165
 30
0.0
 11
-0.872849
 21
1.89371
 31
0.0
  0
LINE
  5
307
  8
0
 10
-0.872849
 20
1.89371
 30
0.0
 11
-0.875
 21
1.92647
 31
0.0
  0
LINE
  5
308
  8
0
 10
-0.875
 20
1.92647
 30
0.0
 11
-0.875
 21
3.07352
 31
0.0
  0
LINE
  5
309
  8
0
 10
-0.875
 20
3.07352
 30
0.0
 11
-0.872864
 21
3.10616
 31
0.0
  0
LINE
  5
30A
  8
0
 10
-0.872864
 20
3.10616
 30
0.0
 11
-0.866486
 21
3.13821
 31
0.0
  0
LINE
  5
30B
  8
0
 10
-0.866486
 20
3.13821
 30
0.0
 11
-0.855972
 21
3.16919
 31
0.0
  0
LINE
  5
30C
  8
0
 10
-0.855972
 20
3.16919
 30
0.0
 11
-0.841507
 21
3.19852
 31
0.0
  0
LINE
  5
30D
  8
0
 10
-0.841507
 20
3.19852
 30
0.0
 11
-0.823334
 21
3.22571
 31
0.0
  0
LINE
  5
30E
  8
0
 10
-0.823334
 20
3.22571
 30
0.0
 11
-0.801773
 21
3.25029
 31
0.0
  0
LINE
  5
30F
  8
0
 10
-0.801773
 20
3.25029
 30
0.0
 11
-0.777191
 21
3.27185
 31
0.0
  0
LINE
  5
310
  8
0
 10
-0.777191
 20
3.27185
 30
0.0
 11
-0.75
 21
3.29002
 31
0.0
  0
LINE
  5
311
  8
0
 10
-0.75
 20
3.29002
 30
0.0
 11
-0.720551
 21
3.30453
 31
0.0
  0
LINE
  5
312
  8
0
 10
-0.720551
 20
3.30453
 30
0.0
 11
-0.705673
 21
3.31068
 31
0.0
  0
LINE
  5
313
  8
0
 10
-0.705673
 20
3.31068
 30
0.0
 11
-0.632263
 21
3.34689
 31
0.0
  0
LINE
  5
314
  8
0
 10
-0.632263
 20
3.34689
 30
0.0
 11
-0.625
 21
3.35109
 31
0.0
  0
LINE
  5
315
  8
0
 10
-0.625
 20
3.35109
 30
0.0
 11
-0.595673
 21
3.36555
 31
0.0
  0
LINE
  5
316
  8
0
 10
-0.595673
 20
3.36555
 30
0.0
 11
-0.564697
 21
3.37607
 31
0.0
  0
LINE
  5
317
  8
0
 10
-0.564697
 20
3.37607
 30
0.0
 11
-0.532623
 21
3.38245
 31
0.0
  0
LINE
  5
318
  8
0
 10
-0.532623
 20
3.38245
 30
0.0
 11
-0.5
 21
3.38458
 31
0.0
  0
LINE
  5
319
  8
0
 10
-0.5
 20
3.38458
 30
0.0
 11
-0.467361
 21
3.38245
 31
0.0
  0
LINE
  5
31A
  8
0
 10
-0.467361
 20
3.38245
 30
0.0
 11
-0.435287
 21
3.37607
 31
0.0
  0
LINE
  5
31B
  8
0
 10
-0.435287
 20
3.37607
 30
0.0
 11
-0.404327
 21
3.36555
 31
0.0
  0
LINE
  5
31C
  8
0
 10
-0.404327
 20
3.36555
 30
0.0
 11
-0.375
 21
3.35109
 31
0.0
  0
LINE
  5
31D
  8
0
 10
-0.375
 20
3.35109
 30
0.0
 11
-0.347809
 21
3.33292
 31
0.0
  0
LINE
  5
31E
  8
0
 10
-0.347809
 20
3.33292
 30
0.0
 11
-0.323227
 21
3.31136
 31
0.0
  0
LINE
  5
31F
  8
0
 10
-0.323227
 20
3.31136
 30
0.0
 11
-0.301666
 21
3.28677
 31
0.0
  0
LINE
  5
320
  8
0
 10
-0.301666
 20
3.28677
 30
0.0
 11
-0.283493
 21
3.25958
 31
0.0
  0
LINE
  5
321
  8
0
 10
-0.283493
 20
3.25958
 30
0.0
 11
-0.269028
 21
3.23026
 31
0.0
  0
LINE
  5
322
  8
0
 10
-0.269028
 20
3.23026
 30
0.0
 11
-0.258514
 21
3.19928
 31
0.0
  0
LINE
  5
323
  8
0
 10
-0.258514
 20
3.19928
 30
0.0
 11
-0.252136
 21
3.16721
 31
0.0
  0
LINE
  5
324
  8
0
 10
-0.252136
 20
3.16721
 30
0.0
 11
-0.25
 21
3.13458
 31
0.0
  0
LINE
  5
325
  8
0
 10
-0.25
 20
3.13458
 30
0.0
 11
-0.25
 21
1.8654
 31
0.0
  0
LINE
  5
326
  8
0
 10
-0.25
 20
1.8654
 30
0.0
 11
-0.252136
 21
1.83276
 31
0.0
  0
LINE
  5
327
  8
0
 10
-0.252136
 20
1.83276
 30
0.0
 11
-0.258514
 21
1.8007
 31
0.0
  0
LINE
  5
328
  8
0
 10
-0.258514
 20
1.8007
 30
0.0
 11
-0.269028
 21
1.76973
 31
0.0
  0
LINE
  5
329
  8
0
 10
-0.269028
 20
1.76973
 30
0.0
 11
-0.283493
 21
1.7404
 31
0.0
  0
LINE
  5
32A
  8
0
 10
-0.283493
 20
1.7404
 30
0.0
 11
-0.301666
 21
1.71321
 31
0.0
  0
LINE
  5
32B
  8
0
 10
-0.301666
 20
1.71321
 30
0.0
 11
-0.323227
 21
1.68863
 31
0.0
  0
LINE
  5
32C
  8
0
 10
-0.323227
 20
1.68863
 30
0.0
 11
-0.347809
 21
1.66707
 31
0.0
  0
LINE
  5
32D
  8
0
 10
-0.347809
 20
1.66707
 30
0.0
 11
-0.375
 21
1.6489
 31
0.0
  0
LINE
  5
32E
  8
0
 10
-0.375
 20
1.6489
 30
0.0
 11
-0.404327
 21
1.63443
 31
0.0
  0
LINE
  5
32F
  8
0
 10
-0.404327
 20
1.63443
 30
0.0
 11
-0.435303
 21
1.62392
 31
0.0
  0
LINE
  5
330
  8
0
 10
-0.435303
 20
1.62392
 30
0.0
 11
-0.467361
 21
1.61754
 31
0.0
  0
LINE
  5
331
  8
0
 10
-0.467361
 20
1.61754
 30
0.0
 11
-0.5
 21
1.6154
 31
0.0
  0
LINE
  5
332
  8
0
 10
-0.5
 20
1.6154
 30
0.0
 11
-0.532639
 21
1.61754
 31
0.0
  0
LINE
  5
333
  8
0
 10
-3.13458
 20
0.25
 30
0.0
 11
-3.16722
 21
0.252136
 31
0.0
  0
LINE
  5
334
  8
0
 10
-3.16722
 20
0.252136
 30
0.0
 11
-3.19928
 21
0.258514
 31
0.0
  0
LINE
  5
335
  8
0
 10
-3.19928
 20
0.258514
 30
0.0
 11
-3.23026
 21
0.269028
 31
0.0
  0
LINE
  5
336
  8
0
 10
-3.23026
 20
0.269028
 30
0.0
 11
-3.25958
 21
0.283493
 31
0.0
  0
LINE
  5
337
  8
0
 10
-3.25958
 20
0.283493
 30
0.0
 11
-3.28677
 21
0.301666
 31
0.0
  0
LINE
  5
338
  8
0
 10
-3.28677
 20
0.301666
 30
0.0
 11
-3.31136
 21
0.323227
 31
0.0
  0
LINE
  5
339
  8
0
 10
-3.31136
 20
0.323227
 30
0.0
 11
-3.33292
 21
0.347809
 31
0.0
  0
LINE
  5
33A
  8
0
 10
-3.33292
 20
0.347809
 30
0.0
 11
-3.35109
 21
0.375
 31
0.0
  0
LINE
  5
33B
  8
0
 10
-3.35109
 20
0.375
 30
0.0
 11
-3.36555
 21
0.404327
 31
0.0
  0
LINE
  5
33C
  8
0
 10
-3.36555
 20
0.404327
 30
0.0
 11
-3.37607
 21
0.435303
 31
0.0
  0
LINE
  5
33D
  8
0
 10
-3.37607
 20
0.435303
 30
0.0
 11
-3.38245
 21
0.467361
 31
0.0
  0
LINE
  5
33E
  8
0
 10
-3.38245
 20
0.467361
 30
0.0
 11
-3.38458
 21
0.5
 31
0.0
  0
LINE
  5
33F
  8
0
 10
-3.38458
 20
0.5
 30
0.0
 11
-3.38245
 21
0.532639
 31
0.0
  0
LINE
  5
340
  8
0
 10
-3.38245
 20
0.532639
 30
0.0
 11
-3.37607
 21
0.564697
 31
0.0
  0
LINE
  5
341
  8
0
 10
-3.37607
 20
0.564697
 30
0.0
 11
-3.36555
 21
0.595673
 31
0.0
  0
LINE
  5
342
  8
0
 10
-3.36555
 20
0.595673
 30
0.0
 11
-3.35109
 21
0.625
 31
0.0
  0
LINE
  5
343
  8
0
 10
-3.35109
 20
0.625
 30
0.0
 11
-3.34689
 21
0.632263
 31
0.0
  0
LINE
  5
344
  8
0
 10
-3.34689
 20
0.632263
 30
0.0
 11
-3.31071
 21
0.705627
 31
0.0
  0
LINE
  5
345
  8
0
 10
-3.31071
 20
0.705627
 30
0.0
 11
-3.30453
 21
0.720551
 31
0.0
  0
LINE
  5
346
  8
0
 10
-3.30453
 20
0.720551
 30
0.0
 11
-3.29008
 21
0.749893
 31
0.0
  0
LINE
  5
347
  8
0
 10
-3.29008
 20
0.749893
 30
0.0
 11
-3.27193
 21
0.777084
 31
0.0
  0
LINE
  5
348
  8
0
 10
-3.27193
 20
0.777084
 30
0.0
 11
-3.25038
 21
0.801682
 31
0.0
  0
LINE
  5
349
  8
0
 10
-3.25038
 20
0.801682
 30
0.0
 11
-3.2258
 21
0.823257
 31
0.0
  0
LINE
  5
34A
  8
0
 10
-3.2258
 20
0.823257
 30
0.0
 11
-3.19862
 21
0.841446
 31
0.0
  0
LINE
  5
34B
  8
0
 10
-3.19862
 20
0.841446
 30
0.0
 11
-3.1693
 21
0.855927
 31
0.0
  0
LINE
  5
34C
  8
0
 10
-3.1693
 20
0.855927
 30
0.0
 11
-3.13834
 21
0.866455
 31
0.0
  0
LINE
  5
34D
  8
0
 10
-3.13834
 20
0.866455
 30
0.0
 11
-3.10628
 21
0.872849
 31
0.0
  0
LINE
  5
34E
  8
0
 10
-3.10628
 20
0.872849
 30
0.0
 11
-3.07352
 21
0.875
 31
0.0
  0
LINE
  5
34F
  8
0
 10
-3.07352
 20
0.875
 30
0.0
 11
-1.92647
 21
0.875
 31
0.0
  0
LINE
  5
350
  8
0
 10
-1.92647
 20
0.875
 30
0.0
 11
-1.89383
 21
0.872864
 31
0.0
  0
LINE
  5
351
  8
0
 10
-1.89383
 20
0.872864
 30
0.0
 11
-1.86177
 21
0.866486
 31
0.0
  0
LINE
  5
352
  8
0
 10
-1.86177
 20
0.866486
 30
0.0
 11
-1.8308
 21
0.855972
 31
0.0
  0
LINE
  5
353
  8
0
 10
-1.8308
 20
0.855972
 30
0.0
 11
-1.80147
 21
0.841507
 31
0.0
  0
LINE
  5
354
  8
0
 10
-1.80147
 20
0.841507
 30
0.0
 11
-1.77428
 21
0.823334
 31
0.0
  0
LINE
  5
355
  8
0
 10
-1.77428
 20
0.823334
 30
0.0
 11
-1.74969
 21
0.801773
 31
0.0
  0
LINE
  5
356
  8
0
 10
-1.74969
 20
0.801773
 30
0.0
 11
-1.72813
 21
0.777191
 31
0.0
  0
LINE
  5
357
  8
0
 10
-1.72813
 20
0.777191
 30
0.0
 11
-1.70996
 21
0.75
 31
0.0
  0
LINE
  5
358
  8
0
 10
-1.70996
 20
0.75
 30
0.0
 11
-1.69545
 21
0.720551
 31
0.0
  0
LINE
  5
359
  8
0
 10
-1.69545
 20
0.720551
 30
0.0
 11
-1.68927
 21
0.705627
 31
0.0
  0
LINE
  5
35A
  8
0
 10
-1.68927
 20
0.705627
 30
0.0
 11
-1.65309
 21
0.632263
 31
0.0
  0
LINE
  5
35B
  8
0
 10
-1.65309
 20
0.632263
 30
0.0
 11
-1.6489
 21
0.625
 31
0.0
  0
LINE
  5
35C
  8
0
 10
-1.6489
 20
0.625
 30
0.0
 11
-1.63443
 21
0.595673
 31
0.0
  0
LINE
  5
35D
  8
0
 10
-1.63443
 20
0.595673
 30
0.0
 11
-1.62392
 21
0.564697
 31
0.0
  0
LINE
  5
35E
  8
0
 10
-1.62392
 20
0.564697
 30
0.0
 11
-1.61754
 21
0.532623
 31
0.0
  0
LINE
  5
35F
  8
0
 10
-1.61754
 20
0.532623
 30
0.0
 11
-1.6154
 21
0.5
 31
0.0
  0
LINE
  5
360
  8
0
 10
-1.6154
 20
0.5
 30
0.0
 11
-1.61754
 21
0.467361
 31
0.0
  0
LINE
  5
361
  8
0
 10
-1.61754
 20
0.467361
 30
0.0
 11
-1.62392
 21
0.435287
 31
0.0
  0
LINE
  5
362
  8
0
 10
-1.62392
 20
0.435287
 30
0.0
 11
-1.63443
 21
0.404327
 31
0.0
  0
LINE
  5
363
  8
0
 10
-1.63443
 20
0.404327
 30
0.0
 11
-1.6489
 21
0.375
 31
0.0
  0
LINE
  5
364
  8
0
 10
-1.6489
 20
0.375
 30
0.0
 11
-1.66707
 21
0.347809
 31
0.0
  0
LINE
  5
365
  8
0
 10
-1.66707
 20
0.347809
 30
0.0
 11
-1.68863
 21
0.323227
 31
0.0
  0
LINE
  5
366
  8
0
 10
-1.68863
 20
0.323227
 30
0.0
 11
-1.71321
 21
0.301666
 31
0.0
  0
LINE
  5
367
  8
0
 10
-1.71321
 20
0.301666
 30
0.0
 11
-1.7404
 21
0.283493
 31
0.0
  0
LINE
  5
368
  8
0
 10
-1.7404
 20
0.283493
 30
0.0
 11
-1.76973
 21
0.269028
 31
0.0
  0
LINE
  5
369
  8
0
 10
-1.76973
 20
0.269028
 30
0.0
 11
-1.8007
 21
0.258514
 31
0.0
  0
LINE
  5
36A
  8
0
 10
-1.8007
 20
0.258514
 30
0.0
 11
-1.83278
 21
0.252136
 31
0.0
  0
LINE
  5
36B
  8
0
 10
-1.83278
 20
0.252136
 30
0.0
 11
-1.8654
 21
0.25
 31
0.0
  0
LINE
  5
36C
  8
0
 10
-1.8654
 20
0.25
 30
0.0
 11
-3.13458
 21
0.25
 31
0.0
  0
CIRCLE
  5
3A2
  8
0
 10
-3.999999999999999
 20
0.9999999999999998
 30
0.0
 40
0.5
  0
CIRCLE
  5
3A3
  8
0
 10
-3.999999999999999
 20
3.999999999999999
 30
0.0
 40
0.5000000000000001
  0
CIRCLE
  5
3A4
  8
0
 10
-0.9999999999999998
 20
0.9999999999999998
 30
0.0
 40
0.5
  0
CIRCLE
  5
3A5
  8
0
 10
-0.9999999999999998
 20
3.999999999999999
 30
0.0
 40
0.5
  0
CIRCLE
  5
3A6
  8
0
 10
-2.499999999999999
 20
2.499999999999999
 30
0.0
 40
1.0
  0
ENDSEC
  0
EOF
